<?xml version="1.0" encoding="utf-8"?>
<!-- Generator: Adobe Illustrator 26.0.1, SVG Export Plug-In . SVG Version: 6.00 Build 0)  -->
<svg version="1.1" xmlns="http://www.w3.org/2000/svg" xmlns:xlink="http://www.w3.org/1999/xlink" x="0px" y="0px"
	 viewBox="0 0 1000 500" style="enable-background:new 0 0 1000 500;" xml:space="preserve">
<style type="text/css">
	.st0{display:none;}
	.st1{display:inline;fill:#D4FFD8;}
	.st2{fill:#4A4B4C;stroke:#000000;stroke-width:5.4;stroke-miterlimit:10;}
	.st3{fill:#265039;stroke:#000000;stroke-width:3.6;stroke-miterlimit:10;}
</style>
<g id="Background" class="st0">
	<rect class="st1" width="1000" height="500"/>
</g>
<g id="Layer_1">
	<g id="Jesus-Fish">
		<g id="Jesus">
			<path id="esus" class="st2" d="M319.2,356.9c2.8,3.9,7.1,5.4,12.8,3.7c9.4-2.7,16.8-8.8,23.9-15.1c20-17.7,36-38.8,51.9-60
				c5.7-7.6,10.3-15.1,15.7-23.8c8.3-13.1,14-25.1,18.9-38.7c4.7-12.9,10.7-25.2,21.5-34.3c9-7.6,19.3-11.1,31.2-8.5
				c5.5,1.2,8,3.8,7.4,9.5c-1.4,14.5-9.3,30-20.8,33.7c-3.4,1.1-8.8,0.5-12.3-1.1c-5.9,10,9.2,34.5,20.4,46.6
				c14.4-9.5,27.5-20.6,39.5-32.9c1.1-1.1,1.9-2.8,2.3-4.4c7.1-24.2,19.4-45.8,33.7-66.5c3.5-5,6.7-5.4,11-0.9
				c8.1,8.5,11.1,19.2,11.8,30.5c0.1,1.5-1.3,3.3-2.4,4.7c-18.9,23.7-33.6,49.7-39.8,79.6c-1.8,8.6-1.3,17.8-0.6,26.7
				c0.3,3.8,2.8,7.9,5.5,10.9c4.1,4.7,11.8,4.1,17.2-0.8c9.8-8.8,15.6-20.2,21.2-31.8c9.9-20.7,15.2-39.2,23.7-63.2
				c8.1-23.4,15.1-47.9,24.3-70.9c0.7-1.7,4.7-3.3,6.9-3c8.4,1.3,20.5,17.3,20.1,25.9c-0.1,1.6-1.1,3.1-1.8,4.6
				c-9.7,20.2-20.3,40.1-29,60.7c-6.8,16.2-11.4,33.3-16.9,50c-0.4,1.1-0.5,2.3-0.6,3.4c0,0.6,0.2,2,0.6,3.1c3-2.1,5.3-4.2,6.3-5.3
				c12.4-12.7,23.6-30.6,34.3-46.6c11.6-17.3,22.4-35.1,32.6-53.2c5.1-9.1,7.7-15.8,10.3-25.3c5.7-14.3,12.6-27.7,26.4-35.9
				c7.9-4.7,16.4-6.6,25.6-4.2c5.5,1.4,7.6,3.9,7.2,9.6c-0.8,10.6-6.3,19.1-13.1,26.9c-1.1,1.2-2.4,2.3-3.6,3.5
				c-3.6,3.5-7,4.4-12.5,2.7c-1.5-0.5-2.7-0.7-5.1-1.1c-1.4,19.8,11.3,32.6,21.1,47.6c7.3-5.6,14.3-10.5,20.9-16
				c11.4-9.5,22.5-19.4,30.9-31.9c1.8-2.8,3.1-6.1,5.4-8.3c2-1.9,5.2-2.5,7.9-3.6c0.3,2.8,1.9,6.2,0.8,8.2
				c-4.4,7.8-8.5,16.1-14.6,22.4c-12.1,12.5-25.4,24-38.6,35.4c-3.5,3.1-4.1,4.8-1.8,8.9c18.2,32.6,3.2,66-27.8,81
				c-14.8,7.2-30.1,10.6-46.6,5.4c-17.9-5.6-26.8-26.6-18.2-43.3c5.9-11.5,16-18.6,26.5-25c9.8-6,19.9-11.5,28.9-16.7
				c-6.3-12-12.4-23.7-18.7-35.8c-3.8,6.4-8,13-11.8,19.9c-14.8,26.3-29.6,52.5-49.4,75.4c-6.6,7.7-14.4,14.3-21.6,21.4
				c-0.4,0.3-0.8,0.6-1.2,0.9c-10.9,7.5-17.9,4.5-19.8-8.6c-0.4-2.9-0.8-5.8-1.3-9.3c-4.1,6.9-7.4,13.3-11.6,19.2
				c-3.8,5.4-8,10.7-13,15c-10.9,9.2-25,7.6-34.3-3.2c-8.4-9.8-12.1-21.5-12.9-34c-0.7-10.7-0.1-21.5-0.1-31.7c-2,0-4.5,1.6-6.1,3
				c-6.8,5.7-13.5,11.3-20.7,17.4c3.4,5.5,6.7,11.9,8.5,18c7,23.8-1.6,47.3-22.2,61.8c-15.3,10.7-32.1,16.4-51,13.5
				c-12.3-1.9-21.8-7.3-25.8-19.9c-4.2-13.2-1.5-25,8.1-35.1c10.2-10.6,23.2-17.2,35.8-24.4c4.4-2.5,10.6-5.8,14.3-7.9
				c-8-11.8-14.2-22.5-20.1-34.7c-3.3,5.4-6.8,11.5-10.6,17.5c-19.7,31.6-41.7,61.4-69.6,86.6c-9.8,8.9-20.5,16.6-33.1,21.3
				c-10,3.7-20,4.5-29.3-1.8c-7.5-5-10.2-12.9-11.7-21.3c-2.6-14.2-1.1-28.3,2.8-42c11.4-39.8,29.2-75.3,63.5-98.6
				c4.5-3,13.3-5,20-2.7c15.4,6.8,25.9,25.1,19.4,48.4c-9.7,35.1-28.7,64.1-57.2,86.9C333.3,349.8,326.1,352.9,319.2,356.9z
				 M471.9,296.1c-11.1,7.1-22.6,13.9-33.4,21.5c-10.2,7.2-13.4,16.9-9.5,29.3c4.9,15.6,21.9,21.2,35.2,11
				C482.7,343.7,486.3,316.8,471.9,296.1z M728.4,239.6c-12.2,8-24.3,15.1-35.5,23.4c-6.7,4.9-10.4,12.1-8.9,21
				c1.4,8.8,4.2,16.9,13.3,20.8c9.1,4,17.3,1.7,24.8-4.2c7.3-5.8,11.4-13.6,13.8-22.5C739.6,264.4,736.8,252.2,728.4,239.6z
				 M314.2,344.1c0.5,0.3,1.1,0.7,1.6,1c4.7-4,9.9-7.6,14.1-12c15-15.6,25.8-33.9,33.7-53.8c2.7-6.9,3.9-14.4,5.2-21.7
				c0.7-3.6-1.4-4.9-4.8-2.8c-0.8,0.5-1.7,1.1-2.5,1.7c-26.3,19.5-40.8,45.9-46.5,77.5C314.4,337.3,314.4,340.7,314.2,344.1z"/>
			<path id="J" class="st2" d="M204,184c-28.4,4.5-55.7,5-80.8-9.6c-27.1-15.8-34.8-46.6-18.5-73.3c12.9-21.2,32.6-33.4,56.3-39.4
				c24.3-6.2,49.2-5.2,74-5.4c22.6-0.2,45.3-0.1,67.6-4.9c9.5-2.1,18.8-5.1,25.3-13.1c1.9-2.4,3.4-5.2,5.4-8.3
				c6.4,5.9,8,13.3,7.4,21.3c-1.1,13.6-9,22.5-20.8,28.4c-14.6,7.3-29.8,6.7-45.2,3.7c-2.3-0.4-4.6-0.7-7.1-1
				c2.9,10.2,6,19.7,8.3,29.5c5.7,24.8,7.3,50,7,75.4c-0.3,28.7-3.1,57.1-8.1,85.4c-7.5,41.8-19.7,82.1-39.4,119.9
				c-10.5,20.1-23.7,38.2-42.7,51.4c-16.9,11.7-35.1,15.5-54.5,6.6c-11.7-5.4-18.5-15.6-23.6-26.9c-11.2-24.6-12.7-50.8-11.6-77.3
				c1.5-36,8.5-71,21.6-104.6c3.1-8,7-15.7,10.9-24.2c14.9,12.7,27.9,25.5,33.8,43.5c0.6,1.9,0.5,4.9-0.7,6.4
				c-13.4,16.7-21.3,36.1-27.2,56.2c-6.4,22-10.6,44.4-10.1,67.4c0.2,10.5,1.4,21.3,4,31.5c5.3,20.4,21.2,25.4,38.7,13
				c9.5-6.7,16.2-15.7,22.1-25.4c15.3-25,24.7-52.3,30.9-80.7c4.9-22.6,9.3-45.3,12.2-68.2c4.6-36.2,5.2-72.7,1.5-109.1
				c-2-19.8-5-39.3-10.7-58.3c-0.7-2.4-1.6-4.7-2.4-7.1c-4.7-13.3-1.4-10.7-15.4-11.1c-22.7-0.6-44.8,2.3-65.7,11.8
				c-9.8,4.5-18.7,10.3-25.7,18.6c-16.2,19.2-7.4,44,17.2,49.6c13.2,3,25.9,1.2,38.7-1.6c1.6-0.4,4.1-0.6,5,0.3
				C190.4,163,198.3,172.2,204,184z"/>
		</g>
		<g id="Fish">
			<path id="Fish-6" class="st3" d="M748.5,200.1c-6.3-7.9-12.1-16.1-13.8-22.8c6.8,0.9,15.6-5.9,27.5-21.9
				c6.4,5.1,12.1,9.9,19.3,15.5C770.3,183,762.2,190.4,748.5,200.1z"/>
			<path id="Fish-5" class="st3" d="M154.6,314.4c13.8,9.4,27,18.5,40.2,27.4c4.3,2.9,8.7,5.6,13.2,8.2c2.4,1.4,3.2,2.9,2.1,5.6
				c-6.5,19-10,26.9-17.4,41.8c-1.6,3.2-3.2,4.1-6.5,1.9c-13.8-9.1-27.8-17.9-41.6-27c-1.2-0.8-2.4-3-2.2-4.4
				C144.4,349.9,148.1,332.1,154.6,314.4z"/>
			<path id="Fish-4" class="st3" d="M129.5,141.7c28.3-20.8,57-39,88.2-55c2.3,7.7,4.6,14.6,6.3,21.7c2.1,9.2,3.6,18.6,5.6,27.9
				c0.7,3.1-0.3,4.8-3.1,6.4c-8.3,4.7-16.5,9.5-24.6,14.5c-2.2,1.3-3.3,1.4-5-0.6c-2.4-3-5.2-5.6-7.8-8.5c-3.8-4.2-8.1-5.1-13.6-3.6
				c-12.4,3.4-24.9,5.3-37.6,1.2c-1.3-0.4-2.5-0.9-3.7-1.4C132.9,143.6,131.7,142.9,129.5,141.7z"/>
			<path id="Fish-3" class="st3" d="M94.1,333.2c-9.5-7.6-18.2-14.4-26.1-22.1c-15.2-14.7-50.7-52.7-50.7-61.1
				c0-6.9,6.4-13.4,16.9-25c20.3-22,38.3-37,60.4-56.1c1.1-1,2.4-1.8,2.8-2.1c8.1,6,15.3,12.6,23.6,17.2c8.2,4.5,17.5,7.1,25.9,10.4
				c-21,18.4-42.5,37.2-64.2,56.2c6.2,6.3,11.3,11.4,16.9,17c3.4,3.1,4.6,5.9,3.6,10.7C97.6,300.4,96,313.3,94.1,333.2z"/>
			<path id="Fish-2" class="st3" d="M286.2,113.6c-1.5-6.3-3-12.4-4.7-19.2c2.8,0.2,5.1,0.4,7.4,0.5c20.3,0.8,38.6-3.8,52.3-20
				c7.4-8.8,10.5-19.2,9.2-30.7c-0.3-3,0.3-4.1,3.3-4.6c35.9-6.2,71.9-7.3,108.2-4.4c29,2.3,57.7,6.3,85.6,14
				c24.1,6.6,48,14.6,71.4,23.4c33.5,12.7,67.3,30.6,97.4,49.9c0.7,0.4-8.9,7.1-15.4,17.8c-5,8.1-9.1,17.8-13.3,27.9
				c-8.1-4.9-16.5-8.9-23.1-17.3c-6.7-8.9-15.5-15.6-28.2-13.1c-1.3,0.3-2.9-0.5-4.2-1.1c-37.1-18.5-76-32.1-116.6-40.6
				C481,88.9,446.2,85.5,411,86.6c-31.8,1-62.9,6.6-93.2,16.3C307.5,106.3,297.2,109.9,286.2,113.6z"/>
			<path id="Fish-1" class="st3" d="M274.7,442.1c-15.1-5.7-29.7-11.7-45.9-19c11.4-16.4,18-29.2,26.2-47c7,3.1,14.6,6.4,22.2,9.7
				c25.9,11.2,52.6,19.5,80.3,25.1c24.4,4.9,49.1,6.3,74,6c41.5-0.6,82.1-7.1,121.8-18.8c46.8-13.8,90.5-34.5,131.5-60.7
				c4.6-3,9.5-6,14.5-8.3c2.9-1.3,8.8-1.2,12.6-2.1c30.6-7.2,52.9-24.8,61.6-53.4c0.7-2.4,1.4-5,3.1-6.9c4.7-5.1,9.6-10.1,14.8-15.5
				c-6.3-5.9-12.8-12.1-19.4-18.1c-6.2-5.6-6.1-6,0.2-11.6c10.2-9.1,20.2-18.3,30.1-27.8c2.3-2.2,3.5-2.4,5.7-0.3
				c5.6,5.4,11.5,10.7,17.2,16c1.3,1.2,2.7,2.4,4.3,3.8c39.6-43.3,73.9-90.1,106.2-139c14.9,9.8,29.4,19.4,44.5,29.3
				c-7.9,11.8-23.6,34.8-26.4,38.9c-26.9,38.3-55.4,74.6-87.1,109.4c42,46.1,79,95.8,113.4,148.3c-14.7,9.7-29.3,19.3-44.4,29.3
				c-32.2-48.7-66.6-95.6-106.2-139C822,297,815,303.4,808,309.8c-43,38.9-89.6,72.5-141.2,99.3c-38.4,20-78.5,35.4-120.6,45.9
				c-45.9,11.4-92.6,16.5-140,14.8c-32.9-1.2-65.3-6.4-96.8-16.3C304,451.7,281.9,444.8,274.7,442.1z"/>
		</g>
	</g>
</g>
</svg>
