<svg version="1.1" id="el_DS3MLOFDcD" xmlns="http://www.w3.org/2000/svg" xmlns:xlink="http://www.w3.org/1999/xlink" x="0px" y="0px" width="600" height="600" viewBox="0 0 600 600" enable-background="new 0 0 640 640" xml:space="preserve"><style>@-webkit-keyframes el_876VEo_KGq_XBBfPM1BH_Animation{0%{-webkit-transform: translate(320.00937271118164px, 319.99291229248047px) rotate(0deg) translate(-320.00937271118164px, -319.99291229248047px);transform: translate(320.00937271118164px, 319.99291229248047px) rotate(0deg) translate(-320.00937271118164px, -319.99291229248047px);}23.33%{-webkit-transform: translate(320.00937271118164px, 319.99291229248047px) rotate(30deg) translate(-320.00937271118164px, -319.99291229248047px);transform: translate(320.00937271118164px, 319.99291229248047px) rotate(30deg) translate(-320.00937271118164px, -319.99291229248047px);}50%{-webkit-transform: translate(320.00937271118164px, 319.99291229248047px) rotate(-30deg) translate(-320.00937271118164px, -319.99291229248047px);transform: translate(320.00937271118164px, 319.99291229248047px) rotate(-30deg) translate(-320.00937271118164px, -319.99291229248047px);}76.67%{-webkit-transform: translate(320.00937271118164px, 319.99291229248047px) rotate(30deg) translate(-320.00937271118164px, -319.99291229248047px);transform: translate(320.00937271118164px, 319.99291229248047px) rotate(30deg) translate(-320.00937271118164px, -319.99291229248047px);}100%{-webkit-transform: translate(320.00937271118164px, 319.99291229248047px) rotate(0deg) translate(-320.00937271118164px, -319.99291229248047px);transform: translate(320.00937271118164px, 319.99291229248047px) rotate(0deg) translate(-320.00937271118164px, -319.99291229248047px);}}@keyframes el_876VEo_KGq_XBBfPM1BH_Animation{0%{-webkit-transform: translate(320.00937271118164px, 319.99291229248047px) rotate(0deg) translate(-320.00937271118164px, -319.99291229248047px);transform: translate(320.00937271118164px, 319.99291229248047px) rotate(0deg) translate(-320.00937271118164px, -319.99291229248047px);}23.33%{-webkit-transform: translate(320.00937271118164px, 319.99291229248047px) rotate(30deg) translate(-320.00937271118164px, -319.99291229248047px);transform: translate(320.00937271118164px, 319.99291229248047px) rotate(30deg) translate(-320.00937271118164px, -319.99291229248047px);}50%{-webkit-transform: translate(320.00937271118164px, 319.99291229248047px) rotate(-30deg) translate(-320.00937271118164px, -319.99291229248047px);transform: translate(320.00937271118164px, 319.99291229248047px) rotate(-30deg) translate(-320.00937271118164px, -319.99291229248047px);}76.67%{-webkit-transform: translate(320.00937271118164px, 319.99291229248047px) rotate(30deg) translate(-320.00937271118164px, -319.99291229248047px);transform: translate(320.00937271118164px, 319.99291229248047px) rotate(30deg) translate(-320.00937271118164px, -319.99291229248047px);}100%{-webkit-transform: translate(320.00937271118164px, 319.99291229248047px) rotate(0deg) translate(-320.00937271118164px, -319.99291229248047px);transform: translate(320.00937271118164px, 319.99291229248047px) rotate(0deg) translate(-320.00937271118164px, -319.99291229248047px);}}@-webkit-keyframes el_876VEo_KGq_p_QgcmWrN_Animation{0%{-webkit-transform: translate(320.00937271118164px, 319.99291229248047px) scale(0.8, 0.8) translate(-320.00937271118164px, -319.99291229248047px);transform: translate(320.00937271118164px, 319.99291229248047px) scale(0.8, 0.8) translate(-320.00937271118164px, -319.99291229248047px);}100%{-webkit-transform: translate(320.00937271118164px, 319.99291229248047px) scale(0.8, 0.8) translate(-320.00937271118164px, -319.99291229248047px);transform: translate(320.00937271118164px, 319.99291229248047px) scale(0.8, 0.8) translate(-320.00937271118164px, -319.99291229248047px);}}@keyframes el_876VEo_KGq_p_QgcmWrN_Animation{0%{-webkit-transform: translate(320.00937271118164px, 319.99291229248047px) scale(0.8, 0.8) translate(-320.00937271118164px, -319.99291229248047px);transform: translate(320.00937271118164px, 319.99291229248047px) scale(0.8, 0.8) translate(-320.00937271118164px, -319.99291229248047px);}100%{-webkit-transform: translate(320.00937271118164px, 319.99291229248047px) scale(0.8, 0.8) translate(-320.00937271118164px, -319.99291229248047px);transform: translate(320.00937271118164px, 319.99291229248047px) scale(0.8, 0.8) translate(-320.00937271118164px, -319.99291229248047px);}}#el_DS3MLOFDcD *{-webkit-animation-duration: 3s;animation-duration: 3s;-webkit-animation-iteration-count: infinite;animation-iteration-count: infinite;-webkit-animation-timing-function: cubic-bezier(0, 0, 1, 1);animation-timing-function: cubic-bezier(0, 0, 1, 1);}#el_0AYcfVc8o5{fill: #BA3100;}#el_i65pPro3zV{fill: url(#SVGID_1_);}#el_tZlihkaeCto{fill: url(#SVGID_2_);}#el_MXstuxsfHeQ{fill: #BA3100;}#el_mwHBEjxciha{fill: #361B09;}#el_876VEo_KGq_p_QgcmWrN{-webkit-animation-name: el_876VEo_KGq_p_QgcmWrN_Animation;animation-name: el_876VEo_KGq_p_QgcmWrN_Animation;}#el_876VEo_KGq_XBBfPM1BH{-webkit-animation-name: el_876VEo_KGq_XBBfPM1BH_Animation;animation-name: el_876VEo_KGq_XBBfPM1BH_Animation;-webkit-animation-timing-function: cubic-bezier(0.42, 0, 0.58, 1);animation-timing-function: cubic-bezier(0.42, 0, 0.58, 1);}</style>
<g id="el_876VEo_KGq_XBBfPM1BH" data-animator-group="true" data-animator-type="1"><g id="el_876VEo_KGq_p_QgcmWrN" data-animator-group="true" data-animator-type="2"><g id="el_876VEo_KGq">
	<g id="el_xNMD-0pHT8">
		<path d="M492.91,202.614c-3.397-56.958-7.597-113.869-12.559-170.708c-20.147,15.029-40.287,30.061-60.434,45.09&#10;&#9;&#9;&#9;c-5.816,4.343-12.715,8.931-19.776,7.207c-5.237-1.28-9.006-5.742-12.388-9.948C370.552,52.835,353.342,31.419,336.132,10&#10;&#9;&#9;&#9;c-12.469,57.463-54.188,108.387-52.377,167.159c0.23,7.574-0.267,17.454-7.537,19.613c-2.492,0.742-5.178,0.237-7.678-0.479&#10;&#9;&#9;&#9;c-18.715-5.382-32-21.831-42.141-38.458c-10.133-16.631-18.774-34.768-33.447-47.575c-10.496,8.438-2.092,27.761-11.327,37.564&#10;&#9;&#9;&#9;c-4.829,5.133-12.759,5.616-19.784,4.981c-34.412-3.108-67.036-24.498-101.132-18.901c14.342,20.603,28.689,41.21,43.035,61.813&#10;&#9;&#9;&#9;c4.577,6.587,9.383,13.949,8.53,21.927c-0.69,6.442-4.948,11.861-9.035,16.891c-7.081,8.697-14.161,17.398-21.238,26.1&#10;&#9;&#9;&#9;c-1.802,2.214-3.72,4.921-2.963,7.674c1.124,4.094,6.661,4.473,10.904,4.373c41.641-1.001,75.169,32.224,103.239,62.997&#10;&#9;&#9;&#9;c3.939,4.303,8.152,9.45,7.358,15.236c-0.831,5.972-6.58,9.792-11.72,12.944c-43.877,26.905-82.658,62.103-113.676,103.176&#10;&#9;&#9;&#9;c-1.012,1.35-2.073,3.012-1.487,4.584c0.56,1.514,2.326,2.106,3.88,2.522c35.369,9.287,71.828,14.457,108.39,15.354&#10;&#9;&#9;&#9;c3.353,0.09,7.21,0.386,9.154,3.108c2.122,2.968,0.779,7.063-0.638,10.422c-6.825,16.246-13.649,32.483-20.481,48.736&#10;&#9;&#9;&#9;c31.875-2.5,58.98-23.619,89.438-33.336c2.76-0.891,5.793-1.669,8.516-0.653c5.081,1.885,6.105,8.538,6.038,13.961&#10;&#9;&#9;&#9;c-0.4,35.108-12.091,70.003-32.928,98.265c50.316-13.3,99.645-34.285,138.515-68.897c38.862-34.619,66.331-84.23,66.257-136.274&#10;&#9;&#9;&#9;l3.057-2.433c50.396-8.976,96.833-38.425,126.438-80.195c-16.066-5.052-32.957-7.455-49.796-7.062&#10;&#9;&#9;&#9;c20.458-64.959,31.036-133.015,31.251-201.115c-23.44,18.949-48.713,42.746-65.321,67.9L492.91,202.614z" id="el_0AYcfVc8o5"/>
	</g>
	<g id="el_NL2jBTOmYO">
		<linearGradient id="SVGID_1_" gradientUnits="userSpaceOnUse" x1="60.709" y1="320" x2="579.291" y2="320">
			<stop offset="0" style="stop-color:#BA3100"/>
			<stop offset="0.1137" style="stop-color:#BC3401;stop-opacity:0.8863"/>
			<stop offset="0.2118" style="stop-color:#C33F04;stop-opacity:0.7882"/>
			<stop offset="0.3041" style="stop-color:#CE510A;stop-opacity:0.6959"/>
			<stop offset="0.3929" style="stop-color:#DD6A11;stop-opacity:0.6071"/>
			<stop offset="0.4784" style="stop-color:#F18A1B;stop-opacity:0.5216"/>
			<stop offset="0.5" style="stop-color:#F7931E;stop-opacity:0.5"/>
			<stop offset="0.5138" style="stop-color:#F38D1C;stop-opacity:0.5138"/>
			<stop offset="0.604" style="stop-color:#DF6C12;stop-opacity:0.604"/>
			<stop offset="0.6967" style="stop-color:#CF520A;stop-opacity:0.6967"/>
			<stop offset="0.7919" style="stop-color:#C34004;stop-opacity:0.7919"/>
			<stop offset="0.8909" style="stop-color:#BC3501;stop-opacity:0.8909"/>
			<stop offset="1" style="stop-color:#BA3100"/>
		</linearGradient>
		<path d="M492.91,202.614c-3.397-56.958-7.597-113.869-12.559-170.708&#10;&#9;&#9;&#9;c-20.147,15.029-40.287,30.061-60.434,45.09c-5.816,4.343-12.715,8.931-19.776,7.207c-5.237-1.28-9.006-5.742-12.388-9.948&#10;&#9;&#9;&#9;C370.552,52.835,353.342,31.419,336.132,10c-12.469,57.463-54.188,108.387-52.377,167.159c0.23,7.574-0.267,17.454-7.537,19.613&#10;&#9;&#9;&#9;c-2.492,0.742-5.178,0.237-7.678-0.479c-18.715-5.382-32-21.831-42.141-38.458c-10.133-16.631-18.774-34.768-33.447-47.575&#10;&#9;&#9;&#9;c-10.496,8.438-2.092,27.761-11.327,37.564c-4.829,5.133-12.759,5.616-19.784,4.981c-34.412-3.108-67.036-24.498-101.132-18.901&#10;&#9;&#9;&#9;c14.342,20.603,28.689,41.21,43.035,61.813c4.577,6.587,9.383,13.949,8.53,21.927c-0.69,6.442-4.948,11.861-9.035,16.891&#10;&#9;&#9;&#9;c-7.081,8.697-14.161,17.398-21.238,26.1c-1.802,2.214-3.72,4.921-2.963,7.674c1.124,4.094,6.661,4.473,10.904,4.373&#10;&#9;&#9;&#9;c41.641-1.001,75.169,32.224,103.239,62.997c3.939,4.303,8.152,9.45,7.358,15.236c-0.831,5.972-6.58,9.792-11.72,12.944&#10;&#9;&#9;&#9;c-43.877,26.905-82.658,62.103-113.676,103.176c-1.012,1.35-2.073,3.012-1.487,4.584c0.56,1.514,2.326,2.106,3.88,2.522&#10;&#9;&#9;&#9;c35.369,9.287,71.828,14.457,108.39,15.354c3.353,0.09,7.21,0.386,9.154,3.108c2.122,2.968,0.779,7.063-0.638,10.422&#10;&#9;&#9;&#9;c-6.825,16.246-13.649,32.483-20.481,48.736c31.875-2.5,58.98-23.619,89.438-33.336c2.76-0.891,5.793-1.669,8.516-0.653&#10;&#9;&#9;&#9;c5.081,1.885,6.105,8.538,6.038,13.961c-0.4,35.108-12.091,70.003-32.928,98.265c50.316-13.3,99.645-34.285,138.515-68.897&#10;&#9;&#9;&#9;c38.862-34.619,66.331-84.23,66.257-136.274l3.057-2.433c50.396-8.976,96.833-38.425,126.438-80.195&#10;&#9;&#9;&#9;c-16.066-5.052-32.957-7.455-49.796-7.062c20.458-64.959,31.036-133.015,31.251-201.115c-23.44,18.949-48.713,42.746-65.321,67.9&#10;&#9;&#9;&#9;L492.91,202.614z" id="el_i65pPro3zV"/>
	</g>
	<g id="el_oerR5_9l1yw">
		<linearGradient id="SVGID_2_" gradientUnits="userSpaceOnUse" x1="252.3623" y1="171.9556" x2="449.8409" y2="570.5845">
			<stop offset="0" style="stop-color:#BA3100"/>
			<stop offset="0.1137" style="stop-color:#BC3401;stop-opacity:0.8863"/>
			<stop offset="0.2118" style="stop-color:#C33F04;stop-opacity:0.7882"/>
			<stop offset="0.3041" style="stop-color:#CE510A;stop-opacity:0.6959"/>
			<stop offset="0.3929" style="stop-color:#DD6A11;stop-opacity:0.6071"/>
			<stop offset="0.4784" style="stop-color:#F18A1B;stop-opacity:0.5216"/>
			<stop offset="0.5" style="stop-color:#F7931E;stop-opacity:0.5"/>
			<stop offset="0.5138" style="stop-color:#F38D1C;stop-opacity:0.5138"/>
			<stop offset="0.604" style="stop-color:#DF6C12;stop-opacity:0.604"/>
			<stop offset="0.6967" style="stop-color:#CF520A;stop-opacity:0.6967"/>
			<stop offset="0.7919" style="stop-color:#C34004;stop-opacity:0.7919"/>
			<stop offset="0.8909" style="stop-color:#BC3501;stop-opacity:0.8909"/>
			<stop offset="1" style="stop-color:#BA3100"/>
		</linearGradient>
		<path d="M492.91,202.614c-3.397-56.958-7.597-113.869-12.559-170.708&#10;&#9;&#9;&#9;c-20.147,15.029-40.287,30.061-60.434,45.09c-5.816,4.343-12.715,8.931-19.776,7.207c-5.237-1.28-9.006-5.742-12.388-9.948&#10;&#9;&#9;&#9;C370.552,52.835,353.342,31.419,336.132,10c-12.469,57.463-54.188,108.387-52.377,167.159c0.23,7.574-0.267,17.454-7.537,19.613&#10;&#9;&#9;&#9;c-2.492,0.742-5.178,0.237-7.678-0.479c-18.715-5.382-32-21.831-42.141-38.458c-10.133-16.631-18.774-34.768-33.447-47.575&#10;&#9;&#9;&#9;c-10.496,8.438-2.092,27.761-11.327,37.564c-4.829,5.133-12.759,5.616-19.784,4.981c-34.412-3.108-67.036-24.498-101.132-18.901&#10;&#9;&#9;&#9;c14.342,20.603,28.689,41.21,43.035,61.813c4.577,6.587,9.383,13.949,8.53,21.927c-0.69,6.442-4.948,11.861-9.035,16.891&#10;&#9;&#9;&#9;c-7.081,8.697-14.161,17.398-21.238,26.1c-1.802,2.214-3.72,4.921-2.963,7.674c1.124,4.094,6.661,4.473,10.904,4.373&#10;&#9;&#9;&#9;c41.641-1.001,75.169,32.224,103.239,62.997c3.939,4.303,8.152,9.45,7.358,15.236c-0.831,5.972-6.58,9.792-11.72,12.944&#10;&#9;&#9;&#9;c-43.877,26.905-82.658,62.103-113.676,103.176c-1.012,1.35-2.073,3.012-1.487,4.584c0.56,1.514,2.326,2.106,3.88,2.522&#10;&#9;&#9;&#9;c35.369,9.287,71.828,14.457,108.39,15.354c3.353,0.09,7.21,0.386,9.154,3.108c2.122,2.968,0.779,7.063-0.638,10.422&#10;&#9;&#9;&#9;c-6.825,16.246-13.649,32.483-20.481,48.736c31.875-2.5,58.98-23.619,89.438-33.336c2.76-0.891,5.793-1.669,8.516-0.653&#10;&#9;&#9;&#9;c5.081,1.885,6.105,8.538,6.038,13.961c-0.4,35.108-12.091,70.003-32.928,98.265c50.316-13.3,99.645-34.285,138.515-68.897&#10;&#9;&#9;&#9;c38.862-34.619,66.331-84.23,66.257-136.274l3.057-2.433c50.396-8.976,96.833-38.425,126.438-80.195&#10;&#9;&#9;&#9;c-16.066-5.052-32.957-7.455-49.796-7.062c20.458-64.959,31.036-133.015,31.251-201.115c-23.44,18.949-48.713,42.746-65.321,67.9&#10;&#9;&#9;&#9;L492.91,202.614z" id="el_tZlihkaeCto"/>
		<g id="el_sYfG6AdKsrz">
			<path d="M494.41,202.614c-3.406-56.958-7.605-113.865-12.559-170.708c-0.087-1.001-1.257-2.042-2.257-1.295&#10;&#9;&#9;&#9;&#9;c-12.724,9.492-25.446,18.985-38.169,28.478c-6.361,4.747-12.723,9.493-19.084,14.239c-6.774,5.054-15.154,12.445-24.161,8.586&#10;&#9;&#9;&#9;&#9;c-6.01-2.575-10.358-9.957-14.281-14.84c-5.325-6.63-10.65-13.259-15.977-19.888c-10.243-12.749-20.487-25.498-30.73-38.246&#10;&#9;&#9;&#9;&#9;c-0.704-0.876-2.278-0.37-2.507,0.662c-11.521,51.927-45.605,96.597-51.724,149.99c-0.715,6.242-0.83,12.507-0.678,18.782&#10;&#9;&#9;&#9;&#9;c0.13,5.389,0.1,12.7-4.746,16.178c-5.454,3.914-15.885-2.247-20.655-5.094c-6.024-3.595-11.16-8.539-15.804-13.745&#10;&#9;&#9;&#9;&#9;c-18.224-20.429-26.361-48.013-47.066-66.512c-0.639-0.571-1.481-0.564-2.121,0c-8.08,7.126-5.866,18.926-7.352,28.495&#10;&#9;&#9;&#9;&#9;c-2.845,18.325-24.415,14.045-37.425,11.241c-28.876-6.224-56.501-21.064-86.804-16.477c-0.924,0.14-1.41,1.466-0.896,2.203&#10;&#9;&#9;&#9;&#9;c9.437,13.556,18.874,27.112,28.312,40.667c4.53,6.507,9.061,13.014,13.591,19.52c4.943,7.1,10.676,14.834,9.267,23.988&#10;&#9;&#9;&#9;&#9;c-1.138,7.396-7.645,13.705-12.153,19.244c-5.415,6.652-10.828,13.306-16.241,19.96c-2.75,3.382-6.027,7.103-4.186,11.696&#10;&#9;&#9;&#9;&#9;c1.453,3.625,6.179,4.222,9.53,4.435c6.346,0.401,12.417,0.218,18.733,1.392c6.79,1.262,13.371,3.57,19.661,6.385&#10;&#9;&#9;&#9;&#9;c12.227,5.472,23.229,13.47,33.389,22.108c10.171,8.647,19.482,18.278,28.552,28.055c4.911,5.294,12.604,11.717,10.948,19.747&#10;&#9;&#9;&#9;&#9;c-1.418,6.878-11.205,10.942-16.511,14.304c-23.044,14.596-44.54,31.619-64.275,50.434c-9.826,9.368-19.131,19.274-27.988,29.56&#10;&#9;&#9;&#9;&#9;c-4.429,5.144-8.698,10.422-12.867,15.778c-2.143,2.753-7.629,8.05-3.956,11.723c1.498,1.498,3.827,1.91,5.78,2.419&#10;&#9;&#9;&#9;&#9;c3.725,0.97,7.468,1.871,11.215,2.75c7.497,1.757,15.045,3.285,22.618,4.674c15.279,2.803,30.709,4.767,46.186,6.066&#10;&#9;&#9;&#9;&#9;c7.673,0.645,15.364,1.055,23.059,1.322c3.493,0.122,7.239-0.194,10.466,1.393c4.935,2.426,0.188,10.978-1.065,13.959&#10;&#9;&#9;&#9;&#9;c-6.32,15.043-12.642,30.085-18.964,45.127c-0.363,0.863,0.55,1.978,1.446,1.898c16.826-1.491,32.36-7.76,47.514-14.874&#10;&#9;&#9;&#9;&#9;c8.06-3.783,16.016-7.78,24.135-11.438c4.428-1.994,8.926-3.817,13.487-5.482c6.102-2.228,13.763-5.058,16.514,2.959&#10;&#9;&#9;&#9;&#9;c2.625,7.651,0.508,18.122-0.425,25.938c-1.126,9.424-3.233,18.725-5.933,27.814c-5.449,18.351-14.258,35.615-25.524,51.063&#10;&#9;&#9;&#9;&#9;c-0.813,1.114,0.52,2.516,1.694,2.203c53.406-14.209,105.968-36.954,146.182-75.808c18.862-18.224,34.335-40.068,45.039-64.013&#10;&#9;&#9;&#9;&#9;c5.228-11.691,9.11-23.948,11.652-36.494c1.179-5.813,1.95-11.708,2.476-17.613c0.281-3.162,0.413-6.335,0.494-9.507&#10;&#9;&#9;&#9;&#9;c0.029-1.164-0.463-2.08,0.383-2.754c1.18-0.938,1.682-1.431,3.128-1.694c50.318-9.175,96.153-39.128,125.808-80.606&#10;&#9;&#9;&#9;&#9;c0.585-0.817-0.039-1.939-0.896-2.203c-16.296-5.016-33.146-7.409-50.194-7.115c0.482,0.633,0.964,1.266,1.446,1.898&#10;&#9;&#9;&#9;&#9;c20.425-65.177,30.992-133.211,31.305-201.513c0.007-1.413-1.593-1.846-2.561-1.061c-13.192,10.7-25.881,21.999-37.725,34.183&#10;&#9;&#9;&#9;&#9;c-5.764,5.929-11.247,12.125-16.457,18.543c-2.259,2.783-4.424,5.641-6.546,8.528c-1.986,2.701-3.188,6.056-6.446,6.95&#10;&#9;&#9;&#9;&#9;c-1.863,0.511-1.071,3.405,0.797,2.893c1.054-0.289,2.743-0.377,3.411-1.379c2.771-4.153,5.687-8.195,8.743-12.144&#10;&#9;&#9;&#9;&#9;c5.406-6.983,11.299-13.583,17.38-19.98c12.108-12.737,25.324-24.409,38.964-35.472c-0.854-0.354-1.707-0.707-2.561-1.061&#10;&#9;&#9;&#9;&#9;c-0.312,68.051-10.848,135.779-31.197,200.716c-0.29,0.925,0.494,1.915,1.446,1.898c16.793-0.289,33.346,2.068,49.397,7.008&#10;&#9;&#9;&#9;&#9;c-0.299-0.734-0.598-1.469-0.896-2.203c-15.543,21.739-35.41,39.946-58.178,53.902c-11.35,6.957-23.447,12.658-35.95,17.206&#10;&#9;&#9;&#9;&#9;c-5.828,2.119-11.776,3.894-17.776,5.448c-3.002,0.777-6.031,1.446-9.066,2.077c-2.206,0.458-4.252,0.478-6.025,1.889&#10;&#9;&#9;&#9;&#9;c-0.781,0.621-2.358,1.404-2.649,2.464c-0.669,2.431-0.137,5.804-0.255,8.344c-0.339,7.244-1.321,14.443-2.69,21.561&#10;&#9;&#9;&#9;&#9;c-2.569,13.354-7.011,26.324-12.66,38.676c-11.266,24.631-28.064,46.558-47.9,64.894c-38.974,36.026-89.526,57.164-140.218,70.65&#10;&#9;&#9;&#9;&#9;c0.565,0.734,1.129,1.469,1.694,2.203c11.803-16.185,20.61-34.212,26.31-53.407c2.78-9.362,4.6-18.98,5.757-28.67&#10;&#9;&#9;&#9;&#9;c0.952-7.966,2.997-18.955-0.443-26.595c-3.615-8.028-11.064-6.442-18.083-4.059c-9.049,3.072-17.748,7.154-26.358,11.271&#10;&#9;&#9;&#9;&#9;c-19.045,9.106-38.167,19.072-59.542,20.967c0.482,0.633,0.964,1.266,1.446,1.898c6.323-15.041,12.645-30.083,18.964-45.126&#10;&#9;&#9;&#9;&#9;c2.092-4.979,4.747-10.005,2.003-15.188c-2.144-4.049-8.608-3.803-12.374-3.902c-32.588-0.867-65.038-5.335-96.735-12.901&#10;&#9;&#9;&#9;&#9;c-3.705-0.884-7.786-1.52-11.287-3.047c-2.832-1.236,5.716-11.009,6.459-11.948c4.564-5.766,9.318-11.378,14.184-16.89&#10;&#9;&#9;&#9;&#9;c9.359-10.602,19.325-20.66,29.716-30.248c10.715-9.886,22.004-19.144,33.707-27.835c11.087-8.234,23.081-15.055,34.287-23.064&#10;&#9;&#9;&#9;&#9;c3.759-2.687,6.705-6.104,7.652-10.698c1.102-5.343-2.45-10.377-5.6-14.266c-8.303-10.251-18.139-19.721-27.771-28.708&#10;&#9;&#9;&#9;&#9;c-18.167-16.95-39.534-32.04-64.524-36.195c-5.515-0.917-10.995-0.86-16.557-0.975c-1.73-0.036-3.436-0.33-5.036-1.007&#10;&#9;&#9;&#9;&#9;c-4.573-1.936-0.905-6.59,0.564-8.466c2.847-3.633,5.831-7.168,8.744-10.749c4.85-5.961,9.763-11.877,14.535-17.901&#10;&#9;&#9;&#9;&#9;c3.44-4.344,7.102-9.659,7.434-15.401c0.813-14.052-11.439-26.567-18.928-37.324c-9.438-13.555-18.875-27.111-28.313-40.667&#10;&#9;&#9;&#9;&#9;c-1.51-2.168-3.02-4.337-4.529-6.506c-0.299,0.734-0.598,1.469-0.896,2.203c32.356-4.898,62.386,12.991,93.587,18.066&#10;&#9;&#9;&#9;&#9;c10.933,1.779,25.005,2.725,30.871-8.784c5.244-10.289-0.956-25.02,8.447-33.313c-0.707,0-1.414,0-2.121,0&#10;&#9;&#9;&#9;&#9;c20.608,18.413,29.219,45.847,47.066,66.512c7.841,9.079,17.639,16.382,29.184,19.907c10.302,3.146,15.755-3.49,16.923-13.031&#10;&#9;&#9;&#9;&#9;c0.693-5.66,0.04-11.494,0.274-17.186c0.301-7.271,1.369-14.488,2.813-21.612c2.65-13.077,7.057-25.754,11.944-38.143&#10;&#9;&#9;&#9;&#9;c10.008-25.372,22.622-49.649,31.385-75.52c2.428-7.167,4.459-14.461,6.098-21.848c-0.836,0.221-1.671,0.441-2.507,0.662&#10;&#9;&#9;&#9;&#9;c11.063,13.769,22.126,27.537,33.188,41.306c5.326,6.629,10.651,13.258,15.976,19.888c3.788,4.715,7.977,11.093,14.114,12.968&#10;&#9;&#9;&#9;&#9;c6.008,1.835,11.411-0.008,16.676-3.045c7.616-4.393,14.516-10.502,21.554-15.753c14.843-11.075,29.686-22.151,44.529-33.224&#10;&#9;&#9;&#9;&#9;c-0.752-0.432-1.505-0.864-2.257-1.295c4.953,56.844,9.152,113.751,12.559,170.708&#10;&#9;&#9;&#9;&#9;C491.525,204.536,494.525,204.547,494.41,202.614z" id="el_MXstuxsfHeQ"/>
		</g>
	</g>
	<path id="el_mwHBEjxciha" d="M505.238,313.522c-10.459,13.815-24.094,24.783-36.044,37.193&#10;&#9;&#9;c4.073-7.744,8.36-15.348,12.344-22.836c14.776-27.784,23.938-57.426,26.92-88.781c0.386-3.991-5.86-3.965-6.231,0&#10;&#9;&#9;c-3.309,34.746-15.407,64.933-31.378,95.201c-3.493-28.521-12.543-57.185-3.412-85.428c1.239-3.828-4.777-5.467-6.009-1.658&#10;&#9;&#9;c-10.407,32.179,1.974,64.51,4.14,96.907c-4.866,9.05-9.487,18.404-13.107,28.011c-0.111,0.185-0.23,0.363-0.341,0.549&#10;&#9;&#9;c-0.297,0.526-0.416,1.038-0.423,1.527c-4.956,13.783-7.767,28.069-6.202,42.742c-13.048-18.693-19.464-40.68-24.998-62.592&#10;&#9;&#9;c-6.661-26.342-12.425-52.909-17.247-79.646c-1.817-10.088-3.627-20.288-5.288-30.558c3.59-16.39,9.694-31.956,15.985-47.456&#10;&#9;&#9;c13.908-9.009,25.266-21.208,31.511-36.715c1.506-3.724-4.524-5.341-6.008-1.658c-4.429,10.997-11.995,20.18-21.111,27.535&#10;&#9;&#9;c6.676-16.586,12.929-33.299,15.874-51.076c0.652-3.924-5.355-5.615-6.016-1.658c-3.442,20.818-11.424,40.179-19.316,59.581&#10;&#9;&#9;c-0.49,0.542-0.712,1.176-0.742,1.821c-4.562,11.23-9.035,22.487-12.544,34.063c-5.593-39.545-7.773-79.835,2.011-118.531&#10;&#9;&#9;c0.994-3.891-5.029-5.553-6.009-1.658c-11.534,45.609-6.787,93.18,0.712,139.346c-3.36-9.874-7.307-19.542-12.136-28.796&#10;&#9;&#9;c-10.021-19.205-24.753-35.936-29.485-57.548c-0.86-3.92-6.877-2.262-6.017,1.658c4.362,19.906,16.876,35.628,26.801,52.967&#10;&#9;&#9;c11.031,19.264,17.811,40.495,23.063,61.969c9.821,40.157,14.984,81.567,32.906,119.266c0.126,0.281,0.289,0.512,0.46,0.712&#10;&#9;&#9;c0.497,1.143,1.016,2.284,1.543,3.412c-0.771-0.742-1.551-1.491-2.322-2.24c-21.289-21.534-44.841-41.719-62.162-66.583&#10;&#9;&#9;c-17.402-24.973-29.085-53.313-40.554-81.341c-1.498-3.665-7.536-2.059-6.008,1.658c11.668,28.522,23.462,57.418,41.177,82.828&#10;&#9;&#9;c5.007,7.196,10.519,13.99,16.334,20.548c-3.517-2.626-7.047-5.207-10.593-7.759c-28.648-20.622-58.327-39.879-88.6-58.042&#10;&#9;&#9;c-0.156-0.345-0.378-0.683-0.712-1.001c-28.744-27.625-48.587-62.855-77.079-90.721c-2.871-2.808-7.285,1.599-4.406,4.41&#10;&#9;&#9;c23.67,23.151,41.392,51.384,63.193,76.119c-15.778-9.15-31.734-18.014-47.868-26.538c-17.054-9.02-34.375-17.54-48.676-30.743&#10;&#9;&#9;c-2.952-2.719-7.374,1.68-4.414,4.41c12.87,11.887,28.018,20.192,43.439,28.299c10.838,5.697,21.616,11.513,32.328,17.451&#10;&#9;&#9;c-13.204,0.538-26.408,1.08-39.619,1.617c-3.999,0.163-4.013,6.402,0,6.238c16.631-0.682,33.262-1.357,49.9-2.036&#10;&#9;&#9;c0.022-0.003,0.052-0.011,0.082-0.011c2.848,1.614,5.704,3.223,8.545,4.859c34.167,19.694,67.555,40.803,99.889,63.383&#10;&#9;&#9;c3.049,2.129,6.091,4.279,9.124,6.461c-21.526-6.84-43.914-10.504-66.405-10.92c-7.307-4.947-15.177-8.813-23.544-11.612&#10;&#9;&#9;c-3.813-1.279-5.452,4.744-1.662,6.012c4.569,1.536,8.924,3.442,13.129,5.653c-15.548,0.519-31.066,2.589-46.332,6.253&#10;&#9;&#9;c-3.902,0.935-2.248,6.943,1.662,6.009c18.07-4.332,36.585-6.365,55.071-6.172c0.423,0.111,0.823,0.118,1.209,0.029&#10;&#9;&#9;c28.981,0.453,57.837,6.409,84.66,17.855c10.853,8.256,21.497,16.875,31.734,25.925c-14.087-3.196-28.589-3.471-42.831-1.379&#10;&#9;&#9;c-28.93,2.447-57.37,11.245-85.009,20.406c-5.296,1.758-10.593,3.553-15.889,5.37c-19.005-4.739-38.373-4.813-57.741-2.255&#10;&#9;&#9;c-3.924,0.52-3.976,6.758,0,6.239c15.474-2.048,30.844-2.434,46.095,0.015c-34.79,11.957-69.735,23.744-106.417,28.055&#10;&#9;&#9;c-3.932,0.459-3.976,6.705,0,6.23c43.157-5.066,83.748-20.154,124.665-33.981c16.067-5.43,32.505-11.045,49.188-15.54&#10;&#9;&#9;c-2.797,1.409-5.556,2.893-8.256,4.465c-36.822,21.371-64.009,55.561-89.92,88.54c-2.448,3.123,1.936,7.566,4.414,4.406&#10;&#9;&#9;c33.032-42.037,77.487-92.887,131.164-105.022c16.305-2.04,32.742-2.158,49.218,0.816c0.504,0.089,0.964,0.074,1.395-0.03&#10;&#9;&#9;c3.427,0.891,6.884,1.959,10.37,3.212c2.804,2.812,5.578,5.631,8.293,8.494c0.394,0.415,0.823,0.667,1.261,0.809&#10;&#9;&#9;c2.285,2.307,4.548,4.629,6.766,6.987c-26.949,0.378-52.727,24.189-69.699,42.2c-24.672,26.178-43.29,57.312-61.59,88.081&#10;&#9;&#9;c-2.055,3.456,3.338,6.594,5.393,3.145c16.29-27.401,32.743-55.085,53.743-79.216c2.07-2.389,4.206-4.732,6.372-7.047&#10;&#9;&#9;c-9.042,18.493-14.524,38.581-15.822,59.247c-0.252,4.006,5.986,3.99,6.238,0c1.662-26.452,10.652-51.829,25.117-73.957&#10;&#9;&#9;c0.156-0.237,0.267-0.467,0.349-0.697c3.865-3.367,7.841-6.587,11.98-9.605c11.92-8.687,28.477-18.004,43.743-15.638&#10;&#9;&#9;c0.052,0.008,0.097,0.008,0.155,0.008c20.059,22.446,36.993,47.43,48.558,75.796c1.499,3.665,7.529,2.063,6.017-1.661&#10;&#9;&#9;c-10.675-26.171-25.711-49.522-43.507-70.686c-0.015-0.229-0.052-0.468-0.118-0.705c-4.844-18.063-1.906-35.205,4.272-51.644&#10;&#9;&#9;c13.412-22.906,36.801-37.475,52.689-58.471C513.042,313.471,507.627,310.359,505.238,313.522z"/>
</g></g></g>
</svg>