<?xml version="1.0" encoding="utf-8"?>
<!-- Generator: Adobe Illustrator 16.0.0, SVG Export Plug-In . SVG Version: 6.00 Build 0)  -->
<!DOCTYPE svg PUBLIC "-//W3C//DTD SVG 1.1//EN" "http://www.w3.org/Graphics/SVG/1.1/DTD/svg11.dtd">
<svg version="1.1" id="Calque_1" xmlns="http://www.w3.org/2000/svg" xmlns:xlink="http://www.w3.org/1999/xlink" x="0px" y="0px"
	 width="158.877px" height="182.67px" viewBox="0 0 158.877 182.67" enable-background="new 0 0 158.877 182.67"
	 xml:space="preserve">
<g>
	<path fill="#989898" d="M93.882,162.111c2.724,2.565,4.931,5.303,6.181,8.758c1.238,0.126,2.475,0.26,3.713,0.375
		c2.205,0.206,4.398,0.482,6.518,1.164c1.233,0.396,2.426,0.891,3.433,1.726c0.407,0.338,0.796,0.733,1.088,1.173
		c0.633,0.953,0.479,2.065-0.322,2.885c-0.464,0.476-1.032,0.792-1.669,0.927c-1.511,0.319-3.021,0.672-4.549,0.87
		c-4.135,0.535-8.293,0.832-12.456,1.031c-5.454,0.26-10.91,0.283-16.367,0.056c-4.938-0.206-9.878-0.328-14.813-0.578
		c-2.463-0.124-4.918-0.441-7.375-0.688c-1.434-0.145-2.854-0.375-4.229-0.821c-0.528-0.171-1.057-0.369-1.545-0.629
		c-0.393-0.208-0.767-0.486-1.074-0.806c-0.902-0.935-1.006-2.177-0.26-3.238c0.292-0.415,0.655-0.814,1.068-1.103
		c0.72-0.499,1.465-0.998,2.268-1.335c2.669-1.119,5.434-1.888,8.354-1.956c0.645-0.015,1.289,0.015,1.934,0.021
		c0.363,0.003,0.728,0.001,1.125,0.001c0.662-1.488,1.355-2.961,2.346-4.271c0.978-1.291,2.194-2.344,3.406-3.404
		c-0.013-0.045-0.025-0.09-0.038-0.135c-0.171-0.007-0.343-0.031-0.513-0.017c-1.519,0.134-3.036,0.292-4.557,0.406
		c-1.285,0.096-2.573,0.195-3.86,0.202c-11.152,0.058-22.304,0.113-33.456,0.125c-2.727,0.003-5.454-0.134-8.179-0.258
		c-1.048-0.047-2.089-0.242-3.135-0.358c-1.238-0.138-2.48-0.232-3.714-0.398c-2.947-0.396-5.808-1.151-8.595-2.18
		c-0.379-0.14-0.748-0.333-1.087-0.553c-0.993-0.645-1.442-1.569-1.511-2.758c-0.099-1.704,0.61-2.979,1.977-3.87
		c0.893-0.582,1.863-1.071,2.85-1.478c2.986-1.231,6.107-2.028,9.261-2.693c5.107-1.078,10.249-1.969,15.43-2.602
		c3.964-0.485,7.93-0.97,11.904-1.358c3.164-0.309,6.34-0.488,9.512-0.694c3.408-0.222,6.819-0.416,10.23-0.604
		c2.853-0.156,5.706-0.308,8.561-0.423c4.272-0.173,8.544-0.376,12.818-0.451c6.788-0.12,13.578-0.332,20.367-0.074
		c4.014,0.153,8.025,0.378,12.033,0.63c3.666,0.23,7.329,0.513,10.989,0.822c4.837,0.408,9.672,0.849,14.461,1.663
		c3.414,0.581,6.79,1.316,9.983,2.705c0.824,0.358,1.628,0.779,2.394,1.25c0.523,0.322,1.02,0.729,1.431,1.186
		c1.057,1.172,1.054,2.585,0.047,3.801c-0.686,0.828-1.585,1.375-2.527,1.856c-2.852,1.46-5.92,2.279-9.007,3.034
		c-4.575,1.119-9.213,1.857-13.903,2.299c-8.119,0.764-16.252,0.963-24.401,0.794c-3.952-0.082-7.907-0.044-11.86-0.059
		C94.392,162.077,94.225,162.093,93.882,162.111z"/>
	<g>
		<g>
			<g>
				<path fill="#7D4B1E" d="M143.845,130.269c0.116,0.762,0.265,1.521,0.341,2.286c0.174,1.758,0.197,3.524-0.015,5.275
					c-0.333,2.749-0.72,5.491-1.127,8.229c-0.151,1.018-0.362,2.035-0.662,3.018c-0.242,0.793-0.646,1.54-1.009,2.293
					c-0.075,0.157-0.266,0.277-0.429,0.369c-0.774,0.437-1.611,0.592-2.487,0.462c-1.381-0.205-2.754-0.458-4.137-0.643
					c-2.895-0.387-5.79-0.767-8.691-1.102c-2.282-0.264-4.571-0.473-6.86-0.676c-2.461-0.218-4.922-0.434-7.387-0.59
					c-5.577-0.351-11.159-0.526-16.747-0.566c-5.332-0.038-10.655,0.142-15.974,0.508c-3.644,0.25-7.291,0.444-10.934,0.695
					c-3.15,0.218-6.298,0.472-9.446,0.725c-2.697,0.217-5.395,0.44-8.09,0.69c-2.844,0.263-5.684,0.583-8.528,0.837
					c-2.995,0.267-5.991,0.538-8.993,0.711c-3.346,0.193-6.696,0.282-10.046,0.403c-0.643,0.023-1.289-0.001-1.933-0.03
					c-1.091-0.051-1.862-0.604-2.322-1.577c-0.275-0.583-0.433-1.187-0.417-1.858c0.013-0.547-0.145-1.103-0.26-1.647
					c-0.794-3.744-1.32-7.528-1.703-11.333c-0.108-1.08-0.086-2.174-0.124-3.261c0.045-0.01,0.09-0.02,0.136-0.029
					c0.06,0.122,0.124,0.242,0.177,0.368c0.998,2.372,3.231,3.838,5.722,3.729c1.026-0.045,1.985-0.357,2.87-0.872
					c1.419-0.825,2.678-1.849,3.822-3.031c1.554-1.605,3.129-3.191,4.741-4.738c1.505-1.443,3.231-2.551,5.258-3.146
					c1.397-0.411,2.78-0.469,4.174,0.032c0.974,0.35,1.819,0.889,2.48,1.675c0.565,0.672,1.056,1.407,1.601,2.099
					c0.742,0.943,1.438,1.937,2.274,2.791c1.245,1.271,2.7,2.267,4.479,2.668c2.44,0.551,4.724,0.108,6.726-1.362
					c2.371-1.741,4.656-3.6,6.986-5.397c1.603-1.237,3.303-2.321,5.156-3.148c1.499-0.669,3.046-1.021,4.699-0.744
					c1.114,0.187,2.065,0.699,2.945,1.373c0.896,0.687,1.619,1.538,2.282,2.44c0.521,0.71,1.031,1.429,1.528,2.155
					c0.878,1.281,1.83,2.516,3.025,3.502c2.387,1.968,5.066,2.875,8.151,1.896c1.441-0.458,2.763-1.16,3.98-2.066
					c1.879-1.396,3.758-2.794,5.673-4.139c0.806-0.564,1.677-1.053,2.564-1.477c2.512-1.198,5.095-1.212,7.714-0.36
					c2.573,0.838,4.831,2.221,6.868,3.977c1.187,1.023,2.315,2.115,3.518,3.119c1.862,1.555,3.906,2.8,6.275,3.447
					c3.333,0.909,6.218,0.215,8.68-2.275c1.547-1.566,2.666-3.35,3.25-5.471c0.021-0.079,0.068-0.152,0.104-0.228
					C143.765,130.271,143.805,130.27,143.845,130.269z"/>
				<path fill="#CBB195" d="M17.011,128.251c0.024-1.008,0.152-2.181,0.469-3.325c0.062-0.224,0.17-0.44,0.29-0.642
					c0.506-0.854,1.102-1.637,1.807-2.339c0.417-0.415,0.877-0.746,1.401-1.012c2.349-1.189,4.83-2.009,7.365-2.686
					c5.065-1.354,10.188-2.426,15.384-3.135c3.659-0.499,7.322-0.965,10.984-1.44c3.836-0.498,7.689-0.851,11.554-0.957
					c4.853-0.135,9.709-0.144,14.563-0.164c2.341-0.01,4.686,0.021,7.023,0.138c2.809,0.141,5.617,0.342,8.416,0.612
					c3.12,0.302,6.232,0.685,9.343,1.078c5.138,0.648,10.218,1.615,15.245,2.852c4.127,1.015,8.224,2.144,12.229,3.57
					c2.165,0.771,4.306,1.623,6.272,2.824c1.762,1.076,3.094,3.373,2.59,5.665c-0.563,2.561-1.916,4.58-3.915,6.183
					c-1.626,1.305-3.522,1.497-5.497,1.002c-2.032-0.509-3.839-1.471-5.424-2.844c-1.349-1.167-2.689-2.342-4.049-3.496
					c-2.418-2.053-5.097-3.64-8.18-4.482c-3.1-0.847-6.081-0.555-8.936,0.938c-1.814,0.948-3.479,2.127-5.106,3.36
					c-0.719,0.545-1.429,1.102-2.149,1.644c-1.244,0.934-2.585,1.709-4.035,2.259c-1.42,0.54-2.836,0.472-4.252-0.166
					c-1.738-0.782-3.099-1.984-4.208-3.502c-0.722-0.989-1.399-2.011-2.144-2.981c-0.587-0.766-1.191-1.531-1.881-2.202
					c-2.688-2.621-5.842-3.288-9.38-2.065c-2.108,0.729-4.016,1.859-5.79,3.191c-1.992,1.495-3.922,3.074-5.891,4.601
					c-0.679,0.525-1.364,1.052-2.099,1.491c-1.401,0.838-2.92,1.242-4.565,0.96c-1.215-0.209-2.263-0.785-3.23-1.522
					c-0.95-0.725-1.701-1.633-2.389-2.601c-0.546-0.771-1.074-1.557-1.652-2.303c-1.305-1.683-2.995-2.743-5.121-3.06
					c-1.461-0.218-2.864,0.041-4.24,0.522c-1.641,0.574-3.137,1.421-4.436,2.565c-1.433,1.263-2.801,2.601-4.188,3.916
					c-1.105,1.049-2.159,2.156-3.306,3.158c-1.006,0.879-2.133,1.596-3.5,1.82c-1.558,0.257-3.259-0.566-4.053-1.933
					C17.375,132.097,17.062,130.296,17.011,128.251z"/>
			</g>
			<g>
				<path fill="#E2BAA2" d="M133.611,97.624c-0.176,0.886-0.324,1.747-0.52,2.599c-0.665,2.894-1.572,5.715-2.756,8.435
					c-0.616,1.414-1.368,2.771-2.11,4.126c-0.515,0.938-1.797,1.489-2.832,1.209c-1.696-0.459-3.376-0.984-5.061-1.488
					c-4.341-1.298-8.722-2.446-13.174-3.283c-2.466-0.463-4.965-0.762-7.457-1.064c-2.366-0.288-4.74-0.504-7.114-0.721
					c-4.883-0.445-9.773-0.694-14.674-0.342c-4.604,0.332-9.209,0.686-13.809,1.086c-2.802,0.244-5.595,0.591-8.391,0.9
					c-5.464,0.605-10.897,1.422-16.332,2.24c-3.133,0.472-6.183,1.24-9.197,2.182c-0.123,0.039-0.246,0.074-0.369,0.112
					c-1.608,0.488-2.251,0.289-3.128-1.16c-2.394-3.956-4.563-8.027-6.076-12.415c-0.277-0.803-0.477-1.632-0.602-2.502
					c0.167,0.129,0.337,0.254,0.5,0.388c1.065,0.865,2.277,1.104,3.573,0.729c0.758-0.218,1.501-0.525,2.201-0.888
					c0.99-0.513,1.945-1.097,2.896-1.68c4.105-2.516,8.502-4.283,13.244-5.154c3.099-0.569,6.216-0.831,9.359-0.439
					c2.632,0.327,5.203,0.91,7.64,1.98c1.631,0.716,3.244,1.471,4.858,2.226c1.796,0.84,3.643,1.515,5.607,1.845
					c2.979,0.501,5.903,0.239,8.797-0.573c1.742-0.488,3.404-1.179,5.043-1.934c2.671-1.23,5.348-2.443,8.15-3.356
					c3.85-1.255,7.78-1.771,11.814-1.344c3.088,0.327,6.025,1.164,8.705,2.771c1.233,0.739,2.424,1.551,3.646,2.309
					c1.131,0.7,2.255,1.419,3.427,2.047c1.812,0.972,3.733,1.631,5.802,1.796c1.231,0.098,2.44-0.085,3.656-0.233
					c1.449-0.176,2.904-0.295,4.356-0.435C133.369,97.583,133.453,97.606,133.611,97.624z"/>
				<path fill="#663915" d="M133.718,95.709c-0.706,0.037-1.393,0.044-2.072,0.114c-1.324,0.139-2.649,0.28-3.964,0.479
					c-2.183,0.329-4.248-0.081-6.205-1.005c-1.277-0.603-2.498-1.332-3.709-2.064c-1.635-0.989-3.206-2.085-4.857-3.044
					c-2.578-1.498-5.399-2.296-8.346-2.679c-5.308-0.688-10.404,0.187-15.332,2.149c-2.191,0.873-4.338,1.863-6.488,2.838
					c-2,0.907-4.034,1.693-6.197,2.124c-3.68,0.733-7.221,0.321-10.624-1.254c-1.714-0.793-3.415-1.615-5.131-2.404
					c-3.26-1.499-6.707-2.279-10.267-2.514c-3.478-0.229-6.904,0.224-10.278,1.069c-4.219,1.058-8.153,2.79-11.868,5.041
					c-1.083,0.657-2.17,1.313-3.29,1.9c-0.562,0.295-1.192,0.476-1.811,0.638c-0.563,0.148-1.107-0.006-1.594-0.332
					c-0.69-0.46-1.252-1.045-1.686-1.75c-0.087-0.141-0.178-0.319-0.168-0.474c0.048-0.726,0.065-1.457,0.428-2.127
					c0.501-0.923,1.175-1.69,2.007-2.322c1.293-0.982,2.731-1.704,4.228-2.311c2.912-1.182,5.943-1.975,8.988-2.722
					c3.173-0.778,6.395-1.314,9.622-1.777c4.039-0.579,8.089-1.081,12.144-1.53c2.475-0.273,4.966-0.41,7.452-0.565
					c3.945-0.245,7.895-0.431,11.85-0.429c4.492,0.002,8.981,0.065,13.462,0.404c3.255,0.246,6.514,0.482,9.757,0.841
					c3.158,0.35,6.305,0.812,9.446,1.292c4.097,0.626,8.163,1.421,12.187,2.419c2.397,0.596,4.769,1.291,7.018,2.327
					c0.97,0.447,1.924,0.966,2.797,1.577c1.965,1.377,2.721,3.356,2.604,5.708c-0.003,0.064-0.01,0.129-0.023,0.192
					C133.787,95.562,133.764,95.6,133.718,95.709z"/>
			</g>
			<g>
				<path fill="#946130" d="M28.411,67.479c0.084,0.092,0.169,0.184,0.253,0.276c1.367,1.514,3.043,2.047,5.01,1.483
					c1.836-0.527,3.416-1.535,4.707-2.923c0.918-0.986,1.701-2.1,2.537-3.161c0.196-0.25,0.367-0.521,0.606-0.861
					c0.179,0.44,0.313,0.793,0.463,1.139c1.065,2.479,2.899,4.093,5.537,4.665c2.454,0.533,4.738,0.024,6.767-1.488
					c1.345-1.003,2.374-2.292,3.253-3.709c0.21-0.341,0.421-0.681,0.671-1.086c0.162,0.265,0.258,0.451,0.38,0.619
					c0.401,0.556,0.763,1.15,1.229,1.648c1.83,1.957,4.064,2.524,6.64,1.828c1.74-0.471,3.242-1.346,4.516-2.619
					c1.067-1.066,2.02-2.227,2.857-3.481c0.14-0.208,0.287-0.412,0.472-0.678c0.143,0.252,0.249,0.432,0.348,0.614
					c0.665,1.225,1.54,2.276,2.628,3.145c2.443,1.948,5.163,2.273,8.08,1.324c2.038-0.664,3.766-1.852,5.372-3.236
					c0.259-0.223,0.513-0.449,0.819-0.719c0.123,0.294,0.223,0.523,0.315,0.757c0.439,1.106,1.012,2.135,1.813,3.022
					c0.887,0.981,1.956,1.67,3.265,1.944c1.424,0.3,2.729,0,3.917-0.822c0.936-0.646,1.644-1.505,2.259-2.447
					c0.278-0.427,0.561-0.853,0.876-1.332c0.102,0.142,0.169,0.217,0.215,0.303c1.997,3.71,5.191,5.858,9.149,7
					c1.365,0.394,2.749,0.453,4.139,0.111c1.024-0.252,1.907-0.764,2.685-1.468c0.108-0.099,0.219-0.195,0.449-0.399
					c-0.029,0.409-0.036,0.691-0.072,0.97c-0.402,3.073-1.17,6.068-1.959,9.057c-0.268,1.015-0.602,2.013-0.949,3.003
					c-0.359,1.021-0.949,1.415-2.03,1.248c-1.44-0.222-2.887-0.463-4.29-0.843c-3.219-0.871-6.476-1.522-9.769-2.018
					c-1.974-0.298-3.937-0.684-5.918-0.915c-2.323-0.272-4.66-0.443-6.995-0.613c-1.842-0.135-3.688-0.204-5.534-0.298
					c-3.288-0.167-6.575-0.087-9.856,0.119c-4.201,0.264-8.4,0.571-12.592,0.965c-4.746,0.445-9.475,1.043-14.155,1.981
					c-3.03,0.607-6.074,1.145-9.109,1.727c-0.864,0.166-1.717,0.387-2.578,0.565c-0.25,0.052-0.511,0.058-0.768,0.066
					c-0.472,0.017-0.829-0.199-1.071-0.594c-0.146-0.236-0.288-0.482-0.389-0.74c-1.422-3.663-2.799-7.342-3.855-11.132
					c-0.12-0.434-0.209-0.877-0.307-1.316c-0.045-0.208-0.076-0.418-0.114-0.627C28.354,67.515,28.383,67.497,28.411,67.479z"/>
				<path fill="#E2BAA2" d="M75.65,52.61c2.645,0.066,5.803,0.102,8.957,0.237c5.667,0.242,11.314,0.737,16.932,1.54
					c4.486,0.642,8.938,1.474,13.273,2.822c0.936,0.291,1.859,0.68,2.717,1.151c1.521,0.836,2.496,2.143,2.899,3.844
					c0.063,0.265,0.094,0.562,0.043,0.825c-0.454,2.375-2.376,4.376-5.338,4.017c-0.927-0.112-1.862-0.361-2.729-0.709
					c-2.923-1.173-5.278-3.021-6.684-5.926c-0.178-0.365-0.38-0.728-0.625-1.049c-0.604-0.792-1.451-0.804-2.048-0.011
					c-0.45,0.6-0.813,1.265-1.25,1.875c-0.462,0.645-0.904,1.319-1.461,1.874c-1.388,1.381-3.106,1.426-4.64,0.195
					c-0.699-0.562-1.215-1.274-1.611-2.069c-0.248-0.498-0.445-1.022-0.663-1.536c-0.101-0.237-0.179-0.485-0.295-0.714
					c-0.444-0.871-1.247-1.143-2.103-0.653c-0.461,0.264-0.879,0.615-1.277,0.973c-0.947,0.85-1.957,1.609-3.063,2.238
					c-1.209,0.688-2.488,1.147-3.891,1.243c-1.1,0.075-2.142-0.106-3.113-0.625c-1.714-0.916-2.926-2.291-3.675-4.08
					c-0.141-0.337-0.251-0.69-0.432-1.004c-0.452-0.786-1.304-0.898-1.942-0.252c-0.27,0.272-0.488,0.599-0.703,0.919
					c-0.99,1.485-2.023,2.935-3.301,4.195c-1.081,1.066-2.343,1.787-3.818,2.161c-1.877,0.476-3.45-0.012-4.697-1.465
					c-0.457-0.532-0.799-1.164-1.177-1.762c-0.206-0.325-0.347-0.694-0.569-1.008c-0.49-0.696-1.254-0.785-1.891-0.218
					c-0.253,0.226-0.466,0.506-0.653,0.79c-0.415,0.627-0.795,1.276-1.204,1.907c-0.67,1.035-1.471,1.954-2.446,2.717
					c-2.79,2.182-7.662,1.848-9.538-2.475c-0.188-0.433-0.33-0.885-0.497-1.326c-0.091-0.24-0.166-0.491-0.289-0.715
					c-0.487-0.888-1.394-0.978-2.051-0.202c-0.194,0.228-0.345,0.493-0.521,0.735c-0.82,1.129-1.607,2.285-2.475,3.376
					c-1.004,1.264-2.278,2.21-3.764,2.854c-0.371,0.16-0.764,0.294-1.16,0.371c-1.641,0.32-3.119-0.617-3.535-2.24
					c-0.278-1.085-0.197-2.173,0.042-3.255c0.009-0.042,0.024-0.082,0.036-0.124c0.612-2.209,0.566-2.305,2.728-3.652
					c1.765-1.101,3.742-1.707,5.741-2.227c3.496-0.907,7.051-1.501,10.631-1.958c4.072-0.52,8.16-0.844,12.254-1.109
					c2.356-0.152,4.72-0.224,7.08-0.302C70.282,52.725,72.709,52.681,75.65,52.61z"/>
			</g>
		</g>
		<g>
			<g>
				<path fill="#C098C6" d="M42.544,27.8c0.15,0,0.301-0.003,0.45,0.001c1.144,0.028,1.932,0.543,2.306,1.624
					c0.279,0.808,0.463,1.65,0.671,2.482c0.566,2.269,1.154,4.532,1.676,6.812c0.761,3.324,1.474,6.66,2.197,9.994
					c0.1,0.459,0.178,0.93,0.2,1.399c0.047,0.969-0.372,1.644-1.304,1.898c-1.072,0.294-2.177,0.477-3.272,0.679
					c-0.462,0.086-0.938,0.098-1.408,0.145c-1.176,0.118-2.128-0.404-2.564-1.503c-0.349-0.875-0.643-1.775-0.895-2.683
					c-0.7-2.522-1.382-5.05-2.039-7.583c-0.695-2.679-1.309-5.378-1.737-8.115c-0.109-0.699-0.227-1.405-0.237-2.11
					c-0.021-1.332,0.472-1.93,1.657-2.28C39.646,28.147,41.076,27.862,42.544,27.8z"/>
				<path fill="#C098C6" d="M66.009,25.116c0.146,0.034,0.294,0.065,0.438,0.103c1.106,0.287,1.758,0.968,1.877,2.104
					c0.09,0.851,0.077,1.713,0.091,2.57c0.037,2.337,0.097,4.675,0.087,7.013c-0.013,3.411-0.074,6.821-0.126,10.232
					c-0.007,0.47-0.038,0.946-0.122,1.408c-0.174,0.954-0.734,1.517-1.701,1.554c-1.11,0.043-2.227-0.029-3.34-0.081
					c-0.47-0.021-0.937-0.117-1.405-0.179c-1.171-0.151-1.979-0.876-2.156-2.045c-0.141-0.931-0.224-1.875-0.263-2.815
					c-0.109-2.615-0.201-5.231-0.267-7.848c-0.07-2.768-0.055-5.535,0.147-8.298c0.053-0.706,0.099-1.42,0.248-2.109
					c0.282-1.302,0.897-1.772,2.132-1.844C63.107,24.796,64.565,24.843,66.009,25.116z"/>
				<path fill="#C098C6" d="M81.06,25.146c-0.146,0.038-0.292,0.072-0.437,0.113c-1.099,0.313-1.734,1.009-1.826,2.148
					c-0.068,0.853-0.036,1.714-0.029,2.572c0.019,2.338,0.014,4.677,0.079,7.014c0.094,3.409,0.236,6.817,0.368,10.226
					c0.019,0.471,0.062,0.945,0.156,1.405c0.196,0.95,0.771,1.499,1.737,1.514c1.111,0.016,2.226-0.083,3.337-0.16
					c0.47-0.033,0.934-0.141,1.4-0.212c1.168-0.18,1.959-0.924,2.107-2.097c0.119-0.934,0.179-1.879,0.196-2.821
					c0.047-2.616,0.076-5.233,0.08-7.852c0.004-2.768-0.077-5.534-0.345-8.292c-0.068-0.704-0.132-1.417-0.298-2.102
					c-0.313-1.295-0.938-1.75-2.175-1.793C83.953,24.757,82.496,24.839,81.06,25.146z"/>
				<path fill="#C098C6" d="M104.582,26.434c-0.15,0.003-0.301,0.002-0.451,0.009c-1.142,0.049-1.921,0.578-2.275,1.665
					c-0.265,0.813-0.433,1.659-0.626,2.495c-0.525,2.278-1.073,4.552-1.553,6.839c-0.701,3.339-1.354,6.687-2.018,10.032
					c-0.092,0.462-0.16,0.934-0.175,1.403c-0.029,0.97,0.4,1.637,1.338,1.875c1.077,0.274,2.185,0.438,3.283,0.62
					c0.464,0.077,0.94,0.081,1.411,0.119c1.178,0.096,2.12-0.443,2.537-1.55c0.332-0.88,0.61-1.786,0.846-2.697
					c0.654-2.534,1.291-5.074,1.902-7.618c0.647-2.692,1.212-5.401,1.592-8.146c0.097-0.701,0.201-1.41,0.199-2.114
					c-0.005-1.332-0.507-1.92-1.698-2.25C107.486,26.729,106.05,26.469,104.582,26.434z"/>
			</g>
			<g>
				<path fill="#FBAA19" d="M33.158,14.842c0.047-1.923,0.476-3.782,0.954-5.632c0.188-0.726,0.4-1.446,0.612-2.166
					c0.067-0.225,0.152-0.449,0.261-0.657c0.45-0.866,1.401-1.076,2.169-0.466c0.249,0.198,0.47,0.443,0.662,0.697
					c1.533,2.029,2.804,4.214,3.786,6.558c0.466,1.113,0.786,2.271,0.724,3.5c-0.037,0.741-0.205,1.446-0.598,2.081
					c-0.579,0.937-1.37,1.557-2.496,1.745c-1.015,0.169-2.005,0.18-2.981-0.169c-1.059-0.377-1.853-1.057-2.354-2.068
					C33.36,17.187,33.126,16.043,33.158,14.842z"/>
				<path fill="#FBAA19" d="M59.806,10.366c0.483-1.862,1.321-3.576,2.207-5.269c0.348-0.665,0.718-1.318,1.088-1.97
					c0.116-0.204,0.25-0.402,0.402-0.581c0.634-0.741,1.608-0.73,2.218,0.038c0.198,0.249,0.357,0.538,0.487,0.83
					c1.032,2.324,1.774,4.74,2.2,7.246c0.201,1.189,0.25,2.39-0.089,3.574c-0.204,0.713-0.528,1.362-1.054,1.89
					c-0.777,0.781-1.688,1.206-2.827,1.134c-1.026-0.065-1.993-0.279-2.866-0.84c-0.944-0.607-1.564-1.45-1.824-2.549
					C59.472,12.697,59.502,11.529,59.806,10.366z"/>
				<path fill="#FBAA19" d="M86.912,10.253c-0.527-1.85-1.406-3.543-2.332-5.215c-0.363-0.656-0.748-1.3-1.134-1.944
					c-0.121-0.201-0.26-0.396-0.416-0.571c-0.652-0.726-1.626-0.692-2.217,0.091c-0.192,0.253-0.345,0.546-0.468,0.841
					c-0.977,2.348-1.662,4.78-2.027,7.296c-0.174,1.194-0.193,2.395,0.174,3.57c0.221,0.708,0.56,1.349,1.098,1.865
					c0.795,0.762,1.717,1.166,2.854,1.066c1.025-0.089,1.986-0.327,2.846-0.908c0.93-0.629,1.529-1.486,1.763-2.591
					C87.301,12.575,87.242,11.409,86.912,10.253z"/>
				<path fill="#FBAA19" d="M113.733,13.309c-0.082-1.922-0.544-3.773-1.056-5.614c-0.2-0.723-0.426-1.438-0.651-2.154
					c-0.071-0.224-0.16-0.446-0.272-0.652c-0.465-0.857-1.42-1.05-2.177-0.427c-0.245,0.202-0.462,0.451-0.649,0.709
					c-1.496,2.056-2.728,4.263-3.667,6.625c-0.446,1.121-0.745,2.284-0.661,3.513c0.051,0.74,0.231,1.442,0.635,2.069
					c0.596,0.926,1.398,1.532,2.527,1.7c1.018,0.151,2.008,0.144,2.979-0.222c1.051-0.396,1.833-1.091,2.316-2.111
					C113.572,15.657,113.787,14.509,113.733,13.309z"/>
			</g>
			<g>
				<path fill="#B4B4B4" d="M37.768,23.284c0-0.278-0.023-0.558,0.006-0.833c0.043-0.403,0.277-0.654,0.62-0.726
					c0.351-0.074,0.683,0.05,0.873,0.392c0.145,0.258,0.264,0.545,0.319,0.834c0.196,1.029,0.367,2.063,0.532,3.098
					c0.037,0.23,0.032,0.473,0.005,0.704c-0.047,0.39-0.245,0.686-0.642,0.798c-0.351,0.1-0.706-0.037-0.935-0.403
					c-0.156-0.25-0.297-0.532-0.35-0.818c-0.188-1.007-0.335-2.021-0.498-3.033C37.723,23.293,37.745,23.289,37.768,23.284z"/>
				<path fill="#B4B4B4" d="M62.381,19.634c0.063-0.271,0.104-0.549,0.195-0.81c0.133-0.382,0.418-0.574,0.768-0.566
					c0.358,0.007,0.653,0.203,0.762,0.58c0.082,0.284,0.133,0.591,0.122,0.884c-0.042,1.047-0.11,2.093-0.184,3.138
					c-0.017,0.232-0.076,0.468-0.155,0.687c-0.135,0.369-0.395,0.612-0.807,0.631c-0.364,0.018-0.679-0.196-0.818-0.604
					c-0.096-0.278-0.168-0.586-0.155-0.876c0.046-1.023,0.133-2.045,0.204-3.067C62.335,19.632,62.358,19.633,62.381,19.634z"/>
				<path fill="#B4B4B4" d="M84.557,19.58c-0.07-0.269-0.117-0.546-0.214-0.805c-0.143-0.379-0.432-0.564-0.781-0.548
					c-0.358,0.016-0.648,0.219-0.748,0.598c-0.075,0.285-0.119,0.594-0.101,0.887c0.066,1.046,0.159,2.09,0.258,3.133
					c0.022,0.231,0.087,0.465,0.172,0.683c0.143,0.365,0.408,0.603,0.821,0.612c0.364,0.009,0.674-0.212,0.804-0.623
					c0.088-0.281,0.154-0.59,0.134-0.88c-0.069-1.022-0.181-2.042-0.276-3.062C84.603,19.577,84.579,19.578,84.557,19.58z"/>
				<path fill="#B4B4B4" d="M109.275,21.833c-0.004-0.278,0.015-0.559-0.02-0.833c-0.051-0.401-0.29-0.648-0.633-0.714
					c-0.353-0.067-0.682,0.062-0.867,0.408c-0.139,0.26-0.254,0.55-0.304,0.839c-0.178,1.033-0.331,2.07-0.477,3.107
					c-0.032,0.23-0.024,0.473,0.008,0.704c0.054,0.389,0.258,0.681,0.656,0.786c0.353,0.093,0.705-0.049,0.927-0.419
					c0.151-0.252,0.287-0.538,0.335-0.825c0.17-1.01,0.299-2.027,0.443-3.042C109.321,21.84,109.299,21.836,109.275,21.833z"/>
			</g>
		</g>
	</g>
</g>
</svg>
