<?xml version="1.0" encoding="utf-8"?>
<!-- Generator: Adobe Illustrator 16.0.0, SVG Export Plug-In . SVG Version: 6.00 Build 0)  -->
<!DOCTYPE svg PUBLIC "-//W3C//DTD SVG 1.1//EN" "http://www.w3.org/Graphics/SVG/1.1/DTD/svg11.dtd">
<svg version="1.1" id="Blue_x5F_Snowman" xmlns="http://www.w3.org/2000/svg" xmlns:xlink="http://www.w3.org/1999/xlink" x="0px"
	 y="0px" width="640px" height="640px" viewBox="0 0 640 640" enable-background="new 0 0 640 640" xml:space="preserve">
<radialGradient id="Bottom_1_" cx="311" cy="459.6035" r="148.9954" gradientTransform="matrix(-1 0 0 1 638.667 0)" gradientUnits="userSpaceOnUse">
	<stop  offset="0.0056" style="stop-color:#FFFFFF"/>
	<stop  offset="0.4412" style="stop-color:#FDFEFE;stop-opacity:0.781"/>
	<stop  offset="0.5981" style="stop-color:#F6FAFC;stop-opacity:0.7021"/>
	<stop  offset="0.71" style="stop-color:#EBF4F8;stop-opacity:0.6458"/>
	<stop  offset="0.8004" style="stop-color:#DAEBF2;stop-opacity:0.6004"/>
	<stop  offset="0.8778" style="stop-color:#C4DFEA;stop-opacity:0.5614"/>
	<stop  offset="0.9451" style="stop-color:#A9D0E1;stop-opacity:0.5276"/>
	<stop  offset="1" style="stop-color:#8DC1D7;stop-opacity:0.5"/>
</radialGradient>
<path id="Bottom" fill="url(#Bottom_1_)" stroke="#231F20" stroke-width="3" stroke-miterlimit="10" d="M242.347,335.342
	c-54.034,20.226-78.68,66.121-78.68,115.658c0,79.253,57.25,137,146.75,140.75c89.667,3.757,181.25-61.997,181.25-141.25
	c0-52.599-40.333-111.993-79.149-123.195C361.167,381.674,263.833,365.674,242.347,335.342z"/>
<g id="Buttons">
	
		<path fill="#426A91" stroke="#000000" stroke-width="3" stroke-linecap="round" stroke-linejoin="round" stroke-miterlimit="10" d="
		M303.431,513.691c0,10.907,6.393,22.127,21.236,20.146c10-1.334,18.388-8.478,17.333-19.334c-1.166-12-12.917-19.666-22-20.333
		C306.097,493.15,303.431,502.784,303.431,513.691z"/>
	
		<path fill="#426A91" stroke="#000000" stroke-width="3" stroke-linecap="round" stroke-linejoin="round" stroke-miterlimit="10" d="
		M307,445.595c0,10.907,7.167,21.083,22.083,19.75c12.147-1.086,22.083-8.843,22.083-19.75s-9.908-19.021-22.083-19.75
		C315.167,425.012,307,434.688,307,445.595z"/>
</g>
<radialGradient id="Middle_1_" cx="312.8687" cy="295.6699" r="85.9561" gradientTransform="matrix(-1 0 0 1 638.667 0)" gradientUnits="userSpaceOnUse">
	<stop  offset="0.0056" style="stop-color:#FFFFFF"/>
	<stop  offset="0.4412" style="stop-color:#FDFEFE;stop-opacity:0.781"/>
	<stop  offset="0.5981" style="stop-color:#F6FAFC;stop-opacity:0.7021"/>
	<stop  offset="0.71" style="stop-color:#EBF4F8;stop-opacity:0.6458"/>
	<stop  offset="0.8004" style="stop-color:#DAEBF2;stop-opacity:0.6004"/>
	<stop  offset="0.8778" style="stop-color:#C4DFEA;stop-opacity:0.5614"/>
	<stop  offset="0.9451" style="stop-color:#A9D0E1;stop-opacity:0.5276"/>
	<stop  offset="1" style="stop-color:#8DC1D7;stop-opacity:0.5"/>
</radialGradient>
<path id="Middle" fill="url(#Middle_1_)" stroke="#231F20" stroke-width="3" stroke-miterlimit="10" d="M245.358,229.615
	c-1.483-1.137-25.941,11.135-20.691,52.885c2.445,19.442,4.953,35.948,14.287,48.627c1.015,1.378,2.276,2.925,3.393,4.215
	C257.459,352.799,281.71,362,313.667,362c38.539,0,77.97-9.453,98.851-34.695c9.491-11.475,15.149-26.211,15.149-44.805
	c0-18.656-4.5-42.5-17.366-53.161C402.417,247.25,297.417,282,245.358,229.615z"/>
<radialGradient id="Head_1_" cx="309.2197" cy="132.0786" r="83.5461" gradientTransform="matrix(-1 0 0 1 638.667 0)" gradientUnits="userSpaceOnUse">
	<stop  offset="0.0056" style="stop-color:#FFFFFF"/>
	<stop  offset="0.4412" style="stop-color:#FDFEFE;stop-opacity:0.781"/>
	<stop  offset="0.5981" style="stop-color:#F6FAFC;stop-opacity:0.7021"/>
	<stop  offset="0.71" style="stop-color:#EBF4F8;stop-opacity:0.6458"/>
	<stop  offset="0.8004" style="stop-color:#DAEBF2;stop-opacity:0.6004"/>
	<stop  offset="0.8778" style="stop-color:#C4DFEA;stop-opacity:0.5614"/>
	<stop  offset="0.9451" style="stop-color:#A9D0E1;stop-opacity:0.5276"/>
	<stop  offset="1" style="stop-color:#8DC1D7;stop-opacity:0.5"/>
</radialGradient>
<path id="Head" fill="url(#Head_1_)" stroke="#231F20" stroke-width="3" stroke-miterlimit="10" d="M241.667,130.833
	c-3.147,30.99,7.549,55.598,38.002,68.961c12.473,5.473,28.787,9.086,49.998,10.539c16.387,1.123,31.748-1.711,44.905-7.944
	c11.962-5.666,20.624-12.563,28.301-23.256c7.426-10.341,15.841-30.056,14.794-48.3c-2.917-50.836-39.399-77.25-88-77.25
	C281.065,53.583,247.179,76.562,241.667,130.833z"/>
<g id="Ear_Muffs">
	<path fill="none" stroke="#231F20" stroke-width="6" stroke-linecap="square" stroke-miterlimit="10" d="M412.43,94.335
		c9.469-86.258-168.772-89.839-167.016-2.511"/>
	<path fill="#426A91" stroke="#231F20" stroke-width="3" stroke-miterlimit="10" d="M414.097,155.25c7.18,0,21.07,5.75,21.07-31
		c0-17.259-6-35-26.631-29.041C415.808,117.515,417.667,124.805,414.097,155.25z"/>
	<path fill="#426A91" stroke="#231F20" stroke-width="3" stroke-miterlimit="10" d="M222.667,118.5
		c-5.052,22.352,10.065,26.266,18.557,26.266c0.246-25.517,2.8-32.921,9.322-49.103C248.794,95.034,232.667,74.25,222.667,118.5z"/>
</g>
<g id="Scarf">
	<path fill="#426A91" stroke="#231F20" stroke-width="3" stroke-miterlimit="10" d="M250.737,176.497
		c-11.712,3.435-13.408,17.289-7.165,33.756c-1.246,2.888-1.905,5.667-1.905,8.247c0,2.397,0.52,4.794,1.483,7.087
		c7.338,17.447,41.357,31.163,83.642,31.163c38.802,0,71.645-11.007,82.671-26.179c2.569-3.535,3.954-7.296,3.954-11.196
		c0-5.499-2.406-11.962-6.841-18.485c3.136-9.724,3.123-19.113-3.523-22.008C371.846,223.582,281.732,218,250.737,176.497z"/>
	<path fill="none" stroke="#231F20" stroke-width="3" stroke-linecap="round" stroke-miterlimit="10" d="M406.576,200.89
		c-4.159,6.805-6.053,9.363-11.659,11.86"/>
	<path fill="none" stroke="#231F20" stroke-width="3" stroke-linecap="round" stroke-miterlimit="10" d="M243.572,210.253
		c3.487,5.249,4.053,6.371,9.595,10.497"/>
	
		<path fill="#426A91" stroke="#000000" stroke-width="3" stroke-linecap="round" stroke-linejoin="round" stroke-miterlimit="10" d="
		M304.167,391.25c14.75,7.5,40.052,17.75,52.5,21.75c61.833-48.488,11.75-94.25,9.854-160.406
		c-12.388,3.51-27.854,5.156-50.104,2.906C313.476,289.884,345.584,372.5,304.167,391.25z"/>
	
		<path fill="#426A91" stroke="#000000" stroke-width="3" stroke-linecap="round" stroke-linejoin="round" stroke-miterlimit="10" d="
		M275.917,328.25c2.02,7.87-5.675,10.219-3.75,11.25c1.155,0.618,8.625,1.5,15.75,0.75c0,0,25.115-1.711,33.25,0
		c6.683,1.405,8.25,3,11.75,6.25c17-30.75-46.75-70.25-0.25-139.5c1.125,1.375,2.444,2.364,3.783,3.045
		c5.717,0.195,5.671-0.42,9.181-0.849c-0.732-2.419-12.619-7.337-24.714-9.446c-17.107-2.984-25.2-1.379-31.61,3.316
		c-5.46,3.999-5.46,3.999-12.14,12.934c0,0-18.276,19.786-18.25,53.5C258.93,286.408,268.667,300,275.917,328.25z"/>
</g>
<g id="Eyes">
	<path fill="#D4ECFB" d="M290.5,112.167c0,10.5,10.293,20.667,16,20.667c10.333,0,11.767-10.044,11.767-19.25
		c0-9.205-8.393-19.249-14.1-19.249C293.833,94.335,290.5,102.962,290.5,112.167z"/>
	<path fill="#D4ECFB" d="M363.722,112.167c0,10.5-12.384,19.5-18.091,19.5c-10.333,0-13.464-6.862-12.464-18.083
		c0.817-9.168,11.181-19.249,16.888-19.249C360.389,94.335,363.722,102.962,363.722,112.167z"/>
	<path fill="#FFFFFF" stroke="#000000" stroke-width="2" stroke-miterlimit="10" d="M296.833,117.515
		c0.792,6.672,3.433,12.167,7.667,12.167c4.233,0,6.652-4.273,8.041-10.848c1.834-8.681-3.809-15.667-8.042-15.667
		C300.265,103.167,296,110.5,296.833,117.515z"/>
	<path fill="#FFFFFF" stroke="#000000" stroke-width="2" stroke-miterlimit="10" d="M338.706,117.515
		c0.792,6.672,3.433,12.167,7.667,12.167c4.233,0,6.677-4.269,8.041-10.848c2.42-11.667-3.809-15.667-8.042-15.667
		C342.138,103.167,337.873,110.5,338.706,117.515z"/>
	<path d="M298.313,119.381c0,4.924,2.598,10.3,6.188,10.3s8.041-5.923,8.041-10.848s-4.139-8.369-7.729-8.369
		S298.313,114.457,298.313,119.381z"/>
	<path d="M339.179,119.381c0,4.924,2.598,10.3,6.188,10.3s8.041-5.923,8.041-10.848s-4.139-8.369-7.729-8.369
		S339.179,114.457,339.179,119.381z"/>
	<path fill="#FFFFFF" d="M303.572,124.345c0.993,1.384,2.461,2.031,3.278,1.444c0.818-0.586,1.236-2.584,0.243-3.969
		c-0.991-1.384-3.019-1.629-3.837-1.042C302.439,121.364,302.581,122.962,303.572,124.345z"/>
	<path fill="#FFFFFF" d="M347.258,124.345c-0.993,1.384-2.461,2.031-3.278,1.444c-0.818-0.586-1.236-2.584-0.243-3.969
		c0.991-1.384,3.019-1.629,3.837-1.042C348.391,121.364,348.249,122.962,347.258,124.345z"/>
</g>
<g id="Feet">
	
		<radialGradient id="SVGID_1_" cx="432.2422" cy="571.7734" r="41.3742" gradientTransform="matrix(-1 0 0 1 638.667 0)" gradientUnits="userSpaceOnUse">
		<stop  offset="0.0056" style="stop-color:#FFFFFF"/>
		<stop  offset="0.4412" style="stop-color:#FDFEFE;stop-opacity:0.781"/>
		<stop  offset="0.5981" style="stop-color:#F6FAFC;stop-opacity:0.7021"/>
		<stop  offset="0.71" style="stop-color:#EBF4F8;stop-opacity:0.6458"/>
		<stop  offset="0.8004" style="stop-color:#DAEBF2;stop-opacity:0.6004"/>
		<stop  offset="0.8778" style="stop-color:#C4DFEA;stop-opacity:0.5614"/>
		<stop  offset="0.9451" style="stop-color:#A9D0E1;stop-opacity:0.5276"/>
		<stop  offset="1" style="stop-color:#8DC1D7;stop-opacity:0.5"/>
	</radialGradient>
	<path fill="url(#SVGID_1_)" stroke="#231F20" stroke-width="3" stroke-miterlimit="10" d="M163.667,570c-4,9.5,4.5,28.5,18.5,37.5
		c7.815,5.024,55.363,3.734,62-2c8.49-7.336,5.492-13.808,5.492-26.208C226.796,569.27,203.167,559,188.983,532.92
		C176.667,542,172.712,548.519,163.667,570z"/>
	
		<radialGradient id="SVGID_2_" cx="656.3848" cy="568.501" r="44.4017" gradientTransform="matrix(1 0 0 1 -203.8174 0)" gradientUnits="userSpaceOnUse">
		<stop  offset="0.0056" style="stop-color:#FFFFFF"/>
		<stop  offset="0.4412" style="stop-color:#FDFEFE;stop-opacity:0.781"/>
		<stop  offset="0.5981" style="stop-color:#F6FAFC;stop-opacity:0.7021"/>
		<stop  offset="0.71" style="stop-color:#EBF4F8;stop-opacity:0.6458"/>
		<stop  offset="0.8004" style="stop-color:#DAEBF2;stop-opacity:0.6004"/>
		<stop  offset="0.8778" style="stop-color:#C4DFEA;stop-opacity:0.5614"/>
		<stop  offset="0.9451" style="stop-color:#A9D0E1;stop-opacity:0.5276"/>
		<stop  offset="1" style="stop-color:#8DC1D7;stop-opacity:0.5"/>
	</radialGradient>
	<path fill="url(#SVGID_2_)" stroke="#231F20" stroke-width="3" stroke-miterlimit="10" d="M494.167,561.5
		c5.505,8.715,2.037,35-15.5,44.5c-19.743,10.695-44,9.161-60.5-1.5c-9.425-6.09-9.603-23.234-9.603-35.635
		c21.873-12.668,33.135-22.235,58.103-45.162C477.184,534.066,482.167,542.5,494.167,561.5z"/>
</g>
<linearGradient id="Carrot_Nose_1_" gradientUnits="userSpaceOnUse" x1="279.5254" y1="158.4644" x2="278.3436" y2="120.7554" gradientTransform="matrix(-1 0 0 1 638.667 0)">
	<stop  offset="0.0225" style="stop-color:#C2671D"/>
	<stop  offset="0.0937" style="stop-color:#D37A35"/>
	<stop  offset="0.1067" style="stop-color:#D77E3A"/>
	<stop  offset="0.146" style="stop-color:#E7863A"/>
	<stop  offset="0.192" style="stop-color:#F28B3A"/>
	<stop  offset="0.2416" style="stop-color:#F68D3A"/>
	<stop  offset="0.3294" style="stop-color:#F68E3C"/>
	<stop  offset="0.3678" style="stop-color:#F59143"/>
	<stop  offset="0.3966" style="stop-color:#F49750"/>
	<stop  offset="0.4205" style="stop-color:#F39F62"/>
	<stop  offset="0.4326" style="stop-color:#F2A56E"/>
	<stop  offset="0.5171" style="stop-color:#F49A56"/>
	<stop  offset="0.6011" style="stop-color:#F68D3A"/>
	<stop  offset="0.7978" style="stop-color:#ED8837"/>
	<stop  offset="0.8213" style="stop-color:#EE8B3D"/>
	<stop  offset="0.8522" style="stop-color:#EF944D"/>
	<stop  offset="0.8872" style="stop-color:#F1A269"/>
	<stop  offset="0.8933" style="stop-color:#F2A56E"/>
	<stop  offset="0.9658" style="stop-color:#F9BD85"/>
	<stop  offset="1" style="stop-color:#FDCA92"/>
</linearGradient>
<path id="Carrot_Nose" fill="url(#Carrot_Nose_1_)" stroke="#231F20" stroke-width="3" stroke-miterlimit="10" d="M310.557,146.667
	c0,8.284,11.598,17.137,17.412,15c10.633-3.908,80.567-16.88,80.567-16.88s-21.076-15.105-86.763-13.12
	C315.582,131.854,310.557,138.382,310.557,146.667z"/>
<g id="Hair">
	<polygon fill="#231F20" points="295,60.75 290.5,49.75 296.728,50.833 297.334,60.75 	"/>
	<polygon fill="#231F20" points="306.334,61.833 303.167,60.333 303.167,50.083 293.989,44.667 302.726,45.083 306.334,49.417 	"/>
	<polygon fill="#231F20" points="310.834,39.748 311.75,45.915 311.292,61.498 314.917,61.498 314.917,40.331 	"/>
	<polygon fill="#231F20" points="326.334,61.498 329.667,60.75 331.917,48.331 335.917,41.665 331.75,39.748 329.75,47.581 
		327.25,44.667 324.667,47.665 	"/>
	<polygon fill="#231F20" points="343.584,45.331 340.084,43.247 338,57.497 340.25,59.331 	"/>
	<path fill="#231F20" d="M349.5,61.498l1-9.667l-3.722-13.75l3.722,2.25l2,8.75l8.167-5.167l-0.333,3.583l-7.417,4.75
		c0,0,0.083,8.167-0.25,8.167S349.5,61.498,349.5,61.498z"/>
	<polygon fill="#231F20" points="368.667,53.25 361.334,63.164 357.334,61.498 362.5,54.497 368.667,52.581 	"/>
</g>
<g id="Eyebrows">
	<path fill="#231F20" d="M286.823,82.416c0,0,1.344-8.083,6.511-12.75c3.092-2.792,5.75-1.377,7.822,0.083
		C297.5,73.583,290.084,77,289.75,83.417C289.006,83.625,286.823,82.416,286.823,82.416z"/>
	<path fill="#231F20" d="M364.417,83.747c0.663,0.299,2.667-1.167,2.667-1.167s0-5.583-4.084-10.667
		c-2.638-3.283-5.666-3.75-5.666-3.75s-3.924,0.574-3.611,1.5C354.955,73.831,365.473,75.976,364.417,83.747z"/>
</g>
<g id="Mouth">
	<polyline fill="#231F20" points="263.042,156.917 262.375,156.25 262.125,155.083 262.125,153.875 262.583,152.578 
		263.292,151.203 263,150.412 262.417,149.87 261.584,149.412 260.667,149.412 259.709,149.412 259.209,149.412 258.542,150.078 
		258,150.787 257.459,151.703 257.042,152.412 256.709,153.37 256.709,153.62 257.042,153.953 257.125,154.37 257.209,155.162 
		257.167,158.037 257.334,158.578 257.625,158.912 258.084,159.203 258.709,159.453 259.375,158.787 260.001,158.578 
		261.459,158.703 262.584,158.62 263.084,158.037 263.292,157.412 	"/>
	<polyline fill="#231F20" points="264.875,164.709 265.292,163.126 265.834,162.001 266.667,161.251 267.042,161.418 
		267.417,161.834 271.209,166.043 271.75,166.543 272.25,166.918 272.459,167.168 273.125,167.168 273.125,167.543 272.792,167.918 
		272.25,168.501 271.625,169.126 270.875,169.543 270.084,170.043 269.167,170.334 268.084,170.334 267.25,170.126 266.75,169.709 
		266.292,169.168 266.292,168.043 266.459,167.168 266.125,166.084 265.709,165.418 	"/>
	<path fill="#231F20" d="M274.5,174.922h1.042l0.458,0.708l0.459,0.417l0.708,0.208h0.917l2.041-0.208h1.917l1,0.917l0.542,0.875
		c0,0,0.375,1.042,0.375,1.25s-0.209,1.125-0.209,1.125s-0.458,1.042-0.458,1.208s-0.375,1.042-0.375,1.042v0.958l-0.167,0.5
		l-0.5,0.833l-0.583,0.375h-1l-0.25-0.875l-0.458-1.292l-0.084-1l-0.646-1l-0.979-0.938l-1.166-0.479l-1.125-0.667l-1.125-0.208
		l-0.625-0.792l-0.417-0.708l-0.25-0.5c0,0,0.542-0.875,0.625-0.75"/>
	<path fill="#231F20" d="M288.375,189.278l0.292,0.625l0.5,0.542h0.792l0.958-0.583l0.833-0.25l1.042-0.333l0.917,0.333l0.666,0.25
		l0.375,0.583l0.417,0.5l0.583-0.208l0.667-0.167l0.792-0.458l0.458-0.417l0.458-0.75l0.292-0.5v-0.5v-0.5l-0.25-0.417v-0.875
		L298,185.361l-0.458-0.708l-0.875-0.417h-0.792l-0.916-0.208l-0.834,0.208c0,0-0.458,0.042-0.458,0.167s-0.708,0.375-0.708,0.375
		l-0.625,0.625l-0.125,0.292l-0.334,0.542l-0.458,0.625c0,0-0.333,0.542-0.708,0.625s-1,0.833-1,0.833L288.375,189.278z"/>
	<path fill="#231F20" d="M315.667,188.153l-0.167-1.125l-0.25-0.875l-0.458-1.021l-0.292-0.562l-0.5-0.375h-0.75h-0.166l0.208,2.417
		l-0.208,1.875l-0.459,1.208l-0.583,0.292h-0.708l-1,0.583l-0.667,0.542l-0.792,0.5l-0.291,0.417l0.25,0.458l0.625,0.375
		l0.791,0.208h1.167l0.709-0.417l0.916-0.125h0.5l0.667,0.208c0,0,0.874,0.542,0.916,0.667s0.542,0.542,0.542,0.542l0.875,0.25
		l1.125-0.208l0.6-1.083l0.4-1.083l0.75-1.208l0.208-1.083c0,0-0.417-0.792-0.458-0.917s-0.9-0.583-0.9-0.583l-1.35,0.375
		L315.667,188.153z"/>
	<polyline fill="#231F20" points="335.125,186.82 333.792,186.82 333,187.236 332.375,187.486 331.459,188.07 330.542,188.945 
		329.875,189.82 329.447,190.653 329.084,191.57 329.084,192.07 328.834,192.736 330.084,192.486 330.75,192.736 331.292,192.736 
		332.5,193.528 332.917,193.986 333.709,194.486 334.375,194.486 335.125,194.486 335.667,194.028 336.167,193.528 336.459,192.986 
		336.75,191.945 336.75,190.944 336.417,189.486 336.125,188.32 335.834,187.653 335.292,186.82 335.209,186.653 	"/>
	<path fill="#231F20" d="M346.625,193.528v-1.458l-0.333-0.958l-0.917-0.708l-1.291-0.708l-0.792-0.708l-0.333-1.042
		c0,0-1.543-1.042,0-1.125c1.541-0.083,2.672-0.5,2.672-0.5l1.244-0.458h1.25l1.084,0.375l0.75,0.417l0.166,0.833
		c0,0,0.209,1.583,0,1.708c-0.208,0.125-0.457,1.874-0.75,1.75c-0.291-0.125-1.007,0.594-0.291-0.125l-0.716,0.718"/>
	<path fill="#231F20" d="M363.334,181.403l-0.292-1.375l-0.25-1.542l-0.542-1.125l-0.833-0.333l-0.5,0.667v1.083l0.375,0.875
		l0.625,1l-0.042,0.75l-0.125,0.875l-1.291,0.708h-1l-1.875,0.208c0,0-0.709-0.042-0.959,0s-0.75,0-0.75,0v1.167l0.25,0.708
		l0.584,0.792l1,0.208H359h1.375l1.042,0.208h0.667l0.25,0.375h1h0.541h0.667l0.5-0.375l0.375-0.417l0.292-0.625l0.333-0.75v-1.25
		l-0.417-0.75l-0.541,0.042l-0.959,0.083l-0.625-0.333L363.334,181.403z"/>
	<path fill="#231F20" d="M381.334,170.897h-0.709l-0.5,0.375h-0.708l-0.667-0.375v-0.917l-0.416-1l-0.542-0.833l-0.292-1.042h-1.541
		l0.25,1l0.125,1.667l0.125,1.5l-0.834,1.458l-0.583,0.208c0,0,0.251-0.292-0.417,0c-0.666,0.292-1.458,0.667-1.458,0.667
		l-0.625,0.542l-0.625,0.708v0.667l0.417,0.333c0,0,0.625,0.542,0.583,0.333s0.708,0.048,0.708,0.048l1.25-0.381l1.25-0.208
		l1.125-0.125l0.584,0.714l0.458,0.26l0.5,0.531l0.792,0.328l0.916-0.328l0.625-0.214l0.417-0.75l0.292-0.917l0.375-0.875
		l0.541-0.625l0.25-0.75v-0.667l-0.708-0.917L381.334,170.897z"/>
	<path fill="#231F20" d="M391,165.213h-0.5c0,0-0.416,0.292-0.583,0.292s-0.542,0-0.542,0l-0.583-1.083l-0.958-1.5l-1-0.931
		l-0.792-0.735l-0.625-0.5l-0.333-0.25l0.166-0.583l0.625-0.625l0.584-0.667l0.541-0.542l0.167-0.667L387,156.754l-0.416-0.375
		l0.583-0.208l0.625,0.625l0.25,0.542l0.917,0.083l1.291-0.167c0,0,1.167-0.333,1.292-0.333s1.25-0.042,1.25-0.042l0.5,0.917
		l0.375,0.708c0,0-0.333,1.167-0.25,1.125s-0.667,0.667-0.667,0.667l-0.875,0.75l-0.5,0.375l-0.166,0.792v0.625l-0.125,0.625
		l0.041,0.583L391,165.213z"/>
</g>
<g id="Arms">
	<path fill="#8D5444" stroke="#231F20" stroke-width="2" stroke-miterlimit="10" d="M226.5,248.333L196,258.5l3.666,5.167l-2,1.667
		l-54-35.994l-25.833,4.494l-2.5,13.503c0,0-3.5-0.497-4,0S109.5,245.5,109.5,245.5l-0.667-11.667l-15.167-0.5L92,231.666l-2-2.327
		v-1.673l41.833-1.5l-30.667-22.833L102.5,201l7.5,3.333l7.5,5.92l5,3.58c0,0,5.166,4.081,3.833,2.791s-1.667-9.791-1.667-9.791
		l-2.166-9.5L121.666,193L120,184.028l6.166,1.104l2.334,2.355l0.5,9.68l0.166,6.833l2.167,6.253l1.833,4.08
		c0,0,0.834,1.748,0.334,2.291S134,219,134,219l4.166,2.5l1.667,0.5l1.333-0.167L140,188.166l5.333,1.167l2.5,31.417l0.333,2.75
		l0.5,3.833l6,3l9.001,4.167l26.666,14.5l2.167,2.333l10.5-4.667l12.833-4.5l10.667-2.333l5.333-1.333L226.5,248.333z"/>
	<polygon fill="#8D5444" stroke="#231F20" stroke-width="2" stroke-miterlimit="10" points="423.033,250.374 472.417,265.25 
		470.667,272.369 474.167,274 512.917,214.5 546.417,218.5 548.667,209.25 529.667,209.25 523.667,206.82 538.417,185.861 
		534.417,181.84 525.667,193.528 512.667,165.504 507.667,169 519.917,195.75 510.417,206.82 496.417,181.84 492.917,181.84 
		493.417,185.131 506.167,212.75 476.417,258.75 417.756,239.5 	"/>
</g>
</svg>
