<?xml version="1.0" encoding="utf-8"?>
<!-- Generator: Adobe Illustrator 16.0.0, SVG Export Plug-In . SVG Version: 6.00 Build 0)  -->
<!DOCTYPE svg PUBLIC "-//W3C//DTD SVG 1.1//EN" "http://www.w3.org/Graphics/SVG/1.1/DTD/svg11.dtd">
<svg version="1.1" id="Elf" xmlns="http://www.w3.org/2000/svg" xmlns:xlink="http://www.w3.org/1999/xlink" x="0px" y="0px"
	 width="300px" height="300px" viewBox="0 0 300 300" enable-background="new 0 0 300 300" xml:space="preserve">
<g id="Elf_1_">
	<g id="Hat_1_">
		<g id="Hat_Bow_and_Curl_1_">
			<path fill="none" stroke="#000000" stroke-width="4" stroke-linecap="round" d="M155.184,16.163
				c-1.766,1.014-3.057,3.261-3.53,4.366c2.109-0.378,3.758-0.341,5.926-0.814c4.697-1.024,4.423-3.968,3.476-4.806
				C159.194,14.97,156.949,15.149,155.184,16.163z"/>
			<path id="Hat_Curl_2_" fill="none" stroke="#000000" stroke-width="4" stroke-linecap="round" d="M153.195,13.754
				c-2.108-4.372,0.262-6.951,3.797-9.067c2.378-1.424,5.798-1.666,8.111-0.179c1.849,1.189,1.942,3.183,0.208,4.451
				c-1.389,1.015-3.71,1.066-5.19,0.115c-1.185-0.762-1.243-2.037-0.133-2.848 M151.653,20.529c1.197-1.429,2.309-5.245,1.542-6.774
				"/>
			<path fill="none" stroke="#000000" stroke-width="4" stroke-linecap="round" d="M159.628,20.021
				c-2.21-0.368-5.52,0.386-7.051,0.853c1.169,1.467,2.651,2.019,4.493,2.994c3.987,2.115,6.549,0.052,6.549-1.147
				C163.619,20.983,161.835,20.389,159.628,20.021z"/>
		</g>
		<g id="Bell_2_">
			
				<radialGradient id="Body_Gradient_2_" cx="162.001" cy="6.46" r="11.2755" gradientTransform="matrix(-1.0688 -0.0014 -0.0031 1.1427 310.7819 8.1892)" gradientUnits="userSpaceOnUse">
				<stop  offset="0" style="stop-color:#FFFFFF"/>
				<stop  offset="0.0487" style="stop-color:#FFFBF2"/>
				<stop  offset="0.133" style="stop-color:#FEF4D9"/>
				<stop  offset="0.2429" style="stop-color:#FCEAB4"/>
				<stop  offset="0.3742" style="stop-color:#FADE81"/>
				<stop  offset="0.5222" style="stop-color:#F7D131"/>
				<stop  offset="0.5271" style="stop-color:#F7D02D"/>
				<stop  offset="0.5917" style="stop-color:#E3B92D"/>
				<stop  offset="0.6648" style="stop-color:#D4A72C"/>
				<stop  offset="0.7468" style="stop-color:#CA9B2C"/>
				<stop  offset="0.8439" style="stop-color:#C5942D"/>
				<stop  offset="0.9944" style="stop-color:#C3922D"/>
			</radialGradient>
			<path id="Body_Gradient_1_" fill="url(#Body_Gradient_2_)" d="M126.636,14.66c-1.711,3.549-0.276,7.125,3.533,8.366
				c1.925,0.627,4.585,0.572,6.858,0.636c7.734,0.219,12.277-3.59,12.277-8.313c0-4.6-5.464-8.337-12.232-8.346
				C130.303,6.993,126.647,10.06,126.636,14.66z"/>
			<path id="Outline_1_" d="M126.862,23.166c-2.885-2.328-3.649-5.085-3.641-7.829c0.014-5.65,5.127-10.446,14.919-10.163
				c3.868,0.112,7.181,1.208,9.916,3.149c2.737,1.943,4.572,4.393,4.565,7.137c-0.015,5.651-6.717,10.489-14.701,10.489
				C137.92,25.949,131.224,26.684,126.862,23.166z M126.636,14.66c-1.311,2.318-1.139,6.797,3.533,8.366
				c2.42,0.734,4.814,0.63,7.923,0.634h0.023c6.401,0,11.187-3.548,11.199-8.071c0.006-2.193-1.012-4.093-3.163-5.828
				c-1.538-1.239-4.958-2.731-8.539-2.749C130.914,6.96,126.862,9.324,126.636,14.66z"/>
			<path id="Slot_1_" d="M127.066,10.313c-1.163,1.254-1.297,1.72-1.749,2.641c3.665-2.257,9.447-2.428,11.604-1.995
				c1.732,0.348,3.637,2.399,2.254,3.427c1.665,0.739,2.444,0.888,3.306,0.786c0.789-0.093,2.876-0.974,2.54-2.408
				c-1.558-0.991-3.762-1.964-5.607-2.63C135.348,8.667,129.816,9.483,127.066,10.313z"/>
			<path id="Slot" d="M125.318,12.954c0.325-0.692,0.779-1.693,1.749-2.641c-0.344,3.782,4.993,7.523,7.293,8.496
				c0.886-0.887,1.413-0.93,2.515-0.948c1.486,0.061,1.9,0.675,2.109,1.273c0.192,0.553-0.183,1.821-2.014,2.464
				c-2.037-0.323-4.326-1.411-5.765-2.47C127.314,16.265,126.987,14.884,125.318,12.954z"/>
			<path id="Speck_4_" d="M141.837,8.795c0,0.373,0.053,0.506,0.767,0.708c0.479,0.136,0.959,0.044,1.415-0.211
				c0-0.372-0.678-1.19-1.162-1.19C142.373,8.102,141.837,8.422,141.837,8.795z"/>
			<path id="Speck_3_" d="M145.769,20.596c0.393-0.246,0.499-0.363,0.241-0.878c-0.173-0.346-0.585-0.542-1.155-0.618
				c-0.393,0.246-1.004,0.983-0.488,1.408C144.684,20.769,145.376,20.841,145.769,20.596z"/>
			<path id="Speck_2_" d="M139.029,6.577c-0.407,0.233-0.521,0.347-0.295,0.87c0.152,0.352,0.553,0.561,1.115,0.655
				c0.408-0.233,0.879-1.123,0.576-1.392C140.123,6.441,139.437,6.345,139.029,6.577z"/>
			<path id="Speck_1_" d="M146.366,18.456c0,0.255,0.048,0.346,0.691,0.484c0.432,0.093,0.864,0.03,1.273-0.144
				c0-0.255-0.611-0.814-1.047-0.814C146.849,17.982,146.366,18.201,146.366,18.456z"/>
			<path id="Speck" d="M144.225,18.121c0.3-0.076,0.395-0.128,0.388-0.507c-0.004-0.255-0.19-0.463-0.503-0.627
				c-0.3,0.076-0.797,0.564-0.683,0.793S143.925,18.197,144.225,18.121z"/>
		</g>
		<path fill="#B22029" d="M114.783,92.711c0.625-0.567,0.771-1.187,0.711-1.854c1.679-0.599,4.143-3.578,4.916-3.956
			c-0.221-1.007,1.139-2.001,1.088-3.792c0.421-0.779,0.493-0.96,0.641-1.941c0.147-2.582,0.313-5.238,2.317-8.264
			c0.704-1.063,1.564-2.365,2.611-3.745c2.869-3.783,6.539-7.665,7.577-11.7c0.455-1.768,0.971-4.108,0.663-7.567
			c0.095-0.698,0.122-1.209,0.106-1.592c0.088-0.81,0.041-1.188-0.552-1.486c-0.056-0.873-0.142,0-0.196-0.873
			c-0.133-0.706-0.137-1.017-0.14-1.631c-0.011-2.789,1.499-4.823,3.688-8.054c0.647-0.613,0.805-0.758,1.578-1.358
			c0.735-0.574,1.07-0.826,1.493-1.108c0.616-0.414,1.459-0.982,2.084-1.479c1.875-1.49,5.214-4.502,6.611-6.287
			c0.357-0.456,0.839-1.21,1.332-2.031c-0.314,1.713-0.482,2.202-0.556,2.45c-0.369,1.238-0.287,1.523-1.327,3.18
			c-2.351,3.747-2.984,7.398-2.02,10.844c1.251,4.467,3.31,7.154,8.385,10.666c2.162,1.496,5.629,5.243,8.093,10.589
			c1.115,2.417,2.685,6.482,2.796,9.582c0.095,2.675,0.691,6.561,0.589,8.238c1.471,2.532,0.292,2.635,1.875,5.191
			c1.691,6.431,10.151,10.744,16.735,14.076c2.754,1.394,4.627,2.487,5.224,3.358c0.436,0.638-0.387,1.88-1.563,1.747
			c-7.724-0.878-33.936-5.268-69.912-5.268c-5.93,0-8.188,0.845-9.49,1.055C110.518,97.118,113.017,93.771,114.783,92.711z"/>
		<g id="Green_Dots">
			<g id="Hat_Dot_4_1_">
				<path d="M156.685,89.375c0.965,2.017,4.061,5.124,11.07,5.995c1.488,0.186,4.876,0.14,8.122-1.919
					c-0.623-0.653-0.904-1.007-1.905-1.514c-3.809-3.189-5.714-7.121-6.354-11.051c-0.582-0.733-0.772-1.007-1.114-1.425
					c-1.761-0.256-4.462,0.411-5.758,1.205C155.39,83.56,155.643,87.198,156.685,89.375z"/>
				
					<linearGradient id="SVGID_1_" gradientUnits="userSpaceOnUse" x1="125.5283" y1="87.2739" x2="141.0215" y2="87.2739" gradientTransform="matrix(-1 0 0 1 299.5 0)">
					<stop  offset="0" style="stop-color:#8DBF71"/>
					<stop  offset="0.3068" style="stop-color:#74A357"/>
					<stop  offset="0.7485" style="stop-color:#588840"/>
					<stop  offset="0.9944" style="stop-color:#4D7E3A"/>
				</linearGradient>
				<path fill="url(#SVGID_1_)" d="M158.913,90.272c1.276,0.269,1.943,2.171,5.104,3.049c2.121,0.589,7.296,0.717,9.955-1.384
					c-2.552-2.228-5.031-4.663-6.354-11.051C162.442,80.501,156.864,83.33,158.913,90.272z"/>
				<path d="M161.657,87.34c0,1.811,4.975,6.836,11.251,3.591c-2.195-2.226-4.195-5.858-4.776-7.998
					C165.586,83.275,161.657,83.72,161.657,87.34z"/>
				<path fill="#FFFFFF" d="M164.124,88.326c0.756,1.537,3.811,3.668,7.512,1.337c-1.635-2.093-2.083-2.733-3.007-5.073
					c-1.359-0.082-2.132-0.07-3.354,0.508C163.585,85.969,163.801,87.224,164.124,88.326z"/>
			</g>
			<g id="Hat_Dot_3_1_">
				
					<linearGradient id="SVGID_2_" gradientUnits="userSpaceOnUse" x1="162.4092" y1="88.8359" x2="183.6494" y2="88.8359" gradientTransform="matrix(-1 0 0 1 299.5 0)">
					<stop  offset="0" style="stop-color:#8DBF71"/>
					<stop  offset="0.3068" style="stop-color:#74A357"/>
					<stop  offset="0.7485" style="stop-color:#588840"/>
					<stop  offset="0.9944" style="stop-color:#4D7E3A"/>
				</linearGradient>
				<path fill="url(#SVGID_2_)" d="M115.851,90.681c2.099,3.529,3.033,5.069,9.42,5.208c6.191,0.135,8.563-1.761,10.097-3.272
					c2.949-3.493,1.846-6.652-1.287-8.812c-1.946-1.341-4.461-2.039-6.978-2.028c-1.825,0.008-3.116,0.206-5.037,0.958
					C120.585,87.086,119.029,88.581,115.851,90.681z"/>
				<path d="M126.734,81.751c5.771,0,10.096,3.16,10.096,7.084c-0.975,4.363-5.239,6.843-10.04,6.842
					c-2.732,0-4.607-0.394-6.47-1.561c-0.083,0.016-0.959,0.006-1.175,0.006c-0.203,0-0.412-0.024-0.525-0.101
					c0.251-0.948-2.217-2.291-2.612-3.351c0.632-0.315,1.229-0.625,1.835-1.223c0.663-0.628,0.948-0.898,2.619-2.547
					c0.084,0.01,0.414,0.037,0.629,0.03c-0.071,0.363-0.693,1.332-0.584,2.287c0.104,0.91,0.688,1.837,1.653,2.485
					c1.869,1.255,3.181,1.652,6.756,1.585c3.072-0.058,7.333-2.584,3.696-6.696c-2.096-2.549-8.961-3.907-11.459-0.492
					c0,0-0.107,0.006-0.302,0.019c0.212-0.397,0.895-1.678,1.213-3.385C123.453,82.271,125.084,81.751,126.734,81.751
					 M126.734,80.522c-4.99,0-8.162,2.412-10.038,5.362c-0.647,1.018-1.365,1.911-2.134,2.973c0,0.109-0.062,0.302-0.123,0.487
					c-0.148,0.454-0.333,1.02-0.099,1.642c0.263,0.706,0.947,1.329,1.607,1.932c0.479,0.541-0.508,1.239-0.383,1.462
					c0,0,0.036,0.461,0.467,0.538c0.306,0.121,1.396-0.007,1.396-0.007c0.423,0.288,0.708,0.426,1.4,0.431
					c0.477,0.262,1.75,1.853,2.271,2.062c0.393,0.156,0.304-1.047,0.717-0.921c1.534,0.463,3.212,0.935,4.926,0.936
					c3.041,0,6.202-0.618,8.337-1.885c2.578-1.529,3.825-4.164,3.825-6.677C138.906,84.261,133.446,80.522,126.734,80.522
					L126.734,80.522z"/>
				<path fill="#FFFFFF" d="M122.406,88.683c0,1.079,0.863,2.155,1.461,2.821c0.708,0.188,1.442,0.086,2.205,0.086
					c4.579,0,5.103-1.239,5.103-2.907c0-1.667-1.893-3.02-5.105-3.02C123.911,85.663,122.406,87.016,122.406,88.683z"/>
			</g>
			<g id="Hat_Dot_2_2_">
				<path d="M134.553,64.546c0,3.877,0.672,6.829,9.729,9.976c1.357,0.472,5.941,0.12,10.231-1.059
					c0.188-0.291,0.055-0.51,0.144-0.854c1.095-0.435,2.573-0.727,3.289-1.233c2.589-1.831,1.647-4.642,2.359-7.254
					c-3.084-4.612-9.347-7.028-12.479-7.028c-0.078,0.375-0.065,0.146-0.078,0.375c-5.408,0.161-9.29,2.297-12.823,4.81
					C134.477,62.947,134.553,63.818,134.553,64.546z"/>
				
					<linearGradient id="SVGID_3_" gradientUnits="userSpaceOnUse" x1="141.5542" y1="66.0879" x2="163.4912" y2="66.0879" gradientTransform="matrix(-1 0 0 1 299.5 0)">
					<stop  offset="0" style="stop-color:#8DBF71"/>
					<stop  offset="0.3068" style="stop-color:#74A357"/>
					<stop  offset="0.7485" style="stop-color:#588840"/>
					<stop  offset="0.9944" style="stop-color:#4D7E3A"/>
				</linearGradient>
				<path fill="url(#SVGID_3_)" d="M136.088,66.032c0.843,3.875,6.396,7.26,9.775,7.26c5.163,0,5.163-0.717,10.567-3.382
					c4.745-5.636-2.636-11.302-8.538-11.016C141.55,59.202,135.226,62.071,136.088,66.032z"/>
				<path d="M140.473,66.324c0.2,1.621,1.653,5.431,9.272,5.021c1.28-0.544,5.606-2.831,5.606-4.458
					c0-4.918-7.262-6.199-9.704-6.199C143.206,60.688,140.042,62.832,140.473,66.324z"/>
				<path fill="#FFFFFF" d="M141.986,67.126c1.218,1.247,2.724,2.375,5.347,2.375c2.987,0,6.339-1.96,5.862-3.469
					c-1.15-3.645-6.315-4.458-9.632-3.2C141.653,64.838,142.128,66.032,141.986,67.126z"/>
			</g>
			<g id="Hat_Dot_1_2_">
				<path d="M145.96,39.689c0.193,3.875-2.708,9.436-10.591,10.316c-0.167-3.181-2.408-10.334,5.839-15.975
					c2.187,0.851,3.474,2.687,3.96,3.498C145.559,38.31,145.949,39.474,145.96,39.689z"/>
				
					<linearGradient id="SVGID_4_" gradientUnits="userSpaceOnUse" x1="155.6836" y1="41.7549" x2="164.8945" y2="41.7549" gradientTransform="matrix(-1 0 0 1 299.5 0)">
					<stop  offset="0" style="stop-color:#8DBF71"/>
					<stop  offset="0.3068" style="stop-color:#74A357"/>
					<stop  offset="0.7485" style="stop-color:#588840"/>
					<stop  offset="0.9944" style="stop-color:#4D7E3A"/>
				</linearGradient>
				<path fill="url(#SVGID_4_)" d="M143.779,41.132c-0.479,4.065-4.972,7.011-8.293,7.248c0.009-0.518,0.131-1.103-0.553-1.429
					c-0.029-0.257-0.026-0.371-0.136-0.46c-0.359-2.378-0.65-4.382,3.411-10.012c0.531-0.539,0.775-0.767,1.542-1.348
					C141.227,35.697,144.177,37.753,143.779,41.132z"/>
				<path d="M141.048,42.328c-0.548,3.027-5.516,3.655-6.305,3.757c-0.596-2.818,0.267-5.584,3.465-9.606
					C139.443,37.17,141.676,38.851,141.048,42.328z"/>
				<path fill="#FFFFFF" d="M138.527,42.269c-0.331,0.725-1.294,2.228-3.917,2.228c-0.232-1.226,1.004-4.084,2.013-5.642
					c0.391-0.622,1.485-0.526,1.788,0.143C138.965,40.33,138.963,41.676,138.527,42.269z"/>
			</g>
		</g>
		<g id="Hat_Specks">
			<path d="M181.905,100.302c-0.406,0.232-0.413,0.277-0.188,0.8c0.152,0.352,0.44,0.448,0.937,0.685
				c0.408-0.233,0.636-0.787,0.402-1.223C182.885,100.104,182.314,100.069,181.905,100.302z"/>
			<path d="M185.175,100.321c-0.29,0.192-0.299,0.526-0.188,0.8c0.151,0.352,0.882,0.429,1.521,0.429
				c0.305-0.282,1.052-0.307-0.332-1.114C185.76,100.161,185.581,100.088,185.175,100.321z"/>
			<path d="M186.394,101.762c-0.289,0.192-0.757,0.555-0.643,0.833c0.157,0.356-0.43,0.82,1.592,0.82
				c0.737,0,1.176-0.647,0.059-1.531C186.982,101.603,186.802,101.528,186.394,101.762z"/>
			<path d="M178.842,101.128c-0.285-0.313-1.015-0.66-1.401-0.66c-0.388,0-0.395,0.479-0.395,0.788
				c-0.009,0.74,0.09,0.608,1.274,0.602C178.645,101.871,178.842,101.705,178.842,101.128z"/>
			<path d="M180.522,98.403c0,0.37,0.247,0.669,0.554,0.669c0.305,0,0.804-0.115,0.687-0.634c-0.097-0.43-0.063-0.774-0.687-0.774
				C180.77,97.664,180.522,97.862,180.522,98.403z"/>
			<path d="M178.143,97.385c0.337,0.282,0.699,0.375,1.03,0.254c0.271-0.099,0.479-0.419-0.006-0.814
				c-0.379-0.308-0.528-0.516-1.008-0.231C177.62,96.915,177.65,96.973,178.143,97.385z"/>
			<path d="M160.306,78.027c0,0.264,0.016,0.495,0.332,0.495c0.319,0,1.39-0.043,1.39-0.307c0-0.264-0.76-1.281-1.078-1.281
				C160.632,76.934,160.306,77.762,160.306,78.027z"/>
			<path d="M161.166,75.13c0,0.264,0.017,0.495,0.333,0.495c0.318,0,3.884,0.005,3.884-0.258c0-0.132-0.072-1.666-2.062-0.477
				c-1.294-0.996-1.996-0.735-2.155-0.735C160.85,74.155,161.166,74.866,161.166,75.13z"/>
			<path d="M162.937,78.266c0,0.264,0.024,0.496,0.516,0.496c0.49,0,2.19-0.046,2.146-0.308c-0.19-1.11-0.153-1.644-1.665-1.281
				C162.937,77.412,162.937,78.002,162.937,78.266z"/>
			<path d="M162.818,73.159c0,0.396,0.364,0.717,0.814,0.717s1.534,0.154,1.27-0.717c-0.116-0.387-0.819-0.717-1.27-0.717
				S162.818,72.763,162.818,73.159z"/>
			<path d="M162.604,69.777c0,0.357,0.177,0.647,0.395,0.647c0.22,0,1.449,0.358,1.449,0s-1.229-1.295-1.449-1.295
				C162.78,69.129,162.604,69.419,162.604,69.777z"/>
			<path d="M161.285,68.651c0,0.367,0.37,0.662,0.827,0.666c0.824,0.006,0.824,0.119,0.824-0.666c0-0.369,0.027-0.829-0.368-0.667
				C162.027,68.207,161.285,68.282,161.285,68.651z"/>
			<path d="M143.71,76.807c0,0.598,2.469,0.598,2.469,0c0-0.6-0.553-1.086-1.234-1.086C144.263,75.721,143.71,76.207,143.71,76.807z
				"/>
			<path d="M140.236,74.857c0,0.675,2.468,0.675,2.468,0s-1.273-1.938-1.954-1.938C140.069,72.919,140.236,74.182,140.236,74.857z"
				/>
			<path d="M133.937,73.105c0,0.65,2.468,0.938,2.468,0.288c0-0.65-0.195-1.558-0.876-1.558S133.937,72.455,133.937,73.105z"/>
			<path d="M137.709,72.57c0,0.264,0.12,0.478,0.851,0.478c0.471,0,1.042-0.085,0.851-0.478c-0.122-0.25-0.657-0.735-1.126-0.735
				C137.814,71.835,137.709,72.306,137.709,72.57z"/>
			<path d="M134.952,69.358c0,0.637-0.228,1.153-0.508,1.153c-0.281,0-1.576-0.516-1.576-1.153c0-0.636,0.917-1.153,1.198-1.153
				C134.347,68.206,134.952,68.722,134.952,69.358z"/>
			<path d="M136.271,54.705c0,0.445,0.466,0.829,1.042,0.829s1.186,0.078,1.186-0.153c0-0.231-0.607-0.702-1.113-0.897
				C136.917,54.304,136.271,54.474,136.271,54.705z"/>
			<path d="M138.499,52.946c0,0.278,0.441,0.503,0.985,0.503s1.043,0.21,1.043-0.067c0-0.279,0.193-0.939-0.351-0.939
				S138.499,52.667,138.499,52.946z"/>
			<path d="M140.468,51.588c0,0.349-0.076,0.854,0.5,0.854c0.575,0,1.125-0.557,1.125-0.905c0-0.349-0.551-0.632-1.125-0.632
				C140.392,50.905,140.468,51.239,140.468,51.588z"/>
			<path d="M149.689,50.734c0,0.406,0.397,0.734,0.886,0.734c0.491,0,1.175-0.158,1.175-0.563c0-0.406-0.446-1.008-0.936-1.008
				C150.325,49.897,149.689,50.329,149.689,50.734z"/>
			<path d="M151.75,52.151c0,0.302,0.668,0.341,1.365,0.546c0.838,0.249,1.364,0,1.364-0.546c0-0.547-0.61-0.547-1.364-0.547
				S151.75,51.85,151.75,52.151z"/>
			<path d="M117.834,97.471c0,0.396,0.828,0.717,1.186,0.717c0.357,0,0.108-0.375,0.108-0.77c0-0.396-0.503-0.664-1.042-0.664
				C117.728,96.754,117.834,97.075,117.834,97.471z"/>
			<path d="M113.341,96.011c0,0.396,1.037,0.973,1.394,0.973c0.356,0,0.107-0.375,0.107-0.771c0-0.396-0.503-0.664-1.042-0.664
				C113.442,95.55,113.341,95.615,113.341,96.011z"/>
			<path d="M152.66,54.086c0,0.375,0.206,0.679,0.683,0.679c0.647,0,1.137-0.305,1.137-0.679c0-0.375-0.346-0.679-1.137-0.679
				C152.866,53.408,152.66,53.711,152.66,54.086z"/>
			<path d="M155.786,54.519c0,0.349,0.552,0.631,1.232,0.631s0.927-0.266,0.927-0.615c0-0.349-0.246-0.82-0.927-0.82
				S155.786,54.17,155.786,54.519z"/>
			<path d="M145.52,31.875c-0.146,0.576-0.408,1.012,0.868,1.012c0.368,0,1.204-0.453,1.204-1.012c0-0.558-0.359-1.012-1.204-1.012
				C146.021,30.863,145.66,31.325,145.52,31.875z"/>
			<path d="M146.73,29.89c-0.146,0.576-0.544,0.974,0.731,0.974c0.368,0,1-0.257,1-0.816s-0.836-1.012-1.204-1.012
				S146.869,29.339,146.73,29.89z"/>
		</g>
		<path id="Hat_Outline_1_" d="M189.927,106.519c-0.629-0.252-38.901-6.814-69.581-5.457c-3.218,0.142-9.085,1.767-9.309,1.845
			c-3.324,1.146-3.548-0.747-3.548-3.033c0-2.774,1.374-5.262,4.842-8.631c2.148-2.087,4.078-4.313,5.015-6.664
			c0.424-1.064,0.771-2.372,1.006-3.843c0.419-2.622,0.79-5.919,2.947-9.223c0.721-1.104,2.272-2.83,3.395-4.191
			c3.019-3.663,4.368-5.802,5.302-9.489c0.291-1.147,0.602-4.498,0.413-7.497c-0.226-3.551,0.767-7.983,2.035-10.287
			c2.554-4.637,4.906-6.234,6.979-7.644c0.585-0.397,1.138-0.773,1.668-1.2c1.735-1.401,4.895-4.311,6.096-5.867
			c0.818-1.061,2.632-4.384,3.274-5.6c0.019-0.037,0.041-0.074,0.064-0.108c0.097-0.143,0.238-0.263,0.404-0.355
			c0.149-0.083,0.324-0.146,0.515-0.183c0.172-0.033,0.354-0.043,0.536-0.028c0.168,0.014,0.329,0.048,0.477,0.101
			c0.192,0.068,0.354,0.164,0.482,0.278c0.123,0.11,0.216,0.239,0.268,0.381c0.017,0.042,0.027,0.086,0.035,0.13
			c0.109,0.525,1.168,4.171,0.906,5.613c-0.256,1.41-1.388,3.227-2.27,5.011c-1.555,3.146-3.144,6.681-2.304,9.474
			c1.987,6.612,5.587,7.98,7.952,10.02c4.056,3.494,7.923,6.133,10.027,10.581c1.258,2.657,1.411,6.618,1.157,10.454
			c-0.402,6.07,0.605,10.399,3.516,15.036c3.768,6,8.878,7.814,14.145,10.688c3.239,1.77,5.365,3.155,6.534,4.378
			c1.062,1.109,1.955,3.176,1.655,3.834c-0.3,0.657-0.998,0.703-1.076,0.759C192.195,106.687,190.333,106.682,189.927,106.519z
			 M149.706,26.328c-1.364,1.769-4.628,4.758-6.459,6.235c-0.611,0.494-1.435,1.058-2.038,1.467c-0.412,0.281-0.74,0.531-1.458,1.1
			c-0.755,0.596-0.91,0.739-1.542,1.348c-2.14,3.203-3.614,5.223-3.603,7.988c0.003,0.61,0.007,0.917,0.138,1.618
			c0.052,0.866,0.137,0,0.19,0.866c0.58,0.296,0.625,0.672,0.54,1.475c0.015,0.38-0.011,0.886-0.104,1.58
			c0.301,3.431-0.203,5.753-0.647,7.505c-1.014,4.003-4.6,7.854-7.404,11.606c-1.022,1.368-1.864,2.66-2.551,3.715
			c-1.96,3.001-2.121,5.636-2.264,8.197c-0.144,0.974-0.216,1.153-0.627,1.925c0.049,1.777-1.278,2.763-1.062,3.762
			c-0.755,0.376-3.163,3.331-4.805,3.924c0.061,0.661-0.083,1.276-0.694,1.839c-1.725,1.051-4.168,4.372-4.537,6.931
			c1.271-0.209,3.478-1.048,9.272-1.048c35.156,0.001,60.768,4.355,68.315,5.226c1.15,0.133,1.952-1.1,1.527-1.732
			c-0.582-0.863-2.412-1.948-5.105-3.331c-6.432-3.305-14.699-7.583-16.352-13.962c-1.546-2.536-1.063-2.342-1.932-5.103
			c0.101-1.664-0.384-5.565-0.477-8.218c-0.107-3.075-1.644-7.108-2.731-9.505c-2.408-5.303-5.795-9.02-7.908-10.503
			c-4.959-3.484-6.971-6.148-8.193-10.58c-0.944-3.419-0.324-7.041,1.974-10.757c1.016-1.643,0.936-1.926,1.296-3.155
			c0.072-0.246,0.237-0.73,0.544-2.429C150.526,25.127,150.055,25.875,149.706,26.328z"/>
		<path id="Brim_White" fill="#FDFDFE" d="M108.597,106.984c-0.402,2.093-1.546,8.751,2.443,7.719
			c8.052-2.083,20.493-5.97,33.075-5.292c10.927,0.588,36.122,8.471,48.486,9.94c2.252-0.454,3.547-4.355,3.547-6.902v-1.776
			c-0.863-1.503-4.748-3.028-6.999-3.445c-7.621-1.412-25.683-4.551-30.997-4.89c-11.679-0.746-33.789-3.026-46.632-0.088
			c-1.938,0.885-2.33,1.343-2.731,3.436L108.597,106.984z"/>
	</g>
	<g id="Head_1_">
		<g id="Head">
			<path id="Face_Body" fill="#EDB8AA" d="M137.707,160.207c-2.161-0.781-2.874-1.152-5.294-1.749
				c-1.333-0.33-2.615-0.504-3.782-0.415c-0.941-0.389-2.174-0.876-3.043-1.322c0.099-0.298,0.168-0.607,0.228-0.997
				c-2.87-0.787-5.594-5.115-8.499-5.039c-3.166-3.518-5.844-4.468-9.986-20.546c-0.093-2.26-0.213-2.558-0.052-4.436
				c1.671-1.945,26.237-13.991,40.54-13.991c21.345,0,47.537,2.876,47.111,13.569c-0.334,8.462-0.925,14.816-6.66,21.063
				c-1.87,2.036-7.104,5.133-7.379,5.374c-0.9,0.786-1.229,1.196-2.062,1.749c-2.779,1.844-5.942,1.236-9.153,3.838
				c-1.068,0.867-2.504,1.619-4.001,1.775c-6.303,0.655-10.423,1.295-16.173,2.024C140.78,162.209,139.645,160.909,137.707,160.207z
				"/>
			<path id="Face_Outline" d="M137.774,160.25c-2.077-0.791-2.941-1.195-5.361-1.792c-1.333-0.33-2.615-0.504-3.782-0.415
				c-1.801-0.742-3.012-1.279-3.06-1.305c0.132-0.377,0.172-0.521,0.237-0.997c-2.828-0.768-5.52-5.09-8.425-5.013
				c-3.165-3.518-5.843-4.468-9.985-20.546c-0.094-2.26-0.215-2.558-0.052-4.435c1.671-1.946,26.236-13.991,40.539-13.991
				c21.346,0,47.538,2.876,47.113,13.569c-0.336,8.462-0.927,14.817-6.661,21.063c-1.87,2.035-7.104,5.133-7.38,5.374
				c-0.9,0.785-1.229,1.196-2.062,1.748c-2.779,1.844-5.941,1.236-9.152,3.839c-1.068,0.866-2.51,1.575-4.001,1.774
				c-6.122,0.819-10.424,1.296-16.173,2.024C140.847,162.253,139.697,160.984,137.774,160.25z M114.599,123.935
				c-1.691,1.259-3.058,1.915-4.152,2.188c1.917,15.585,10.724,32.375,35.816,32.375c16.023,0,32.64-4.227,39.07-13.254
				c4.104-5.764,4.414-10.756,4.154-17.976c-0.019-0.496,0.26-1.158,0.276-1.723c0.002-0.075,0.33-11.23-41.879-11.23
				C130.692,114.315,120.407,119.611,114.599,123.935z"/>
		</g>
		<g id="Ears">
			<g id="Left_Ear">
				<path id="Ear_Pink_1_" fill="#EDB8AA" d="M195.003,128.801c4.313-2.05,9.722-5.757,13.365-5.161
					c-1.485,5.118-2.823,8.814-6.997,14.713c-4.888,6.909-10.313,10.697-15.91,10.697
					C193.226,143.173,194.429,136.361,195.003,128.801z"/>
				<path id="Ear_Outline_1_" d="M207.542,123.577c0.284,0,0.56,0.02,0.826,0.064c-1.485,5.118-2.823,8.814-6.997,14.713
					c-4.888,6.909-10.313,10.697-15.91,10.697c7.765-5.878,8.968-12.69,9.542-20.25C199,126.901,203.941,123.577,207.542,123.577
					 M195.093,125.728l-2.85,1.485l-0.108,1.416c-0.53,6.973-0.826,13.052-7.2,19.278l-5.751,3.881h6.277
					c6.588,0,14.281-3.839,18.833-11.771c7.236-11.9,3.318-11.622,6.858-15.736c0.5-0.583,2.048-1.525,2.87-1.453
					c1.563,0.138,3.086,0.517,5.558,2.719c1.679,1.493,2.445,3.253-1.916,2.059c-0.342-0.094-1.102,0.288-0.862,0.853
					c0.357,0.844,2.004,2.005,3.019,1.876c1.679-0.213,3.931-0.981,3.93-4.479c-0.001-4.265-6.037-4.838-6.037-4.838
					s-2.732-0.663-7.237-0.407C204.06,120.975,196.071,125.263,195.093,125.728z"/>
			</g>
			<g id="Right_Ear">
				<path id="Ear_Pink" fill="#EDB8AA" d="M107.482,130.14c-6.47-5.726-12.058-9.164-18.617-9.724
					c1.486,5.118,3.223,14.163,7.583,20.599c5.764,8.509,14.026,8.22,19.623,8.22C110.574,142.646,109.387,137.139,107.482,130.14z"
					/>
				<path id="Ear_Outline" d="M97.24,122.928c3.172,1.515,6.379,4.254,10.111,7.067c2.432,8.509,3.492,13.755,8.498,19.123
					c-5.597,0-14.063-0.139-19.238-8.167c-4.173-5.899-5.912-15.337-7.548-20.422C89.329,120.484,94.292,121.52,97.24,122.928z
					 M91.849,117.602c-3.416-1.242-5.381-1.693-7.261-1.791c-3.989-0.208-8.336,2.899-8.338,7.165
					c-0.001,3.497,3.666,3.966,5.607,3.774c1.019-0.101,3.09-1.204,2.875-3.007c-0.072-0.601-0.971-2.159-1.546-1.008
					c-0.875,1.755-2.336,0.155-2.336-0.72c0-1.743,2.135-1.632,3.019-1.618c1.204,0.019,3.917,0.323,4.906,4.337
					c1.448,5.877-1.455,5.79,6.039,17.032c4.941,7.469,13.981,10.523,22.606,9.02h2.264l-2.317-2.367
					c-6.374-6.226-7.772-12.234-8.303-19.207l-0.221-2.374l-1.497-1.092C104.428,124.089,97.383,119.617,91.849,117.602z"/>
			</g>
		</g>
		<g id="Eyes">
			<path id="Eye_Left" d="M150.644,135.712c0,1.232,1.218,2.232,2.721,2.232c1.504,0,3.033-0.877,3.033-2.111
				c0-1.233-1.529-2.942-3.033-2.942C151.861,132.891,150.644,134.479,150.644,135.712z"/>
			<path id="Eye_Right" d="M145.063,134.826c0,1.838,2.493,3.327,3.869,3.327s1.5-1.489,1.5-3.327c0-1.837-1.5-3.326-2.876-3.326
				C146.179,131.5,145.063,132.989,145.063,134.826z"/>
		</g>
		<g id="Mouth">
			<path id="Smile" fill="none" stroke="#000000" stroke-width="4" stroke-linecap="round" stroke-miterlimit="10" d="
				M172.715,136.17c-14.952,24.74-49.813,15.618-44.279-5.646"/>
			<path id="Grin_Left" fill="none" stroke="#000000" stroke-width="3" stroke-linecap="round" stroke-miterlimit="10" d="
				M177.1,137.497c-2.84-1.327-5.714-0.833-5.68-4.925"/>
			<path id="Grin_Right" fill="none" stroke="#000000" stroke-width="3" stroke-linecap="round" stroke-miterlimit="10" d="
				M123.117,129.245c4.097,2.255,4.097,1.092,8.195,0.319"/>
		</g>
		<g id="Hair">
			
				<radialGradient id="Body_Gradient_4_" cx="154.8477" cy="117.4092" r="24.8386" gradientTransform="matrix(-1.1344 0 0 1.0585 326.3096 -5.8955)" gradientUnits="userSpaceOnUse">
				<stop  offset="0" style="stop-color:#FFFFFF"/>
				<stop  offset="0.0989" style="stop-color:#E5DCD4"/>
				<stop  offset="0.3119" style="stop-color:#B9A08A"/>
				<stop  offset="0.6202" style="stop-color:#805937"/>
				<stop  offset="0.6847" style="stop-color:#754C29"/>
				<stop  offset="0.8545" style="stop-color:#643220"/>
				<stop  offset="1" style="stop-color:#541715"/>
			</radialGradient>
			<path id="Body_Gradient" fill="url(#Body_Gradient_4_)" d="M111.541,121.45c0.713-0.046,1.7-0.104,1.742-0.129
				c3.593-2.162,8.311-3.498,8.684-3.655c0.291-0.123,2.315-0.624,4.529-0.32c1.949,0.269,6.308,2.617,6.829,2.959
				c0.895,0.586,2.927,1.569,5.54,1.998c0.655-0.007,1.508,0.078,2.021-0.458c-0.58-1.986-0.218-4.251,0-4.469
				c5.717-5.717,15.303-2.596,16.448-2.333c3.535,0.813,7.879,2.412,8.338,2.623c8.032,3.703,14.16,6.978,19.951,7.61
				c1.026,0.112,4.126,0.271,4.126,0.271c-0.937-5.598-10.002-7.316-19.256-9.209c-10.817-2.213-17.271-4.47-29.752-5.104
				C129.128,110.961,113.814,114.363,111.541,121.45"/>
			<path id="Outline_Black" d="M128.669,100.42c10.688,0,22.145,1.333,29.483,1.917c5.314,0.423,23.376,3.23,30.997,4.993
				c2.251,0.521,6.559,2.305,6.999,4.302c0.118,0.543,0,2.217,0,2.217c-0.402,2.613-1.295,4.935-3.547,5.501
				c-12.364-1.834-36.947-9.169-47.874-9.904c-1.307-0.087-2.618-0.129-3.93-0.129c-11.311,0-22.543,3.053-29.758,5.385
				c-0.36,0.117-0.679,0.17-0.96,0.17c-2.828,0-1.849-5.47-1.483-7.847l0.191-1.621c0.402-2.614,0.793-2.052,2.731-3.156
				C116.294,100.887,122.347,100.42,128.669,100.42 M110.447,126.123c2.661-0.245,11.1-5.886,11.232-5.968
				c1.461-0.907,4.746-0.83,5.656-0.535c1.999,0.648,3.533,1.597,4.409,2.251c3.473,2.789,11.498,3.161,12.7,3.126
				c2.748-0.079,6.231-1.307,7.697-2.273c0.741-0.489,0.192-5.357-4.2-0.793c-0.385-2.58,0.864-3.496,1.197-3.813
				c0.778-0.741,4.52-0.934,5.367-0.896c3.689,0.167,5.895,0.933,12.791,2.911c5.285,1.515,6.938,3.567,11.074,5.235
				c0.887,0.358,2.712,0.977,3.642,1.237c3.053,0.853,7.667,0.64,7.667,0.64c2.424-0.24,5.625,0.805,5.319-1.919
				c-0.333-2.97,3.785-9.555,3.785-9.555l1.007-2.132l0.575-1.024c0,0,1.058-3.437,0.575-4.478
				c-1.246-2.687-11.467-4.127-13.455-4.448c-7.643-1.767-23.534-3.758-29.142-4.206c-1.654-0.132-21.343-1.998-29.718-1.998
				c0,0-3.52-0.078-4.694-0.083c-6.208-0.031-7.937,0.214-11.181,0.793l-1.83,0.494c0,0-3.002,1.046-3.283,1.174
				c-1.884,0.855-2.835,2.811-3.209,5.244v2.729c0.096,3.966-0.768,5.259,0.885,8.374c0.482,0.907,1.163,1.322,2.543,1.883
				c-0.183,0.489-0.267,6.779-0.194,7.611L110.447,126.123z M111.687,121.242c2.252-6.695,17.42-9.909,28.921-9.653
				c12.363,0.601,18.739,2.318,29.073,4.729c8.382,1.956,18.543,3.505,19.47,8.793c0,0-3.069-0.15-4.087-0.256
				c-5.736-0.597-11.391-4.051-19.346-7.548c-0.454-0.2-6.894-2.863-9.249-2.943c-1.171-0.041-10.056-2.373-15.718,3.028
				c-0.215,0.206-0.575,2.346,0,4.222c-0.508,0.506-1.353,0.426-2.002,0.433c-2.588-0.405-4.601-1.333-5.487-1.887
				c-0.516-0.323-5.042-2.87-6.972-3.123c-2.193-0.288-4.288,0.193-4.577,0.309c-0.369,0.147-4.743,1.731-8.302,3.774
				C113.37,121.144,112.393,121.199,111.687,121.242"/>
		</g>
	</g>
	<g id="Legs">
		<g id="Socks">
			<g id="Left">
				<g id="White_5_">
					<path id="White_1_" fill="#F6FAF5" d="M154.251,230.039c0.018-0.142,0.181-0.664,0.769-0.579
						c0.946,0.139,1.628,0.358,2.852,0.358c2.485,0,7.175-0.696,8.403-1.59c-0.157,3.31-1.271,6.519-0.604,10.563
						c-1.383,0.01-2.042,0.116-2.289,0.224c-1.915,0.833-2.021,4.467,1.552,1.115c0.198-0.186,0.773,0.102,0.775,0.455
						c-0.047,1.79-0.11,2.049-1.188,2.124c-1.887,0.131-3.363,0.169-4.517,0.203c-2.623,0.075-5.127,0.202-5.93-0.625
						C154.188,239.321,154.135,235.457,154.251,230.039z"/>
					<path id="White" fill="#F6FAF5" d="M153.172,257.521c0.104,0.489,8.676,1.855,10.245,1.643
						c-0.023,1.514-0.521,3.148-1.15,4.172c-1.081-0.043-0.67,0.811-2.779,1.194c0,0-1.622,0.16-2.061,0.085
						C152.204,263.721,152.646,260.252,153.172,257.521z"/>
				</g>
				<g id="Red_5_">
					<path id="Red_1_" fill="#B22029" d="M154.528,244.039c2.601,1.316,9.228,0.561,10.999,0.352
						c-0.12,1.535-0.459,4.311-0.54,5.182c-0.253,2.694-0.83,5.271-1.115,7.364c-0.031,0.24-5.195,0.621-10.999-1.351
						C152.997,251.582,152.755,245.573,154.528,244.039z"/>
					<path id="Red" fill="#B22029" d="M155.639,228.489c-0.266-0.076-1.713-1.524-1.713-2.196
						c0.374-5.312,2.804-10.017,2.899-10.268c0.517-0.902,1.557-2.22,3.095-2.148c1.819,0.086,2.876,1.266,4.563,3.358
						c2.146,2.659,2.011,6.121,2.229,9.627C164.455,227.334,157.64,229.065,155.639,228.489z"/>
				</g>
			</g>
			<g id="Right">
				<g id="Red_4_">
					<path id="Red_3_" fill="#B22029" d="M145.544,263.838c-1.305,0-2.857-0.134-4.421-0.32c-2.673-0.317-2.864-3.08-2.588-11.45
						c-0.02,0.433,9.081,2.082,12.543-0.288c-0.213,4.271-0.215,8.368-0.215,10.971
						C148.635,263.587,146.936,263.838,145.544,263.838z"/>
					<path id="Red_2_" fill="#B22029" d="M149.569,222.961c1.905,1.646,1.923,5.345,1.704,7.215
						c-0.234,1.994-0.598,4.331-1.011,6.539c-0.042,0.225-5.841,1.527-11.115-0.672c0.538-5.498,1.044-10.324,1.725-14.041
						C140.863,222.325,148.796,223.855,149.569,222.961z"/>
				</g>
				<g id="White_4_">
					<path id="White_3_" fill="#FFFFFF" d="M151.395,221.138c-1.455,0.162-6.911,0.72-9.782-0.754
						c1.231-5.896,2.972-8.811,6.31-8.811C149.947,211.573,151.238,215.182,151.395,221.138z"/>
					<path id="White_2_" fill="#FFFFFF" d="M149.03,248.356c2.013,0.16,1.935,0.961,1.916,1.207
						c-0.058,0.77-1.701,3.016-12.005,0.805c0.077-2.189,0.217-6.376,0.377-9.943c0.134-0.411,0.621-1.69,1.248-2.495
						c1.156,1.876,9.827-0.234,10.851,1.062c0,2.343-0.236,4.699-0.35,7.317C151.033,247.094,150.074,247.816,149.03,248.356z"/>
				</g>
			</g>
		</g>
		<path id="Outline_2_" d="M149.784,267.964c-2.228,0.224-0.245,2.017,0.359,2.271c-1.469,0.013-0.323,2.176,0.431,2.207
			c0.468,3.966-0.799,5.157-0.958,5.128c-1.438-0.255-4.409-5.464-8.937-7.229c-4.146,6.313-13.322,6.504-13.322,6.504
			c0,0,2.336-1.109,3.234-4.115c0.225-0.75,0.899-4.638,1.366-6.269C136.634,267.417,144.609,266.652,149.784,267.964z
			 M123.117,279.095c0,0,0.862,1.566,5.608,1.023c1.625-0.187,8.522-2.335,12.117-5.662c2.05,1.888,6.221,5.693,11.534,9.788
			c-0.007-1.531-0.016-2.868-0.021-4.509c7.045-0.128,5.982-2.753,8.211-2.72c0.954,0.014,3.779,2.809,6.863,3.966
			c2.729,1.023,6.228,2.18,6.326,2.207c2.517,0.703,4.853,0,4.853,0s-7.655-7.933-5.755-18.159c-0.12-0.07-2.953,0.243-6.37,0.443
			c-0.682-12.768,5.267-39.187,1.534-49.02c-0.94-2.763-4.889-5.416-7.747-5.416h-2.316c-1.951,0.73-2.293,0.488-2.992,2.146
			c-0.634,0.157-1.45,0.48-1.6,0.099c-1.314-3.338-3.467-4.107-6.381-4.33c-6.685-0.512-8.482,6.78-8.482,6.78
			c0.18,1.313,0.216,2.431,0.324,4.158c-1.289,4.401-2.166,16.313-2.193,16.536c-0.062,0.499-0.574,10.108-0.683,13.18
			c-0.192,5.404-0.742,12.839-0.431,15.03c-5.928-0.318,0,0-5.928-0.318C130.378,271.898,123.117,279.095,123.117,279.095z
			 M154.647,244.25c2.6,1.317,8.869,0.624,10.639,0.413c-0.119,1.536-0.541,4.048-0.623,4.919c-0.252,2.694-0.748,4.943-1.032,7.038
			c-0.032,0.24-4.563,0.784-10.367-1.188C153.391,251.429,152.875,245.786,154.647,244.25z M154.178,235.053l0.073-5.014
			c0.016-0.142,0.181-0.664,0.769-0.579c0.946,0.139,1.628,0.358,2.852,0.358c2.485,0,7.175-0.696,8.403-1.59
			c-0.157,3.31-1.271,6.519-0.604,10.563c-1.383,0.01-2.042,0.116-2.289,0.224c-1.915,0.833-2.021,4.467,1.551,1.115
			c0.199-0.186,0.774,0.102,0.776,0.455c-0.047,1.79-0.11,2.049-1.188,2.124c-1.887,0.131-3.363,0.169-4.518,0.203
			c-2.622,0.075-5.126,0.202-5.93-0.625C154.148,240.33,154.151,237.979,154.178,235.053z M166.416,226.577
			c-2.319,0.479-8.601,2.115-10.654,1.53c-0.273-0.078-1.55-1.107-1.55-1.792c0.384-5.403,2.903-10.117,3.003-10.372
			c0.529-0.917,1.372-1.939,2.952-1.866c1.87,0.088,2.903,1.736,4.33,4.037C166.352,221.103,166.192,223.009,166.416,226.577z
			 M155.39,267.836c0.287-0.341,1.26-0.865,2.123-0.865c0.107,0,0.207,0.006,0.3,0.018c2.768,0.352,4.756,0.483,6.383,0.483
			c2.593,0,4.273-0.334,6.746-0.648c-0.529,1.203-0.464,2.902-0.118,4.683c-1.378-0.023-1.771,0.693-1.811,1
			c1.343,0.324,2.431,1.482,2.674,2.221c0.942,2.854,2.13,5.232,2.13,5.232s-5.056-1.313-11.789-8.019
			c-3.365,2.58-7.454,3.837-7.454,3.837S153.445,270.145,155.39,267.836z M153.172,257.521c0.104,0.489,8.676,1.855,10.245,1.643
			c-0.023,1.514-0.521,3.148-1.15,4.172c-1.081-0.043-0.67,0.811-2.779,1.194c0,0-1.622,0.16-2.061,0.085
			C152.204,263.721,152.645,260.252,153.172,257.521z M149.46,223.232c1.906,1.647,1.675,5.073,1.455,6.943
			c-0.235,1.994-0.555,4.105-0.97,6.314c-0.042,0.225-5.103,1.564-10.377-0.636c0.538-5.498,0.972-9.743,1.653-13.46
			C141.214,222.719,148.688,224.129,149.46,223.232z M151.394,221.138c-1.454,0.162-6.91,0.72-9.781-0.754
			c1.231-5.896,2.972-8.811,6.31-8.811C149.946,211.573,151.238,215.182,151.394,221.138z M150.945,249.563
			c-0.057,0.77-1.7,3.016-12.004,0.805c0.076-2.189,0.217-6.376,0.376-9.943c0.135-0.411,0.622-1.69,1.249-2.495
			c1.156,1.876,9.826-0.234,10.851,1.062c0,2.343-0.236,4.699-0.35,7.317c-0.033,0.785-0.993,1.508-2.037,2.048
			C151.043,248.517,150.964,249.317,150.945,249.563z M138.87,252.451c-0.021,0.434,8.525,2.174,11.988-0.195
			c-0.213,4.27-0.236,7.698-0.236,10.302c-2.227,0.836-3.745,1.094-5.138,1.094c-1.304,0-2.499-0.225-4.063-0.412
			C138.749,262.921,138.592,260.821,138.87,252.451z"/>
	</g>
	<g id="Arms_and_Torso">
		<g id="Shirt">
			
				<linearGradient id="Shirt_Body_1_" gradientUnits="userSpaceOnUse" x1="110.7158" y1="187.9385" x2="178.8887" y2="187.9385" gradientTransform="matrix(-1 0 0 1 299.5 0)">
				<stop  offset="0" style="stop-color:#8DBF71"/>
				<stop  offset="0.3068" style="stop-color:#74A357"/>
				<stop  offset="0.7485" style="stop-color:#588840"/>
				<stop  offset="0.9944" style="stop-color:#4D7E3A"/>
			</linearGradient>
			<path id="Shirt_Body" fill="url(#Shirt_Body_1_)" d="M138.966,219.805c-11.935-1.134-15.311-3.741-18.352-5.756
				c-0.089-1.269,1.891-9.548,2.562-10.699c2.074-4.912,3.738-10.809,6.204-18.885c4.159-13.623,10.383-26.483,10.516-26.563
				c9.431,0.826,15.198,1.421,26.872-1.889c0.241,0.576,2.043,11.775,6.832,18.925c0.912,0.507,1.728,1.712,2.134,2.767
				c1.496,3.893,0.898,3.725,1.449,5.991c0.183,0.743,0.214,1.57,0.503,2.288c0.555,1.373,1.14,2.647,1.847,3.795
				c0.212,0.341,0.831,0.37,1.054,1.041c0.379,1.145,0.376,3.264,0.703,4.291c0.314,0.989,0.613,1.925,0.913,2.807
				c0.498,1.464,1.19,2.605,1.643,3.795c0.813,2.145,1.326,4.043,1.929,5.422c2.875,6.59,2.922,6.877,2.976,7.517
				c0.28,3.294-1.184,3.549-1.658,3.609c-13.101,1.649-23.913,1.332-33.221,0.936C146.665,219.195,142.063,220.101,138.966,219.805z
				"/>
			<path id="Shirt_Outline" d="M138.966,219.805c-11.935-1.134-15.311-3.741-18.352-5.756c-0.089-1.269,1.891-9.548,2.562-10.699
				c2.074-4.912,3.738-10.809,6.204-18.885c4.159-13.623,10.383-26.483,10.516-26.563c9.431,0.826,15.198,1.421,26.872-1.889
				c0.241,0.576,2.043,11.775,6.832,18.925c0.912,0.507,1.728,1.712,2.134,2.767c1.496,3.893,0.898,3.725,1.449,5.991
				c0.183,0.743,0.214,1.57,0.503,2.288c0.555,1.373,1.14,2.647,1.847,3.795c0.212,0.341,0.831,0.37,1.054,1.041
				c0.379,1.145,0.376,3.264,0.703,4.291c0.314,0.989,0.613,1.925,0.913,2.807c0.498,1.464,1.19,2.605,1.643,3.795
				c0.813,2.145,1.326,4.043,1.929,5.422c2.875,6.59,2.922,6.877,2.976,7.517c0.28,3.294-0.117,3.445-1.658,3.609
				c-6.227,0.658-12,1.083-18.078,1.918c-0.298,0.042-1.092-0.459-1.905-0.479c-0.936-0.023-1.76-0.188-1.76-0.188
				c-4.079-0.021-7.842,0.021-11.43-0.132C146.712,219.378,142.063,220.101,138.966,219.805z M183.88,209.38
				c-0.671-2.794-2.041-4.955-2.539-6.208c-0.636-1.594-0.201-2.39-1.056-4.204c-2.922-6.209-6.804-19.08-10.926-27.237
				c-0.738-1.463-2.676-11.248-3.064-12.691c-15.085,2.119-24.163,0.886-24.163,0.886c-3.9,9.468-7.088,19.668-10.507,28.317
				c-2.841,7.186-4.663,12.521-5.968,16.967c-1.33,4.531-0.929,6.854-0.898,7.976c0.083,1.056,3.402,3.391,13.729,2.569
				c4.589-0.365,9.438,1.598,15.12,1.521c8.948-0.123,23.923-0.273,30.859-2.991C184.81,214.148,184.438,211.697,183.88,209.38z"/>
		</g>
		<g id="Arm_Left">
			
				<linearGradient id="Arm_Body_1_" gradientUnits="userSpaceOnUse" x1="105.3652" y1="188.1289" x2="125.9004" y2="188.1289" gradientTransform="matrix(-1 0 0 1 299.5 0)">
				<stop  offset="0" style="stop-color:#8DBF71"/>
				<stop  offset="0.3068" style="stop-color:#74A357"/>
				<stop  offset="0.7485" style="stop-color:#588840"/>
				<stop  offset="0.9944" style="stop-color:#4D7E3A"/>
			</linearGradient>
			<path id="Arm_Body_2_" fill="url(#Arm_Body_1_)" d="M192.77,197.5c-1.629,1.633-1.749,1.706-3.092,2.432
				c-0.589,0.318-2.407,1.376-4.965,1.79c-1.252,0.514-2.278-3.469-3.346-6.411c-0.612-1.686,0.117-3.695-0.854-4.719
				c-5.21-5.494-2.193-12.282-6.914-15.654c0.684-1.453,1.269,1.195,2.35,0.271c5.895,6.14,15.271,16.697,18.186,19.926
				C193.955,196.07,193.249,197.02,192.77,197.5z"/>
			<path id="Hand_Body_3_" fill="#EDCDC7" d="M186.395,203.893c3.5-0.506,4.506-1.146,6.591-2.361c0,0,3.019-2.304,5.679-2.879
				c1.205,0.829,3.162,2.622,10.351,2.175c0.743-0.046,7.959,0.982,8.481,4.222c0.436,2.697-12.004,2.208-22.628,2.879
				c-1.744,0.11-3.356,0.064-4.83-0.447C188.536,206.958,187.717,206.18,186.395,203.893z"/>
			<path id="_Outline_1_" d="M202.258,209.974c-5.618-0.025-11.278,0.481-12.22,0.098c-2.588-1.056-1.797-2.464-4.098-2.783
				c-1.997-0.277-3.559-2.53-4.679-4.327c-0.444-0.713-0.343-1.926-0.641-3.029c-0.338-1.251-1.048-2.433-1.577-3.835
				c-4.928-13.021-5.252-14.461-9.636-24.27c-0.156-0.346,4.348,2.036,8.434,2.327c2.277,2.588,5.236,5.146,9.105,8.825
				c3.163,3.007,4.962,5.823,7.691,8.7c2.377,2.504,3.74,4.769,6.696,6.318c3.785,1.984,8.34,0.593,11.921,1.294
				c2.795,0.547,4.646,1.229,6.226,2.648c1.537,1.382,0.619,4.002,0.077,4.793C217.238,210.113,209.324,210.01,202.258,209.974z
				 M184.713,201.722c2.558-0.414,4.376-1.472,4.965-1.79c1.343-0.726,1.463-0.799,3.092-2.432c0.479-0.48,1.186-1.43,1.365-2.366
				c-2.915-3.229-12.291-13.786-18.186-19.926c-1.081,0.925-1.666-1.724-2.35-0.271c4.721,3.372,1.704,10.16,6.914,15.654
				c0.971,1.023,0.241,3.033,0.854,4.719C182.435,198.253,183.461,202.235,184.713,201.722 M186.395,203.893
				c1.322,2.287,2.142,3.065,3.644,3.588c1.474,0.512,3.086,0.558,4.83,0.447c10.624-0.671,23.063-0.182,22.628-2.879
				c-0.522-3.239-7.738-4.268-8.481-4.222c-7.188,0.447-9.146-1.346-10.351-2.175c-2.66,0.575-5.679,2.879-5.679,2.879
				C190.9,202.747,189.895,203.387,186.395,203.893"/>
		</g>
		<g id="Arm_Right">
			
				<linearGradient id="Arm_Body_3_" gradientUnits="userSpaceOnUse" x1="162.4961" y1="183.0439" x2="198.2646" y2="183.0439" gradientTransform="matrix(-1 0 0 1 299.5 0)">
				<stop  offset="0" style="stop-color:#8DBF71"/>
				<stop  offset="0.3068" style="stop-color:#74A357"/>
				<stop  offset="0.7485" style="stop-color:#588840"/>
				<stop  offset="0.9944" style="stop-color:#4D7E3A"/>
			</linearGradient>
			<path id="Arm_Body" fill="url(#Arm_Body_3_)" d="M101.235,191.584c5.779-7.604,6.93-7.324,12.201-12.738
				c2.771-2.847,5.799-4.902,7.174-9.09c3.558-3.501,14.007-8.187,14.007-8.187s0.815,0.855,1.036,1.172
				c3.281,4.729,0.306,8.938-5.876,21.562c-1.25,2.552-3.402,6.537-3.833,7.634c-2.604,6.648-5.456,10.622-8.484,12.582
				C103.421,196.604,104.75,198.429,101.235,191.584z"/>
			<path id="Hand_Body" fill="#EDCDC7" d="M83.534,202.723c-0.584-0.197-2.133-1.106-2.133-1.106s-0.315-2.217-0.215-2.901
				c0.599-4.071,5.607-4.393,9.872-5.032c0.968-0.145,4.924-0.34,9.506-0.545c1.121-0.183,3.556-0.163,3.971-0.179
				c1.725,5.255,12.364,8.349,15.741,9.436c-1.696,1.598-4.368,3.103-6.408,3.484c-2.731,0.513-5.031,0.513-7.332,0.513
				C94.364,206.095,89.38,204.709,83.534,202.723z"/>
			<path id="_Outline" d="M83.534,202.723c-0.584-0.197-2.133-1.106-2.133-1.106s-0.315-2.217-0.215-2.901
				c0.599-4.071,5.607-4.393,9.872-5.032c0.968-0.145,5.128-0.21,9.506-0.545c4.199-8.151,7.889-8.749,12.873-14.292
				c2.644-2.941,5.799-4.902,7.174-9.09c3.558-3.501,14.007-8.187,14.007-8.187s0.815,0.855,1.036,1.172
				c3.281,4.729,0.306,8.938-5.876,21.562c-1.25,2.552-3.402,6.537-3.833,7.634c-3.642,9.294-7.244,13.038-12.076,13.942
				c-2.731,0.513-5.031,0.513-7.332,0.513C94.364,206.095,89.38,204.709,83.534,202.723z M116.887,200.976
				c1.976-0.94,3.451-3.113,1.675-4.567c0.325-0.356,0.963-0.402,2.25,0.108c1.151-2.508,5.006-10.632,6.339-13.041
				c6.019-10.881,8.254-15.174,6.711-19.111c-7.673,2.768-11.981,9.455-17.599,16.02c-3.878,4.53-7.333,8.963-11.585,12.406
				c0.18,0.936,0.6,1.584,1.081,2.065c1.628,1.631,3.412,2.836,4.754,3.561C111.103,198.734,115.138,200.284,116.887,200.976
				 M114.872,203.307c-1.242-1.304-7.103-3.295-10.126-5.729c-0.754-0.608-1.563-1.754-2.107-3.262
				c-1.206,0.83-2.481,1.579-3.85,2.231c-0.657,0.313-1.467,0.453-2.628,0.453h0c-0.7,0-1.452-0.05-2.249-0.103
				c-0.864-0.058-1.759-0.116-2.655-0.116c-2.664,0-5.282,0.212-6.118,3.533c0,0,9.875,3.218,21.493,3.218
				C108.818,203.533,112.347,203.633,114.872,203.307"/>
		</g>
		<g id="Bib">
			<path id="Body" fill="#B22029" d="M182.777,159.975c0.063,0.542,1.088,1.745,1.678,1.595c2.06-0.528-0.383-2.405,1.294-2.704
				c1.916-0.342,1.725,2.253,1.725,2.253c-0.037,0.16-1.541,3.753-5.463,3.753c-1.674-0.067-6.996-0.128-12.505-7.339l-1.431-1.88
				l-1.211,0.334c-4.893,1.404-10.467,2.25-17.313,2.25c-8.242,0-13.087-0.222-19.413-2.695l-3.484-1.735l-0.846,1.936
				c-0.052,2.357-4.545,6.552-9.327,6.552c-1.513,0-2.661-0.363-3.41-1.08c-0.939-0.9-1.647-3.108-0.593-5.667
				c0.992-0.129,1.103,2.602,2.635,2.687c1.976,0.11,0.958-5.629-2.348-5.416c-1.685,0.109-4.679,1.165-5.499,2.303
				c-1.689,2.347-1.86,6.348,0.157,9.533c1.023,1.616,3.481,5.642,9.415,5.642c4.538,0,10.365-2.903,17.055-6.045
				c0.82,2.08,1.108,6.045-2.199,10.863c-2.348,3.241-4.218,3.797-5.991,3.582c-2.012-0.255-2.348-3.923-2.252-5.031
				c1.102-0.81,4.259,1.473,4.505,0.342c0.623-2.858-3.121-3.144-4.122-2.814c-4.552,1.491-3.978,5.159-3.978,5.159
				s0.863,5.032,3.211,7.207c0.124,0.114,3.067,3.412,8.003,2.559c2.875-0.725,6.949-0.512,10.782-6.439
				c2.631-4.83,3.067-7.25,3.833-9.682c1.955,2.052,3.695,3.982,4.845,7.65c2.924,9.328,8.02,11.492,11.352,11.492
				c1.597,0,3.354,0.498,6.661-1.89c1.341-0.968,2.257-3.612,1.821-5.928c-0.987-5.252-2.061-5.673-4.744-5.458
				c-0.333,0.025-2.923,0.383-2.875,2.345c0.01,0.394,0.855,1.976,1.725,1.834c1.294-0.214,0.528-1.535,1.458-1.608
				c0.61-0.048,1.418,0.713,1.418,1.267c0,0.113,0.286,1.834-3.326,1.978c-0.943-1.499-1.864-3.596-2.089-6.242
				c-0.177-2.086,0.27-8.122,0.288-8.4c3.929,3.582,11.309,7.036,15.621,7.121c3.277,0,9.443-1.575,11.472-3.435
				c4.295-3.636,4.007-6.476,4.007-6.706c0.012-5.617-4.787-7.323-8.291-7.323C183.401,156.69,182.669,159.018,182.777,159.975z"/>
			<path id="Outline" stroke="#000000" stroke-width="0.25" stroke-miterlimit="10" d="M109.603,156.496
				c-0.473,5.752,2.852,7.844,6.878,7.844c5.556,0,12.447-3.986,12.53-7.844c5.532,2.788,12.973,3.787,20.541,3.787
				c5.772,0,11.758,0.088,16.744-1.244c0.402-0.107,0.724-0.188,1.127-0.332c7.476,6.388,12.614,8.383,16.121,8.383
				c5.831,0,7.142-5.521,7.142-5.521s0.331,9.906-9.367,9.906c-4.644,0-11.586-2.272-21.964-8.992
				c-0.153,4.376-0.72,9.91-0.44,13.204c0.574,6.78,6.038,10.363,6.038,10.363s-0.854,0.268-2.134,0.268
				c-2.779,0-7.572-1.258-10.07-9.225c-1.696-5.412-7.58-12.54-9.035-12.539c-0.013,0-0.025,0.001-0.038,0.002
				c-4.003,0.367,0.719,4.221-3.881,12.666c-2.577,4.73-5.924,6.029-8.824,6.029c-3.54,0-6.415-1.936-6.415-1.936
				s0.3,0.033,0.798,0.033c1.869,0,6.534-0.478,8.69-5.024c2.936-6.187,3.595-12.409,0.575-14.756
				c-7.852,3.91-13.577,5.363-17.633,5.363C108.12,166.933,107.236,159.977,109.603,156.496 M182.777,159.975
				c0.063,0.542,1.088,1.745,1.678,1.595c2.06-0.528-0.383-2.405,1.294-2.704c1.916-0.342,1.725,2.253,1.725,2.253
				c-0.037,0.16-1.541,3.753-5.463,3.753c-1.674-0.067-6.996-0.128-12.505-7.339l-1.431-1.88l-1.211,0.334
				c-4.893,1.404-10.467,2.25-17.313,2.25c-8.242,0-13.087-0.222-19.413-2.695l-3.484-1.735l-0.846,1.936
				c-0.052,2.357-4.545,6.552-9.327,6.552c-1.513,0-2.661-0.363-3.41-1.08c-0.939-0.9-1.647-3.108-0.593-5.667
				c0.992-0.129,1.103,2.602,2.635,2.687c1.976,0.11,0.958-5.629-2.348-5.416c-1.685,0.109-4.679,1.165-5.499,2.303
				c-1.689,2.347-1.86,6.348,0.157,9.533c1.023,1.616,3.481,5.642,9.415,5.642c4.538,0,10.365-2.903,17.055-6.045
				c0.82,2.08,1.108,6.045-2.199,10.863c-2.348,3.241-4.218,3.797-5.991,3.582c-2.012-0.255-2.348-3.923-2.252-5.031
				c1.102-0.81,4.259,1.473,4.505,0.342c0.623-2.858-3.121-3.144-4.122-2.814c-4.552,1.491-3.978,5.159-3.978,5.159
				s0.863,5.032,3.211,7.207c0.124,0.114,3.067,3.412,8.003,2.559c2.875-0.725,6.949-0.512,10.782-6.439
				c2.631-4.83,3.067-7.25,3.833-9.682c1.955,2.052,3.695,3.982,4.845,7.65c2.924,9.328,8.02,11.492,11.352,11.492
				c1.597,0,3.354,0.498,6.661-1.89c1.341-0.968,2.257-3.612,1.821-5.928c-0.987-5.252-2.061-5.673-4.744-5.458
				c-0.333,0.025-2.923,0.383-2.875,2.345c0.01,0.394,0.855,1.976,1.725,1.834c1.294-0.214,0.528-1.535,1.458-1.608
				c0.61-0.048,1.418,0.713,1.418,1.267c0,0.113,0.286,1.834-3.326,1.978c-0.943-1.499-1.864-3.596-2.089-6.242
				c-0.177-2.086,0.27-8.122,0.288-8.4c3.929,3.582,11.309,7.036,15.621,7.121c3.277,0,9.443-1.575,11.472-3.435
				c4.295-3.636,4.007-6.476,4.007-6.706c0.012-5.617-4.787-7.323-8.291-7.323C183.401,156.69,182.669,159.018,182.777,159.975z"/>
		</g>
	</g>
	<g id="Shoes">
		<g id="Shoe_Right">
			<path id="Outline_4_" d="M106.153,298.197c-0.856-0.129-8.429-1.291-10.854-2.61c-2.012-1.093-4.567-4.444-5.443-6.271
				c-0.978-2.037-1.114-6.306-1.05-8.277c0.09-2.769,1.542-8.365,3.108-10.948c0.91-1.499,3.621-3.461,4.805-4.13
				c1.328-0.753,4.203-1.522,5.727-1.525c2.897,0,4.637,0.12,6.199,0.853c1.375,0.646,3.852,3.346,4.109,4.883
				c0.771,4.603-1.608,6.62-3.465,7.735c-0.963,0.58-2.72,1.101-3.711,1.114c0,0-2.503,0.065-2.779-0.511
				c-0.276-0.578,1.772-2.142,1.772-2.142c0.159-0.143,3.116-2.396,0.528-4.768c-0.138-0.089-0.528-0.887-1.456-0.887
				c-0.262,0-0.426,0.016-0.5,0.025c-0.541,0.064-1.902,0.812-2.669,1.388c-0.52,0.391-1.458,1.621-1.807,2.292
				c-0.424,0.814-0.802,2.862-0.592,3.697c0.16,0.638,1.519,3.512,2.902,3.836c1.715,0.402,0.863-0.627,1.903,2.551
				c1.036,1.392,6.912,3.556,9.095,4.013c0.963,0.202,2.562,0.323,4.277,0.323c1.698,0,3.267-0.12,4.197-0.321
				c2.364-0.51,5.715-2.617,6.908-4.272c0.458-0.636,1.399-3.634,1.51-5.735l0.508-0.771c0,0,6.847-1.127,11.375-6.564
				c3.331,0.832,11.815,9.699,11.815,9.699v10.174l-0.017,0.182c-0.206,1.01-0.777,3.448-1.671,4.279
				c-0.999,0.928-4.379,1.817-5.391,2.069l-0.142,0.035l-38.982,0.6l-0.106,0.002L106.153,298.197z M148.61,293.775
				c0.277-0.292,0.755-0.699,1.375-2.195l-0.223-9.397l-8.92-7.727c0,0-6.8,4.649-8.844,4.78c0.033,2.088-0.234,4.546-1.118,5.754
				c-2.684,3.668-7.195,4.936-9.888,5.516c-1.114,0.24-2.842,0.378-4.739,0.378c-1.911,0-3.662-0.138-4.804-0.375
				c-1.905-0.401-6.489-1.682-8.5-3.095c-0.93-0.653-1.742-1.461-3.428-3.722c-2.473,3.771-3.623-0.323-1.332-1.65
				c-1.236,0.305-4.687-1.487-3.92-2.852c0.396-0.705,2.863,1.301,2.492,0.769c-3.163-2.814-1.38-5.391-0.767-6.567
				c0.422-0.813,2.009-2.762,2.875-3.413c0.613-0.46,2.622-1.109,3.969-1.27c0.229-0.028,0.508-0.043,0.806-0.043
				c0.722,0,2.491,0.084,3.334,0.854c2.398,2.195,1.697,4.871,0.406,6.837c0.295-0.047,0.515-0.097,0.617-0.147
				c1.544-0.929,3.047-2.339,2.478-5.739c-0.112-0.667-1.677-2.281-2.657-2.742c-1.286-0.604-2.867-1.246-5.404-1.246
				c-1.074,0.002-3.494,0.654-4.464,1.205c-1.206,0.682-3.423,2.4-4.014,3.375c-1.365,2.25-2.753,7.562-2.834,10.034
				c-0.065,2.031,0.111,5.84,0.867,7.415c0.735,1.533,3.054,4.529,4.524,5.328c1.71,0.93,7.65,1.975,9.935,2.322l38.579-0.593
				C146.229,295.169,148.271,294.082,148.61,293.775z"/>
			<path id="Body_2_" fill="#4F803B" d="M148.61,293.775c0.277-0.292,0.755-0.699,1.375-2.195l-0.223-9.397l-8.92-7.727
				c0,0-6.8,4.649-8.844,4.78c0.033,2.088-0.234,4.546-1.118,5.754c-2.684,3.668-7.195,4.936-9.888,5.516
				c-1.114,0.24-2.842,0.378-4.739,0.378c-1.911,0-3.662-0.138-4.804-0.375c-1.905-0.401-6.489-1.682-8.5-3.095
				c-0.93-0.653-1.742-1.461-3.428-3.722c-2.473,3.771-3.623-0.323-1.332-1.65c-1.236,0.305-4.687-1.487-3.92-2.852
				c0.396-0.705,2.863,1.301,2.492,0.769c-3.163-2.814-1.38-5.391-0.767-6.567c0.422-0.813,2.009-2.762,2.875-3.413
				c0.613-0.46,2.622-1.109,3.969-1.27c0.229-0.028,0.508-0.043,0.806-0.043c0.722,0,2.491,0.084,3.334,0.854
				c2.398,2.195,1.697,4.871,0.406,6.837c0.295-0.047,0.515-0.097,0.617-0.147c1.544-0.929,3.047-2.339,2.478-5.739
				c-0.112-0.667-1.677-2.281-2.657-2.742c-1.286-0.604-2.867-1.246-5.404-1.246c-1.074,0.002-3.494,0.654-4.464,1.205
				c-1.206,0.682-3.423,2.4-4.014,3.375c-1.365,2.25-2.753,7.562-2.834,10.034c-0.065,2.031,0.111,5.84,0.867,7.415
				c0.735,1.533,3.054,4.529,4.524,5.328c1.71,0.93,7.65,1.975,9.935,2.322l38.579-0.593
				C146.229,295.169,148.271,294.082,148.61,293.775z"/>
		</g>
		<g id="Shoe_Left">
			<path id="Outline_3_" d="M152.173,296.909c-0.531-0.155-2.188-0.414-2.188-0.414l0.597-19.118l0.974,0.023
				c0.841,0,2.031-0.123,2.615-0.469c1.244-0.738,3.809-1.664,5.626-2.295c0.192-0.065,1.185-0.396,2.026-0.396
				c0.365,0,0.666,0.061,0.917,0.187c1.77,0.89,1.595,4.064,3.731,5.742c1.102,0.865,2.265,2.063,2.901,2.795
				c1.009,1.162,2.931,3.055,4.239,3.998c4.708,3.391,14.938,2.527,15.061,2.526c5.282-0.032,9.874-2.403,12.112-4.413
				c0.961-0.864,1.803-3.111,1.652-4.67c-0.215-2.239-2.336-5.662-6.577-5.311c-0.505,0.042-3.024,0.34-3.378,0.704
				c-0.307,0.316-0.755,0.925-0.647,1.568c0.051,0.231,0.671,0.996,0.79,1.246c0.432,0.896,1.582,0.864,1.99,0.064
				c0,0,2.066-0.985,2.396-0.682c1.258,1.161-0.671,3.325-0.671,3.325c-0.354,0.201-1.953,0.971-3.141,1.035
				c-0.455,0.024-1.796,0.159-1.796,0.159c-0.471,0-1.143-0.302-1.632-0.487c-1.329-0.504-2.819-2.532-3.175-3.654
				c-0.394-1.241,0.112-3.713,0.53-4.559c0.629-1.271,2.914-3.093,3.773-3.742c0.957-0.723,3.255-1.559,4.548-1.861
				c0.418-0.098,1.009-0.147,1.755-0.147c0.875,0,1.849-0.2,2.396-0.166c2.982,0.192,5.046,1.175,6.469,2.047
				c1.672,1.026,4.378,3.951,5.176,5.662c0.82,1.763,1.193,2.559,1.193,7.501c0,5.676-3.961,11.849-3.961,11.849
				s-3.051,0.925-4.155,1.182c-4.415,1.025-12.644,1.794-24.201,1.794C166.461,298.213,160.962,299.501,152.173,296.909z
				 M210.488,282.874c-0.113-1.629-0.894-5.075-1.617-6.626c-0.651-1.396-2.604-3.921-4.012-4.785
				c-1.146-0.703-3.717-1.677-5.563-1.747c-0.473-0.017-1.297-0.115-2.094-0.115c-0.785,0-1.16,0.061-1.314,0.098
				c-1.041,0.244-3.021,1.144-3.783,1.719c-1.02,0.771-2.701,2.368-3.124,3.221c-0.486,0.986-0.918,2.713-0.725,3.32
				c0.259,0.82,1.411,2.521,1.854,2.191c0.174-0.128-0.062-1.311-0.183-2.039c-0.148-0.889,0.016-2.768,0.433-3.718
				c0.721-1.631,2.764-1.842,3.739-1.951c0.466-0.053,1.112,0,1.688,0c1.488,0,2.966,0.372,3.667,0.64
				c4.098,1.567,5.358,5.105,5.713,7.229c0.304,1.807,0.433,4.542-1.939,7.388c-3.192,3.832-14.847,4.158-14.987,4.158
				c-3.966,0-12.222-1.341-15.742-2.399c-1.813-0.545-4.421-3.037-6.613-3.71c-0.108-1.694-0.796-3.541-1.582-5.086
				c-1.04-2.047-1.634-2.533-3.229-3.487c-1.12-0.67-1.623,1.089-5.254,2.199c-0.961,0.295-2.411,0.307-3.255,0.357
				c0,0,0.524,12.382-0.836,14.52c-0.22,0.348,1.36,0.773,1.36,0.773c2.875,0.832,14.771,1.503,26.955,0.832
				c5.434-0.301,16.308-0.402,22.001-1.06c0.139-1.277-1.766-1.979,3.6-0.906C207.505,293.488,210.774,287.059,210.488,282.874z"/>
			
				<linearGradient id="Body_3_" gradientUnits="userSpaceOnUse" x1="88.9941" y1="282.8652" x2="147.7905" y2="282.8652" gradientTransform="matrix(-1 0 0 1 299.5 0)">
				<stop  offset="0" style="stop-color:#8DBF71"/>
				<stop  offset="0.3068" style="stop-color:#74A357"/>
				<stop  offset="0.7485" style="stop-color:#588840"/>
				<stop  offset="0.9944" style="stop-color:#4D7E3A"/>
			</linearGradient>
			<path id="Body_1_" fill="url(#Body_3_)" d="M210.488,282.874c-0.113-1.629-0.894-5.075-1.617-6.626
				c-0.651-1.396-2.604-3.921-4.012-4.785c-1.146-0.703-3.717-1.677-5.563-1.747c-0.473-0.017-1.297-0.115-2.094-0.115
				c-0.785,0-1.16,0.061-1.314,0.098c-1.041,0.244-3.021,1.144-3.783,1.719c-1.02,0.771-2.701,2.368-3.124,3.221
				c-0.486,0.986-0.918,2.713-0.725,3.32c0.259,0.82,1.411,2.521,1.854,2.191c0.174-0.128-0.062-1.311-0.183-2.039
				c-0.148-0.889,0.016-2.768,0.433-3.718c0.721-1.631,2.764-1.842,3.739-1.951c0.466-0.053,1.112,0,1.688,0
				c1.488,0,2.966,0.372,3.667,0.64c4.098,1.567,5.358,5.105,5.713,7.229c0.304,1.807,0.433,4.542-1.939,7.388
				c-3.192,3.832-14.847,4.158-14.987,4.158c-3.966,0-12.222-1.341-15.742-2.399c-1.813-0.545-4.421-3.037-6.613-3.71
				c-0.108-1.694-0.796-3.541-1.582-5.086c-1.04-2.047-1.634-2.533-3.229-3.487c-1.12-0.67-1.623,1.089-5.254,2.199
				c-0.961,0.295-2.411,0.307-3.255,0.357c0,0,0.524,12.382-0.836,14.52c-0.22,0.348,1.36,0.773,1.36,0.773
				c2.875,0.832,14.771,1.503,26.955,0.832c5.434-0.301,16.308-0.402,22.001-1.06c0.139-1.277-1.766-1.979,3.6-0.906
				C207.505,293.488,210.774,287.059,210.488,282.874z"/>
		</g>
		<g id="Shoe_Cuffs">
			
				<linearGradient id="Body_Left_1_" gradientUnits="userSpaceOnUse" x1="125.6836" y1="273.3906" x2="145.2524" y2="273.3906" gradientTransform="matrix(-1 0 0 1 299.5 0)">
				<stop  offset="0" style="stop-color:#8DBF71"/>
				<stop  offset="0.3068" style="stop-color:#74A357"/>
				<stop  offset="0.7485" style="stop-color:#588840"/>
				<stop  offset="0.9944" style="stop-color:#4D7E3A"/>
			</linearGradient>
			<path id="Body_Left" fill="url(#Body_Left_1_)" d="M170.941,266.823c-0.529,1.203-0.464,2.902-0.117,4.683
				c-1.379-0.023-1.772,0.693-1.812,1c1.343,0.324,2.431,1.482,2.675,2.221c0.941,2.854,2.129,5.232,2.129,5.232
				s-5.056-1.313-11.789-8.019c-3.365,2.58-7.454,3.837-7.454,3.837s-1.128-5.633,0.816-7.941c0.287-0.341,1.261-0.865,2.123-0.865
				c0.107,0,0.208,0.006,0.3,0.018c2.769,0.352,4.756,0.483,6.384,0.483C166.788,267.472,168.469,267.138,170.941,266.823"/>
			
				<linearGradient id="Body_Right_1_" gradientUnits="userSpaceOnUse" x1="95.4985" y1="272.0156" x2="118.8184" y2="272.0156" gradientTransform="matrix(1 0 0 1 31.8594 0)">
				<stop  offset="0" style="stop-color:#8DBF71"/>
				<stop  offset="0.3068" style="stop-color:#74A357"/>
				<stop  offset="0.7485" style="stop-color:#588840"/>
				<stop  offset="0.9944" style="stop-color:#4D7E3A"/>
			</linearGradient>
			<path id="Body_Right" fill="url(#Body_Right_1_)" d="M149.784,267.964c-2.228,0.224-0.245,2.017,0.359,2.271
				c-1.469,0.013-0.323,2.176,0.431,2.207c0.468,3.966-0.799,5.157-0.958,5.128c-1.438-0.255-4.409-5.464-8.937-7.229
				c-4.146,6.313-13.322,6.504-13.322,6.504c0,0,2.336-1.109,3.234-4.115c0.225-0.75,0.899-4.638,1.366-6.269
				C136.634,267.417,144.609,266.652,149.784,267.964z"/>
		</g>
	</g>
</g>
</svg>
