<?xml version="1.0" encoding="utf-8"?>
<!-- Generator: Adobe Illustrator 15.0.2, SVG Export Plug-In . SVG Version: 6.00 Build 0)  -->
<!DOCTYPE svg PUBLIC "-//W3C//DTD SVG 1.1//EN" "http://www.w3.org/Graphics/SVG/1.1/DTD/svg11.dtd">
<svg version="1.1" id="Layer_1" xmlns="http://www.w3.org/2000/svg" xmlns:xlink="http://www.w3.org/1999/xlink" x="0px" y="0px"
	 width="640px" height="640px" viewBox="0 0 640 640" enable-background="new 0 0 640 640" xml:space="preserve">
<path id="f_1_" fill="#FFFFFF" d="M271.031,215.787v46.949h-34.39v57.417h34.39v170.591h70.655V320.152h47.418
	c0,0,4.448-27.534,6.597-57.618h-53.745c0,0,0-33.412,0-39.259c0-5.868,7.708-13.758,15.32-13.758h38.502v-59.775h-52.347
	C269.286,149.741,271.031,207.207,271.031,215.787L271.031,215.787z"/>
<rect id="Bar" x="122" y="581" fill="#355388" width="396" height="26"/>
<polygon id="Home_1_" fill="#3C599B" points="610.113,312.498 448,150.256 448,55 390,55 390,92.849 320.149,22.829 319.909,23.154 
	319.627,22.829 29.979,312.498 71.326,353.744 122,303.168 122,539 518.021,539 518.02,302.934 568.803,353.698 "/>
<polygon id="Shadow_x5F_2" fill="#355388" points="122,539 518.021,539 518.02,302.934 568.803,353.698 610.113,312.498 
	468.863,171.136 122,518 "/>
<polygon id="Shadow_x5F_1" fill="#2E4E73" points="568.803,353.698 587.401,335.149 395.778,149.741 291.067,250.248 
	297.338,256.518 236.642,320.152 286.467,365.368 280.024,371.812 333.069,424.848 271.031,490.743 323.25,539 518.021,539 
	518.02,302.934 "/>
<path id="f_2_" fill="#FFFFFF" d="M271.031,215.787v46.949h-34.39v57.417h34.39v170.591h70.655V320.152h47.418
	c0,0,4.448-27.534,6.597-57.618h-53.745c0,0,0-33.412,0-39.259c0-5.868,7.708-13.758,15.32-13.758h38.502v-59.775h-52.347
	C269.286,149.741,271.031,207.207,271.031,215.787L271.031,215.787z"/>
<path fill="none" stroke="#FF0000" stroke-miterlimit="10" d="M323.25,539"/>
</svg>
