<?xml version="1.0" encoding="utf-8"?>
<!-- Generator: Adobe Illustrator 15.0.2, SVG Export Plug-In . SVG Version: 6.00 Build 0)  -->
<!DOCTYPE svg PUBLIC "-//W3C//DTD SVG 1.1//EN" "http://www.w3.org/Graphics/SVG/1.1/DTD/svg11.dtd">
<svg version="1.1" id="Layer_1" xmlns="http://www.w3.org/2000/svg" xmlns:xlink="http://www.w3.org/1999/xlink" x="0px" y="0px"
	 width="640px" height="640px" viewBox="0 0 640 640" style="enable-background:new 0 0 640 640;" xml:space="preserve">
<g id="Tail_Spots">
	<path d="M145.745,458.753c-0.572,1.445-2.626,1.869-4.483,0.883c-1.9-0.939-2.968-2.902-2.355-4.347
		c0.568-1.479,2.615-1.893,4.513-0.896C145.318,455.333,146.398,457.309,145.745,458.753L145.745,458.753z"/>
	<path d="M156.349,471.826c-1.255,1.272-3.696,0.677-5.345-1.343c-1.723-2.015-2.035-4.714-0.769-6.007
		c1.29-1.272,3.654-0.678,5.364,1.339C157.311,467.848,157.646,470.533,156.349,471.826L156.349,471.826z"/>
	<path d="M166.66,488.479c-1.597,1.239-4.223,0.087-5.85-2.488c-1.597-2.578-1.597-5.667,0.041-6.902
		c1.62-1.227,4.212-0.114,5.854,2.432C168.302,484.134,168.302,487.223,166.66,488.479L166.66,488.479z"/>
	<path d="M180.792,504.58c-1.43,1.749-4.483,1.277-6.723-1.113c-2.284-2.327-2.927-5.641-1.482-7.394
		c1.453-1.741,4.525-1.253,6.775,1.113C181.635,499.514,182.331,502.84,180.792,504.58L180.792,504.58z"/>
	<path d="M200.305,513.916c-0.636,2.274-3.585,3.31-6.538,2.341c-2.971-0.999-4.898-3.646-4.308-5.937
		c0.613-2.287,3.569-3.35,6.555-2.315C198.975,508.989,200.912,511.612,200.305,513.916L200.305,513.916z"/>
	<path d="M221.715,515.653c0.07,2.381-2.44,4.363-5.553,4.413c-3.135,0.065-5.668-1.856-5.696-4.209
		c0-2.405,2.457-4.359,5.581-4.426C219.16,511.37,221.715,513.288,221.715,515.653L221.715,515.653z"/>
	<path d="M241.642,511.904c0.379,2.328-1.793,4.723-4.884,5.349c-3.031,0.625-5.842-0.819-6.236-3.123
		c-0.371-2.39,1.828-4.779,4.859-5.395C238.481,508.135,241.249,509.539,241.642,511.904L241.642,511.904z"/>
</g>
<path id="Github" d="M320.011,40C165.384,40,40,167.944,40,325.766c0,126.261,79.083,233.009,191.485,271.177
	c10.2,3.058,15.479,3.054,18.731,3.054c0.011-13.998,0.068-44.873,0.009-70.016c-77.891,17.29-94.321-33.709-94.321-33.709
	c-12.745-33.028-31.085-41.82-31.085-41.82c-25.423-17.732,1.909-17.369,1.909-17.369c28.11,2.016,42.92,29.447,42.92,29.447
	c24.979,43.69,65.501,31.057,81.488,23.76c2.509-18.468,9.77-31.079,17.763-38.218c-62.193-7.217-127.561-31.725-127.561-141.228
	c0-31.205,10.924-56.698,28.843-76.708c-2.909-7.195-12.479-36.257,2.708-75.619c0,0,23.514-7.682,77.024,29.289
	c22.337-6.333,46.295-9.506,70.097-9.619c23.781,0.113,47.76,3.286,70.143,9.619c53.443-36.971,76.913-29.289,76.913-29.289
	c15.231,39.362,5.662,68.424,2.754,75.619c17.94,20.01,28.819,45.503,28.819,76.708c0,109.764-65.5,133.931-127.87,141.001
	c10.058,8.872,19.006,26.265,19.006,52.925c0,38.229,0.058,72.087,0,95.23c6.301,0,11.34-0.664,18.896-3.103
	C519.867,559.076,600,451.992,600,325.766C600,167.944,474.638,40,320.011,40C165.384,40,474.638,40,320.011,40
	C165.384,40,474.638,40,320.011,40z"/>
</svg>
