<?xml version="1.0" encoding="utf-8"?>
<!-- Generator: Adobe Illustrator 16.0.3, SVG Export Plug-In . SVG Version: 6.00 Build 0)  -->
<!DOCTYPE svg PUBLIC "-//W3C//DTD SVG 1.1//EN" "http://www.w3.org/Graphics/SVG/1.1/DTD/svg11.dtd">
<svg version="1.1" id="Layer_1" xmlns="http://www.w3.org/2000/svg" xmlns:xlink="http://www.w3.org/1999/xlink" x="0px" y="0px"
	 width="900px" height="200px" viewBox="0 0 900 200" enable-background="new 0 0 900 200" xml:space="preserve">
<rect onclick="window.open('https://mikish.com');" fill="#FFFFFF" width="900" height="200"/>
<g onclick="window.open('https://mikish.com');">
	<path fill="#DEB887" d="M145.588,200c-2.622,0-4.816-0.875-6.136-2.195c-3.068-2.621-3.068-6.572-3.068-7.883V77.268h17.533
		v105.199l35.249,0.033l0.074,17.5h-41.895C146.908,200,146.034,200,145.588,200z"/>
	<path fill="#DEB887" d="M300.327,200c-0.874,0-1.311,0-2.186,0c-0.445,0-0.445,0-0.882,0h-38.157v-17.5l35.089-0.033V81.646h17.533
		v108.275c0,2.623-1.311,5.262-3.067,7.447C306.025,199.563,302.521,200,300.327,200z"/>
	<path fill="#DEB887" d="M302.958,90.413c-2.193,0-4.388-0.874-5.698-2.194l-74.958-67.502L150.85,83.84
		c-3.505,3.068-9.204,3.068-12.271-0.883c-3.068-3.505-3.068-9.204,0.874-12.271l77.151-68.385c3.505-3.068,8.33-3.068,11.834,0
		l80.656,72.772c3.514,3.068,3.941,8.767,0.437,12.271C307.773,89.093,305.152,90.413,302.958,90.413z"/>
	<path fill="#DEB887" d="M259.126,200h-17.543v-56.986h-35.066V200h-17.533v-65.754c0-4.824,3.951-8.768,8.776-8.768h52.599
		c4.816,0,8.768,3.943,8.768,8.768V200L259.126,200z"/>
</g>
<g onclick="window.open('https://mikish.com');">
	<path opacity="0.7" d="M389.706,51.473v45.121h52.161V51.473h14.081v107.842h-14.081v-50.561h-52.161v50.561h-13.92V51.473H389.706
		z"/>
	<path opacity="0.7" d="M549.706,119.954c0,28.641-19.841,41.121-38.562,41.121c-20.96,0-37.121-15.36-37.121-39.841
		c0-25.921,16.961-41.121,38.401-41.121C534.665,80.113,549.706,96.273,549.706,119.954z M488.264,120.754
		c0,16.961,9.761,29.761,23.521,29.761c13.44,0,23.521-12.64,23.521-30.081c0-13.119-6.561-29.76-23.201-29.76
		C495.465,90.673,488.264,106.033,488.264,120.754z"/>
	<path opacity="0.7" d="M567.464,102.834c0-8-0.16-14.561-0.641-20.961h12.32l0.641,12.48h0.479c4.32-7.36,11.521-14.24,24.32-14.24
		c10.561,0,18.561,6.4,21.921,15.52h0.32c2.399-4.32,5.439-7.68,8.64-10.08c4.641-3.52,9.761-5.44,17.12-5.44
		c10.24,0,25.441,6.72,25.441,33.601v45.601h-13.761v-43.84c0-14.881-5.44-23.841-16.801-23.841c-8,0-14.24,5.92-16.64,12.8
		c-0.641,1.92-1.12,4.48-1.12,7.04v47.841h-13.761v-46.4c0-12.32-5.439-21.281-16.16-21.281c-8.8,0-15.2,7.04-17.44,14.081
		c-0.8,2.08-1.12,4.479-1.12,6.88v46.721h-13.76V102.834z"/>
	<path opacity="0.7" d="M708.743,123.154c0.32,19.04,12.48,26.881,26.561,26.881c10.08,0,16.16-1.76,21.44-4l2.4,10.08
		c-4.96,2.24-13.44,4.8-25.761,4.8c-23.841,0-38.081-15.681-38.081-39.041s13.761-41.761,36.321-41.761c25.28,0,32,22.24,32,36.48
		c0,2.881-0.319,5.12-0.479,6.561H708.743z M750.024,113.074c0.159-8.961-3.681-22.881-19.521-22.881
		c-14.24,0-20.48,13.12-21.601,22.881H750.024z"/>
</g>
</svg>
