<?xml version="1.0" encoding="utf-8"?>
<!-- Generator: Adobe Illustrator 15.0.2, SVG Export Plug-In . SVG Version: 6.00 Build 0)  -->
<!DOCTYPE svg PUBLIC "-//W3C//DTD SVG 1.1//EN" "http://www.w3.org/Graphics/SVG/1.1/DTD/svg11.dtd">
<svg version="1.1" id="Layer_1" xmlns="http://www.w3.org/2000/svg" xmlns:xlink="http://www.w3.org/1999/xlink" x="0px" y="0px"
	 width="640px" height="640px" viewBox="0 0 640 640" enable-background="new 0 0 640 640" xml:space="preserve">
<path id="Background_1_" fill="#3C599B" stroke="#1369EA" stroke-width="0.9705" stroke-miterlimit="10" d="M552.93,40.485H87.071
	c-25.623,0-46.586,20.963-46.586,46.586v465.857c0,25.623,20.963,46.586,46.586,46.586H552.93c33.735,0,46.585-15.41,46.585-46.586
	V87.071C599.515,61.449,578.552,40.485,552.93,40.485z"/>
<path id="Background" fill="#355388" d="M54.24,585.899c8.444,8.443,19.049,13.615,31.86,13.615h465.858
	c17.954,0,29.601-3.458,38.3-13.15c6.668-7.43,9.383-18.483,9.256-33.436l-0.971-465.857c0-12.977-4.565-23.94-13.202-32.409
	C575.336,64.671,61.22,578.92,54.24,585.899z"/>
<path id="Letter_Shadow" fill="#2E4E73" d="M599.515,554.888l0.004-192.67c-0.145-6.3-0.554-57.9-0.563-64.055L429.477,145.303
	l-76.963,6.309l39.792,67.938l-19.762,47.966l-36.981,36.99l60.625,67.903l13.521,84.922l-82.829,24.264l-106.982-21.686
	L365.13,599.515c20.19,0,156.3-0.001,186.829,0c21.028,0.001,28.407-5.479,33.65-8.78
	C596.055,582.02,599.515,570.926,599.515,554.888z"/>
<path id="g_2_" fill="#FFFFFF" d="M378.232,343.293c0,0-23.293-13.977-23.293-23.293c0,0-5.823-20.964,11.646-34.939
	c17.469-13.976,34.938-34.939,34.938-58.232c0-26.788-11.646-58.233-34.938-69.878h34.938l27.952-11.647c0,0-82.69,0-109.477,0
	c-48.915,0-93.171,38.434-93.171,81.525c0,43.091,32.61,76.866,82.69,76.866c3.493,0,6.988,0,10.481,0
	c-3.494,5.823-5.823,12.811-5.823,19.798c0,11.646,9.316,23.294,17.47,31.446c-5.823,0-16.305,0-23.293,0
	c-60.562,0-104.818,30.281-104.818,69.879S260.603,494.696,320,494.696c68.714,0,116.464-34.938,116.464-81.525
	C436.464,381.727,407.349,363.092,378.232,343.293z M331.646,296.707c-27.951,0-65.22-33.774-69.878-69.878
	c-4.659-36.104,18.634-71.043,46.585-69.878c27.951,1.164,53.573,33.774,58.232,71.042
	C371.244,264.097,354.939,296.707,331.646,296.707z M320,471.403c-41.928,0-81.525-15.141-81.525-46.585
	c0-31.446,39.598-58.232,81.525-58.232c9.316,0,23.293,0,23.293,0c11.646,0,33.774,10.481,46.586,23.293
	c11.646,11.646,11.646,31.446,11.646,34.939C401.524,459.758,378.232,471.403,320,471.403z"/>
</svg>
