<?xml version="1.0" encoding="utf-8"?>
<!-- Generator: Adobe Illustrator 16.0.0, SVG Export Plug-In . SVG Version: 6.00 Build 0)  -->
<!DOCTYPE svg PUBLIC "-//W3C//DTD SVG 1.1//EN" "http://www.w3.org/Graphics/SVG/1.1/DTD/svg11.dtd">
<svg version="1.1" id="Heart2_1_" xmlns="http://www.w3.org/2000/svg" xmlns:xlink="http://www.w3.org/1999/xlink" x="0px" y="0px"
	 width="300px" height="300px" viewBox="0 0 300 300" enable-background="new 0 0 300 300" xml:space="preserve">
<g id="Heart2">
	<path id="Body" fill="#ED1C24" stroke="#000000" stroke-miterlimit="10" d="M14.132,46.12
		c-68.948,88.521,136.808,243.023,136.808,243.023S350.643,134.158,287.747,46.12c-56.683-79.341-136.808,0-136.808,0
		S72.48-28.793,14.132,46.12z"/>
	<radialGradient id="Gradient_2_" cx="150" cy="150" r="144.6732" gradientUnits="userSpaceOnUse">
		<stop  offset="0" style="stop-color:#ED1C24;stop-opacity:0.5"/>
		<stop  offset="0.3525" style="stop-color:#D81D28;stop-opacity:0.6763"/>
		<stop  offset="1" style="stop-color:#BE1E2D"/>
	</radialGradient>
	<path id="Gradient" fill="url(#Gradient_2_)" stroke="#000000" stroke-miterlimit="10" d="M14.132,46.12
		c-68.948,88.521,136.808,243.023,136.808,243.023S350.643,134.158,287.747,46.12c-56.683-79.341-136.808,0-136.808,0
		S72.48-28.793,14.132,46.12z"/>
	<radialGradient id="Gradient_3_" cx="150.3247" cy="135.0649" r="171.2076" gradientUnits="userSpaceOnUse">
		<stop  offset="0" style="stop-color:#BE1E2D;stop-opacity:0.2"/>
		<stop  offset="0.1452" style="stop-color:#C41E38;stop-opacity:0.2"/>
		<stop  offset="0.3857" style="stop-color:#CC1D48;stop-opacity:0.2"/>
		<stop  offset="0.6148" style="stop-color:#D31C52;stop-opacity:0.2"/>
		<stop  offset="0.8253" style="stop-color:#D71C59;stop-opacity:0.2"/>
		<stop  offset="1" style="stop-color:#DA1C5C;stop-opacity:0.2"/>
	</radialGradient>
	<path id="Gradient_1_" fill="url(#Gradient_3_)" stroke="#BE1E2D" stroke-miterlimit="10" d="M14.132,46.12
		c-68.948,88.521,136.808,243.023,136.808,243.023S350.643,134.158,287.747,46.12c-56.683-79.341-136.808,0-136.808,0
		S72.48-28.793,14.132,46.12z"/>
	<radialGradient id="Highlight_2_" cx="49.6226" cy="1.771" r="57.956" gradientUnits="userSpaceOnUse">
		<stop  offset="0" style="stop-color:#FFFFFF;stop-opacity:0.8"/>
		<stop  offset="1" style="stop-color:#FFFFFF;stop-opacity:0"/>
	</radialGradient>
	<path id="Highlight_1_" fill="url(#Highlight_2_)" fill-opacity="0.6" d="M108.061,19.376C80.646,8.748,44.643,6.947,14.132,46.12
		c-3.999,5.134-7.063,10.493-9.307,16.027c10.915,8.625,24.8,13.799,39.927,13.799C77.936,75.946,105.168,51.085,108.061,19.376z"/>
	<radialGradient id="Highlight_3_" cx="199.5371" cy="2.4585" r="65.4797" gradientUnits="userSpaceOnUse">
		<stop  offset="0" style="stop-color:#FFFFFF;stop-opacity:0.8"/>
		<stop  offset="1" style="stop-color:#FFFFFF;stop-opacity:0"/>
	</radialGradient>
	<path id="Highlight" fill="url(#Highlight_3_)" fill-opacity="0.6" d="M200.186,70.464c30.596,0,56.136-21.131,62.204-49.279
		c-52.532-33.404-111.45,24.935-111.45,24.935s-1.222-1.167-3.474-3.063C158.891,59.592,178.24,70.464,200.186,70.464z"/>
</g>
</svg>
