<?xml version="1.0" encoding="utf-8"?>
<!-- Generator: Adobe Illustrator 15.0.2, SVG Export Plug-In . SVG Version: 6.00 Build 0)  -->
<!DOCTYPE svg PUBLIC "-//W3C//DTD SVG 1.1//EN" "http://www.w3.org/Graphics/SVG/1.1/DTD/svg11.dtd">
<svg version="1.1" id="Info" xmlns="http://www.w3.org/2000/svg" xmlns:xlink="http://www.w3.org/1999/xlink" x="0px" y="0px"
	 width="640px" height="640px" viewBox="0 0 640 640" enable-background="new 0 0 640 640" xml:space="preserve">
<path id="Body" fill="#3B5999" stroke="#00008B" stroke-width="6.5037" stroke-linecap="round" stroke-linejoin="round" stroke-miterlimit="10" d="
	M320,43.475C167.412,43.475,43.715,167.283,43.715,320c0,152.725,123.697,276.525,276.285,276.525
	c152.592,0,276.285-123.801,276.285-276.525C596.285,167.276,472.592,43.475,320,43.475z"/>
<path id="i" fill="#FFFFFF" d="M318.622,474.644c0,0-12.821,8.526-21.584,8.488c-0.778,0.356-1.241,0.565-1.241,0.565l0.019-0.565
	c-1.838-0.089-3.691-0.344-5.558-0.813l-2.768-0.686c-15.303-3.801-23.404-18.986-19.595-34.293l21.305-85.963l9.615-38.819
	c8.945-36.046-28.365,7.666-36.015-8.94c-5.053-10.977,29.019-34.009,53.912-51.375c0,0,12.805-8.518,21.572-8.483
	c0.787-0.365,1.25-0.568,1.25-0.568l-0.031,0.568c1.854,0.083,3.706,0.344,5.573,0.804l2.769,0.689
	c15.3,3.799,24.619,19.294,20.822,34.604l-21.293,85.962l-9.637,38.822c-8.927,36.047,27.763-7.834,35.406,8.788
	C378.196,434.397,343.509,457.271,318.622,474.644z"/>
<path id="Dot" fill="#FFFFFF" d="M372.616,205.962c-5.32,21.438-26.993,34.512-48.401,29.187
	c-21.429-5.322-34.491-27.008-29.171-48.452c5.317-21.448,26.99-34.512,48.407-29.19
	C364.871,162.825,377.93,184.517,372.616,205.962z"/>
</svg>
