<?xml version="1.0" encoding="utf-8"?>
<!-- Generator: Adobe Illustrator 15.0.2, SVG Export Plug-In . SVG Version: 6.00 Build 0)  -->
<!DOCTYPE svg PUBLIC "-//W3C//DTD SVG 1.1//EN" "http://www.w3.org/Graphics/SVG/1.1/DTD/svg11.dtd">
<svg version="1.1" id="Photos_1_" xmlns="http://www.w3.org/2000/svg" xmlns:xlink="http://www.w3.org/1999/xlink" x="0px" y="0px"
	 width="640px" height="640px" viewBox="0 0 640 640" enable-background="new 0 0 640 640" xml:space="preserve">
<g id="Camera">
	
		<linearGradient id="Outter_Body_1_" gradientUnits="userSpaceOnUse" x1="133.6758" y1="448.1855" x2="244.9857" y2="448.1855" gradientTransform="matrix(1 0 0 -1 14 566)">
		<stop  offset="0.0433" style="stop-color:#E71500"/>
		<stop  offset="0.2356" style="stop-color:#E61702"/>
		<stop  offset="0.3049" style="stop-color:#E41D09"/>
		<stop  offset="0.3543" style="stop-color:#E02714"/>
		<stop  offset="0.3943" style="stop-color:#DB3525"/>
		<stop  offset="0.4285" style="stop-color:#D3493B"/>
		<stop  offset="0.4588" style="stop-color:#CA6057"/>
		<stop  offset="0.4862" style="stop-color:#C07C77"/>
		<stop  offset="0.5106" style="stop-color:#B49C9B"/>
		<stop  offset="0.5225" style="stop-color:#ADAEB0"/>
		<stop  offset="0.5343" style="stop-color:#999A9B"/>
		<stop  offset="0.5586" style="stop-color:#757677"/>
		<stop  offset="0.5859" style="stop-color:#555657"/>
		<stop  offset="0.6161" style="stop-color:#3A3B3B"/>
		<stop  offset="0.6502" style="stop-color:#252525"/>
		<stop  offset="0.69" style="stop-color:#141414"/>
		<stop  offset="0.7392" style="stop-color:#090909"/>
		<stop  offset="0.8083" style="stop-color:#020202"/>
		<stop  offset="1" style="stop-color:#000000"/>
	</linearGradient>
	<path id="Outter_Body" fill="url(#Outter_Body_1_)" d="M450.14,52.31h-52c-23.28,0-27.42-12.27-28.01-18.6v-3.67
		c0,0-0.36-25.91-34.45-25.91h-38.31c-30.84,0-29.49,24.7-29.49,24.7s0.88,23.48-28.73,23.48H185c-6.68,0.12-28,2.7-28,30.99v118.47
		c0.14,6.21,2.6,29.24,33.78,29.73h261.01c23.68-0.49,28.46-16.38,29.21-24.97V83.04C481,51.48,450.14,52.31,450.14,52.31z"/>
	
		<linearGradient id="Inner_Body_1_" gradientUnits="userSpaceOnUse" x1="157.585" y1="448.9326" x2="453.6079" y2="448.9326" gradientTransform="matrix(1 0 0 -1 14 566)">
		<stop  offset="0.0453" style="stop-color:#231F20"/>
		<stop  offset="0.5" style="stop-color:#231F20;stop-opacity:0"/>
		<stop  offset="1" style="stop-color:#231F20"/>
	</linearGradient>
	<path id="Inner_Body" fill="url(#Inner_Body_1_)" stroke="#FF0000" stroke-width="3.3851" stroke-miterlimit="10" d="
		M467.01,194.77c-0.56,8.41-4.44,23.98-26.03,23.98H200.37c-26.97,0-29.22-21.57-29.37-27.14V95.73c0.12-5.12,2.2-25.12,26.86-25.12
		h50.07c37.77,0,40.86-39,40.86-39c0.5-13.87,14.83-16.15,18.2-16.23l20.69,0.07c0,0,18.58-1.35,21.16,15.89
		c0,0,0.93,39.26,40.67,39.26h50.87c5.43,0.13,26.64,2.08,26.64,25.44v98.73L467.01,194.77L467.01,194.77z"/>
	
		<linearGradient id="Flash_1_" gradientUnits="userSpaceOnUse" x1="304.4429" y1="545.8633" x2="305.5821" y2="502.574" gradientTransform="matrix(1 0 0 -1 14 566)">
		<stop  offset="0" style="stop-color:#231F20"/>
		<stop  offset="0.0749" style="stop-color:#5A5729"/>
		<stop  offset="0.1532" style="stop-color:#8C8A32"/>
		<stop  offset="0.2305" style="stop-color:#B5B439"/>
		<stop  offset="0.3051" style="stop-color:#D5D53E"/>
		<stop  offset="0.3764" style="stop-color:#ECEC42"/>
		<stop  offset="0.443" style="stop-color:#FAFA44"/>
		<stop  offset="0.5" style="stop-color:#FFFF45"/>
		<stop  offset="0.5468" style="stop-color:#F7F744"/>
		<stop  offset="0.6204" style="stop-color:#E1E040"/>
		<stop  offset="0.7115" style="stop-color:#BDBC3A"/>
		<stop  offset="0.8166" style="stop-color:#8B8931"/>
		<stop  offset="0.9319" style="stop-color:#4C4827"/>
		<stop  offset="1" style="stop-color:#231F20"/>
	</linearGradient>
	<path id="Flash" fill="url(#Flash_1_)" stroke="#383D38" stroke-width="1.1284" stroke-miterlimit="10" d="M338.75,43.73
		c0,7.54-6.28,13.66-13.98,13.66h-11.51c-7.72,0-13.98-6.12-13.98-13.66v-4.06c0-7.55,6.26-13.67,13.98-13.67h11.51
		c7.71,0,13.98,6.12,13.98,13.67L338.75,43.73L338.75,43.73z"/>
	
		<radialGradient id="Lens_1_" cx="305.3945" cy="407.4629" r="39.665" gradientTransform="matrix(1.1779 0 0 -1.1513 -40.7145 608.9822)" gradientUnits="userSpaceOnUse">
		<stop  offset="5.600000e-003" style="stop-color:#AEB0B7"/>
		<stop  offset="0.3156" style="stop-color:#AAAAA8"/>
		<stop  offset="0.3539" style="stop-color:#A9A9A6"/>
		<stop  offset="0.5001" style="stop-color:#9A9E9E"/>
		<stop  offset="0.6742" style="stop-color:#838C92"/>
		<stop  offset="1" style="stop-color:#657076"/>
	</radialGradient>
	
		<path id="Lens" fill="url(#Lens_1_)" stroke="#000000" stroke-width="2.2567" stroke-linecap="round" stroke-linejoin="round" stroke-miterlimit="10" d="
		M319.01,94.4c-25.92,0-46.93,20.35-46.93,45.45s21.02,45.47,46.93,45.47c25.95,0,46.94-20.36,46.94-45.47
		C365.95,114.74,344.95,94.4,319.01,94.4z"/>
	
		<radialGradient id="Lens_Glass_1_" cx="305.8633" cy="407.499" r="26.5964" gradientTransform="matrix(1.1779 0 0 -1.1513 -40.7145 608.9822)" gradientUnits="userSpaceOnUse">
		<stop  offset="0" style="stop-color:#DEE3E6"/>
		<stop  offset="7.100000e-003" style="stop-color:#EBEDE6"/>
		<stop  offset="0.0181" style="stop-color:#F6F6E5"/>
		<stop  offset="0.0337" style="stop-color:#FDFCE5"/>
		<stop  offset="0.077" style="stop-color:#FFFDE5"/>
		<stop  offset="0.1355" style="stop-color:#EFEAD7"/>
		<stop  offset="0.2078" style="stop-color:#E1DACA"/>
		<stop  offset="0.289" style="stop-color:#D9D0C3"/>
		<stop  offset="0.3971" style="stop-color:#D6CDC1"/>
		<stop  offset="0.693" style="stop-color:#D9D1C7"/>
		<stop  offset="0.8198" style="stop-color:#EDEDEE"/>
		<stop  offset="0.8571" style="stop-color:#AAAAAE"/>
		<stop  offset="0.8944" style="stop-color:#6E6E74"/>
		<stop  offset="0.9287" style="stop-color:#3E3E47"/>
		<stop  offset="0.9588" style="stop-color:#1C1C26"/>
		<stop  offset="0.9836" style="stop-color:#080812"/>
		<stop  offset="1" style="stop-color:#00000B"/>
	</radialGradient>
	
		<path id="Lens_Glass" fill="url(#Lens_Glass_1_)" stroke="#000000" stroke-width="2.2567" stroke-linecap="round" stroke-linejoin="round" stroke-miterlimit="10" d="
		M319.56,170.3c-17.36,0-31.46-13.65-31.46-30.49c0-16.85,14.1-30.48,31.46-30.48c17.38,0,31.47,13.63,31.47,30.48
		C351.03,156.64,336.94,170.3,319.56,170.3z"/>
</g>
<g id="Tripod">
	
		<path id="Tripod_Background" fill="#F7931E" stroke="#000000" stroke-width="1.1662" stroke-linecap="round" stroke-linejoin="round" stroke-miterlimit="10" d="
		M335.58,4.45h-38.35c-30.87,0-29.51,24.59-29.51,24.59s0.88,23.55-28.76,23.55h-54.18c-6.68,0.12-28.02,2.7-28.02,31.09v118.85
		c0.14,6.23,2.59,29.34,31.9,29.34h261.21c25.61,0,30.41-15.94,31.14-24.57V83.43c0-30.09-27.88-30.84-30.65-30.84
		c-0.15,0-0.23,0-0.23,0h-52.04c-23.3,0-27.43-12.31-28.03-18.65v-3.69C370.06,30.25,369.69,4.45,335.58,4.45 M335.58,1.11
		c37.04,0,37.87,28.8,37.88,29.13v3.53c0.73,7.09,5.61,15.47,24.63,15.47h52.01c0.05,0,0.13,0,0.26,0c12.65,0,34.07,7.2,34.07,34.18
		v123.88v0.14l-0.01,0.14c-0.71,8.31-5.5,27.62-34.55,27.62H188.66c-25.51,0-34.97-16.85-35.3-32.61v-0.03v-0.03V83.68
		c0-13.3,4.36-23.02,12.97-28.88c6.82-4.65,14.46-5.47,18.4-5.55h0.03h0.03h54.18c8.81,0,15.48-2.21,19.82-6.58
		c5.6-5.64,5.54-13.23,5.54-13.51c-0.04-0.92-0.31-11.12,7.35-19.04c5.78-5.98,14.39-9.02,25.57-9.02H335.58L335.58,1.11z
		 M278.81,327.47c-21.01,0.04-26.12,19.43-27.76,24.05l-93.33,278.59c-2.39,7.17-7.75,8.65-10.86,8.88h-10.65
		c-15.4,0-9.78-18.2-9.65-18.63l97.55-292.98L278.81,327.47z M278.84,327.39c9.68,0.02,23.52,6.66,23.52,28.96v155.55
		c0,19.45,11.98,21.4,16.08,21.48h1.06c3.91-0.09,17.92-2.06,17.92-25.52V353.81c2.89-21.55,16.62-26.43,24.44-26.43H278.84z
		 M280.86,327.71h83.02c9.76,0,19.46,6.96,26.25,23.12l93.33,278.02c3.27,9.71,11.2,10.03,13.38,10.03h6.54
		c15.1,0,14.31-9.58,12.94-14.74L414.8,327.71H280.86z M414.8,327.39l-2.89-9.01c-2.26-6.32-10.64-24.22-34.78-24.31l-20.57-0.1
		c-20.18-0.08-19.23-15.04-19.23-15.04c0.05-10.97,11.33-12.13,15.17-12.12l29.58,0.1c20.14,0.07,18.08-16.85,18.08-16.85
		c0.01-3.42-0.95-14.92-19.7-14.99l-122.72-0.44c-19.71-0.08-18.9,15.43-18.9,15.43s0.51,16.32,20.31,16.4l29.6,0.1
		c0,0,13.58-0.11,13.53,12.87c-0.09,3.17-1.72,14.29-19.33,14.23l-19.75-0.07c-27.69-0.11-35.59,23.45-35.67,23.64l-3.41,10.76
		L414.8,327.39z"/>
	
		<linearGradient id="Left_Leg_2_" gradientUnits="userSpaceOnUse" x1="162.7529" y1="92.4404" x2="194.0313" y2="82.0143" gradientTransform="matrix(1 0 0 -1 14 566)">
		<stop  offset="0" style="stop-color:#231F20"/>
		<stop  offset="0.5" style="stop-color:#231F20;stop-opacity:0"/>
		<stop  offset="1" style="stop-color:#231F20"/>
	</linearGradient>
	
		<path id="Left_Leg" fill="url(#Left_Leg_2_)" stroke="#000000" stroke-width="1.1662" stroke-linecap="round" stroke-linejoin="round" stroke-miterlimit="10" d="
		M223.65,327.39L126.1,620.37c-0.13,0.43-5.74,18.63,9.65,18.63h10.66c3.1-0.23,8.46-1.71,10.86-8.88l93.32-278.59
		c1.64-4.62,6.76-24.01,27.76-24.05L223.65,327.39z"/>
	
		<linearGradient id="Center_Leg_2_" gradientUnits="userSpaceOnUse" x1="287.9072" y1="135.6538" x2="323.0891" y2="136.0773" gradientTransform="matrix(1 0 0 -1 14 566)">
		<stop  offset="0" style="stop-color:#231F20"/>
		<stop  offset="0.5" style="stop-color:#231F20;stop-opacity:0"/>
		<stop  offset="1" style="stop-color:#231F20"/>
	</linearGradient>
	
		<path id="Center_Leg" fill="url(#Center_Leg_2_)" stroke="#000000" stroke-width="1.1662" stroke-linecap="round" stroke-linejoin="round" stroke-miterlimit="10" d="
		M278.39,327.39c9.67,0.02,23.52,6.65,23.52,28.95V511.9c0,19.45,11.98,21.4,16.08,21.48h1.05c3.91-0.09,17.92-2.06,17.92-25.51
		V353.82c2.89-21.55,16.62-26.43,24.44-26.43H278.39z"/>
	
		<linearGradient id="Right_Leg_3_" gradientUnits="userSpaceOnUse" x1="416.4648" y1="95.4507" x2="444.1362" y2="105.0754" gradientTransform="matrix(1 0 0 -1 14 566)">
		<stop  offset="0" style="stop-color:#231F20"/>
		<stop  offset="0.5" style="stop-color:#231F20;stop-opacity:0"/>
		<stop  offset="1" style="stop-color:#231F20"/>
	</linearGradient>
	
		<path id="Right_Leg_1_" fill="url(#Right_Leg_3_)" stroke="#000000" stroke-width="1.1662" stroke-linecap="round" stroke-linejoin="round" stroke-miterlimit="10" d="
		M280.39,327.71h83.02c9.77,0,19.46,6.97,26.26,23.12L483,628.86c3.26,9.71,11.19,10.03,13.38,10.03h6.54
		c15.09,0,14.3-9.58,12.93-14.73L414.34,327.71H280.39z"/>
	
		<radialGradient id="Tripod_Top_2_" cx="-332.0698" cy="374.6396" r="66.2775" gradientTransform="matrix(-0.0151 -1.1543 -1.547 0.0194 895.9697 -31.4653)" gradientUnits="userSpaceOnUse">
		<stop  offset="0" style="stop-color:#231F20"/>
		<stop  offset="0.5" style="stop-color:#231F20;stop-opacity:0"/>
		<stop  offset="1" style="stop-color:#231F20"/>
	</radialGradient>
	
		<path id="Tripod_Top" fill="url(#Tripod_Top_2_)" stroke="#000000" stroke-width="1.1662" stroke-linecap="round" stroke-linejoin="round" stroke-miterlimit="10" d="
		M414.34,327.39l-2.88-9.02c-2.26-6.32-10.65-24.22-34.78-24.31l-20.58-0.1c-20.18-0.08-19.22-15.04-19.22-15.04
		c0.04-10.97,11.32-12.13,15.16-12.12l29.59,0.1c20.13,0.07,18.07-16.85,18.07-16.85c0.01-3.41-0.95-14.92-19.71-14.99l-122.72-0.44
		c-19.71-0.07-18.9,15.43-18.9,15.43s0.51,16.32,20.32,16.4l29.59,0.1c0,0,13.58-0.11,13.53,12.87
		c-0.09,3.17-1.72,14.29-19.33,14.23l-19.74-0.07c-27.7-0.11-35.59,23.45-35.67,23.64l-3.41,10.76L414.34,327.39z"/>
</g>
</svg>
