<?xml version="1.0" encoding="utf-8"?>
<!-- Generator: Adobe Illustrator 16.0.0, SVG Export Plug-In . SVG Version: 6.00 Build 0)  -->
<!DOCTYPE svg PUBLIC "-//W3C//DTD SVG 1.1//EN" "http://www.w3.org/Graphics/SVG/1.1/DTD/svg11.dtd">
<svg version="1.1" id="Snowflake4" xmlns="http://www.w3.org/2000/svg" xmlns:xlink="http://www.w3.org/1999/xlink" x="0px" y="0px"
	 width="640px" height="640px" viewBox="0 0 640 640" enable-background="new 0 0 640 640" xml:space="preserve">
<path id="Snowflake4_1_" fill="#FFFFFF" stroke="#B2E1E7" stroke-width="2" stroke-miterlimit="10" d="M623.401,314.018
	l-18.845-32.628c-2.14-3.689-6.102-5.974-10.333-5.974l-37.627-0.016c-4.296,0-8.24,2.3-10.349,5.989L530.9,307.997h-16.705
	l9.582-16.562c3.306-5.717,1.342-13.048-4.375-16.354c-5.734-3.338-13.032-1.31-16.339,4.376l-16.466,28.54h-23.46l31.798-55.083
	c3.305-5.718,1.341-13.048-4.377-16.354c-5.718-3.306-13.048-1.309-16.338,4.376l-38.745,67.061h-8.208
	c-3.434-30.616-19.708-57.334-43.313-74.79l4.169-7.187h77.521c6.612,0,11.979-5.382,11.979-11.978
	c0-6.612-5.366-11.978-11.979-11.978h-63.658l11.69-20.299h32.979c6.612,0,11.979-5.382,11.979-11.978
	c0-6.612-5.366-11.978-11.979-11.978h-19.148l8.32-14.438h30.728c4.297,0,8.257-2.299,10.365-5.989l18.861-32.596
	c2.155-3.705,2.155-8.289,0-11.978l-18.83-32.628c-2.155-3.689-6.116-5.989-10.364-5.989l-37.674,0.032
	c-4.281,0-8.241,2.299-10.333,5.989l-18.847,32.532c-2.172,3.689-2.203,8.305-0.016,12.01l15.38,26.639l-8.336,14.406l-9.583-16.562
	c-3.307-5.702-10.604-7.714-16.354-4.376c-5.686,3.29-7.65,10.637-4.345,16.354l16.466,28.54l-11.706,20.298l-31.798-55.099
	c-3.305-5.717-10.636-7.682-16.354-4.376c-5.718,3.306-7.683,10.637-4.376,16.354l38.744,67.077l-4.135,7.139
	c-13.241-5.813-27.838-9.103-43.233-9.103c-15.379,0-29.977,3.274-43.216,9.103l-4.12-7.106l38.776-67.125
	c3.306-5.702,1.342-13.032-4.375-16.338c-5.75-3.338-13.048-1.341-16.354,4.36l-31.845,55.146l-11.691-20.299l16.466-28.571
	c3.305-5.733,1.341-13.064-4.36-16.354c-5.733-3.338-13.064-1.326-16.338,4.376l-9.598,16.594l-8.369-14.47l15.38-26.607
	c2.156-3.705,2.156-8.304,0-11.978L221.63,60.182c-2.156-3.689-6.101-5.989-10.349-5.989l-17.903-0.032l-2.236,0.032l-17.647-0.032
	c-0.017,0-0.017,0-0.017,0c-4.296,0-8.241,2.3-10.365,5.989l-18.845,32.628c-2.14,3.689-2.14,8.273,0.032,11.978l18.813,32.596
	c2.156,3.689,6.117,5.989,10.365,5.989h20.011h0.017l10.684-0.032l8.337,14.454h-19.069c-6.611,0-11.978,5.366-11.978,11.978
	c0,6.612,5.367,11.978,11.978,11.978h32.915l11.723,20.299h-63.579c-6.596,0-11.978,5.382-11.978,11.978
	c0,6.612,5.382,11.978,11.978,11.978h77.457l4.185,7.234c-23.604,17.456-39.895,44.175-43.296,74.806h-8.209l-38.744-67.076
	c-3.306-5.685-10.604-7.682-16.354-4.376c-5.717,3.306-7.682,10.636-4.375,16.354l31.813,55.098h-23.477l-16.481-28.54
	c-3.306-5.701-10.604-7.698-16.338-4.359c-5.717,3.306-7.666,10.636-4.375,16.337l9.566,16.562h-16.705L93.77,281.358
	c-2.14-3.657-6.084-5.957-10.333-5.957l-37.611,0.032c-4.296,0-8.241,2.299-10.349,5.957L16.6,313.986
	c-2.14,3.689-2.14,8.289,0,11.978l18.845,32.596c2.14,3.673,6.085,5.988,10.349,5.988l37.643,0.033c4.28,0,8.241-2.315,10.349-5.99
	l15.347-26.639h16.722l-9.55,16.594c-3.306,5.702-1.342,13.032,4.36,16.337c1.869,1.055,3.944,1.631,5.973,1.631
	c4.152,0,8.177-2.188,10.365-5.988l16.482-28.573h23.477l-31.845,55.163c-3.306,5.701-1.342,13.032,4.376,16.337
	c1.884,1.055,3.945,1.629,5.973,1.629c4.153,0,8.177-2.188,10.381-5.988l38.761-67.124h8.192
	c3.402,30.632,19.692,57.366,43.296,74.823l-4.168,7.186h-77.41c-6.596,0-11.978,5.365-11.978,11.978s5.382,11.979,11.978,11.979
	h63.626l-11.722,20.298h-32.947c-6.612,0-11.978,5.367-11.978,11.979c0,6.596,5.366,11.978,11.978,11.978h19.133l-8.353,14.453
	l-10.636,0.033l-2.492-0.033l-17.631,0.033c-4.28,0-8.225,2.331-10.349,5.988l-18.781,32.564c-2.156,3.656-2.156,8.288-0.032,11.978
	l18.813,32.628c2.14,3.689,6.085,5.989,10.365,5.989h0.016l17.472-0.032l2.379,0.032c0.064,0,0.111,0,0.175,0h17.631
	c4.281,0,8.225-2.332,10.333-5.989l18.813-32.628c2.14-3.657,2.14-8.288,0-11.946l-15.348-26.639l8.337-14.453l9.598,16.577
	c2.22,3.833,6.245,5.988,10.365,5.988c2.029,0,4.088-0.511,5.973-1.645c5.701-3.306,7.666-10.604,4.36-16.321l-16.465-28.556
	l11.722-20.299l31.797,55.115c2.236,3.832,6.261,5.988,10.381,5.988c2.028,0,4.089-0.494,5.973-1.612
	c5.702-3.307,7.666-10.637,4.36-16.354l-38.745-67.093l4.12-7.075c13.24,5.798,27.837,9.072,43.232,9.072
	c15.38,0,29.977-3.274,43.217-9.104l4.135,7.171l-38.712,67.028c-3.306,5.685-1.357,13.017,4.359,16.321
	c1.869,1.07,3.945,1.646,5.974,1.646c4.153,0,8.193-2.156,10.365-5.988l31.798-55.067l11.705,20.299l-16.449,28.508
	c-3.29,5.701-1.341,13.032,4.36,16.337c1.9,1.087,3.96,1.629,5.989,1.629c4.152,0,8.177-2.155,10.364-5.988l9.567-16.529
	l8.32,14.438l-15.396,26.606c-2.141,3.706-2.141,8.305,0,11.979l18.845,32.596c2.14,3.673,6.102,5.989,10.333,5.989l17.631,0.031
	l0,0c0.064,0,0.128,0,0.161,0l19.866-0.031c4.28,0,8.241-2.284,10.334-5.989l18.861-32.596c2.123-3.674,2.123-8.272-0.033-11.979
	l-18.828-32.596c-2.141-3.673-6.102-5.988-10.334-5.988l-20.027,0.031l-10.716-0.031l-8.337-14.471h19.149
	c6.611,0,11.979-5.365,11.979-11.977c0-6.613-5.367-11.979-11.979-11.979h-32.979l-11.69-20.298h63.627
	c6.611,0,11.978-5.365,11.978-11.978c0-6.596-5.366-11.979-11.978-11.979h-77.505l-4.089-7.187
	c23.604-17.455,39.895-44.189,43.312-74.822h8.177l38.777,67.094c2.235,3.832,6.26,5.988,10.381,5.988
	c2.028,0,4.088-0.495,5.957-1.63c5.717-3.305,7.666-10.636,4.376-16.338l-31.829-55.114h23.492l16.466,28.57
	c2.22,3.803,6.244,5.99,10.364,5.99c2.029,0,4.089-0.527,5.974-1.629c5.717-3.307,7.682-10.637,4.376-16.338l-9.614-16.594h16.722
	l15.363,26.64c2.14,3.673,6.085,5.989,10.35,5.989l0,0h37.625c4.297,0,8.227-2.316,10.35-5.989l18.829-32.596
	C625.542,322.307,625.542,317.707,623.401,314.018z M423.834,98.767l11.914-20.618h9.996l13.799-0.032l6.947,11.978l4.983,8.672
	l-11.931,20.618h-9.965l-3.131-0.032l-10.699,0.032l-6.947-11.978L423.834,98.767z M180.298,119.369L168.384,98.75l4.983-8.64
	l6.931-11.978h10.876l2.235-0.032h0.719l9.998,0.032l11.914,20.618l-4.983,8.64l-6.931,11.978h-13.83H180.298L180.298,119.369z
	 M88.276,319.975l-6.915,11.977l-4.983,8.688l-23.812-0.032l-4.983-8.64l-6.931-11.978l6.899-11.962l4.982-8.624l23.828-0.032
	l4.983,8.656L88.276,319.975z M215.977,541.247l-11.866,20.618l-10.014,0.031h-0.639l-2.476-0.031h-10.7l-6.915-11.978l-4.983-8.641
	l11.882-20.617h9.981h0.639h2.492h10.684l6.931,11.978L215.977,541.247z M459.56,520.613l11.883,20.618l-4.983,8.64l-6.931,11.978
	l-13.16,0.032h-0.639l-9.998-0.032l-11.914-20.617l4.983-8.641l6.979-11.978h13.783H459.56L459.56,520.613z M403.902,319.991
	c0,4.105-0.639,8.034-1.213,11.978c-3.115,21.736-14.534,40.645-31,53.646c-6.275,4.967-13.063,9.167-20.618,12.232
	c-9.646,3.865-20.105,6.118-31.094,6.118c-10.988,0-21.464-2.253-31.079-6.118c-7.555-3.002-14.342-7.234-20.618-12.232
	c-16.498-13.001-27.917-31.909-31.031-53.646c-0.575-3.928-1.213-7.873-1.213-11.978c0-4.104,0.639-8.033,1.213-11.978
	c3.114-21.736,14.533-40.645,30.999-53.645c6.292-4.967,13.08-9.167,20.618-12.218c9.646-3.864,20.123-6.132,31.111-6.132
	c10.989,0,21.481,2.268,31.111,6.132c7.538,3.002,14.326,7.251,20.602,12.218c16.466,13.016,27.885,31.909,31,53.629
	C403.264,311.958,403.902,315.886,403.902,319.991z M587.292,340.641l-13.095-0.032l-10.717,0.032l-4.983-8.672l-6.899-11.978
	l6.932-11.994l4.982-8.64l23.844,0.016l4.967,8.625l6.933,12.01l-6.899,11.962L587.292,340.641z"/>
</svg>
