<?xml version="1.0" encoding="utf-8"?>
<!-- Generator: Adobe Illustrator 16.0.0, SVG Export Plug-In . SVG Version: 6.00 Build 0)  -->
<!DOCTYPE svg PUBLIC "-//W3C//DTD SVG 1.1//EN" "http://www.w3.org/Graphics/SVG/1.1/DTD/svg11.dtd">
<svg version="1.1" id="Snowflake2" xmlns="http://www.w3.org/2000/svg" xmlns:xlink="http://www.w3.org/1999/xlink" x="0px" y="0px"
	 width="640px" height="640px" viewBox="0 0 640 640" enable-background="new 0 0 640 640" xml:space="preserve">
<path id="Snowflake2_1_" fill="#FFFFFF" stroke="#B1E0E7" stroke-width="2" stroke-miterlimit="10" d="M624.912,315.938
	l-19.103-33.017c-1.46-2.484-4.132-4.038-6.989-4.038l-38.141-0.015c-2.889,0-5.544,1.553-7.004,4.038l-16.71,28.994h-81.47
	l67.85-67.819c3.153-3.152,3.153-8.277,0-11.43c-3.168-3.152-8.277-3.152-11.43,0L432.62,311.9h-48.795l-24.397-42.288
	l24.429-42.318l108.213-28.995c4.301-1.149,6.848-5.606,5.715-9.893c-1.135-4.317-5.575-6.849-9.908-5.73l-92.59,24.801
	l40.673-70.428l13.107-0.032l2.392,0.032c0.031,0,0.078,0,0.109,0l17.874-0.016c2.89,0,5.529-1.537,6.988-4.038l19.134-33.032
	c1.443-2.485,1.443-5.576,0-8.091L476.43,58.841c-1.444-2.485-4.115-4.038-6.988-4.038l-38.141,0.016
	c-2.889,0-5.544,1.553-7.004,4.037l-19.071,33.001c-1.46,2.485-1.46,5.576,0,8.092l16.741,28.994l-40.735,70.506l-24.832-92.667
	c-1.087-4.317-5.56-6.849-9.892-5.731c-4.318,1.15-6.881,5.607-5.716,9.908l29.011,108.275l-24.429,42.272h-48.812l-24.428-42.288
	l29.01-108.197c1.149-4.317-1.414-8.759-5.731-9.908c-4.286-1.118-8.728,1.413-9.893,5.746l-24.817,92.59l-40.719-70.521
	l16.741-28.963c1.444-2.485,1.444-5.576,0-8.091l-19.071-33.017c-1.429-2.484-4.115-4.022-6.988-4.037H172.51
	c-2.889,0-5.56,1.537-7.02,4.037l-19.055,33.017c-1.429,2.5-1.429,5.591,0,8.091l19.086,33.016c1.46,2.5,4.131,4.053,7.02,4.053
	H190.4c0.016,0,0.031,0,0.062,0l15.561-0.016l40.72,70.506l-92.62-24.801c-4.286-1.133-8.744,1.398-9.908,5.73
	c-1.149,4.317,1.413,8.744,5.73,9.893l108.244,28.995l24.397,42.288l-24.429,42.288h-48.826l-79.265-79.25
	c-3.152-3.152-8.277-3.152-11.43,0c-3.168,3.153-3.168,8.278,0,11.43l67.804,67.819h-81.423l-16.726-28.995
	c-1.459-2.5-4.115-4.022-7.004-4.022h-38.11c-2.904,0-5.575,1.538-7.004,4.022l-19.086,33.017c-1.445,2.485-1.445,5.591,0,8.092
	l19.07,33.016c1.444,2.517,4.115,4.054,7.02,4.054l20.22,0.031c0.031,0,0.046,0,0.062,0l17.859-0.031
	c2.888,0,5.56-1.537,7.003-4.054l16.695-28.962h81.408l-67.772,67.772c-3.168,3.137-3.168,8.276,0,11.43
	c1.584,1.599,3.649,2.345,5.73,2.345c2.065,0,4.146-0.792,5.73-2.345l79.203-79.234h48.856l24.429,42.257l-24.397,42.288
	L149.93,441.621c-4.317,1.118-6.879,5.606-5.73,9.877c1.165,4.349,5.59,6.942,9.908,5.73l92.667-24.816l-40.75,70.537l-15.638-0.031
	l-17.859,0.062c-2.874,0-5.529,1.568-6.989,4.054l-19.055,32.985c-1.459,2.469-1.459,5.605-0.015,8.091l19.086,33.016
	c1.46,2.518,4.131,4.054,7.02,4.054l20.205,0.032c0.031,0,0.046,0,0.062,0l17.859-0.032c2.904,0,5.56-1.536,7.004-4.054
	l19.07-32.984c1.444-2.5,1.444-5.606,0-8.107l-16.741-28.979l40.719-70.506l24.833,92.59c0.978,3.619,4.24,5.994,7.796,5.994
	c0.699,0,1.413-0.093,2.097-0.295c4.333-1.148,6.895-5.591,5.73-9.877l-29.025-108.212l24.429-42.288h48.841l24.397,42.257
	l-29.01,108.243c-1.149,4.303,1.412,8.743,5.73,9.893c0.699,0.187,1.397,0.279,2.097,0.279c3.571,0,6.849-2.36,7.796-5.994
	l24.816-92.62l40.766,70.521l-16.757,28.979c-1.443,2.484-1.443,5.575,0,8.091l19.087,33.016c1.444,2.501,4.1,4.054,6.988,4.054
	l17.844,0.032c0.03,0,0.063,0,0.077,0l20.236-0.032c2.888,0,5.544-1.552,6.988-4.054l19.087-33.016c1.443-2.531,1.443-5.622,0-8.091
	l-19.087-33.018c-1.444-2.53-4.115-4.052-6.988-4.052h-20.283h-13.199l-40.735-70.521l92.621,24.848
	c4.379,1.165,8.743-1.398,9.908-5.731c1.164-4.316-1.414-8.742-5.716-9.908l-108.243-29.024l-24.397-42.257l24.397-42.288h48.857
	l79.218,79.232c1.583,1.602,3.634,2.346,5.715,2.346c2.08,0,4.177-0.791,5.715-2.346c3.152-3.151,3.152-8.292,0-11.43
	l-67.758-67.786h81.424l16.742,28.993c1.443,2.485,4.115,4.054,6.987,4.054h38.142c2.905,0,5.56-1.568,6.988-4.054l19.086-33.047
	C626.355,321.528,626.355,318.438,624.912,315.938z M421.594,95.895l14.396-24.925l19.863-0.016h8.944l4.504,7.765l9.908,17.176
	l-14.443,24.941h-13.123l-2.5-0.031l-3.805,0.016l-9.349,0.015l-4.675-8.091L421.594,95.895z M177.216,70.954l8.96-0.015
	l6.631-0.016l13.2,0.031l14.396,24.926l-9.737,16.819l-4.674,8.091l-9.333,0.016L177.2,120.82l-14.365-24.941l9.908-17.176
	L177.216,70.954z M91.041,319.976l-4.659,8.091l-9.722,16.865L47.836,344.9l-9.893-17.16l-4.458-7.765l4.458-7.734l9.923-17.176
	h28.777l9.737,16.834L91.041,319.976z M220.404,544.119l-14.381,24.91H185.99h-8.759l-4.473-7.735l-9.908-17.175l14.412-24.927
	h19.412h9.365l4.659,8.092L220.404,544.119z M464.783,569.044h-8.76h-6.863h-13.154l-14.412-24.957l9.753-16.834l4.659-8.061
	l9.364-0.03h19.428l14.412,24.957l-9.893,17.145L464.783,569.044z M345.421,362.264h-9.334h-30.144h-9.333l-4.675-8.091
	l-15.095-26.122l-4.659-8.091l4.659-8.075l15.095-26.137l4.659-8.076h9.364h30.128h9.349l4.674,8.091l15.095,26.106l4.675,8.076
	l-4.675,8.091l-15.095,26.12L345.421,362.264z M550.989,319.976l4.675-8.076l9.722-16.85l28.808,0.015l9.908,17.176l4.456,7.734
	l-4.456,7.765l-9.908,17.191H565.4l-9.736-16.865L550.989,319.976z"/>
</svg>
