<?xml version="1.0" encoding="utf-8"?>
<!-- Generator: Adobe Illustrator 16.0.0, SVG Export Plug-In . SVG Version: 6.00 Build 0)  -->
<!DOCTYPE svg PUBLIC "-//W3C//DTD SVG 1.1//EN" "http://www.w3.org/Graphics/SVG/1.1/DTD/svg11.dtd">
<svg version="1.1" id="Layer_1" xmlns="http://www.w3.org/2000/svg" xmlns:xlink="http://www.w3.org/1999/xlink" x="0px" y="0px"
	 width="640px" height="640px" viewBox="0 0 640 640" enable-background="new 0 0 640 640" xml:space="preserve">
<path id="Snowflake5_1_" fill="#FFFFFF" stroke="#B0E0E8" stroke-width="2" stroke-miterlimit="10" d="M582.926,346.063
	l-136.03,36.422l-34.24-19.783v-85.474l34.256-19.8l136.031,36.438c0.761,0.203,1.539,0.305,2.3,0.305
	c3.889,0,7.439-2.587,8.472-6.544c1.25-4.701-1.522-9.52-6.24-10.788l-119.003-31.874l113.424-65.488
	c4.193-2.435,5.631-7.811,3.213-12.022c-2.452-4.227-7.862-5.664-12.039-3.213l-113.391,65.488l31.89-118.987
	c1.234-4.701-1.538-9.52-6.238-10.788c-4.668-1.25-9.521,1.505-10.789,6.24l-36.438,135.997l-34.273,19.8l-74.01-42.729v-39.583
	l99.541-99.576c3.45-3.432,3.45-9.012,0-12.462c-3.414-3.432-9.012-3.432-12.444,0l-87.079,87.131V23.816
	c-0.018-4.853-3.975-8.81-8.827-8.81c-4.853,0-8.809,3.957-8.809,8.81v130.958l-87.097-87.131c-3.45-3.432-9.03-3.432-12.462,0
	c-3.433,3.45-3.433,9.03,0,12.462l99.559,99.576v39.583l-74.027,42.729l-34.291-19.8l-36.455-135.997
	c-1.269-4.718-6.037-7.508-10.771-6.24c-4.701,1.251-7.491,6.087-6.239,10.788l31.873,118.987l-113.39-65.504
	c-4.193-2.452-9.587-0.998-12.022,3.229c-2.435,4.211-0.98,9.587,3.213,12.022l113.441,65.488L54.51,276.839
	c-4.684,1.268-7.491,6.104-6.223,10.788c1.048,3.939,4.599,6.544,8.488,6.544c0.761,0,1.521-0.102,2.283-0.305l136.031-36.438
	l34.274,19.8v85.474l-34.257,19.783L59.075,346.081c-4.633-1.252-9.52,1.504-10.771,6.238c-1.268,4.7,1.522,9.52,6.223,10.737
	l119.021,31.906L60.124,460.468c-4.21,2.419-5.648,7.813-3.213,12.04c1.64,2.823,4.599,4.412,7.643,4.412
	c1.488,0,3.01-0.372,4.396-1.2l113.424-65.47l-31.907,118.952c-1.251,4.734,1.539,9.52,6.24,10.806
	c0.761,0.22,1.539,0.287,2.283,0.287c3.889,0,7.439-2.554,8.505-6.527l36.438-135.997l34.274-19.783l73.993,42.762V460.3
	l-99.559,99.608c-3.433,3.434-3.433,8.996,0,12.445c3.432,3.433,9.012,3.433,12.462,0l87.097-87.131v130.976
	c0,4.869,3.939,8.809,8.809,8.809s8.81-3.922,8.81-8.809V485.223l87.079,87.131c1.742,1.725,3.991,2.57,6.224,2.57
	c2.249,0,4.532-0.896,6.238-2.57c3.45-3.449,3.45-9.012,0-12.445l-99.559-99.643v-39.566l74.011-42.712l34.257,19.783
	l36.438,135.997c1.049,3.957,4.617,6.527,8.489,6.527c0.761,0,1.521-0.067,2.3-0.287c4.7-1.269,7.473-6.105,6.238-10.806
	L459.627,410.25l113.407,65.47c1.403,0.813,2.909,1.2,4.413,1.2c3.044,0,5.986-1.589,7.643-4.412
	c2.436-4.228,0.997-9.589-3.212-12.04l-113.425-65.505l119.005-31.889c4.718-1.235,7.49-6.104,6.239-10.771
	C592.479,347.619,587.678,344.813,582.926,346.063z M329.818,400.375l-8.81,5.123l-8.809-5.107l-56.391-32.6l-8.81-5.089v-10.179
	v-65.117v-10.196l8.81-5.073l56.408-32.566l8.81-5.09l8.81,5.09l56.424,32.566l8.81,5.073v10.196v65.117v10.179l-8.81,5.089
	L329.818,400.375z"/>
</svg>
