<?xml version="1.0" encoding="utf-8"?>
<!-- Generator: Adobe Illustrator 16.0.0, SVG Export Plug-In . SVG Version: 6.00 Build 0)  -->
<!DOCTYPE svg PUBLIC "-//W3C//DTD SVG 1.1//EN" "http://www.w3.org/Graphics/SVG/1.1/DTD/svg11.dtd">
<svg version="1.1" id="Layer_1" xmlns="http://www.w3.org/2000/svg" xmlns:xlink="http://www.w3.org/1999/xlink" x="0px" y="0px"
	 width="640px" height="640px" viewBox="0 0 640 640" enable-background="new 0 0 640 640" xml:space="preserve">
<path id="Snowflake3_1_" fill="#FFFFFF" stroke="#B1E0E7" stroke-width="2" stroke-miterlimit="10" d="M581.922,346.057
	l-136.033,36.421l-43.404-25.041l46.279-12.411c4.701-1.233,7.475-6.087,6.24-10.771c-1.252-4.684-6.07-7.506-10.771-6.238
	l-63.307,16.926l-43.318-24.975l43.318-25.009l63.273,16.96c0.76,0.22,1.537,0.305,2.299,0.305c3.873,0,7.424-2.587,8.488-6.527
	c1.252-4.7-1.539-9.52-6.256-10.788l-46.246-12.394l43.389-25.042l136.031,36.438c0.76,0.22,1.539,0.304,2.299,0.304
	c3.891,0,7.441-2.587,8.471-6.543c1.252-4.7-1.537-9.52-6.221-10.771l-119.004-31.873l113.424-65.504
	c4.193-2.418,5.629-7.813,3.213-12.021c-2.453-4.228-7.848-5.648-12.039-3.213l-113.373,65.487l31.889-118.987
	c1.234-4.7-1.539-9.52-6.223-10.787c-4.701-1.234-9.502,1.521-10.787,6.239L437.113,242.22l-43.404,25.059l12.395-46.245
	c1.252-4.7-1.557-9.536-6.223-10.787c-4.65-1.234-9.52,1.538-10.787,6.239l-16.959,63.256l-43.32,24.957v-49.999l46.295-46.348
	c3.434-3.432,3.434-9.029,0-12.444c-3.414-3.433-9.012-3.433-12.445,0l-33.85,33.885v-50.117l99.541-99.576
	c3.432-3.432,3.432-9.013,0-12.461c-3.416-3.433-9.014-3.433-12.445,0l-87.08,87.131V23.81c0-4.853-3.955-8.81-8.809-8.81
	c-4.853,0-8.81,3.957-8.81,8.81v130.959l-87.097-87.131c-3.45-3.433-9.029-3.433-12.462,0c-3.432,3.448-3.432,9.029,0,12.461
	l99.559,99.576v50.135l-33.868-33.886c-3.45-3.433-9.029-3.433-12.462,0c-3.432,3.433-3.432,9.013,0,12.444l46.33,46.348v49.999
	l-43.32-25.008l-16.959-63.272c-1.285-4.701-6.07-7.457-10.788-6.239c-4.684,1.251-7.474,6.104-6.239,10.771l12.394,46.245
	l-43.405-25.059l-36.421-135.963c-1.285-4.718-6.087-7.475-10.788-6.24c-4.7,1.252-7.49,6.088-6.239,10.788l31.873,118.987
	L67.929,164.22c-4.21-2.435-9.587-1.015-12.022,3.213s-0.98,9.604,3.213,12.039l113.441,65.487L53.539,276.832
	c-4.701,1.269-7.49,6.104-6.222,10.788c1.048,3.939,4.599,6.544,8.488,6.544c0.761,0,1.522-0.102,2.283-0.305l136.031-36.438
	l43.388,25.042l-46.262,12.395c-4.701,1.251-7.474,6.087-6.24,10.771c1.048,3.957,4.617,6.544,8.488,6.544
	c0.761,0,1.522-0.085,2.283-0.305l63.272-16.96l43.321,25.009l-43.321,25.008l-63.289-16.943c-4.667-1.268-9.52,1.522-10.771,6.241
	c-1.251,4.717,1.539,9.519,6.239,10.787l46.279,12.376l-43.405,25.043L58.07,346.023c-4.667-1.217-9.519,1.538-10.771,6.238
	c-1.251,4.701,1.539,9.537,6.239,10.771l119.021,31.891L59.136,460.41c-4.21,2.453-5.648,7.83-3.213,12.056
	c1.64,2.809,4.599,4.414,7.643,4.414c1.488,0,3.01-0.372,4.396-1.2l113.424-65.471l-31.907,118.952
	c-1.251,4.718,1.539,9.521,6.239,10.805c0.761,0.221,1.539,0.288,2.283,0.288c3.889,0,7.439-2.57,8.505-6.543l36.438-135.98
	l43.388-25.042l-12.377,46.228c-1.251,4.701,1.539,9.521,6.239,10.788c0.761,0.236,1.539,0.304,2.299,0.304
	c3.889,0,7.44-2.568,8.488-6.543l16.943-63.255l43.32-25.025v50.033l-46.33,46.347c-3.433,3.416-3.433,9.012,0,12.444
	c3.432,3.416,9.012,3.416,12.461,0l33.852-33.817v50.118l-99.559,99.609c-3.432,3.416-3.432,8.995,0,12.445
	c3.433,3.415,9.013,3.415,12.462,0l87.097-87.131v130.958c0,4.853,3.94,8.809,8.809,8.809c4.871,0,8.81-3.938,8.81-8.809V485.233
	l87.08,87.131c1.742,1.724,3.99,2.552,6.238,2.552c2.266,0,4.533-0.878,6.223-2.552c3.449-3.45,3.449-9.029,0-12.445l-99.559-99.644
	v-50.117l33.852,33.886c1.742,1.74,3.99,2.569,6.223,2.569s4.531-0.862,6.238-2.569c3.449-3.416,3.449-9.014,0-12.445
	l-46.313-46.331v-49.999l43.305,25.009l16.941,63.255c1.049,3.939,4.617,6.545,8.471,6.545c0.762,0,1.523-0.102,2.318-0.322
	c4.682-1.233,7.473-6.12,6.221-10.771l-12.377-46.262l43.389,25.076l36.42,135.996c1.066,3.924,4.635,6.527,8.488,6.527
	c0.779,0,1.539-0.102,2.316-0.321c4.701-1.234,7.475-6.069,6.225-10.771l-31.926-118.986l113.426,65.504
	c1.402,0.812,2.908,1.167,4.412,1.167c3.043,0,5.986-1.572,7.643-4.413c2.436-4.193,0.998-9.588-3.213-12.039l-113.424-65.505
	l119.004-31.856c4.717-1.268,7.492-6.104,6.223-10.804C591.457,347.579,586.654,344.807,581.922,346.057z"/>
</svg>
