<?xml version="1.0" encoding="utf-8"?>
<!-- Generator: Adobe Illustrator 15.0.2, SVG Export Plug-In . SVG Version: 6.00 Build 0)  -->
<!DOCTYPE svg PUBLIC "-//W3C//DTD SVG 1.1//EN" "http://www.w3.org/Graphics/SVG/1.1/DTD/svg11.dtd">
<svg version="1.1" id="Wildlife" xmlns="http://www.w3.org/2000/svg" xmlns:xlink="http://www.w3.org/1999/xlink" x="0px" y="0px"
	 width="640px" height="640px" viewBox="0 0 640 640" enable-background="new 0 0 640 640" xml:space="preserve">
<g id="Deer">
	<g id="Body_1_">
		<g id="Body">
			<path fill="#A67C52" d="M459.679,127.469l-0.113-0.329c-10.459-8.354-22.292-14.955-34.86-19.563
				c-0.143-3.979-0.101-7.945,0.74-11.825c1.745-8.063,9.072-13.941,16.912-16.512c7.837-2.569,16.257-2.461,24.503-2.68
				c16.298-0.431,33.278-2.484,46.872-11.482c13.596-9,22.606-26.717,16.988-42.023c-6.018,0.283-9.241,6.914-12.194,12.162
				c-3.894,6.917-9.428,12.903-16.015,17.331c-3.333,2.237-7.17,4.135-11.173,3.843c-4.006-0.293-8.005-3.502-7.907-7.515
				c0.076-3.141,2.447-5.675,3.854-8.484c1.404-2.811,1.253-7.151-1.751-8.074c-3.346-1.027-5.751,3.112-6.966,6.395
				c-4.403,11.906-12.391,23.661-24.553,27.293c-2.45,0.73-5.155,1.09-7.517,0.11c-2.358-0.979-4.148-3.664-3.396-6.106
				c0.353-1.144,1.182-2.069,1.984-2.956c4.154-4.57,8.309-9.139,12.462-13.709c1.532-1.686,3.123-4.216,1.725-6.013
				c-1.63-2.096-4.942-0.412-6.933,1.343c-7.072,6.229-14.146,12.458-21.221,18.687c-3.789,3.339-7.603,6.701-10.755,10.647
				c-7.815,9.774-10.9,22.119-12.159,34.76c-6.353-1.387-12.809-2.28-19.3-2.647c-7.493-0.424-15.021-0.142-22.464,0.801
				c-1.725-4.348-3.825-8.547-6.3-12.515c-2.5-4.004-5.403-7.873-6.707-12.409c-1.932-6.71-0.095-13.907-0.773-20.856
				c-0.833-8.532-5.686-16.583-12.844-21.301c-4.397,6.017,0.817,15.857-4.131,21.433c-4.094,4.616-12.23,2.227-15.919-2.72
				c-3.687-4.945-4.5-11.377-6.354-17.261c-1.855-5.884-5.685-12.035-11.774-13.024c-0.199,6.233-0.397,12.466-0.597,18.7
				c-0.056,1.792-0.142,3.681-1.101,5.197c-1.827,2.893-6.053,3.179-9.268,2.01c-16.045-5.838-14.82-34.208-31.428-38.176
				c-0.222,12.6,2.667,25.242,8.337,36.495c3.065,6.083,7.091,11.921,12.839,15.578c5.863,3.733,12.957,4.87,19.817,5.99
				c9.789,1.6,19.72,3.386,28.574,7.862c8.853,4.474,16.621,12.073,18.979,21.708c0.542,2.219,0.797,4.517,1.078,6.8
				c-11.703,3.216-22.94,8.115-33.215,14.573c-20.488-33.609-59.046-53.632-98.409-53.772l-0.326,0.911
				c-0.234,4.109-0.209,8.223,0.034,12.324c2.053,34.578,20.663,68.042,49.445,87.452c0.499,0.336,1.007,0.679,1.495,1.042
				c0.951,0.708,1.827,1.499,2.396,2.527c1.021,1.841,0.88,4.075,0.812,6.179c-0.347,10.567,1.881,21.025,5.96,30.792
				c3.44,8.238,8.195,15.986,13.842,22.888c12.343,15.083,28.692,26.449,45.925,35.554c0.036,0.021,0.074,0.039,0.113,0.058
				c-15.798,15.719-35.958,28.848-57.94,32.393c-23.116,3.726-46.479-2.75-69.336-7.832c-16.761-3.726-34.476-6.638-51.251-4.369
				c4.044-9.369,5.315-19.95,3.357-29.972c-3.194-16.34-14.084-29.931-21.546-44.814c-10.263-20.47-14.081-44.113-10.78-66.774
				c-13.906,15.482-23.379,34.607-27.966,54.906c-3.781-3.924-6.745-8.631-8.656-13.734c-10.059,22.691-9.002,50.008,2.781,71.853
				c-6.856,0.498-13.823-3.493-16.864-9.656c-5.683,7.911-2.208,19.011,2.57,27.5c8.069,14.335,19.446,26.762,32.908,36.211
				c-3.951,5.307-7.088,11.213-9.186,17.491c-10.45,31.287,4.502,64.572,14.279,96.078c2.224,7.158,3.21,16.877-3.441,20.337
				c-4.711,2.453-11.02,0.11-15.444,3.046c-4.235,2.812-4.502,8.851-4.063,13.914c3.375,38.979,21.509,74.858,35.579,111.363
				c1.521,3.946,3.021,7.946,4.656,11.869c3.098,7.439,6.693,14.616,11.915,20.695c7.979,9.289,20.861,15.543,32.573,11.97
				c-1.853-7.804-3.705-15.611-5.558-23.418c-8.386-35.326-16.771-70.651-25.157-105.98c8.7-1.973,16.906-5.932,23.974-11.371
				c5.886,30.754,12.503,61.369,19.843,91.813c0.655,2.72,1.304,5.439,1.972,8.156c1.152,4.696,2.395,9.537,5.369,13.354
				c2.924,3.748,7.245,6.133,11.596,8.047c7.125,3.144,14.676,5.313,22.381,6.436c-1.634-8.187-3.126-16.402-4.489-24.639
				c-5.327-32.209-8.573-64.765-9.69-97.395c-0.321-9.351-0.027-19.851,6.659-26.398c3.798-3.722,9.09-5.493,14.303-6.542
				c24.651-4.966,51.522,5.081,67.486,24.369c-1.622,4.417-3.871,8.604-6.68,12.379c-2.056,2.767-4.459,5.419-5.422,8.726
				c-1.04,3.576-0.248,7.395,0.55,11.033c6.451,29.424,12.901,58.848,19.353,88.271c1.427,6.513,2.854,13.021,4.282,19.531
				c0.676,3.078,1.428,6.316,3.559,8.646c1.967,2.145,4.829,3.206,7.626,4.012c9.576,2.767,19.762,3.398,29.607,1.846
				c-3.754-8.089-6.376-16.491-8.142-25.102c-5.537-26.991-2.604-56.012,0.743-83.768c1.707-14.115,3.467-28.224,5.229-42.333
				c0.607-4.859,1.899-10.631,6.498-12.319c6.471-2.376,12.041,5.878,12.162,12.772l-0.868,29.96
				c-1.473,28.615-1.656,57.29-0.58,85.923c0.112,3.007,0.228,6.017,0.367,9.027c0.178,3.742,0.408,7.617,2.153,10.933
				c1.899,3.608,5.363,6.118,8.892,8.157c7.929,4.58,16.826,7.478,25.931,8.44c-0.734-8.423-1.298-16.864-1.7-25.309
				c-2.436-51.011,1.155-102.313,10.71-152.481c3.601-23.827,24.228-56.951,30.082-80.328c1.18-4.72,1.962-9.534,2.358-14.382
				c1.384,1.677,2.43,3.639,2.98,5.742c5.57-16.8-1.6-35.026-10.041-50.577c-7.576-13.951-16.491-27.999-18.761-43.506
				c-0.009-0.142-0.021-0.284-0.026-0.425v-0.003c18.586-10.189,36.401-22.511,49.64-39.064
				c9.517-11.902,16.675-26.922,19.119-42.259c0.956-5.996,1.193-12.04,0.571-17.964c0-0.001,0.003-0.003,0.006-0.004
				c29.957-21.072,52.597-53.504,62.558-88.837c0.625-2.215,1.206-4.44,1.727-6.675C523.527,73.478,483.132,94.158,459.679,127.469z
				"/>
		</g>
		<path id="Leg_Highlight" fill="#C69C6D" d="M308.245,447.54c-2.83-2.536-6.742-3.383-10.465-4.142
			c-16.29-3.318-32.582-6.634-48.872-9.949c-16.845-3.431-37.229-5.766-48.547,7.176c-4.09,4.676-6.237,10.681-9.154,16.165
			c-4.121,7.745-9.97,14.524-16.921,19.872c5.886,30.757,12.505,61.372,19.844,91.815c10.922,7.06,23.829,11.057,36.831,11.354
			c-5.327-32.209-8.573-64.765-9.691-97.395c-0.32-9.351-0.027-19.851,6.659-26.398c3.798-3.722,9.09-5.493,14.303-6.542
			c24.651-4.966,51.522,5.081,67.486,24.369c1.227-3.339,2.095-6.812,2.569-10.341C313.049,457.851,312.508,451.362,308.245,447.54z
			"/>
		<g id="Hooves">
			<path id="Hoof_3_" fill="#361B09" d="M377.638,593.442c0.112,3.007,0.225,6.017,0.367,9.027
				c0.175,3.742,0.409,7.617,2.151,10.933c1.898,3.608,5.362,6.118,8.895,8.157c7.928,4.58,16.822,7.478,25.928,8.44
				c-0.732-8.423-1.295-16.864-1.698-25.309C400.582,605.604,387.539,601.441,377.638,593.442z"/>
			<path id="Hoof_2_" fill="#361B09" d="M150.208,592.841c-4.791-2.264-9.37-4.972-13.667-8.071
				c3.098,7.439,6.693,14.616,11.915,20.695c7.979,9.289,20.861,15.543,32.573,11.97c-1.854-7.804-3.705-15.611-5.559-23.418
				c-2.398,1.594-5.266,2.584-8.13,2.842C161.426,597.395,155.575,595.38,150.208,592.841z"/>
			<path id="Hoof_1_" fill="#361B09" d="M317.518,594.274c1.428,6.513,2.854,13.021,4.282,19.531
				c0.676,3.078,1.429,6.316,3.562,8.646c1.965,2.145,4.826,3.206,7.62,4.012c9.579,2.767,19.766,3.398,29.611,1.846
				c-3.754-8.089-6.376-16.491-8.143-25.102C341.627,605.032,328.099,601.744,317.518,594.274z"/>
			<path id="Hoof" fill="#361B09" d="M196.102,576.634c1.153,4.696,2.397,9.537,5.369,13.354c2.924,3.748,7.246,6.133,11.597,8.047
				c7.125,3.144,14.678,5.313,22.382,6.436c-1.635-8.187-3.127-16.402-4.488-24.639c-13.002-0.297-25.909-4.294-36.831-11.354
				C194.785,571.197,195.435,573.917,196.102,576.634z"/>
		</g>
		<path id="Tail_Highlight" fill="#E6D2BE" d="M130.219,295.442c-14.339-19.993-21.762-44.811-22.247-69.5
			c-0.563-28.673,7.8-57.11,21.416-82.35c-13.905,15.482-23.38,34.607-27.966,54.906c-3.78-3.926-6.745-8.631-8.656-13.734
			c-10.059,22.691-9.002,50.008,2.781,71.853c-6.854,0.498-13.823-3.493-16.863-9.656c-5.684,7.911-2.208,19.011,2.57,27.5
			c8.069,14.335,19.447,26.762,32.907,36.211C118.588,304.722,124.045,299.544,130.219,295.442z"/>
		<g id="Chest_1_">
			<path id="Chest" fill="#E6D2BE" d="M449.367,312.665c-7.572-13.951-16.49-27.999-18.76-43.506
				c-0.019-0.136-0.042-0.271-0.063-0.407c-13.508,7.069-29.483,14.869-47.178,12.765c-7.552-0.897-14.375-2.657-20.899-4.973
				c-11.048,26.919-31.803,51.148-30.754,80.038c2.877-2.195,6.376-3.566,9.979-3.904c-3.887,9.735-5.304,20.449-4.077,30.86
				c0.38,3.227,1.174,6.714,3.716,8.734c2.548,2.026,7.259,1.298,7.923-1.884c-2.447,18.853,12.737,34.908,26.695,47.813
				c7.987,7.384,15.975,14.767,23.96,22.153c28.043-29.252,52.815-65.653,52.709-106.173c1.451,0.871,2.731,2.012,3.81,3.318
				c1.384,1.677,2.427,3.639,2.984,5.742C464.981,346.442,457.812,328.216,449.367,312.665z"/>
			<g id="Spots">
				<g id="Spot_8_">
					<path fill="#A67C52" d="M393.27,335.14c-4.08,6.456-3.745,18.449,0.74,24.263c5.244-6.98,3.713-17.061-0.494-24.692
						L393.27,335.14z"/>
				</g>
				<g id="Spot_7_">
					<path fill="#A67C52" d="M383.954,364.984c-4.077,6.453-3.745,18.446,0.744,24.26c5.241-6.98,3.712-17.061-0.495-24.692
						L383.954,364.984z"/>
				</g>
				<g id="Spot_6_">
					<path fill="#A67C52" d="M411.435,352.638c-4.077,6.456-3.742,18.447,0.743,24.26c5.242-6.978,3.71-17.057-0.497-24.689
						L411.435,352.638z"/>
				</g>
				<g id="Spot_5_">
					<path fill="#A67C52" d="M424.765,331.741c-4.077,6.456-3.745,18.446,0.743,24.26c5.241-6.975,3.71-17.055-0.498-24.689
						L424.765,331.741z"/>
				</g>
				<g id="Spot_4_">
					<path fill="#A67C52" d="M399.379,386.346c-4.077,6.459-3.742,18.45,0.746,24.263c5.241-6.978,3.71-17.057-0.497-24.691
						L399.379,386.346z"/>
				</g>
				<g id="Spot_3_">
					<path fill="#A67C52" d="M369.442,335.14c-4.077,6.456-3.742,18.449,0.747,24.263c5.241-6.98,3.709-17.061-0.498-24.692
						L369.442,335.14z"/>
				</g>
				<g id="Spot_2_">
					<path fill="#A67C52" d="M380.488,298.756c-4.077,6.455-3.745,18.447,0.746,24.26c5.238-6.979,3.71-17.057-0.498-24.691
						L380.488,298.756z"/>
				</g>
				<g id="Spot_1_">
					<path fill="#A67C52" d="M402.846,307.052c-4.077,6.455-3.742,18.446,0.746,24.26c5.238-6.978,3.71-17.057-0.498-24.69
						L402.846,307.052z"/>
				</g>
				<g id="Spot">
					<path fill="#A67C52" d="M417.831,291.974c-4.076,6.456-3.745,18.447,0.744,24.26c5.241-6.978,3.712-17.057-0.495-24.691
						L417.831,291.974z"/>
				</g>
			</g>
		</g>
	</g>
	<g id="Head">
		<path id="Nose" fill="#361B09" d="M408.116,234.972c-0.747,0.043-1.476,0.063-2.207,0.087c-8.249,0.28-15.745-0.452-24.136,0.028
			c-0.35,0.019-0.708,0.053-1.072,0.098c-2.865,0.353-6.032,1.523-6.056,4.261c-0.013,1.337,0.832,2.52,1.694,3.542
			c4.053,4.806,10.168,8.469,16.242,9.056c0.438,0.043,0.874,0.065,1.313,0.074c2.702,0.058,5.366-0.519,7.798-1.916
			c2.436-1.398,6.012-4.638,7.94-6.678C411.212,241.855,414.868,234.922,408.116,234.972z"/>
		<path id="Face" fill="#C69C6D" d="M465.006,175.584c-15.976,1.406-30.571,10.728-40.736,23.131
			c-8.666,10.571-14.385,23.224-18.36,36.345c0.731-0.025,1.46-0.044,2.207-0.087c6.752-0.05,3.096,6.883,1.517,8.552
			c-1.929,2.04-5.505,5.28-7.94,6.678c-2.432,1.397-5.096,1.973-7.798,1.916c-0.438-0.009-0.874-0.031-1.313-0.074
			c-6.074-0.586-12.189-4.25-16.242-9.056c-0.862-1.022-1.707-2.205-1.694-3.542c0.023-2.738,3.19-3.908,6.056-4.261
			c-7.075-14.417-14.296-28.816-23.406-42.034c-5.274-7.656-11.396-15.076-19.578-19.491c-14.243-7.684-33.007-4.391-45.196,6.254
			c-7.872,6.874-13.06,16.347-15.518,26.545c3.44,8.238,8.195,15.986,13.842,22.888c12.345,15.083,28.694,26.449,45.926,35.554
			c0.038,0.019,0.074,0.039,0.115,0.058c8.657,4.39,16.847,8.486,25.581,11.583c6.524,2.316,13.348,4.076,20.899,4.973
			c17.694,2.104,33.67-5.696,47.178-12.765c0.012-0.007,0.023-0.013,0.035-0.018l0.003-0.003
			c18.583-10.189,36.401-22.511,49.637-39.064c9.517-11.902,16.672-26.922,19.119-42.259
			C490.516,178.811,477.435,174.491,465.006,175.584z M333.491,215.208c-2.853,0-5.167-4.351-5.167-9.716s2.314-9.717,5.167-9.717
			c2.851,0,5.161,4.351,5.161,9.717S336.342,215.208,333.491,215.208z M448.985,218.383c-2.854,0-5.164-4.349-5.164-9.715
			s2.311-9.717,5.164-9.717s5.164,4.351,5.164,9.717S451.839,218.383,448.985,218.383z"/>
		<g id="Eyes">
			<path id="Left_1_" fill="#361B09" d="M333.491,195.775c-2.853,0-5.167,4.351-5.167,9.717s2.314,9.716,5.167,9.716
				c2.851,0,5.161-4.351,5.161-9.716S336.342,195.775,333.491,195.775z"/>
			<ellipse id="Right_1_" fill="#361B09" cx="448.985" cy="208.667" rx="5.164" ry="9.716"/>
		</g>
		<g id="Ears_Inner">
			<path id="Left_2_" fill="#C69C6D" d="M286.308,150.092c6.225-8.511,9.385-20.033,5.377-29.786
				c-2.467-6.004-7.313-10.69-12.343-14.792c-17.804-14.52-39.69-23.944-62.444-27.046c2.052,34.578,20.663,68.042,49.443,87.452
				c0.5,0.336,1.007,0.679,1.495,1.042C274.725,162.107,281.358,156.857,286.308,150.092z"/>
			<path id="Right_2_" fill="#C69C6D" d="M485.502,120.3c-2.782,2.926-5.511,6.135-6.518,10.042
				c-1.328,5.145,0.563,10.554,2.906,15.321c4.418,8.98,10.592,17.076,18.022,23.775c29.961-21.072,52.6-53.504,62.563-88.837
				C533.367,84.79,505.768,98.98,485.502,120.3z"/>
		</g>
		<g id="Horns">
			<g id="Right">
				<path fill="#361B09" d="M530.659,23.055c-6.018,0.283-9.241,6.914-12.195,12.162c-3.894,6.917-9.425,12.903-16.015,17.331
					c-3.33,2.237-7.17,4.135-11.176,3.843c-3.999-0.295-8.005-3.502-7.904-7.515c0.077-3.141,2.447-5.675,3.852-8.484
					c1.407-2.811,1.256-7.151-1.748-8.074c-3.345-1.027-5.754,3.112-6.966,6.395c-4.402,11.906-12.388,23.661-24.553,27.293
					c-2.447,0.73-5.155,1.09-7.514,0.11c-2.361-0.979-4.151-3.664-3.398-6.106c0.353-1.144,1.183-2.069,1.988-2.956
					c4.153-4.57,8.308-9.139,12.458-13.709c1.532-1.686,3.126-4.216,1.728-6.013c-1.632-2.096-4.941-0.412-6.936,1.343
					c-7.072,6.228-14.145,12.458-21.217,18.687c-3.793,3.339-7.605,6.701-10.761,10.647c-7.813,9.774-10.897,22.119-12.157,34.76
					c-0.507,5.09-0.72,10.23-0.82,15.27c3.981,10.865,17.907,4.268,17.664-2.899c-0.086-2.516-0.252-5.041-0.344-7.564
					c-0.145-3.979-0.106-7.946,0.735-11.826c1.748-8.062,9.075-13.94,16.914-16.51c7.837-2.569,16.258-2.461,24.503-2.68
					c16.299-0.431,33.275-2.484,46.875-11.482C527.267,56.078,536.276,38.36,530.659,23.055z"/>
			</g>
			<g id="Left">
				<path fill="#361B09" d="M360.08,88.409c-2.495-4.004-5.401-7.873-6.705-12.409c-1.929-6.71-0.095-13.907-0.773-20.856
					c-0.829-8.532-5.686-16.583-12.841-21.301c-4.399,6.017,0.812,15.857-4.13,21.433c-4.095,4.616-12.233,2.227-15.921-2.72
					c-3.688-4.946-4.5-11.377-6.355-17.261c-1.854-5.884-5.684-12.035-11.773-13.024c-0.2,6.233-0.398,12.466-0.597,18.7
					c-0.058,1.792-0.144,3.681-1.101,5.197c-1.828,2.892-6.054,3.179-9.269,2.01c-16.045-5.838-14.82-34.208-31.427-38.176
					c-0.222,12.6,2.665,25.242,8.336,36.495c3.067,6.083,7.093,11.921,12.839,15.578c5.865,3.733,12.957,4.87,19.817,5.99
					c9.79,1.6,19.721,3.386,28.574,7.862c8.853,4.474,16.621,12.073,18.979,21.708c0.543,2.218,0.797,4.517,1.079,6.8
					c0.399,3.247,0.853,6.468,2.267,9.392c2.405,4.98,14.056,10.518,18.979-0.93c-0.897-4.082-2.136-8.087-3.677-11.972
					C364.66,96.574,362.557,92.376,360.08,88.409z"/>
			</g>
		</g>
	</g>
</g>
</svg>
