<svg version="1.1" id="el_CeFZUQr0oH" xmlns="http://www.w3.org/2000/svg" xmlns:xlink="http://www.w3.org/1999/xlink" x="0px" y="0px" width="600" height="600" viewBox="0 0 600 600" enable-background="new 0 0 640 640" xml:space="preserve"><style>@-webkit-keyframes el_x4DicF7q-6_oo7aEWzM8_Animation{0%{-webkit-transform: translate(320.08094024658203px, 319.2495803833008px) rotate(0deg) translate(-320.08094024658203px, -319.2495803833008px);transform: translate(320.08094024658203px, 319.2495803833008px) rotate(0deg) translate(-320.08094024658203px, -319.2495803833008px);}16.67%{-webkit-transform: translate(320.08094024658203px, 319.2495803833008px) rotate(20deg) translate(-320.08094024658203px, -319.2495803833008px);transform: translate(320.08094024658203px, 319.2495803833008px) rotate(20deg) translate(-320.08094024658203px, -319.2495803833008px);}33.33%{-webkit-transform: translate(320.08094024658203px, 319.2495803833008px) rotate(-20deg) translate(-320.08094024658203px, -319.2495803833008px);transform: translate(320.08094024658203px, 319.2495803833008px) rotate(-20deg) translate(-320.08094024658203px, -319.2495803833008px);}50%{-webkit-transform: translate(320.08094024658203px, 319.2495803833008px) rotate(20deg) translate(-320.08094024658203px, -319.2495803833008px);transform: translate(320.08094024658203px, 319.2495803833008px) rotate(20deg) translate(-320.08094024658203px, -319.2495803833008px);}66.67%{-webkit-transform: translate(320.08094024658203px, 319.2495803833008px) rotate(-20deg) translate(-320.08094024658203px, -319.2495803833008px);transform: translate(320.08094024658203px, 319.2495803833008px) rotate(-20deg) translate(-320.08094024658203px, -319.2495803833008px);}83.33%{-webkit-transform: translate(320.08094024658203px, 319.2495803833008px) rotate(20deg) translate(-320.08094024658203px, -319.2495803833008px);transform: translate(320.08094024658203px, 319.2495803833008px) rotate(20deg) translate(-320.08094024658203px, -319.2495803833008px);}100%{-webkit-transform: translate(320.08094024658203px, 319.2495803833008px) rotate(0deg) translate(-320.08094024658203px, -319.2495803833008px);transform: translate(320.08094024658203px, 319.2495803833008px) rotate(0deg) translate(-320.08094024658203px, -319.2495803833008px);}}@keyframes el_x4DicF7q-6_oo7aEWzM8_Animation{0%{-webkit-transform: translate(320.08094024658203px, 319.2495803833008px) rotate(0deg) translate(-320.08094024658203px, -319.2495803833008px);transform: translate(320.08094024658203px, 319.2495803833008px) rotate(0deg) translate(-320.08094024658203px, -319.2495803833008px);}16.67%{-webkit-transform: translate(320.08094024658203px, 319.2495803833008px) rotate(20deg) translate(-320.08094024658203px, -319.2495803833008px);transform: translate(320.08094024658203px, 319.2495803833008px) rotate(20deg) translate(-320.08094024658203px, -319.2495803833008px);}33.33%{-webkit-transform: translate(320.08094024658203px, 319.2495803833008px) rotate(-20deg) translate(-320.08094024658203px, -319.2495803833008px);transform: translate(320.08094024658203px, 319.2495803833008px) rotate(-20deg) translate(-320.08094024658203px, -319.2495803833008px);}50%{-webkit-transform: translate(320.08094024658203px, 319.2495803833008px) rotate(20deg) translate(-320.08094024658203px, -319.2495803833008px);transform: translate(320.08094024658203px, 319.2495803833008px) rotate(20deg) translate(-320.08094024658203px, -319.2495803833008px);}66.67%{-webkit-transform: translate(320.08094024658203px, 319.2495803833008px) rotate(-20deg) translate(-320.08094024658203px, -319.2495803833008px);transform: translate(320.08094024658203px, 319.2495803833008px) rotate(-20deg) translate(-320.08094024658203px, -319.2495803833008px);}83.33%{-webkit-transform: translate(320.08094024658203px, 319.2495803833008px) rotate(20deg) translate(-320.08094024658203px, -319.2495803833008px);transform: translate(320.08094024658203px, 319.2495803833008px) rotate(20deg) translate(-320.08094024658203px, -319.2495803833008px);}100%{-webkit-transform: translate(320.08094024658203px, 319.2495803833008px) rotate(0deg) translate(-320.08094024658203px, -319.2495803833008px);transform: translate(320.08094024658203px, 319.2495803833008px) rotate(0deg) translate(-320.08094024658203px, -319.2495803833008px);}}@-webkit-keyframes el_x4DicF7q-6_W0GcZPVO6_Animation{0%{-webkit-transform: translate(320.08094024658203px, 319.2495803833008px) scale(0.8, 0.8) translate(-320.08094024658203px, -319.2495803833008px);transform: translate(320.08094024658203px, 319.2495803833008px) scale(0.8, 0.8) translate(-320.08094024658203px, -319.2495803833008px);}100%{-webkit-transform: translate(320.08094024658203px, 319.2495803833008px) scale(0.8, 0.8) translate(-320.08094024658203px, -319.2495803833008px);transform: translate(320.08094024658203px, 319.2495803833008px) scale(0.8, 0.8) translate(-320.08094024658203px, -319.2495803833008px);}}@keyframes el_x4DicF7q-6_W0GcZPVO6_Animation{0%{-webkit-transform: translate(320.08094024658203px, 319.2495803833008px) scale(0.8, 0.8) translate(-320.08094024658203px, -319.2495803833008px);transform: translate(320.08094024658203px, 319.2495803833008px) scale(0.8, 0.8) translate(-320.08094024658203px, -319.2495803833008px);}100%{-webkit-transform: translate(320.08094024658203px, 319.2495803833008px) scale(0.8, 0.8) translate(-320.08094024658203px, -319.2495803833008px);transform: translate(320.08094024658203px, 319.2495803833008px) scale(0.8, 0.8) translate(-320.08094024658203px, -319.2495803833008px);}}#el_CeFZUQr0oH *{-webkit-animation-duration: 3s;animation-duration: 3s;-webkit-animation-iteration-count: infinite;animation-iteration-count: infinite;-webkit-animation-timing-function: cubic-bezier(0, 0, 1, 1);animation-timing-function: cubic-bezier(0, 0, 1, 1);}#el_rc0m5B11sl{fill: #F68B1F;}#el_gRoHMpvVWr{fill: #BA3100;}#el_FfbpZGeAFss{fill: url(#SVGID_1_);}#el_a3uPnh4oWTv{fill: #BA3100;}#el_W1iK6i4YMvl{fill: #361B09;}#el_x4DicF7q-6_W0GcZPVO6{-webkit-animation-name: el_x4DicF7q-6_W0GcZPVO6_Animation;animation-name: el_x4DicF7q-6_W0GcZPVO6_Animation;}#el_x4DicF7q-6_oo7aEWzM8{-webkit-animation-name: el_x4DicF7q-6_oo7aEWzM8_Animation;animation-name: el_x4DicF7q-6_oo7aEWzM8_Animation;}</style>
<g id="el_x4DicF7q-6_oo7aEWzM8" data-animator-group="true" data-animator-type="1"><g id="el_x4DicF7q-6_W0GcZPVO6" data-animator-group="true" data-animator-type="2"><g id="el_x4DicF7q-6">
	<g id="el_2RPv1MhgBc">
		<path d="M127.964,380.75c-36.115-44.176-71.607-88.86-106.492-134.009c25-2.61,49.996-5.211,74.994-7.821&#10;&#9;&#9;&#9;c7.22-0.75,15.402-2.054,19.424-8.108c2.983-4.491,2.729-10.326,2.363-15.711c-1.874-27.407-3.74-54.818-5.608-82.231&#10;&#9;&#9;&#9;c48.121,33.791,113.312,42.946,151.824,87.38c4.965,5.724,12.028,12.65,18.835,9.31c2.335-1.145,3.967-3.336,5.32-5.557&#10;&#9;&#9;&#9;c10.111-16.644,8.727-37.743,4.91-56.84c-3.825-19.095-9.768-38.286-7.663-57.649c13.437-0.912,20.357,18.991,33.791,19.937&#10;&#9;&#9;&#9;c7.032,0.5,13.188-4.521,17.922-9.75c23.189-25.613,32.674-63.454,61.534-82.453c3.423,24.869,6.845,49.744,10.266,74.616&#10;&#9;&#9;&#9;c1.102,7.945,2.559,16.615,8.594,21.902c4.875,4.268,11.679,5.366,18.092,6.293c11.102,1.594,22.206,3.19,33.307,4.79&#10;&#9;&#9;&#9;c2.826,0.405,6.071,1.096,7.381,3.633c1.949,3.771-1.864,7.803-5.053,10.606c-31.291,27.492-33.415,74.646-33.189,116.298&#10;&#9;&#9;&#9;c0.021,5.833,0.413,12.474,4.919,16.189c4.659,3.827,11.475,2.739,17.391,1.571c50.496-9.965,102.866-10.38,153.513-1.212&#10;&#9;&#9;&#9;c1.659,0.306,3.566,0.808,4.201,2.361c0.614,1.493-0.282,3.125-1.143,4.485c-19.705,30.804-43.003,59.32-69.273,84.766&#10;&#9;&#9;&#9;c-2.404,2.339-5.039,5.171-4.622,8.49c0.451,3.62,4.215,5.72,7.533,7.229c16.03,7.316,32.055,14.628,48.096,21.944&#10;&#9;&#9;&#9;c-25.127,19.77-59.371,22.619-88.349,36.123c-2.633,1.216-5.392,2.701-6.704,5.293c-2.457,4.83,1.3,10.415,5.026,14.356&#10;&#9;&#9;&#9;c24.094,25.538,56.344,43.266,90.82,49.917c-46.006,24.333-96.495,42.345-148.535,43.25&#10;&#9;&#9;&#9;c-52.038,0.895-105.863-16.956-141.09-55.266l-3.896,0.283c-43.134,27.565-97.235,37.396-147.315,26.757&#10;&#9;&#9;&#9;c8.387-14.604,19.174-27.822,31.82-38.947C131.832,469.091,77.92,426.231,31.597,376.313c30.078-1.96,64.789-1.599,94.051,5.635&#10;&#9;&#9;&#9;L127.964,380.75z" id="el_rc0m5B11sl"/>
		<g id="el__aiK7lFald">
			<path d="M129.024,379.689C92.917,335.508,57.426,290.827,22.533,245.68c-0.354,0.854-0.707,1.707-1.061,2.561&#10;&#9;&#9;&#9;&#9;c18.419-1.923,36.839-3.842,55.259-5.762c8.084-0.843,16.212-1.502,24.263-2.62c5.67-0.788,11.21-2.59,15.155-6.906&#10;&#9;&#9;&#9;&#9;c4.32-4.726,3.978-11.95,3.604-17.852c-0.579-9.139-1.249-18.272-1.872-27.408c-1.247-18.274-2.491-36.548-3.736-54.823&#10;&#9;&#9;&#9;&#9;c-0.752,0.432-1.505,0.863-2.257,1.295c40.86,28.434,91.555,38.65,131.514,68.55c4.946,3.701,9.588,7.798,13.982,12.135&#10;&#9;&#9;&#9;&#9;c4.418,4.36,8.089,9.735,13.141,13.406c4.044,2.939,8.305,4.658,13.177,2.749c4.702-1.842,7.529-8.012,9.324-12.308&#10;&#9;&#9;&#9;&#9;c11.08-26.512,0.449-54.957-4.265-81.588c-1.616-9.129-2.274-18.356-1.392-27.596c-0.5,0.5-1,1-1.5,1.5&#10;&#9;&#9;&#9;&#9;c12.184-0.33,17.928,14.294,28.271,18.56c13.401,5.527,23.934-7.433,31.143-16.904C363.836,88.3,373.513,56.3,399.876,38.543&#10;&#9;&#9;&#9;&#9;c-0.734-0.299-1.469-0.598-2.203-0.896c2.252,16.363,4.503,32.726,6.754,49.088c1.081,7.854,2.161,15.709,3.241,23.563&#10;&#9;&#9;&#9;&#9;c0.872,6.338,1.799,12.573,4.569,18.402c5.595,11.768,20.079,12.323,31.271,13.93c7.837,1.126,15.674,2.253,23.511,3.382&#10;&#9;&#9;&#9;&#9;c4.04,0.582,11.045,2.035,7.451,7.983c-1.877,3.107-5.508,5.484-8.053,8.041c-16.725,16.801-23.828,40.524-26.979,63.423&#10;&#9;&#9;&#9;&#9;c-1.666,12.103-2.201,24.335-2.384,36.541c-0.142,9.532-2.424,23.379,5.319,30.635c3.647,3.418,9.297,3.322,13.894,2.796&#10;&#9;&#9;&#9;&#9;c7.385-0.845,14.714-2.692,22.064-3.839c16.397-2.559,32.963-3.983,49.544-4.538c16.078-0.538,32.183-0.03,48.21,1.301&#10;&#9;&#9;&#9;&#9;c8.202,0.681,16.377,1.661,24.521,2.839c3.82,0.553,7.629,1.187,11.432,1.847c2.034,0.354,6.644,0.437,4.063,4.982&#10;&#9;&#9;&#9;&#9;c-1.178,2.073-2.612,4.04-3.923,6.03c-16.754,25.436-36.114,49.114-57.451,70.835c-6.202,6.314-19.215,15.517-8.173,23.677&#10;&#9;&#9;&#9;&#9;c5.599,4.138,13.438,6.431,19.752,9.312c7.718,3.522,15.438,7.044,23.156,10.565c2.97,1.354,5.939,2.709,8.91,4.063&#10;&#9;&#9;&#9;&#9;c0-0.863,0-1.727,0-2.59c-16.085,12.401-35.541,18.233-54.7,24.055c-9.76,2.967-19.487,6.028-28.906,9.968&#10;&#9;&#9;&#9;&#9;c-6.777,2.835-14.111,5.951-12.651,14.541c0.621,3.654,3.524,6.921,5.928,9.564c3.625,3.989,7.635,7.663,11.678,11.221&#10;&#9;&#9;&#9;&#9;c7.395,6.506,15.438,12.266,23.829,17.408c17.149,10.51,36.268,17.771,55.976,21.674c-0.12-0.914-0.239-1.827-0.358-2.741&#10;&#9;&#9;&#9;&#9;c-52.461,27.633-111.235,47.446-171.247,42.177c-26.729-2.348-53.086-10.021-76.646-22.889&#10;&#9;&#9;&#9;&#9;c-11.685-6.382-22.506-14.262-32.25-23.324c-2.487-2.313-6.105-8.375-9.735-8.111c-5.249,0.382-9.125,3.845-13.672,6.397&#10;&#9;&#9;&#9;&#9;c-40.921,22.976-90.278,30.151-136.13,20.623c0.299,0.734,0.598,1.469,0.896,2.203c8.446-14.518,19.04-27.479,31.585-38.644&#10;&#9;&#9;&#9;&#9;c0.726-0.646,0.5-1.894-0.303-2.355c-58.985-33.937-112.653-76.608-159.008-126.43c-0.354,0.854-0.707,1.707-1.061,2.561&#10;&#9;&#9;&#9;&#9;c17.547-1.115,35.134-1.394,52.691-0.337c9.259,0.558,18.484,1.599,27.63,3.141c3.926,0.662,7.822,1.483,11.7,2.383&#10;&#9;&#9;&#9;&#9;c2.445,0.567,2.907,0.182,5.103-0.955c1.719-0.889,0.202-3.478-1.514-2.59c-2.651,1.371-4.808,0.176-7.749-0.449&#10;&#9;&#9;&#9;&#9;c-3.937-0.837-7.909-1.5-11.887-2.107c-8.306-1.269-16.685-2.024-25.068-2.529c-16.948-1.021-33.973-0.632-50.906,0.444&#10;&#9;&#9;&#9;&#9;c-1.307,0.083-1.983,1.569-1.061,2.561c46.518,49.997,100.422,92.843,159.614,126.898c-0.101-0.785-0.202-1.57-0.303-2.355&#10;&#9;&#9;&#9;&#9;c-12.729,11.328-23.487,24.524-32.055,39.251c-0.463,0.797-0.063,2.004,0.896,2.203c26.525,5.513,53.762,5.493,80.339,0.324&#10;&#9;&#9;&#9;&#9;c13.206-2.567,26.211-6.558,38.601-11.797c6.152-2.603,12.16-5.479,18.04-8.648c2.859-1.541,11.921-9.078,14.632-6.161&#10;&#9;&#9;&#9;&#9;c34.92,37.576,87.651,54.551,137.964,54.593c53.58,0.045,105.554-18.802,152.416-43.486c1.109-0.584,0.913-2.489-0.358-2.741&#10;&#9;&#9;&#9;&#9;c-17.963-3.558-35.104-9.939-51.066-18.911c-7.893-4.436-15.374-9.595-22.447-15.238c-7.144-5.699-15.143-12.22-20.187-19.915&#10;&#9;&#9;&#9;&#9;c-7.359-11.225,11.931-15.925,19.419-18.601c8.609-3.077,17.412-5.595,26.147-8.279c16.83-5.172,33.61-11.142,47.698-22.004&#10;&#9;&#9;&#9;&#9;c0.785-0.605,1.147-2.066,0-2.59c-14.845-6.771-29.689-13.544-44.533-20.318c-3.194-1.458-6.488-2.699-9.085-5.141&#10;&#9;&#9;&#9;&#9;c-4.49-4.223,3.01-9.933,5.489-12.362c5.568-5.455,10.968-11.08,16.258-16.805c9.854-10.663,19.143-21.838,27.983-33.353&#10;&#9;&#9;&#9;&#9;c4.381-5.707,8.599-11.538,12.715-17.438c3.9-5.591,9.321-11.758,11.439-18.281c1.415-4.357-4.612-5.587-7.316-6.07&#10;&#9;&#9;&#9;&#9;c-7.732-1.381-15.513-2.482-23.311-3.425c-15.97-1.93-32.059-2.811-48.141-2.871c-16.087-0.06-32.169,0.927-48.15,2.735&#10;&#9;&#9;&#9;&#9;c-7.165,0.811-14.304,1.853-21.417,3.031c-7.675,1.271-16.383,4.417-24.134,2.534c-7.832-1.902-7.646-11.968-7.676-18.239&#10;&#9;&#9;&#9;&#9;c-0.028-5.979,0.018-11.958,0.164-17.935c0.316-12.919,1.279-25.839,3.553-38.571c2.101-11.763,5.586-23.301,11.019-33.965&#10;&#9;&#9;&#9;&#9;c2.734-5.366,6.109-10.389,9.939-15.03c3.811-4.618,8.752-8.164,12.378-12.903c2.451-3.205,2.168-7.197-0.784-9.848&#10;&#9;&#9;&#9;&#9;c-3.769-3.383-11.654-3.002-16.297-3.671c-7.837-1.128-15.674-2.254-23.512-3.379c-7.523-1.08-15.27-2.458-20.135-8.908&#10;&#9;&#9;&#9;&#9;c-3.821-5.065-4.642-12.151-5.503-18.24c-1.202-8.504-2.341-17.018-3.511-25.527c-2.251-16.363-4.503-32.726-6.755-49.089&#10;&#9;&#9;&#9;&#9;c-0.129-0.939-1.469-1.391-2.203-0.896c-23.836,16.054-34.738,43.61-49.856,66.892c-7.239,11.148-20.547,31.993-36.018,22.44&#10;&#9;&#9;&#9;&#9;c-9.017-5.567-14.687-17.595-26.616-17.271c-0.877,0.024-1.42,0.668-1.5,1.5c-2.83,29.62,11.476,57.447,10.431,86.989&#10;&#9;&#9;&#9;&#9;c-0.242,6.837-1.617,13.542-4.052,19.926c-1.396,3.66-3.388,7.34-6.014,10.259c-4.605,5.12-11.062,0.512-14.831-2.88&#10;&#9;&#9;&#9;&#9;c-4.47-4.022-8.152-8.935-12.491-13.12c-4.277-4.126-8.904-7.874-13.659-11.432c-39.525-29.576-89.905-39.535-130.353-67.682&#10;&#9;&#9;&#9;&#9;c-0.91-0.633-2.331,0.203-2.257,1.295c1.112,16.316,2.223,32.633,3.335,48.949c0.534,7.831,1.069,15.662,1.604,23.493&#10;&#9;&#9;&#9;&#9;c0.538,7.873,2.661,17.56-1.49,24.743c-3.373,5.836-12.185,6.72-18.128,7.365c-8.548,0.929-17.104,1.785-25.656,2.676&#10;&#9;&#9;&#9;&#9;c-16.446,1.715-32.893,3.428-49.338,5.145c-1.376,0.144-1.886,1.492-1.061,2.561c34.893,45.146,70.384,89.828,106.492,134.009&#10;&#9;&#9;&#9;&#9;C128.128,383.31,130.238,381.174,129.024,379.689z" id="el_gRoHMpvVWr"/>
		</g>
	</g>
	<g id="el_yJy_YjET8_J">
		
			<radialGradient id="SVGID_1_" cx="187.561" cy="451.0547" r="506.1471" gradientTransform="matrix(0.7351 -0.6779 0.6779 0.7351 -132.2158 301.5835)" gradientUnits="userSpaceOnUse">
			<stop offset="0" style="stop-color:#BA3100"/>
			<stop offset="0.1217" style="stop-color:#BC3401;stop-opacity:0.7254"/>
			<stop offset="0.209" style="stop-color:#C23D04;stop-opacity:0.5287"/>
			<stop offset="0.2854" style="stop-color:#CD4D0A;stop-opacity:0.3563"/>
			<stop offset="0.3556" style="stop-color:#DB6311;stop-opacity:0.1979"/>
			<stop offset="0.421" style="stop-color:#EE7F1B;stop-opacity:0.0504"/>
			<stop offset="0.4434" style="stop-color:#F68B1F;stop-opacity:0"/>
			<stop offset="0.4468" style="stop-color:#F2891F;stop-opacity:0.0062"/>
			<stop offset="0.4877" style="stop-color:#C9711A;stop-opacity:0.0797"/>
			<stop offset="0.532" style="stop-color:#A55B16;stop-opacity:0.1593"/>
			<stop offset="0.5798" style="stop-color:#864913;stop-opacity:0.2451"/>
			<stop offset="0.6318" style="stop-color:#6D3A10;stop-opacity:0.3385"/>
			<stop offset="0.6897" style="stop-color:#5A2F0E;stop-opacity:0.4426"/>
			<stop offset="0.7568" style="stop-color:#4C270C;stop-opacity:0.5632"/>
			<stop offset="0.8414" style="stop-color:#44220B;stop-opacity:0.7151"/>
			<stop offset="1" style="stop-color:#42210B"/>
		</radialGradient>
		<path d="M127.75,380.947c-36.115-44.176-71.607-88.86-106.492-134.009&#10;&#9;&#9;&#9;c24.999-2.61,49.995-5.211,74.994-7.82c7.22-0.75,15.402-2.054,19.424-8.109c2.983-4.491,2.729-10.326,2.363-15.711&#10;&#9;&#9;&#9;c-1.874-27.407-3.74-54.818-5.608-82.231c48.121,33.791,113.312,42.946,151.824,87.38c4.965,5.724,12.028,12.65,18.836,9.31&#10;&#9;&#9;&#9;c2.335-1.145,3.967-3.336,5.32-5.557c10.111-16.644,8.726-37.743,4.91-56.84c-3.825-19.095-9.768-38.286-7.663-57.649&#10;&#9;&#9;&#9;c13.437-0.912,20.357,18.991,33.792,19.937c7.031,0.5,13.187-4.521,17.921-9.75c23.189-25.613,32.674-63.454,61.534-82.453&#10;&#9;&#9;&#9;c3.423,24.869,6.845,49.744,10.266,74.616c1.102,7.945,2.559,16.615,8.594,21.902c4.875,4.268,11.679,5.366,18.092,6.293&#10;&#9;&#9;&#9;c11.102,1.594,22.206,3.19,33.307,4.79c2.826,0.405,6.071,1.096,7.381,3.633c1.949,3.771-1.864,7.803-5.053,10.606&#10;&#9;&#9;&#9;c-31.291,27.492-33.416,74.646-33.189,116.298c0.021,5.833,0.413,12.474,4.919,16.189c4.659,3.827,11.475,2.739,17.391,1.571&#10;&#9;&#9;&#9;c50.496-9.965,102.866-10.38,153.513-1.212c1.659,0.306,3.566,0.808,4.201,2.361c0.614,1.493-0.282,3.125-1.143,4.485&#10;&#9;&#9;&#9;c-19.705,30.804-43.004,59.32-69.273,84.766c-2.404,2.339-5.039,5.171-4.622,8.49c0.451,3.62,4.215,5.72,7.533,7.229&#10;&#9;&#9;&#9;c16.03,7.316,32.055,14.628,48.095,21.944c-25.127,19.77-59.37,22.619-88.348,36.123c-2.633,1.217-5.392,2.701-6.704,5.293&#10;&#9;&#9;&#9;c-2.457,4.83,1.3,10.415,5.025,14.356c24.095,25.538,56.345,43.266,90.821,49.917c-46.006,24.333-96.495,42.345-148.535,43.25&#10;&#9;&#9;&#9;c-52.038,0.895-105.863-16.956-141.09-55.266l-3.896,0.283c-43.133,27.565-97.235,37.396-147.315,26.757&#10;&#9;&#9;&#9;c8.387-14.604,19.174-27.822,31.82-38.947c-59.076-33.887-112.988-76.746-159.311-126.664c30.078-1.96,64.789-1.599,94.051,5.635&#10;&#9;&#9;&#9;L127.75,380.947z" id="el_FfbpZGeAFss"/>
		<g id="el_nHfHvIAV8__">
			<path d="M128.811,379.887c-36.107-44.182-71.599-88.863-106.492-134.009c-0.354,0.854-0.707,1.707-1.061,2.561&#10;&#9;&#9;&#9;&#9;c18.419-1.923,36.839-3.842,55.259-5.762c8.084-0.843,16.212-1.502,24.263-2.62c5.67-0.788,11.21-2.591,15.155-6.906&#10;&#9;&#9;&#9;&#9;c4.32-4.726,3.978-11.95,3.604-17.852c-0.579-9.139-1.249-18.272-1.872-27.408c-1.247-18.274-2.491-36.548-3.737-54.823&#10;&#9;&#9;&#9;&#9;c-0.752,0.432-1.505,0.863-2.257,1.295c40.86,28.434,91.556,38.65,131.515,68.55c4.946,3.701,9.588,7.798,13.982,12.135&#10;&#9;&#9;&#9;&#9;c4.418,4.36,8.09,9.735,13.142,13.406c4.044,2.939,8.305,4.658,13.177,2.749c4.702-1.842,7.529-8.012,9.324-12.308&#10;&#9;&#9;&#9;&#9;c11.08-26.511,0.449-54.957-4.265-81.588c-1.616-9.129-2.274-18.356-1.392-27.596c-0.5,0.5-1,1-1.5,1.5&#10;&#9;&#9;&#9;&#9;c12.184-0.33,17.928,14.294,28.271,18.56c13.401,5.526,23.933-7.433,31.142-16.904c18.551-24.369,28.228-56.369,54.591-74.125&#10;&#9;&#9;&#9;&#9;c-0.734-0.299-1.469-0.598-2.203-0.896c2.252,16.363,4.503,32.726,6.754,49.088c1.081,7.854,2.161,15.709,3.241,23.563&#10;&#9;&#9;&#9;&#9;c0.872,6.338,1.799,12.573,4.569,18.402c5.595,11.768,20.079,12.323,31.271,13.93c7.837,1.126,15.674,2.253,23.511,3.382&#10;&#9;&#9;&#9;&#9;c4.04,0.582,11.045,2.035,7.451,7.983c-1.877,3.107-5.509,5.485-8.053,8.041c-16.725,16.801-23.828,40.524-26.98,63.423&#10;&#9;&#9;&#9;&#9;c-1.666,12.103-2.201,24.335-2.383,36.541c-0.143,9.532-2.424,23.379,5.319,30.635c3.647,3.418,9.297,3.322,13.894,2.796&#10;&#9;&#9;&#9;&#9;c7.385-0.845,14.714-2.692,22.064-3.839c16.397-2.559,32.963-3.983,49.544-4.538c16.078-0.538,32.183-0.03,48.21,1.301&#10;&#9;&#9;&#9;&#9;c8.202,0.681,16.377,1.661,24.521,2.839c3.82,0.553,7.629,1.187,11.432,1.847c2.034,0.354,6.644,0.437,4.063,4.982&#10;&#9;&#9;&#9;&#9;c-1.178,2.073-2.612,4.04-3.923,6.03c-16.754,25.436-36.115,49.114-57.451,70.835c-6.203,6.314-19.215,15.517-8.173,23.677&#10;&#9;&#9;&#9;&#9;c5.599,4.138,13.438,6.431,19.752,9.312c7.718,3.522,15.437,7.044,23.155,10.565c2.97,1.354,5.94,2.709,8.91,4.063&#10;&#9;&#9;&#9;&#9;c0-0.863,0-1.727,0-2.59c-16.085,12.401-35.541,18.233-54.699,24.055c-9.76,2.967-19.487,6.028-28.906,9.968&#10;&#9;&#9;&#9;&#9;c-6.777,2.835-14.11,5.951-12.651,14.541c0.621,3.654,3.524,6.921,5.927,9.564c3.625,3.989,7.635,7.663,11.678,11.221&#10;&#9;&#9;&#9;&#9;c7.395,6.506,15.438,12.266,23.829,17.408c17.15,10.51,36.269,17.771,55.977,21.674c-0.12-0.914-0.239-1.827-0.358-2.741&#10;&#9;&#9;&#9;&#9;c-52.461,27.633-111.235,47.446-171.247,42.177c-26.729-2.348-53.086-10.021-76.646-22.889&#10;&#9;&#9;&#9;&#9;c-11.685-6.382-22.506-14.262-32.25-23.324c-2.487-2.313-6.105-8.375-9.735-8.111c-5.25,0.382-9.126,3.845-13.673,6.397&#10;&#9;&#9;&#9;&#9;c-40.92,22.976-90.278,30.151-136.129,20.623c0.299,0.734,0.598,1.469,0.896,2.203c8.446-14.518,19.04-27.479,31.585-38.644&#10;&#9;&#9;&#9;&#9;c0.726-0.646,0.5-1.894-0.303-2.355c-58.985-33.937-112.653-76.608-159.008-126.43c-0.354,0.854-0.707,1.707-1.061,2.561&#10;&#9;&#9;&#9;&#9;c17.547-1.115,35.133-1.394,52.691-0.337c9.258,0.558,18.484,1.599,27.63,3.141c3.926,0.662,7.822,1.483,11.7,2.383&#10;&#9;&#9;&#9;&#9;c2.445,0.567,2.907,0.182,5.103-0.955c1.719-0.889,0.202-3.478-1.514-2.59c-2.651,1.371-4.808,0.176-7.749-0.449&#10;&#9;&#9;&#9;&#9;c-3.937-0.837-7.909-1.5-11.887-2.107c-8.306-1.269-16.685-2.024-25.068-2.529c-16.947-1.021-33.972-0.632-50.906,0.444&#10;&#9;&#9;&#9;&#9;c-1.308,0.083-1.983,1.569-1.061,2.561c46.518,49.997,100.422,92.843,159.614,126.898c-0.101-0.785-0.202-1.57-0.303-2.355&#10;&#9;&#9;&#9;&#9;c-12.729,11.328-23.487,24.524-32.055,39.251c-0.463,0.797-0.063,2.004,0.896,2.203c26.525,5.513,53.762,5.493,80.339,0.324&#10;&#9;&#9;&#9;&#9;c13.206-2.567,26.211-6.558,38.601-11.797c6.152-2.603,12.16-5.479,18.041-8.648c2.859-1.541,11.921-9.078,14.632-6.161&#10;&#9;&#9;&#9;&#9;c34.92,37.576,87.651,54.551,137.964,54.593c53.58,0.045,105.554-18.802,152.416-43.486c1.109-0.584,0.913-2.489-0.358-2.741&#10;&#9;&#9;&#9;&#9;c-17.964-3.558-35.104-9.939-51.067-18.911c-7.892-4.436-15.374-9.595-22.447-15.238c-7.143-5.699-15.143-12.22-20.187-19.915&#10;&#9;&#9;&#9;&#9;c-7.358-11.225,11.931-15.925,19.42-18.601c8.609-3.077,17.411-5.595,26.147-8.279c16.83-5.172,33.609-11.142,47.697-22.004&#10;&#9;&#9;&#9;&#9;c0.785-0.605,1.147-2.066,0-2.59c-14.845-6.771-29.688-13.545-44.532-20.318c-3.194-1.458-6.488-2.699-9.085-5.141&#10;&#9;&#9;&#9;&#9;c-4.49-4.223,3.01-9.933,5.489-12.362c5.567-5.455,10.967-11.08,16.257-16.805c9.854-10.663,19.144-21.838,27.983-33.353&#10;&#9;&#9;&#9;&#9;c4.382-5.707,8.6-11.538,12.716-17.438c3.9-5.591,9.321-11.758,11.439-18.281c1.415-4.357-4.612-5.587-7.316-6.07&#10;&#9;&#9;&#9;&#9;c-7.732-1.381-15.513-2.482-23.311-3.425c-15.97-1.93-32.059-2.811-48.141-2.871c-16.087-0.06-32.169,0.927-48.15,2.735&#10;&#9;&#9;&#9;&#9;c-7.165,0.811-14.304,1.853-21.417,3.031c-7.675,1.271-16.383,4.417-24.134,2.534c-7.832-1.902-7.646-11.968-7.676-18.239&#10;&#9;&#9;&#9;&#9;c-0.028-5.979,0.018-11.958,0.164-17.935c0.315-12.919,1.279-25.839,3.553-38.571c2.101-11.763,5.586-23.301,11.019-33.965&#10;&#9;&#9;&#9;&#9;c2.734-5.366,6.109-10.389,9.939-15.03c3.811-4.618,8.753-8.164,12.378-12.903c2.451-3.205,2.168-7.197-0.784-9.848&#10;&#9;&#9;&#9;&#9;c-3.769-3.383-11.654-3.002-16.297-3.671c-7.837-1.128-15.674-2.254-23.512-3.379c-7.523-1.08-15.27-2.458-20.135-8.908&#10;&#9;&#9;&#9;&#9;c-3.821-5.065-4.642-12.151-5.503-18.24c-1.202-8.504-2.341-17.018-3.511-25.527c-2.251-16.363-4.503-32.726-6.755-49.089&#10;&#9;&#9;&#9;&#9;c-0.129-0.939-1.469-1.391-2.203-0.896c-23.836,16.054-34.738,43.61-49.856,66.892c-7.239,11.148-20.546,31.992-36.018,22.44&#10;&#9;&#9;&#9;&#9;c-9.017-5.567-14.687-17.595-26.617-17.271c-0.877,0.024-1.42,0.668-1.5,1.5c-2.83,29.62,11.475,57.447,10.431,86.989&#10;&#9;&#9;&#9;&#9;c-0.242,6.837-1.617,13.542-4.052,19.926c-1.396,3.66-3.388,7.34-6.014,10.259c-4.605,5.12-11.062,0.511-14.832-2.88&#10;&#9;&#9;&#9;&#9;c-4.47-4.022-8.152-8.935-12.49-13.12c-4.277-4.126-8.904-7.874-13.659-11.432c-39.525-29.576-89.905-39.535-130.353-67.682&#10;&#9;&#9;&#9;&#9;c-0.91-0.633-2.332,0.203-2.257,1.295c1.112,16.316,2.224,32.633,3.336,48.949c0.534,7.831,1.069,15.662,1.604,23.493&#10;&#9;&#9;&#9;&#9;c0.538,7.873,2.661,17.56-1.49,24.743c-3.373,5.836-12.185,6.72-18.128,7.366c-8.548,0.929-17.104,1.784-25.656,2.676&#10;&#9;&#9;&#9;&#9;c-16.446,1.714-32.892,3.428-49.338,5.145c-1.376,0.144-1.886,1.492-1.061,2.561c34.893,45.146,70.384,89.828,106.492,134.009&#10;&#9;&#9;&#9;&#9;C127.915,383.507,130.024,381.371,128.811,379.887z" id="el_a3uPnh4oWTv"/>
		</g>
	</g>
	<path id="el_W1iK6i4YMvl" d="M194.086,470.643c17.055,3.065,34.513,1.886,51.711,2.908&#10;&#9;&#9;c-8.245-2.933-16.551-5.615-24.555-8.42c-29.698-10.408-56.527-25.989-79.976-47.019c-2.989-2.672,1.621-6.888,4.581-4.225&#10;&#9;&#9;c25.986,23.301,55.345,37.291,87.605,48.716c-16.767-23.335-29.545-50.542-55.404-65.115c-3.506-1.974-0.194-7.258,3.293-5.292&#10;&#9;&#9;c29.465,16.601,42.281,48.762,62.651,74.047c9.712,3.354,19.451,7.099,28.625,11.707c0.207,0.061,0.416,0.11,0.623,0.172&#10;&#9;&#9;c0.575,0.187,1.009,0.481,1.346,0.837c12.987,6.772,24.738,15.37,33.535,27.217c-3.08-22.587-13.268-43.1-24.054-62.96&#10;&#9;&#9;c-12.96-23.881-26.733-47.319-41.313-70.244c-5.503-8.648-11.087-17.374-16.828-26.05c-13.75-9.615-28.79-16.92-43.922-24.051&#10;&#9;&#9;c-16.332,2.806-32.951,1.537-48.054-5.629c-3.631-1.717-0.294-6.994,3.293-5.292c10.71,5.083,22.499,6.704,34.186,5.931&#10;&#9;&#9;c-16.152-7.668-32.078-15.716-46.294-26.788c-3.14-2.442,0.13-7.759,3.298-5.297c16.644,12.971,35.636,21.793,54.591,30.706&#10;&#9;&#9;c0.728,0.066,1.32,0.382,1.78,0.836c10.966,5.164,21.886,10.406,32.313,16.538c-22.696-32.863-48.406-63.961-81.831-85.775&#10;&#9;&#9;c-3.369-2.187-0.067-7.491,3.293-5.292c39.398,25.71,68.157,63.9,93.94,102.923c-4.223-9.537-7.876-19.32-10.6-29.397&#10;&#9;&#9;c-5.652-20.913-6.165-43.199-17.336-62.295c-2.025-3.465,3.522-6.325,5.547-2.86c10.287,17.591,11.746,37.632,16.204,57.107&#10;&#9;&#9;c4.95,21.641,14.358,41.844,25.055,61.19c20.002,36.18,44.279,70.122,56.66,109.985c0.098,0.293,0.134,0.572,0.145,0.836&#10;&#9;&#9;c0.409,1.177,0.802,2.367,1.179,3.554c0.064-1.068,0.129-2.147,0.188-3.221c1.052-30.263,4.683-61.067,0.562-91.089&#10;&#9;&#9;c-4.136-30.155-14.759-58.909-25.329-87.29c-1.383-3.709,4.145-6.622,5.54-2.854c10.758,28.878,21.676,58.116,25.879,88.805&#10;&#9;&#9;c1.197,8.685,1.751,17.416,1.921,26.179c0.805-4.314,1.651-8.604,2.528-12.885c7.082-34.581,15.845-68.856,25.788-102.731&#10;&#9;&#9;c-0.119-0.36-0.185-0.759-0.155-1.22c2.405-39.794-6.892-79.145-4.836-118.945c0.207-4.01,6.439-3.763,6.229,0.255&#10;&#9;&#9;c-1.706,33.065,4.405,65.833,5.146,98.797c5.396-17.423,11.117-34.755,17.2-51.959c6.422-18.191,13.38-36.197,14.943-55.599&#10;&#9;&#9;c0.327-4,6.56-3.763,6.234,0.25c-1.404,17.464-6.909,33.837-12.75,50.252c-4.105,11.536-8.087,23.117-11.937,34.745&#10;&#9;&#9;c10.072-8.557,20.146-17.109,30.223-25.669c3.05-2.591,7.29,1.985,4.229,4.586c-12.688,10.773-25.372,21.551-38.064,32.331&#10;&#9;&#9;c-0.019,0.012-0.045,0.026-0.067,0.047c-1,3.117-2.008,6.236-2.988,9.365c-11.767,37.64-22.003,75.792-30.466,114.311&#10;&#9;&#9;c-0.798,3.632-1.576,7.274-2.328,10.935c11.189-19.621,25.163-37.49,41.416-53.044c2.018-8.59,5.183-16.767,9.437-24.497&#10;&#9;&#9;c1.936-3.526,7.224-0.209,5.296,3.293c-2.316,4.227-4.227,8.58-5.819,13.057c11.781-10.159,24.594-19.157,38.3-26.813&#10;&#9;&#9;c3.503-1.958,6.36,3.581,2.852,5.544c-16.22,9.065-31.21,20.122-44.669,32.795c-0.235,0.368-0.524,0.645-0.868,0.841&#10;&#9;&#9;c-20.999,19.979-38.175,43.92-50.134,70.518c-2.382,13.427-4.365,26.979-5.755,40.572c8.189-11.899,18.665-21.933,30.552-30.05&#10;&#9;&#9;c22.927-17.813,49.799-30.624,76.328-42.626c5.086-2.299,10.196-4.569,15.321-6.824c10.759-16.367,24.947-29.552,40.92-40.8&#10;&#9;&#9;c3.237-2.278,7.505,2.271,4.229,4.587c-12.764,8.983-24.324,19.119-33.876,31.258c33.682-14.794,67.362-29.818,97.251-51.516&#10;&#9;&#9;c3.201-2.328,7.469,2.233,4.224,4.58c-35.162,25.531-75.23,41.957-114.684,59.529c-15.493,6.9-31.384,13.916-46.696,21.921&#10;&#9;&#9;c3.012-0.86,6.046-1.641,9.097-2.314c41.558-9.251,84.722-2.547,126.126,4.133c3.917,0.637,3.706,6.875-0.258,6.231&#10;&#9;&#9;c-52.78-8.511-119.933-15.757-167.62,11.709c-13.369,9.554-25.533,20.61-35.628,33.966c-0.312,0.406-0.659,0.708-1.046,0.923&#10;&#9;&#9;c-1.917,2.978-3.733,6.106-5.447,9.392c-0.155,3.967-0.284,7.921-0.338,11.866c-0.008,0.571-0.153,1.048-0.378,1.449&#10;&#9;&#9;c-0.116,3.244-0.206,6.485-0.237,9.723c20.068-17.991,55.16-17.961,79.848-16.226c35.884,2.519,70.677,12.785,104.988,23&#10;&#9;&#9;c3.854,1.148,2.017,7.11-1.833,5.968c-30.55-9.102-61.412-18.3-93.209-21.804c-3.142-0.353-6.3-0.627-9.462-0.86&#10;&#9;&#9;c19.185,7.466,36.832,18.517,51.796,32.829c2.901,2.774-1.695,6.992-4.586,4.229c-19.154-18.32-42.966-30.881-68.601-37.343&#10;&#9;&#9;c-0.275-0.068-0.513-0.162-0.729-0.276c-5.124,0.145-10.229,0.473-15.318,1.061c-14.651,1.694-33.14,6.068-42.759,18.157&#10;&#9;&#9;c-0.033,0.041-0.066,0.071-0.109,0.111c0.47,30.099,4.958,59.945,15.686,88.639c1.383,3.711-4.137,6.62-5.549,2.857&#10;&#9;&#9;c-9.895-26.476-14.671-53.836-15.935-81.458c-0.145-0.179-0.279-0.379-0.391-0.599c-8.684-16.562-22.464-27.173-38.15-35.069&#10;&#9;&#9;c-25.388-7.747-52.458-2.602-78.373-7.267C188.314,475.895,190.186,469.936,194.086,470.643z"/>
</g></g></g>
</svg>