<svg version="1.1" id="el_8-Fpp_-2g" xmlns="http://www.w3.org/2000/svg" xmlns:xlink="http://www.w3.org/1999/xlink" x="0px" y="0px" width="600" height="600" viewBox="0 0 600 600" enable-background="new 0 0 640 640" xml:space="preserve"><style>@-webkit-keyframes el_FW0dOmhk5q_LAcImF7P-_Animation{0%{-webkit-transform: translate(319.84213638305664px, 319.9959945678711px) scale(0.8, 0.8) translate(-319.84213638305664px, -319.9959945678711px);transform: translate(319.84213638305664px, 319.9959945678711px) scale(0.8, 0.8) translate(-319.84213638305664px, -319.9959945678711px);}100%{-webkit-transform: translate(319.84213638305664px, 319.9959945678711px) scale(0.8, 0.8) translate(-319.84213638305664px, -319.9959945678711px);transform: translate(319.84213638305664px, 319.9959945678711px) scale(0.8, 0.8) translate(-319.84213638305664px, -319.9959945678711px);}}@keyframes el_FW0dOmhk5q_LAcImF7P-_Animation{0%{-webkit-transform: translate(319.84213638305664px, 319.9959945678711px) scale(0.8, 0.8) translate(-319.84213638305664px, -319.9959945678711px);transform: translate(319.84213638305664px, 319.9959945678711px) scale(0.8, 0.8) translate(-319.84213638305664px, -319.9959945678711px);}100%{-webkit-transform: translate(319.84213638305664px, 319.9959945678711px) scale(0.8, 0.8) translate(-319.84213638305664px, -319.9959945678711px);transform: translate(319.84213638305664px, 319.9959945678711px) scale(0.8, 0.8) translate(-319.84213638305664px, -319.9959945678711px);}}@-webkit-keyframes el_FW0dOmhk5q_3HRzNI1jV_Animation{0%{-webkit-transform: translate(319.84213638305664px, 319.9959945678711px) rotate(0deg) translate(-319.84213638305664px, -319.9959945678711px);transform: translate(319.84213638305664px, 319.9959945678711px) rotate(0deg) translate(-319.84213638305664px, -319.9959945678711px);}23.33%{-webkit-transform: translate(319.84213638305664px, 319.9959945678711px) rotate(-20deg) translate(-319.84213638305664px, -319.9959945678711px);transform: translate(319.84213638305664px, 319.9959945678711px) rotate(-20deg) translate(-319.84213638305664px, -319.9959945678711px);}50%{-webkit-transform: translate(319.84213638305664px, 319.9959945678711px) rotate(20deg) translate(-319.84213638305664px, -319.9959945678711px);transform: translate(319.84213638305664px, 319.9959945678711px) rotate(20deg) translate(-319.84213638305664px, -319.9959945678711px);}73.33%{-webkit-transform: translate(319.84213638305664px, 319.9959945678711px) rotate(-20deg) translate(-319.84213638305664px, -319.9959945678711px);transform: translate(319.84213638305664px, 319.9959945678711px) rotate(-20deg) translate(-319.84213638305664px, -319.9959945678711px);}100%{-webkit-transform: translate(319.84213638305664px, 319.9959945678711px) rotate(0deg) translate(-319.84213638305664px, -319.9959945678711px);transform: translate(319.84213638305664px, 319.9959945678711px) rotate(0deg) translate(-319.84213638305664px, -319.9959945678711px);}}@keyframes el_FW0dOmhk5q_3HRzNI1jV_Animation{0%{-webkit-transform: translate(319.84213638305664px, 319.9959945678711px) rotate(0deg) translate(-319.84213638305664px, -319.9959945678711px);transform: translate(319.84213638305664px, 319.9959945678711px) rotate(0deg) translate(-319.84213638305664px, -319.9959945678711px);}23.33%{-webkit-transform: translate(319.84213638305664px, 319.9959945678711px) rotate(-20deg) translate(-319.84213638305664px, -319.9959945678711px);transform: translate(319.84213638305664px, 319.9959945678711px) rotate(-20deg) translate(-319.84213638305664px, -319.9959945678711px);}50%{-webkit-transform: translate(319.84213638305664px, 319.9959945678711px) rotate(20deg) translate(-319.84213638305664px, -319.9959945678711px);transform: translate(319.84213638305664px, 319.9959945678711px) rotate(20deg) translate(-319.84213638305664px, -319.9959945678711px);}73.33%{-webkit-transform: translate(319.84213638305664px, 319.9959945678711px) rotate(-20deg) translate(-319.84213638305664px, -319.9959945678711px);transform: translate(319.84213638305664px, 319.9959945678711px) rotate(-20deg) translate(-319.84213638305664px, -319.9959945678711px);}100%{-webkit-transform: translate(319.84213638305664px, 319.9959945678711px) rotate(0deg) translate(-319.84213638305664px, -319.9959945678711px);transform: translate(319.84213638305664px, 319.9959945678711px) rotate(0deg) translate(-319.84213638305664px, -319.9959945678711px);}}#el_8-Fpp_-2g *{-webkit-animation-duration: 3s;animation-duration: 3s;-webkit-animation-iteration-count: infinite;animation-iteration-count: infinite;-webkit-animation-timing-function: cubic-bezier(0, 0, 1, 1);animation-timing-function: cubic-bezier(0, 0, 1, 1);}#el_gXN-O0mU2t{fill: #F68B1F;}#el_JElXLFnsvf{fill: #BA3100;}#el__ZtAVuX-b5{fill: url(#SVGID_1_);}#el_M-k-eGUs7A{fill: #BA3100;}#el_Qc6sFFxpvh{fill: #361B09;}#el_FW0dOmhk5q_3HRzNI1jV{-webkit-animation-name: el_FW0dOmhk5q_3HRzNI1jV_Animation;animation-name: el_FW0dOmhk5q_3HRzNI1jV_Animation;-webkit-animation-timing-function: cubic-bezier(0.42, 0, 0.58, 1);animation-timing-function: cubic-bezier(0.42, 0, 0.58, 1);}#el_FW0dOmhk5q_LAcImF7P-{-webkit-animation-name: el_FW0dOmhk5q_LAcImF7P-_Animation;animation-name: el_FW0dOmhk5q_LAcImF7P-_Animation;}</style>
<g id="el_FW0dOmhk5q_3HRzNI1jV" data-animator-group="true" data-animator-type="1"><g id="el_FW0dOmhk5q_LAcImF7P-" data-animator-group="true" data-animator-type="2"><g id="el_FW0dOmhk5q">
	<g id="el_0Sa9VbnvM9">
		<path d="M147.09,202.614c3.397-56.958,7.597-113.869,12.559-170.708c20.147,15.029,40.287,30.061,60.434,45.09&#10;&#9;&#9;&#9;c5.816,4.343,12.715,8.931,19.776,7.207c5.237-1.28,9.006-5.742,12.388-9.948C269.448,52.835,286.658,31.419,303.868,10&#10;&#9;&#9;&#9;c12.469,57.463,54.188,108.387,52.378,167.159c-0.23,7.574,0.267,17.454,7.536,19.613c2.492,0.742,5.178,0.237,7.678-0.479&#10;&#9;&#9;&#9;c18.716-5.382,32.001-21.831,42.142-38.458c10.133-16.631,18.773-34.768,33.447-47.575c10.496,8.438,2.092,27.761,11.326,37.564&#10;&#9;&#9;&#9;c4.83,5.133,12.76,5.616,19.784,4.981c34.411-3.108,67.036-24.498,101.132-18.901c-14.342,20.603-28.689,41.21-43.035,61.813&#10;&#9;&#9;&#9;c-4.576,6.587-9.383,13.949-8.53,21.927c0.69,6.442,4.948,11.861,9.034,16.891c7.081,8.697,14.162,17.398,21.238,26.1&#10;&#9;&#9;&#9;c1.803,2.214,3.72,4.921,2.963,7.674c-1.123,4.094-6.66,4.473-10.904,4.373c-41.641-1.001-75.169,32.224-103.238,62.997&#10;&#9;&#9;&#9;c-3.939,4.303-8.152,9.45-7.358,15.236c0.831,5.972,6.579,9.792,11.72,12.944c43.877,26.905,82.658,62.103,113.676,103.176&#10;&#9;&#9;&#9;c1.013,1.35,2.074,3.012,1.488,4.584c-0.561,1.514-2.326,2.106-3.881,2.522c-35.368,9.287-71.827,14.457-108.39,15.354&#10;&#9;&#9;&#9;c-3.353,0.09-7.21,0.386-9.153,3.108c-2.122,2.968-0.779,7.063,0.637,10.422c6.825,16.246,13.649,32.483,20.481,48.736&#10;&#9;&#9;&#9;c-31.874-2.5-58.979-23.619-89.438-33.336c-2.76-0.891-5.794-1.669-8.517-0.653c-5.08,1.885-6.104,8.538-6.037,13.961&#10;&#9;&#9;&#9;c0.4,35.108,12.091,70.003,32.928,98.265c-50.316-13.3-99.645-34.285-138.515-68.897c-38.862-34.619-66.331-84.23-66.257-136.274&#10;&#9;&#9;&#9;l-3.057-2.433C136.75,413.42,90.313,383.971,60.709,342.2c16.066-5.052,32.957-7.455,49.796-7.062&#10;&#9;&#9;&#9;C90.047,270.18,79.469,202.124,79.254,134.024c23.44,18.949,48.713,42.746,65.321,67.9L147.09,202.614z" id="el_gXN-O0mU2t"/>
		<g id="el_GSNVQ0siBE">
			<path d="M148.59,202.614c3.407-56.958,7.605-113.865,12.559-170.708c-0.752,0.432-1.505,0.863-2.257,1.295&#10;&#9;&#9;&#9;&#9;c14.314,10.678,28.626,21.358,42.939,32.038c6.738,5.027,13.404,10.175,20.252,15.05c5.45,3.88,11.419,6.56,18.174,5.359&#10;&#9;&#9;&#9;&#9;c5.541-0.984,9.747-6.258,13.049-10.333c5.766-7.114,11.469-14.279,17.205-21.418c11.472-14.279,22.945-28.557,34.417-42.836&#10;&#9;&#9;&#9;&#9;c-0.835-0.221-1.671-0.441-2.507-0.662C314.2,63.49,350.143,109.351,354.47,164.34c0.7,8.896-2.496,22.845,3.81,30.367&#10;&#9;&#9;&#9;&#9;c7.108,8.48,20.32,1.164,27.627-3.468c22.215-14.083,32.283-40.355,46.304-61.356c4.55-6.815,9.785-13.099,15.899-18.562&#10;&#9;&#9;&#9;&#9;c-0.707,0-1.414,0-2.121,0c9.025,7.959,3.687,22.109,7.981,32.22c5.063,11.917,18.662,11.749,29.652,10.125&#10;&#9;&#9;&#9;&#9;c31.857-4.708,62.328-23.302,95.271-18.315c-0.299-0.734-0.598-1.469-0.896-2.203c-9.437,13.556-18.874,27.111-28.312,40.667&#10;&#9;&#9;&#9;&#9;c-4.53,6.507-9.061,13.014-13.592,19.52c-4.089,5.874-8.148,11.758-9.64,18.87c-2.668,12.718,9.565,23.783,16.743,32.603&#10;&#9;&#9;&#9;&#9;c5.083,6.245,10.668,12.321,15.244,18.948c6.209,8.992-13.676,7.421-17.617,7.765c-24.775,2.158-46.452,16.563-64.678,32.514&#10;&#9;&#9;&#9;&#9;c-10.034,8.781-19.253,18.468-28.272,28.273c-7.203,7.832-14.419,17.106-5.724,26.71c3.755,4.147,9.375,6.787,14.029,9.734&#10;&#9;&#9;&#9;&#9;c6.212,3.935,12.292,8.074,18.283,12.336c11.882,8.451,23.248,17.609,34.161,27.274c10.588,9.375,20.635,19.352,30.208,29.757&#10;&#9;&#9;&#9;&#9;c4.596,4.995,9.037,10.131,13.38,15.346c2.172,2.607,4.295,5.256,6.401,7.916c1.325,1.674,2.626,3.366,3.923,5.062&#10;&#9;&#9;&#9;&#9;c1.474,1.462,1.969,3.314,1.484,5.557c-1.238,0.507-2.511,0.901-3.818,1.184c-31.546,8.214-63.958,12.947-96.51,14.48&#10;&#9;&#9;&#9;&#9;c-9.226,0.435-24.208-1.076-20.698,12.748c1.817,7.156,5.842,14.261,8.7,21.064c3.287,7.822,6.575,15.644,9.862,23.465&#10;&#9;&#9;&#9;&#9;c1.012,2.408,2.024,4.815,3.036,7.223c0.482-0.633,0.964-1.266,1.446-1.898c-20.789-1.843-39.521-11.319-58.035-20.243&#10;&#9;&#9;&#9;&#9;c-8.62-4.154-17.309-8.16-26.303-11.444c-7.282-2.658-15.745-5.153-19.645,3.509c-3.267,7.254-1.377,17.325-0.627,24.906&#10;&#9;&#9;&#9;&#9;c0.961,9.716,2.883,19.319,5.474,28.726c5.45,19.781,14.701,38.482,26.777,55.04c0.564-0.734,1.129-1.469,1.693-2.203&#10;&#9;&#9;&#9;&#9;c-54.923-14.612-109.135-38.324-149.376-79.564c-19.143-19.618-34.44-43.135-44.08-68.813&#10;&#9;&#9;&#9;&#9;c-4.77-12.706-7.913-26.021-9.394-39.506c-0.346-3.151-0.545-6.317-0.693-9.483c-0.087-1.868,0.62-5.49-0.332-7.116&#10;&#9;&#9;&#9;&#9;c-1.989-3.396-6.751-3.626-10.042-4.31c-47.756-9.926-91.14-38.717-119.453-78.318c-0.299,0.734-0.598,1.469-0.896,2.203&#10;&#9;&#9;&#9;&#9;c16.051-4.939,32.604-7.297,49.397-7.008c0.952,0.017,1.736-0.974,1.446-1.898c-20.35-64.937-30.886-132.666-31.197-200.716&#10;&#9;&#9;&#9;&#9;c-0.854,0.354-1.707,0.707-2.561,1.061c13.655,11.076,26.773,22.792,38.964,35.472c6.121,6.367,11.918,13.04,17.38,19.98&#10;&#9;&#9;&#9;&#9;c2.739,3.482,5.318,7.088,7.812,10.748c1.414,2.076,1.946,2.118,4.342,2.775c1.869,0.513,2.661-2.381,0.798-2.893&#10;&#9;&#9;&#9;&#9;c-2.906-0.797-3.703-3.104-5.447-5.567c-2.065-2.915-4.249-5.744-6.457-8.55c-5.472-6.954-11.416-13.529-17.545-19.904&#10;&#9;&#9;&#9;&#9;c-11.767-12.239-24.546-23.494-37.725-34.183c-0.968-0.785-2.567-0.353-2.561,1.061c0.313,68.302,10.879,136.336,31.305,201.513&#10;&#9;&#9;&#9;&#9;c0.482-0.633,0.964-1.266,1.446-1.898c-17.048-0.294-33.898,2.1-50.195,7.115c-0.857,0.264-1.481,1.386-0.896,2.203&#10;&#9;&#9;&#9;&#9;c29.533,41.309,74.473,70.387,124.285,80.316c2.441,0.486,3.278,0.892,5.218,2.436c0.412,0.327,0.021,7.621,0.08,8.648&#10;&#9;&#9;&#9;&#9;c0.37,6.45,1.25,12.869,2.408,19.223c2.295,12.6,6.298,24.826,11.314,36.59c10.297,24.144,25.979,45.887,44.534,64.35&#10;&#9;&#9;&#9;&#9;c39.901,39.704,93.68,62.655,147.324,76.927c1.174,0.313,2.507-1.089,1.693-2.203c-10.982-15.059-19.365-31.682-25.023-49.438&#10;&#9;&#9;&#9;&#9;c-2.751-8.635-4.686-17.516-6.031-26.471c-1.356-9.027-3.139-19.932-0.826-28.905c2.975-11.539,21.753-1.082,28.479,1.849&#10;&#9;&#9;&#9;&#9;c8.161,3.557,16.118,7.569,24.152,11.4c15.593,7.434,31.651,14.047,49.019,15.586c0.896,0.079,1.81-1.035,1.446-1.898&#10;&#9;&#9;&#9;&#9;c-6.322-15.042-12.645-30.084-18.965-45.127c-1.508-3.59-5.648-10.585-1.063-13.959c2.571-1.894,7.469-1.301,10.466-1.393&#10;&#9;&#9;&#9;&#9;c8.338-0.256,16.665-0.785,24.977-1.483c15.479-1.3,30.885-3.45,46.161-6.253c7.573-1.389,15.103-3.009,22.598-4.766&#10;&#9;&#9;&#9;&#9;c4.792-1.123,13.057-1.443,15.981-6.008c2.309-3.602-3.96-9.346-5.857-11.783c-4.517-5.803-9.224-11.455-14.044-17.007&#10;&#9;&#9;&#9;&#9;c-9.271-10.678-19.154-20.817-29.468-30.489c-20.309-19.047-42.635-35.934-66.333-50.532c-6.803-4.191-13.746-9.514-9.656-18.367&#10;&#9;&#9;&#9;&#9;c2.715-5.879,8.711-10.889,13.094-15.567c9.135-9.75,18.662-19.145,28.979-27.647c10.155-8.37,21.339-15.657,33.534-20.678&#10;&#9;&#9;&#9;&#9;c5.578-2.296,11.405-3.918,17.328-5.019c6.582-1.223,13.137-0.557,19.71-1.34c3.486-0.415,6.166-1.953,7.482-5.237&#10;&#9;&#9;&#9;&#9;c1.739-4.34-3.503-9.323-5.847-12.205c-4.995-6.143-9.993-12.284-14.991-18.424c-5.345-6.565-11.927-13.225-12.442-22.135&#10;&#9;&#9;&#9;&#9;c-0.447-7.742,5.383-15.103,9.557-21.097c4.53-6.506,9.061-13.013,13.591-19.52c9.438-13.555,18.875-27.111,28.312-40.667&#10;&#9;&#9;&#9;&#9;c0.514-0.737,0.028-2.063-0.896-2.203c-29.554-4.475-57.057,9.42-85.135,16.098c-12.983,3.087-34.687,7.915-38.86-9.648&#10;&#9;&#9;&#9;&#9;c-2.366-9.958,1.037-22.104-7.585-29.708c-0.64-0.564-1.482-0.571-2.121,0c-20.256,18.097-28.863,44.806-46.05,65.335&#10;&#9;&#9;&#9;&#9;c-4.189,5.003-8.968,9.498-14.292,13.271c-5.644,4-14.323,8.95-21.466,7.519c-6.282-1.259-6.436-10.879-6.477-15.71&#10;&#9;&#9;&#9;&#9;c-0.056-6.721,0.024-13.321-0.665-20.025c-5.486-53.362-40.232-98.187-51.725-149.99c-0.229-1.031-1.803-1.538-2.507-0.662&#10;&#9;&#9;&#9;&#9;c-9.834,12.239-19.668,24.478-29.501,36.716c-4.917,6.119-9.833,12.239-14.748,18.358c-4.701,5.852-9.15,12.969-15.478,17.206&#10;&#9;&#9;&#9;&#9;c-7.534,5.044-16.177-1.047-22.242-5.52c-6.919-5.103-13.784-10.283-20.675-15.425c-13.252-9.889-26.504-19.778-39.759-29.665&#10;&#9;&#9;&#9;&#9;c-1-0.746-2.169,0.294-2.257,1.295c-4.953,56.844-9.152,113.751-12.559,170.708C145.474,204.547,148.475,204.536,148.59,202.614z&#10;&#9;&#9;&#9;&#9;" id="el_JElXLFnsvf"/>
		</g>
	</g>
	<g id="el_oL1ZXI_qHy">
		<linearGradient id="SVGID_1_" gradientUnits="userSpaceOnUse" x1="60.418" y1="320" x2="579" y2="320">
			<stop offset="0" style="stop-color:#BA3100"/>
			<stop offset="0.1217" style="stop-color:#BC3401;stop-opacity:0.7254"/>
			<stop offset="0.209" style="stop-color:#C23D04;stop-opacity:0.5287"/>
			<stop offset="0.2854" style="stop-color:#CD4D0A;stop-opacity:0.3563"/>
			<stop offset="0.3556" style="stop-color:#DB6311;stop-opacity:0.1979"/>
			<stop offset="0.421" style="stop-color:#EE7F1B;stop-opacity:0.0504"/>
			<stop offset="0.4433" style="stop-color:#F68B1F;stop-opacity:0"/>
			<stop offset="0.4874" style="stop-color:#E77517;stop-opacity:0.0791"/>
			<stop offset="0.5503" style="stop-color:#D75C0F;stop-opacity:0.1921"/>
			<stop offset="0.621" style="stop-color:#CA4908;stop-opacity:0.3192"/>
			<stop offset="0.703" style="stop-color:#C13B04;stop-opacity:0.4664"/>
			<stop offset="0.8063" style="stop-color:#BC3301;stop-opacity:0.6519"/>
			<stop offset="1" style="stop-color:#BA3100"/>
		</linearGradient>
		<path d="M146.799,202.614c3.397-56.958,7.597-113.869,12.559-170.708&#10;&#9;&#9;&#9;c20.147,15.029,40.287,30.061,60.434,45.09c5.816,4.343,12.715,8.931,19.776,7.207c5.237-1.28,9.006-5.742,12.388-9.948&#10;&#9;&#9;&#9;C269.157,52.835,286.367,31.419,303.577,10c12.469,57.463,54.188,108.387,52.378,167.159c-0.23,7.574,0.267,17.454,7.536,19.613&#10;&#9;&#9;&#9;c2.492,0.742,5.178,0.237,7.678-0.479c18.716-5.382,32.001-21.831,42.142-38.458c10.133-16.631,18.773-34.768,33.447-47.575&#10;&#9;&#9;&#9;c10.496,8.438,2.092,27.761,11.326,37.564c4.83,5.133,12.76,5.616,19.784,4.981c34.411-3.108,67.036-24.498,101.132-18.901&#10;&#9;&#9;&#9;c-14.342,20.603-28.689,41.21-43.035,61.813c-4.576,6.587-9.383,13.949-8.53,21.927c0.69,6.442,4.948,11.861,9.034,16.891&#10;&#9;&#9;&#9;c7.081,8.697,14.162,17.398,21.238,26.1c1.803,2.214,3.72,4.921,2.963,7.674c-1.123,4.094-6.66,4.473-10.904,4.373&#10;&#9;&#9;&#9;c-41.641-1.001-75.169,32.224-103.238,62.997c-3.939,4.303-8.152,9.45-7.358,15.236c0.831,5.972,6.579,9.792,11.72,12.944&#10;&#9;&#9;&#9;c43.877,26.905,82.658,62.103,113.676,103.176c1.013,1.35,2.074,3.012,1.488,4.584c-0.561,1.514-2.326,2.106-3.881,2.522&#10;&#9;&#9;&#9;c-35.368,9.287-71.827,14.457-108.39,15.354c-3.353,0.09-7.21,0.386-9.153,3.108c-2.122,2.968-0.779,7.063,0.637,10.422&#10;&#9;&#9;&#9;c6.825,16.246,13.649,32.483,20.481,48.736c-31.874-2.5-58.979-23.619-89.438-33.336c-2.76-0.891-5.794-1.669-8.517-0.653&#10;&#9;&#9;&#9;c-5.08,1.885-6.104,8.538-6.037,13.961c0.4,35.108,12.091,70.003,32.928,98.265c-50.316-13.3-99.645-34.285-138.515-68.897&#10;&#9;&#9;&#9;c-38.862-34.619-66.331-84.23-66.257-136.274l-3.057-2.433c-50.396-8.976-96.833-38.425-126.438-80.195&#10;&#9;&#9;&#9;c16.066-5.052,32.957-7.455,49.796-7.062C89.756,270.18,79.178,202.124,78.963,134.024c23.44,18.949,48.713,42.746,65.321,67.9&#10;&#9;&#9;&#9;L146.799,202.614z" id="el__ZtAVuX-b5"/>
		<g id="el_YaEMVRaNfd">
			<path d="M148.299,202.614c3.407-56.958,7.605-113.865,12.559-170.708c-0.752,0.432-1.505,0.863-2.257,1.295&#10;&#9;&#9;&#9;&#9;c14.314,10.678,28.626,21.358,42.939,32.038c6.738,5.027,13.404,10.175,20.252,15.05c5.45,3.88,11.419,6.56,18.174,5.359&#10;&#9;&#9;&#9;&#9;c5.541-0.984,9.747-6.258,13.049-10.333c5.766-7.114,11.469-14.279,17.205-21.418c11.472-14.279,22.945-28.557,34.417-42.836&#10;&#9;&#9;&#9;&#9;c-0.835-0.221-1.671-0.441-2.507-0.662c11.778,53.091,47.721,98.952,52.048,153.941c0.7,8.896-2.496,22.845,3.81,30.367&#10;&#9;&#9;&#9;&#9;c7.108,8.48,20.32,1.164,27.627-3.468c22.215-14.083,32.283-40.355,46.304-61.356c4.55-6.815,9.785-13.099,15.899-18.562&#10;&#9;&#9;&#9;&#9;c-0.707,0-1.414,0-2.121,0c9.025,7.959,3.687,22.109,7.981,32.22c5.063,11.917,18.662,11.749,29.652,10.125&#10;&#9;&#9;&#9;&#9;c31.857-4.708,62.328-23.302,95.271-18.315c-0.299-0.734-0.598-1.469-0.896-2.203c-9.437,13.556-18.874,27.111-28.312,40.667&#10;&#9;&#9;&#9;&#9;c-4.53,6.507-9.061,13.014-13.592,19.52c-4.089,5.874-8.148,11.758-9.64,18.87c-2.668,12.718,9.565,23.783,16.743,32.603&#10;&#9;&#9;&#9;&#9;c5.083,6.245,10.668,12.321,15.244,18.948c6.209,8.992-13.676,7.421-17.617,7.765c-24.775,2.158-46.452,16.563-64.678,32.514&#10;&#9;&#9;&#9;&#9;c-10.034,8.781-19.253,18.468-28.272,28.273c-7.203,7.832-14.419,17.106-5.724,26.71c3.755,4.147,9.375,6.787,14.029,9.734&#10;&#9;&#9;&#9;&#9;c6.212,3.935,12.292,8.074,18.283,12.336c11.882,8.451,23.248,17.609,34.161,27.274c10.588,9.375,20.635,19.352,30.208,29.757&#10;&#9;&#9;&#9;&#9;c4.596,4.995,9.037,10.131,13.38,15.346c2.172,2.607,4.295,5.256,6.401,7.916c1.325,1.674,2.626,3.366,3.923,5.062&#10;&#9;&#9;&#9;&#9;c1.474,1.462,1.969,3.314,1.484,5.557c-1.238,0.507-2.511,0.901-3.818,1.184c-31.546,8.214-63.958,12.947-96.51,14.48&#10;&#9;&#9;&#9;&#9;c-9.226,0.435-24.208-1.076-20.698,12.748c1.817,7.156,5.842,14.261,8.7,21.064c3.287,7.822,6.575,15.644,9.862,23.465&#10;&#9;&#9;&#9;&#9;c1.012,2.408,2.024,4.815,3.036,7.223c0.482-0.633,0.964-1.266,1.446-1.898c-20.789-1.843-39.521-11.319-58.035-20.243&#10;&#9;&#9;&#9;&#9;c-8.62-4.154-17.309-8.16-26.303-11.444c-7.282-2.658-15.745-5.153-19.645,3.509c-3.267,7.254-1.377,17.325-0.627,24.906&#10;&#9;&#9;&#9;&#9;c0.961,9.716,2.883,19.319,5.474,28.726c5.45,19.781,14.701,38.482,26.777,55.04c0.564-0.734,1.129-1.469,1.693-2.203&#10;&#9;&#9;&#9;&#9;c-54.923-14.612-109.135-38.324-149.376-79.564c-19.143-19.618-34.44-43.135-44.08-68.813&#10;&#9;&#9;&#9;&#9;c-4.77-12.706-7.913-26.021-9.394-39.506c-0.346-3.151-0.545-6.317-0.693-9.483c-0.087-1.868,0.62-5.49-0.332-7.116&#10;&#9;&#9;&#9;&#9;c-1.989-3.396-6.751-3.626-10.042-4.31c-47.756-9.926-91.14-38.717-119.453-78.318c-0.299,0.734-0.598,1.469-0.896,2.203&#10;&#9;&#9;&#9;&#9;c16.051-4.939,32.604-7.297,49.397-7.008c0.952,0.017,1.736-0.974,1.446-1.898c-20.35-64.937-30.886-132.666-31.197-200.716&#10;&#9;&#9;&#9;&#9;c-0.854,0.354-1.707,0.707-2.561,1.061c13.655,11.076,26.773,22.792,38.964,35.472c6.121,6.367,11.918,13.04,17.38,19.98&#10;&#9;&#9;&#9;&#9;c2.739,3.482,5.318,7.088,7.812,10.748c1.414,2.076,1.946,2.118,4.342,2.775c1.869,0.513,2.661-2.381,0.798-2.893&#10;&#9;&#9;&#9;&#9;c-2.906-0.797-3.703-3.104-5.447-5.567c-2.065-2.915-4.249-5.744-6.457-8.55c-5.472-6.954-11.416-13.529-17.545-19.904&#10;&#9;&#9;&#9;&#9;c-11.767-12.239-24.546-23.494-37.725-34.183c-0.968-0.785-2.567-0.353-2.561,1.061c0.313,68.302,10.879,136.336,31.305,201.513&#10;&#9;&#9;&#9;&#9;c0.482-0.633,0.964-1.266,1.446-1.898c-17.048-0.294-33.898,2.1-50.195,7.115c-0.857,0.264-1.481,1.386-0.896,2.203&#10;&#9;&#9;&#9;&#9;c29.533,41.309,74.473,70.387,124.285,80.316c2.441,0.486,3.278,0.892,5.218,2.436c0.412,0.327,0.021,7.621,0.08,8.648&#10;&#9;&#9;&#9;&#9;c0.37,6.45,1.25,12.869,2.408,19.223c2.295,12.6,6.298,24.826,11.314,36.59c10.297,24.144,25.979,45.887,44.534,64.35&#10;&#9;&#9;&#9;&#9;c39.901,39.704,93.68,62.655,147.324,76.927c1.174,0.313,2.507-1.089,1.693-2.203c-10.982-15.059-19.365-31.682-25.023-49.438&#10;&#9;&#9;&#9;&#9;c-2.751-8.635-4.686-17.516-6.031-26.471c-1.356-9.027-3.139-19.932-0.826-28.905c2.975-11.539,21.753-1.082,28.479,1.849&#10;&#9;&#9;&#9;&#9;c8.161,3.557,16.118,7.569,24.152,11.4c15.593,7.434,31.651,14.047,49.019,15.586c0.896,0.079,1.81-1.035,1.446-1.898&#10;&#9;&#9;&#9;&#9;c-6.322-15.042-12.645-30.084-18.965-45.127c-1.508-3.59-5.648-10.585-1.063-13.959c2.571-1.894,7.469-1.301,10.466-1.393&#10;&#9;&#9;&#9;&#9;c8.338-0.256,16.665-0.785,24.977-1.483c15.479-1.3,30.885-3.45,46.161-6.253c7.573-1.389,15.103-3.009,22.598-4.766&#10;&#9;&#9;&#9;&#9;c4.792-1.123,13.057-1.443,15.981-6.008c2.309-3.602-3.96-9.346-5.857-11.783c-4.517-5.803-9.224-11.455-14.044-17.007&#10;&#9;&#9;&#9;&#9;c-9.271-10.678-19.154-20.817-29.468-30.489c-20.309-19.047-42.635-35.934-66.333-50.532c-6.803-4.191-13.746-9.514-9.656-18.367&#10;&#9;&#9;&#9;&#9;c2.715-5.879,8.711-10.889,13.094-15.567c9.135-9.75,18.662-19.145,28.979-27.647c10.155-8.37,21.339-15.657,33.534-20.678&#10;&#9;&#9;&#9;&#9;c5.578-2.296,11.405-3.918,17.328-5.019c6.582-1.223,13.137-0.557,19.71-1.34c3.486-0.415,6.166-1.953,7.482-5.237&#10;&#9;&#9;&#9;&#9;c1.739-4.34-3.503-9.323-5.847-12.205c-4.995-6.143-9.993-12.284-14.991-18.424c-5.345-6.565-11.927-13.225-12.442-22.135&#10;&#9;&#9;&#9;&#9;c-0.447-7.742,5.383-15.103,9.557-21.097c4.53-6.506,9.061-13.013,13.591-19.52c9.438-13.555,18.875-27.111,28.312-40.667&#10;&#9;&#9;&#9;&#9;c0.514-0.737,0.028-2.063-0.896-2.203c-29.554-4.475-57.057,9.42-85.135,16.098c-12.983,3.087-34.687,7.915-38.86-9.648&#10;&#9;&#9;&#9;&#9;c-2.366-9.958,1.037-22.104-7.585-29.708c-0.64-0.564-1.482-0.571-2.121,0c-20.256,18.097-28.863,44.806-46.05,65.335&#10;&#9;&#9;&#9;&#9;c-4.189,5.003-8.968,9.498-14.292,13.271c-5.644,4-14.323,8.95-21.466,7.519c-6.282-1.259-6.436-10.879-6.477-15.71&#10;&#9;&#9;&#9;&#9;c-0.056-6.721,0.024-13.321-0.665-20.025c-5.486-53.362-40.232-98.187-51.725-149.99c-0.229-1.031-1.803-1.538-2.507-0.662&#10;&#9;&#9;&#9;&#9;c-9.834,12.239-19.668,24.478-29.501,36.716c-4.917,6.119-9.833,12.239-14.748,18.358c-4.701,5.852-9.15,12.969-15.478,17.206&#10;&#9;&#9;&#9;&#9;c-7.534,5.044-16.177-1.047-22.242-5.52c-6.919-5.103-13.784-10.283-20.675-15.425c-13.252-9.889-26.504-19.778-39.759-29.665&#10;&#9;&#9;&#9;&#9;c-1-0.746-2.169,0.294-2.257,1.295c-4.953,56.844-9.152,113.751-12.559,170.708C145.183,204.547,148.184,204.536,148.299,202.614&#10;&#9;&#9;&#9;&#9;z" id="el_M-k-eGUs7A"/>
		</g>
	</g>
	<path id="el_Qc6sFFxpvh" d="M134.762,313.522c10.459,13.815,24.094,24.783,36.044,37.193&#10;&#9;&#9;c-4.073-7.744-8.36-15.348-12.344-22.836c-14.776-27.784-23.938-57.426-26.92-88.781c-0.386-3.991,5.86-3.965,6.231,0&#10;&#9;&#9;c3.309,34.746,15.407,64.933,31.378,95.201c3.493-28.521,12.543-57.185,3.412-85.428c-1.239-3.828,4.777-5.467,6.009-1.658&#10;&#9;&#9;c10.407,32.179-1.974,64.51-4.14,96.907c4.866,9.05,9.487,18.404,13.107,28.011c0.111,0.185,0.23,0.363,0.341,0.549&#10;&#9;&#9;c0.297,0.526,0.416,1.038,0.423,1.527c4.956,13.783,7.767,28.069,6.202,42.742c13.048-18.693,19.464-40.68,24.998-62.592&#10;&#9;&#9;c6.661-26.342,12.425-52.909,17.247-79.646c1.817-10.088,3.627-20.288,5.288-30.558c-3.59-16.39-9.694-31.956-15.985-47.456&#10;&#9;&#9;c-13.908-9.009-25.266-21.208-31.511-36.715c-1.506-3.724,4.524-5.341,6.008-1.658c4.429,10.997,11.995,20.18,21.111,27.535&#10;&#9;&#9;c-6.676-16.586-12.929-33.299-15.874-51.076c-0.652-3.924,5.355-5.615,6.016-1.658c3.442,20.818,11.424,40.179,19.316,59.581&#10;&#9;&#9;c0.49,0.542,0.712,1.176,0.742,1.821c4.562,11.23,9.035,22.487,12.544,34.063c5.593-39.545,7.773-79.835-2.011-118.531&#10;&#9;&#9;c-0.994-3.891,5.029-5.553,6.009-1.658c11.534,45.609,6.787,93.18-0.712,139.346c3.36-9.874,7.307-19.542,12.136-28.796&#10;&#9;&#9;c10.021-19.205,24.753-35.936,29.485-57.548c0.86-3.92,6.877-2.262,6.017,1.658c-4.362,19.906-16.876,35.628-26.801,52.967&#10;&#9;&#9;c-11.031,19.264-17.811,40.495-23.063,61.969c-9.821,40.157-14.984,81.567-32.906,119.266c-0.126,0.281-0.289,0.512-0.46,0.712&#10;&#9;&#9;c-0.497,1.143-1.016,2.284-1.543,3.412c0.771-0.742,1.551-1.491,2.322-2.24c21.289-21.534,44.841-41.719,62.162-66.583&#10;&#9;&#9;c17.402-24.973,29.085-53.313,40.554-81.341c1.498-3.665,7.536-2.059,6.008,1.658c-11.668,28.522-23.462,57.418-41.177,82.828&#10;&#9;&#9;c-5.007,7.196-10.519,13.99-16.334,20.548c3.517-2.626,7.047-5.207,10.593-7.759c28.648-20.622,58.327-39.879,88.6-58.042&#10;&#9;&#9;c0.156-0.345,0.379-0.683,0.713-1.001c28.744-27.625,48.586-62.855,77.078-90.721c2.871-2.808,7.285,1.599,4.406,4.41&#10;&#9;&#9;c-23.67,23.151-41.391,51.384-63.192,76.119c15.778-9.15,31.733-18.014,47.868-26.538c17.053-9.02,34.374-17.54,48.676-30.743&#10;&#9;&#9;c2.952-2.719,7.373,1.68,4.414,4.41c-12.871,11.887-28.018,20.192-43.439,28.299c-10.838,5.697-21.616,11.513-32.328,17.451&#10;&#9;&#9;c13.205,0.538,26.408,1.08,39.619,1.617c3.999,0.163,4.014,6.402,0,6.238c-16.631-0.682-33.262-1.357-49.9-2.036&#10;&#9;&#9;c-0.021-0.003-0.051-0.011-0.081-0.011c-2.849,1.614-5.704,3.223-8.546,4.859c-34.166,19.694-67.555,40.803-99.889,63.383&#10;&#9;&#9;c-3.049,2.129-6.091,4.279-9.124,6.461c21.526-6.84,43.913-10.504,66.405-10.92c7.307-4.947,15.177-8.813,23.544-11.612&#10;&#9;&#9;c3.813-1.279,5.452,4.744,1.661,6.012c-4.568,1.536-8.924,3.442-13.129,5.653c15.548,0.519,31.066,2.589,46.332,6.253&#10;&#9;&#9;c3.902,0.935,2.248,6.943-1.662,6.009c-18.069-4.332-36.584-6.365-55.07-6.172c-0.423,0.111-0.823,0.118-1.209,0.029&#10;&#9;&#9;c-28.981,0.453-57.837,6.409-84.66,17.855c-10.853,8.256-21.497,16.875-31.734,25.925c14.087-3.196,28.589-3.471,42.831-1.379&#10;&#9;&#9;c28.93,2.447,57.37,11.245,85.009,20.406c5.297,1.758,10.594,3.553,15.89,5.37c19.005-4.739,38.373-4.813,57.741-2.255&#10;&#9;&#9;c3.924,0.52,3.977,6.758,0,6.239c-15.474-2.048-30.844-2.434-46.095,0.015c34.79,11.957,69.735,23.744,106.417,28.055&#10;&#9;&#9;c3.932,0.459,3.977,6.705,0,6.23c-43.157-5.066-83.748-20.154-124.665-33.981c-16.067-5.43-32.505-11.045-49.188-15.54&#10;&#9;&#9;c2.797,1.409,5.557,2.893,8.256,4.465c36.822,21.371,64.01,55.561,89.92,88.54c2.448,3.123-1.936,7.566-4.414,4.406&#10;&#9;&#9;c-33.031-42.037-77.486-92.887-131.163-105.022c-16.305-2.04-32.742-2.158-49.218,0.816c-0.504,0.089-0.964,0.074-1.395-0.03&#10;&#9;&#9;c-3.427,0.891-6.884,1.959-10.37,3.212c-2.804,2.812-5.578,5.631-8.293,8.494c-0.394,0.415-0.823,0.667-1.261,0.809&#10;&#9;&#9;c-2.285,2.307-4.548,4.629-6.766,6.987c26.949,0.378,52.727,24.189,69.699,42.2c24.672,26.178,43.29,57.312,61.59,88.081&#10;&#9;&#9;c2.055,3.456-3.338,6.594-5.393,3.145c-16.289-27.401-32.742-55.085-53.742-79.216c-2.07-2.389-4.206-4.732-6.372-7.047&#10;&#9;&#9;c9.042,18.493,14.524,38.581,15.822,59.247c0.252,4.006-5.986,3.99-6.238,0c-1.662-26.452-10.652-51.829-25.117-73.957&#10;&#9;&#9;c-0.156-0.237-0.267-0.467-0.349-0.697c-3.865-3.367-7.841-6.587-11.98-9.605c-11.92-8.687-28.477-18.004-43.743-15.638&#10;&#9;&#9;c-0.052,0.008-0.097,0.008-0.155,0.008c-20.059,22.446-36.993,47.43-48.558,75.796c-1.499,3.665-7.529,2.063-6.017-1.661&#10;&#9;&#9;c10.675-26.171,25.711-49.522,43.507-70.686c0.015-0.229,0.052-0.468,0.118-0.705c4.844-18.063,1.906-35.205-4.272-51.644&#10;&#9;&#9;c-13.412-22.906-36.801-37.475-52.689-58.471C126.958,313.471,132.373,310.359,134.762,313.522z"/>
</g></g></g>
</svg>