<svg version="1.1" id="el_edRGamzD_v" xmlns="http://www.w3.org/2000/svg" xmlns:xlink="http://www.w3.org/1999/xlink" x="0px" y="0px" width="600" height="600" viewBox="0 0 600 600" enable-background="new 0 0 640 640" xml:space="preserve"><style>@-webkit-keyframes el_Nc5xzO8F8r_QeqY_OS2h_Animation{0%{-webkit-transform: translate(317.2555503845215px, 345.2728805541992px) translate(-317.2555503845215px, -345.2728805541992px) translate(0px, 0px);transform: translate(317.2555503845215px, 345.2728805541992px) translate(-317.2555503845215px, -345.2728805541992px) translate(0px, 0px);}100%{-webkit-transform: translate(317.2555503845215px, 345.2728805541992px) translate(-317.2555503845215px, -345.2728805541992px) translate(0px, 0px);transform: translate(317.2555503845215px, 345.2728805541992px) translate(-317.2555503845215px, -345.2728805541992px) translate(0px, 0px);}}@keyframes el_Nc5xzO8F8r_QeqY_OS2h_Animation{0%{-webkit-transform: translate(317.2555503845215px, 345.2728805541992px) translate(-317.2555503845215px, -345.2728805541992px) translate(0px, 0px);transform: translate(317.2555503845215px, 345.2728805541992px) translate(-317.2555503845215px, -345.2728805541992px) translate(0px, 0px);}100%{-webkit-transform: translate(317.2555503845215px, 345.2728805541992px) translate(-317.2555503845215px, -345.2728805541992px) translate(0px, 0px);transform: translate(317.2555503845215px, 345.2728805541992px) translate(-317.2555503845215px, -345.2728805541992px) translate(0px, 0px);}}@-webkit-keyframes el_Nc5xzO8F8r_gN39ZUZob_Animation{0%{-webkit-transform: translate(317.2555503845215px, 345.2728805541992px) rotate(0deg) translate(-317.2555503845215px, -345.2728805541992px);transform: translate(317.2555503845215px, 345.2728805541992px) rotate(0deg) translate(-317.2555503845215px, -345.2728805541992px);}25.56%{-webkit-transform: translate(317.2555503845215px, 345.2728805541992px) rotate(15deg) translate(-317.2555503845215px, -345.2728805541992px);transform: translate(317.2555503845215px, 345.2728805541992px) rotate(15deg) translate(-317.2555503845215px, -345.2728805541992px);}66.67%{-webkit-transform: translate(317.2555503845215px, 345.2728805541992px) rotate(-30deg) translate(-317.2555503845215px, -345.2728805541992px);transform: translate(317.2555503845215px, 345.2728805541992px) rotate(-30deg) translate(-317.2555503845215px, -345.2728805541992px);}100%{-webkit-transform: translate(317.2555503845215px, 345.2728805541992px) rotate(0deg) translate(-317.2555503845215px, -345.2728805541992px);transform: translate(317.2555503845215px, 345.2728805541992px) rotate(0deg) translate(-317.2555503845215px, -345.2728805541992px);}}@keyframes el_Nc5xzO8F8r_gN39ZUZob_Animation{0%{-webkit-transform: translate(317.2555503845215px, 345.2728805541992px) rotate(0deg) translate(-317.2555503845215px, -345.2728805541992px);transform: translate(317.2555503845215px, 345.2728805541992px) rotate(0deg) translate(-317.2555503845215px, -345.2728805541992px);}25.56%{-webkit-transform: translate(317.2555503845215px, 345.2728805541992px) rotate(15deg) translate(-317.2555503845215px, -345.2728805541992px);transform: translate(317.2555503845215px, 345.2728805541992px) rotate(15deg) translate(-317.2555503845215px, -345.2728805541992px);}66.67%{-webkit-transform: translate(317.2555503845215px, 345.2728805541992px) rotate(-30deg) translate(-317.2555503845215px, -345.2728805541992px);transform: translate(317.2555503845215px, 345.2728805541992px) rotate(-30deg) translate(-317.2555503845215px, -345.2728805541992px);}100%{-webkit-transform: translate(317.2555503845215px, 345.2728805541992px) rotate(0deg) translate(-317.2555503845215px, -345.2728805541992px);transform: translate(317.2555503845215px, 345.2728805541992px) rotate(0deg) translate(-317.2555503845215px, -345.2728805541992px);}}@-webkit-keyframes el_Nc5xzO8F8r_VVb2j6bCO_Animation{0%{-webkit-transform: translate(317.2555503845215px, 345.2728805541992px) scale(0.8, 0.8) translate(-317.2555503845215px, -345.2728805541992px);transform: translate(317.2555503845215px, 345.2728805541992px) scale(0.8, 0.8) translate(-317.2555503845215px, -345.2728805541992px);}100%{-webkit-transform: translate(317.2555503845215px, 345.2728805541992px) scale(0.8, 0.8) translate(-317.2555503845215px, -345.2728805541992px);transform: translate(317.2555503845215px, 345.2728805541992px) scale(0.8, 0.8) translate(-317.2555503845215px, -345.2728805541992px);}}@keyframes el_Nc5xzO8F8r_VVb2j6bCO_Animation{0%{-webkit-transform: translate(317.2555503845215px, 345.2728805541992px) scale(0.8, 0.8) translate(-317.2555503845215px, -345.2728805541992px);transform: translate(317.2555503845215px, 345.2728805541992px) scale(0.8, 0.8) translate(-317.2555503845215px, -345.2728805541992px);}100%{-webkit-transform: translate(317.2555503845215px, 345.2728805541992px) scale(0.8, 0.8) translate(-317.2555503845215px, -345.2728805541992px);transform: translate(317.2555503845215px, 345.2728805541992px) scale(0.8, 0.8) translate(-317.2555503845215px, -345.2728805541992px);}}#el_edRGamzD_v *{-webkit-animation-duration: 3s;animation-duration: 3s;-webkit-animation-iteration-count: infinite;animation-iteration-count: infinite;-webkit-animation-timing-function: cubic-bezier(0, 0, 1, 1);animation-timing-function: cubic-bezier(0, 0, 1, 1);}#el_mOkz7EtqWF{fill: #BA3100;}#el_dkfI-6DX1s{fill: url(#SVGID_1_);}#el_8YC7oyTTILo{fill: url(#SVGID_2_);}#el_mXMJmoaGqZx{fill: #BA3100;}#el_Aif5fOhmMN5{fill: #361B09;}#el_Nc5xzO8F8r_VVb2j6bCO{-webkit-animation-name: el_Nc5xzO8F8r_VVb2j6bCO_Animation;animation-name: el_Nc5xzO8F8r_VVb2j6bCO_Animation;-webkit-transform: translate(317.2555503845215px, 345.2728805541992px) scale(0.8, 0.8) translate(-317.2555503845215px, -345.2728805541992px);transform: translate(317.2555503845215px, 345.2728805541992px) scale(0.8, 0.8) translate(-317.2555503845215px, -345.2728805541992px);}#el_Nc5xzO8F8r_gN39ZUZob{-webkit-animation-name: el_Nc5xzO8F8r_gN39ZUZob_Animation;animation-name: el_Nc5xzO8F8r_gN39ZUZob_Animation;-webkit-transform: translate(317.2555503845215px, 345.2728805541992px) rotate(0deg) translate(-317.2555503845215px, -345.2728805541992px);transform: translate(317.2555503845215px, 345.2728805541992px) rotate(0deg) translate(-317.2555503845215px, -345.2728805541992px);-webkit-animation-timing-function: cubic-bezier(0.42, 0, 0.58, 1);animation-timing-function: cubic-bezier(0.42, 0, 0.58, 1);}#el_Nc5xzO8F8r_QeqY_OS2h{-webkit-transform: translate(317.2555503845215px, 345.2728805541992px) translate(-317.2555503845215px, -345.2728805541992px) translate(0px, 0px);transform: translate(317.2555503845215px, 345.2728805541992px) translate(-317.2555503845215px, -345.2728805541992px) translate(0px, 0px);-webkit-animation-name: el_Nc5xzO8F8r_QeqY_OS2h_Animation;animation-name: el_Nc5xzO8F8r_QeqY_OS2h_Animation;}</style>
<g id="el_Nc5xzO8F8r_QeqY_OS2h" data-animator-group="true" data-animator-type="0"><g id="el_Nc5xzO8F8r_gN39ZUZob" data-animator-group="true" data-animator-type="1"><g id="el_Nc5xzO8F8r_VVb2j6bCO" data-animator-group="true" data-animator-type="2"><g id="el_Nc5xzO8F8r">
	<g id="el_oPrR_NTkzw">
		<path d="M154.992,191.743c-53.132,20.806-105.97,42.358-158.506,64.615c20.512,14.528,41.024,29.047,61.536,43.574&#10;&#9;&#9;&#9;c5.926,4.192,12.418,9.339,12.957,16.588c0.398,5.376-2.683,10.338-5.64,14.853c-15.067,22.971-30.127,45.949-45.192,68.928&#10;&#9;&#9;&#9;c58.507-5.869,119.818,18.103,175.165-1.752c7.133-2.556,16.685-5.132,20.981,1.117c1.475,2.142,1.823,4.853,1.914,7.451&#10;&#9;&#9;&#9;c0.655,19.463-10.893,37.175-23.58,51.951c-12.693,14.77-27.279,28.585-34.934,46.493c11.265,7.381,27.052-6.575,39.226-0.815&#10;&#9;&#9;&#9;c6.373,3.01,9.278,10.404,10.843,17.282c7.66,33.691-2.62,71.323,13.224,102.029c15.173-19.999,30.348-40.004,45.52-60.007&#10;&#9;&#9;&#9;c4.854-6.386,10.374-13.229,18.226-14.88c6.341-1.331,12.809,1.047,18.854,3.383c10.458,4.052,20.919,8.103,31.379,12.148&#10;&#9;&#9;&#9;c2.662,1.031,5.829,2.021,8.214,0.451c3.548-2.332,2.199-7.716,0.795-11.721c-13.8-39.301,7.46-81.444,28.071-117.639&#10;&#9;&#9;&#9;c2.877-5.075,6.474-10.671,12.223-11.701c5.937-1.052,11.344,3.238,15.929,7.155c39.13,33.435,84.575,59.464,133.215,76.297&#10;&#9;&#9;&#9;c1.596,0.546,3.505,1.043,4.819,0c1.267-1,1.286-2.862,1.202-4.469c-2.078-36.509-8.409-72.784-18.837-107.84&#10;&#9;&#9;&#9;c-0.949-3.217-1.857-6.978,0.133-9.666c2.168-2.934,6.478-2.92,10.11-2.609c17.559,1.479,35.109,2.961,52.678,4.445&#10;&#9;&#9;&#9;c-12.213-29.548-40.664-48.815-59.305-74.789c-1.698-2.351-3.375-4.996-3.249-7.899c0.226-5.415,6.238-8.441,11.417-10.051&#10;&#9;&#9;&#9;c33.52-10.451,70.318-10.097,103.63,1.004c-28.175-43.758-63.355-84.205-108.272-110.5&#10;&#9;&#9;&#9;c-44.92-26.285-100.586-37.107-150.068-20.979l-3.257-2.157c-24.087-45.168-66.427-80.253-115.293-95.526&#10;&#9;&#9;&#9;c0.151,16.841,3.077,33.649,8.646,49.545c-68.102,0.582-136.101,11.518-200.945,32.324c25.257,16.451,55.689,33.148,84.741,41.185&#10;&#9;&#9;&#9;L154.992,191.743z" id="el_mOkz7EtqWF"/>
	</g>
	<g id="el_ewNKDQP-WS">
		
			<linearGradient id="SVGID_1_" gradientUnits="userSpaceOnUse" x1="60.709" y1="319.9995" x2="579.291" y2="319.9995" gradientTransform="matrix(-0.3085 -0.9512 0.9512 -0.3085 114.3428 723.1191)">
			<stop offset="0" style="stop-color:#BA3100"/>
			<stop offset="0.1137" style="stop-color:#BC3401;stop-opacity:0.8863"/>
			<stop offset="0.2118" style="stop-color:#C33F04;stop-opacity:0.7882"/>
			<stop offset="0.3041" style="stop-color:#CE510A;stop-opacity:0.6959"/>
			<stop offset="0.3929" style="stop-color:#DD6A11;stop-opacity:0.6071"/>
			<stop offset="0.4784" style="stop-color:#F18A1B;stop-opacity:0.5216"/>
			<stop offset="0.5" style="stop-color:#F7931E;stop-opacity:0.5"/>
			<stop offset="0.5138" style="stop-color:#F38D1C;stop-opacity:0.5138"/>
			<stop offset="0.604" style="stop-color:#DF6C12;stop-opacity:0.604"/>
			<stop offset="0.6967" style="stop-color:#CF520A;stop-opacity:0.6967"/>
			<stop offset="0.7919" style="stop-color:#C34004;stop-opacity:0.7919"/>
			<stop offset="0.8909" style="stop-color:#BC3501;stop-opacity:0.8909"/>
			<stop offset="1" style="stop-color:#BA3100"/>
		</linearGradient>
		<path d="M154.992,191.743c-53.132,20.806-105.97,42.358-158.506,64.615&#10;&#9;&#9;&#9;c20.512,14.528,41.024,29.047,61.536,43.574c5.926,4.192,12.418,9.339,12.957,16.588c0.398,5.376-2.683,10.338-5.64,14.853&#10;&#9;&#9;&#9;c-15.067,22.971-30.127,45.949-45.192,68.928c58.507-5.869,119.818,18.103,175.165-1.752c7.133-2.556,16.685-5.132,20.981,1.117&#10;&#9;&#9;&#9;c1.475,2.142,1.823,4.853,1.914,7.451c0.655,19.463-10.893,37.175-23.58,51.951c-12.693,14.77-27.279,28.585-34.934,46.493&#10;&#9;&#9;&#9;c11.265,7.381,27.052-6.575,39.226-0.815c6.373,3.01,9.278,10.404,10.843,17.282c7.66,33.691-2.62,71.323,13.224,102.029&#10;&#9;&#9;&#9;c15.173-19.999,30.348-40.004,45.52-60.007c4.854-6.386,10.374-13.229,18.226-14.88c6.341-1.331,12.809,1.047,18.854,3.383&#10;&#9;&#9;&#9;c10.458,4.052,20.919,8.103,31.379,12.148c2.662,1.031,5.829,2.021,8.214,0.451c3.548-2.332,2.199-7.716,0.795-11.721&#10;&#9;&#9;&#9;c-13.8-39.301,7.46-81.444,28.071-117.639c2.877-5.075,6.474-10.671,12.223-11.701c5.937-1.052,11.344,3.238,15.929,7.155&#10;&#9;&#9;&#9;c39.13,33.435,84.575,59.464,133.215,76.297c1.596,0.546,3.505,1.043,4.819,0c1.267-1,1.286-2.862,1.202-4.469&#10;&#9;&#9;&#9;c-2.078-36.509-8.409-72.784-18.837-107.84c-0.949-3.217-1.857-6.978,0.133-9.666c2.168-2.934,6.478-2.92,10.11-2.609&#10;&#9;&#9;&#9;c17.559,1.479,35.109,2.961,52.678,4.445c-12.213-29.548-40.664-48.815-59.305-74.789c-1.698-2.351-3.375-4.996-3.249-7.899&#10;&#9;&#9;&#9;c0.226-5.415,6.238-8.441,11.417-10.051c33.52-10.451,70.318-10.097,103.63,1.004c-28.175-43.758-63.355-84.205-108.272-110.5&#10;&#9;&#9;&#9;c-44.92-26.285-100.586-37.107-150.068-20.979l-3.257-2.157c-24.087-45.168-66.427-80.253-115.293-95.526&#10;&#9;&#9;&#9;c0.151,16.841,3.077,33.649,8.646,49.545c-68.102,0.582-136.101,11.518-200.945,32.324c25.257,16.451,55.689,33.148,84.741,41.185&#10;&#9;&#9;&#9;L154.992,191.743z" id="el_dkfI-6DX1s"/>
	</g>
	<g id="el_O65w9b0eiqZ">
		
			<radialGradient id="SVGID_2_" cx="443.502" cy="418.9297" r="285.7722" gradientTransform="matrix(-0.3085 -0.9512 0.9512 -0.3085 114.3428 723.1191)" gradientUnits="userSpaceOnUse">
			<stop offset="0" style="stop-color:#BA3100"/>
			<stop offset="0.2111" style="stop-color:#BC3401;stop-opacity:0.8863"/>
			<stop offset="0.3933" style="stop-color:#C33F04;stop-opacity:0.7882"/>
			<stop offset="0.5648" style="stop-color:#CE510A;stop-opacity:0.6959"/>
			<stop offset="0.7297" style="stop-color:#DD6A11;stop-opacity:0.6071"/>
			<stop offset="0.8885" style="stop-color:#F18A1B;stop-opacity:0.5216"/>
			<stop offset="0.9286" style="stop-color:#F7931E;stop-opacity:0.5"/>
		</radialGradient>
		<path d="M154.992,191.743c-53.132,20.806-105.97,42.358-158.506,64.615&#10;&#9;&#9;&#9;c20.512,14.528,41.024,29.047,61.536,43.574c5.926,4.192,12.418,9.339,12.957,16.588c0.398,5.376-2.683,10.338-5.64,14.853&#10;&#9;&#9;&#9;c-15.067,22.971-30.127,45.949-45.192,68.928c58.507-5.869,119.818,18.103,175.165-1.752c7.133-2.556,16.685-5.132,20.981,1.117&#10;&#9;&#9;&#9;c1.475,2.142,1.823,4.853,1.914,7.451c0.655,19.463-10.893,37.175-23.58,51.951c-12.693,14.77-27.279,28.585-34.934,46.493&#10;&#9;&#9;&#9;c11.265,7.381,27.052-6.575,39.226-0.815c6.373,3.01,9.278,10.404,10.843,17.282c7.66,33.691-2.62,71.323,13.224,102.029&#10;&#9;&#9;&#9;c15.173-19.999,30.348-40.004,45.52-60.007c4.854-6.386,10.374-13.229,18.226-14.88c6.341-1.331,12.809,1.047,18.854,3.383&#10;&#9;&#9;&#9;c10.458,4.052,20.919,8.103,31.379,12.148c2.662,1.031,5.829,2.021,8.214,0.451c3.548-2.332,2.199-7.716,0.795-11.721&#10;&#9;&#9;&#9;c-13.8-39.301,7.46-81.444,28.071-117.639c2.877-5.075,6.474-10.671,12.223-11.701c5.937-1.052,11.344,3.238,15.929,7.155&#10;&#9;&#9;&#9;c39.13,33.435,84.575,59.464,133.215,76.297c1.596,0.546,3.505,1.043,4.819,0c1.267-1,1.286-2.862,1.202-4.469&#10;&#9;&#9;&#9;c-2.078-36.509-8.409-72.784-18.837-107.84c-0.949-3.217-1.857-6.978,0.133-9.666c2.168-2.934,6.478-2.92,10.11-2.609&#10;&#9;&#9;&#9;c17.559,1.479,35.109,2.961,52.678,4.445c-12.213-29.548-40.664-48.815-59.305-74.789c-1.698-2.351-3.375-4.996-3.249-7.899&#10;&#9;&#9;&#9;c0.226-5.415,6.238-8.441,11.417-10.051c33.52-10.451,70.318-10.097,103.63,1.004c-28.175-43.758-63.355-84.205-108.272-110.5&#10;&#9;&#9;&#9;c-44.92-26.285-100.586-37.107-150.068-20.979l-3.257-2.157c-24.087-45.168-66.427-80.253-115.293-95.526&#10;&#9;&#9;&#9;c0.151,16.841,3.077,33.649,8.646,49.545c-68.102,0.582-136.101,11.518-200.945,32.324c25.257,16.451,55.689,33.148,84.741,41.185&#10;&#9;&#9;&#9;L154.992,191.743z" id="el_8YC7oyTTILo"/>
		<g id="el_IuHaQbu1n5x">
			<path d="M154.593,190.297c-53.249,20.861-106.202,42.466-158.864,64.766c-1.139,0.482-0.802,2.023,0,2.591&#10;&#9;&#9;&#9;&#9;c12.954,9.174,25.909,18.347,38.865,27.52c6.478,4.586,12.955,9.173,19.433,13.76c6.258,4.432,14.367,9.247,15.452,17.586&#10;&#9;&#9;&#9;&#9;c0.944,7.255-6.041,15.018-9.74,20.66c-4.663,7.11-9.326,14.222-13.988,21.333c-8.967,13.677-17.933,27.354-26.899,41.031&#10;&#9;&#9;&#9;&#9;c-0.589,0.899,0.172,2.363,1.295,2.257c54.04-5.143,108.401,14.449,162.034,2.188c5.891-1.347,11.509-3.437,17.262-5.231&#10;&#9;&#9;&#9;&#9;c7.205-2.248,15.962-2.844,17.171,6.793c1.682,13.402-4.944,27.105-12.002,37.996c-13.992,21.591-35.65,37.313-46.215,61.259&#10;&#9;&#9;&#9;&#9;c-0.331,0.75-0.225,1.602,0.538,2.052c9.624,5.678,20.359-0.54,30.303-1.875c18.174-2.439,20.324,20.716,21.515,33.611&#10;&#9;&#9;&#9;&#9;c2.668,28.903-2.541,59.296,10.937,86.222c0.558,1.114,1.97,0.818,2.591,0c9.983-13.158,19.966-26.317,29.948-39.477&#10;&#9;&#9;&#9;&#9;c4.792-6.317,9.583-12.634,14.374-18.951c4.665-6.15,9.497-12.774,17.082-15.4c7.568-2.621,16.246,1.753,23.193,4.443&#10;&#9;&#9;&#9;&#9;c7.998,3.099,15.997,6.195,23.996,9.291c3.624,1.401,9.669,4.646,13.365,1.493c3.662-3.124,2.823-7.785,1.596-11.941&#10;&#9;&#9;&#9;&#9;c-4.405-14.912-5.827-28.888-3.225-44.328c2.537-15.054,8.254-29.481,14.728-43.227c3.082-6.544,6.462-12.946,9.921-19.296&#10;&#9;&#9;&#9;&#9;c3.383-6.209,6.535-13.17,11.344-18.425c7.122-7.78,15.843-0.679,21.854,4.436c5.383,4.58,10.915,8.981,16.523,13.282&#10;&#9;&#9;&#9;&#9;c21.114,16.191,43.882,30.19,67.695,42.037c11.508,5.725,23.315,10.841,35.3,15.479c5.894,2.28,21.21,11.012,20.957-1.154&#10;&#9;&#9;&#9;&#9;c-0.598-28.723-6.098-58.111-12.851-85.945c-1.664-6.859-3.524-13.67-5.495-20.447c-1.357-4.669-3.245-11.398,4.028-12.307&#10;&#9;&#9;&#9;&#9;c3.266-0.408,6.826,0.304,10.076,0.577c15.608,1.315,31.217,2.634,46.825,3.952c1.266,0.106,1.691-1.324,1.295-2.257&#10;&#9;&#9;&#9;&#9;c-6.315-14.879-16.565-27.301-27.477-39.039c-5.67-6.1-11.522-12.026-17.179-18.139c-6.013-6.497-14.036-14.005-17.338-22.336&#10;&#9;&#9;&#9;&#9;c-5.708-14.403,44.858-18.03,52.377-18.396c20.45-0.994,40.982,2.021,60.416,8.377c1.236,0.405,2.397-1.114,1.693-2.204&#10;&#9;&#9;&#9;&#9;c-29.201-45.197-65.734-86.985-113.19-113.533c-23.771-13.298-50.14-21.909-77.181-25.108&#10;&#9;&#9;&#9;&#9;c-13.816-1.634-27.814-1.516-41.612,0.207c-6.202,0.774-12.336,1.98-18.401,3.479c-1.041,0.257-8.344,3.039-8.735,2.779&#10;&#9;&#9;&#9;&#9;c-2.485-1.646-3.212-2.848-4.694-5.497c-24.47-43.724-66.331-77.075-113.972-92.178c-0.926-0.293-1.913,0.497-1.899,1.446&#10;&#9;&#9;&#9;&#9;c0.257,17.048,3.16,33.816,8.7,49.944c0.482-0.633,0.964-1.266,1.446-1.899c-68.299,0.681-136.277,11.602-201.344,32.378&#10;&#9;&#9;&#9;&#9;c-1.262,0.403-1.461,2.026-0.358,2.742c14.013,9.094,28.425,17.543,43.397,24.966c7.136,3.538,14.43,6.749,21.833,9.683&#10;&#9;&#9;&#9;&#9;c3.828,1.517,7.71,2.89,11.616,4.189c3.197,1.063,6.937,1.169,8.79,3.988c1.058,1.609,3.657,0.108,2.591-1.514&#10;&#9;&#9;&#9;&#9;c-0.562-0.854-1.225-2.558-2.329-2.869c-3.892-1.098-7.742-2.308-11.568-3.617c-8.933-3.058-17.615-6.814-26.14-10.86&#10;&#9;&#9;&#9;&#9;c-16.18-7.68-31.662-16.813-46.674-26.557c-0.12,0.914-0.239,1.828-0.358,2.742c64.826-20.699,132.499-31.592,200.546-32.271&#10;&#9;&#9;&#9;&#9;c0.927-0.009,1.769-0.959,1.446-1.899c-5.456-15.883-8.339-32.352-8.593-49.146c-0.633,0.482-1.266,0.964-1.899,1.446&#10;&#9;&#9;&#9;&#9;c25.212,7.993,48.465,21.047,68.626,38.144c9.76,8.276,18.626,17.577,26.631,27.549c4.082,5.087,7.835,10.433,11.378,15.906&#10;&#9;&#9;&#9;&#9;c1.667,2.578,3.242,5.213,4.784,7.867c1.06,1.824,1.961,4.88,3.757,6.069c1.011,0.669,2.188,1.822,3.374,2.148&#10;&#9;&#9;&#9;&#9;c1.826,0.502,5.41-1.422,7.215-1.932c7.358-2.081,14.905-3.487,22.487-4.434c13.81-1.724,27.826-1.436,41.626,0.197&#10;&#9;&#9;&#9;&#9;c28.725,3.398,56.479,13.855,81.205,28.676c43.649,26.163,77.565,65.958,104.911,108.283c0.564-0.735,1.129-1.469,1.693-2.204&#10;&#9;&#9;&#9;&#9;c-20.933-6.847-42.86-9.592-64.839-8.29c-10.405,0.617-20.738,2.331-30.851,4.823c-7.079,1.746-17.014,3.574-20.561,10.869&#10;&#9;&#9;&#9;&#9;c-3.156,6.494,4.041,13.629,7.681,18.212c6.142,7.732,13.037,14.846,19.858,21.971c13.398,13.996,26.852,28.277,34.524,46.352&#10;&#9;&#9;&#9;&#9;c0.432-0.752,0.863-1.505,1.295-2.257c-16.259-1.374-32.518-2.746-48.776-4.116c-4.054-0.342-10.89-1.736-14.164,1.753&#10;&#9;&#9;&#9;&#9;c-3.845,4.095-2.32,9.064-0.882,13.938c9.229,31.262,15.012,63.512,17.594,95.993c0.286,3.603,0.595,7.224,0.67,10.837&#10;&#9;&#9;&#9;&#9;c0.095,4.524-9.31-0.039-10.687-0.538c-7.489-2.717-14.883-5.696-22.197-8.851c-13.277-5.726-26.213-12.229-38.817-19.31&#10;&#9;&#9;&#9;&#9;c-12.606-7.081-24.794-14.896-36.591-23.254c-11.752-8.324-22.285-18.294-34.026-26.553c-9.554-6.72-17.963-1.918-23.506,6.869&#10;&#9;&#9;&#9;&#9;c-7.475,11.851-13.875,24.719-19.668,37.459c-11.159,24.54-18.557,51.947-11.503,78.7c0.788,2.987,1.954,5.85,2.683,8.854&#10;&#9;&#9;&#9;&#9;c0.816,3.369,0.436,7.642-5.499,6.491c-1.566-0.304-3.154-1.067-4.629-1.638c-7.384-2.856-14.768-5.716-22.15-8.575&#10;&#9;&#9;&#9;&#9;c-11.467-4.441-24.528-10.9-35.633-2.107c-4.638,3.673-8.169,8.332-11.721,13.014c-4.791,6.316-9.583,12.634-14.374,18.95&#10;&#9;&#9;&#9;&#9;c-9.982,13.159-19.965,26.318-29.948,39.478c0.864,0,1.727,0,2.591,0c-14.289-28.545-7.026-61.313-11.313-91.789&#10;&#9;&#9;&#9;&#9;c-1.581-11.24-4.133-26.334-17.163-29.346c-11.757-2.718-24.226,8.666-35.355,2.101c0.179,0.684,0.358,1.368,0.538,2.052&#10;&#9;&#9;&#9;&#9;c11.43-25.904,35.71-42.766,49.747-67.016c5.747-9.929,11.249-24.021,8.63-35.713c-2.462-10.991-13.334-10.03-21.995-7.328&#10;&#9;&#9;&#9;&#9;c-14.347,4.477-28.148,7.713-43.237,8.55c-14.774,0.819-29.612-0.213-44.323-1.559c-29.819-2.728-59.669-7.307-89.663-4.452&#10;&#9;&#9;&#9;&#9;c0.432,0.752,0.863,1.505,1.295,2.257c9.684-14.771,19.367-29.543,29.051-44.313c5.021-7.658,10.043-15.315,15.065-22.974&#10;&#9;&#9;&#9;&#9;c3.743-5.706,7.664-11.542,6.736-18.673c-0.747-5.737-5.384-10.157-9.64-13.587c-6.377-5.14-13.386-9.609-20.068-14.341&#10;&#9;&#9;&#9;&#9;c-15.114-10.702-30.229-21.403-45.343-32.107c0,0.864,0,1.727,0,2.591c52.423-22.2,105.141-43.698,158.148-64.464&#10;&#9;&#9;&#9;&#9;C157.171,192.492,156.397,189.59,154.593,190.297z" id="el_mXMJmoaGqZx"/>
		</g>
	</g>
	<path id="el_Aif5fOhmMN5" d="M256.686,145.797c16.369,5.686,31.008,15.272,46.5,22.81c-8.623-1.485-17.178-3.217-25.53-4.696&#10;&#9;&#9;c-30.987-5.483-62.01-5.052-92.755,1.786c-3.915,0.864-1.963,6.797,1.922,5.927c34.071-7.573,66.519-5.378,100.238,0.474&#10;&#9;&#9;c-26.052,12.123-50.525,29.575-80.208,29.604c-4.023,0.002-3.726,6.231,0.277,6.227c33.82-0.029,60.754-21.781,90.902-33.837&#10;&#9;&#9;c10.11,1.836,20.434,3.346,30.688,3.826c0.21,0.049,0.417,0.107,0.628,0.155c0.592,0.12,1.115,0.076,1.583-0.069&#10;&#9;&#9;c14.64,0.461,29.096-1.273,42.57-7.288c-13.756,18.179-32.689,31.065-51.825,43.09c-23.001,14.463-46.494,28.143-70.439,40.979&#10;&#9;&#9;c-9.036,4.841-18.179,9.71-27.436,14.458c-16.697,1.642-33.388,0.638-50.073-0.563c-12.86-10.45-27.968-17.49-44.646-18.646&#10;&#9;&#9;c-4.007-0.283-3.685,5.952,0.276,6.227c11.827,0.819,22.897,5.184,32.706,11.585c-17.837-1.232-35.664-2.024-53.482,0.659&#10;&#9;&#9;c-3.934,0.59-3.689,6.827,0.279,6.234c20.865-3.149,41.744-1.53,62.633-0.009c0.667,0.299,1.338,0.314,1.961,0.144&#10;&#9;&#9;c12.09,0.874,24.178,1.656,36.271,1.422c-35.89,17.521-73.542,32.026-113.368,34.658c-4.008,0.255-3.73,6.497,0.276,6.227&#10;&#9;&#9;c46.942-3.1,90.729-22.293,132.328-43.67c-8.355,6.243-16.334,12.98-23.647,20.428c-15.176,15.458-26.546,34.633-45.644,45.803&#10;&#9;&#9;c-3.464,2.028-0.03,7.239,3.434,5.211c17.589-10.291,28.683-27.045,42.114-41.835c14.921-16.437,33.024-29.436,51.831-41.057&#10;&#9;&#9;c35.167-21.732,72.964-39.419,103.294-68.098c0.229-0.207,0.397-0.433,0.535-0.657c0.934-0.826,1.859-1.671,2.77-2.521&#10;&#9;&#9;c-0.468,0.963-0.94,1.935-1.414,2.9c-13.916,26.895-25.849,55.525-44.156,79.673c-18.385,24.258-41.738,44.115-64.861,63.671&#10;&#9;&#9;c-3.023,2.556,0.367,7.804,3.431,5.204c23.53-19.899,47.378-40.033,66.082-64.724c5.301-6.983,10.063-14.322,14.506-21.877&#10;&#9;&#9;c-1.412,4.155-2.778,8.31-4.111,12.47c-10.777,33.613-19.938,67.786-27.874,102.186c-0.28,0.254-0.533,0.57-0.733,0.986&#10;&#9;&#9;c-17.408,35.865-44.798,65.609-62.514,101.309c-1.785,3.598,3.768,6.437,5.555,2.831c14.719-29.658,36.106-55.226,52.908-83.595&#10;&#9;&#9;c-3.835,17.831-7.344,35.743-10.474,53.72c-3.318,19.005-6.078,38.109-14.225,55.787c-1.675,3.646,3.873,6.495,5.557,2.838&#10;&#9;&#9;c7.336-15.91,10.562-32.881,13.516-50.052c2.075-12.066,4.282-24.113,6.625-36.135c4.586,12.395,9.175,24.787,13.762,37.188&#10;&#9;&#9;c1.389,3.754,7.328,1.843,5.934-1.925c-5.78-15.608-11.553-31.22-17.333-46.837c-0.01-0.021-0.027-0.046-0.036-0.074&#10;&#9;&#9;c0.656-3.207,1.306-6.421,1.985-9.628c8.191-38.576,17.969-76.848,29.471-114.572c1.085-3.557,2.191-7.114,3.331-10.672&#10;&#9;&#9;c0.136,22.586,3.558,45.012,10.101,66.534c-2.451,8.477-3.699,17.156-3.781,25.979c-0.04,4.021,6.195,3.723,6.231-0.274&#10;&#9;&#9;c0.051-4.82,0.521-9.55,1.326-14.232c5.291,14.629,12.048,28.751,20.243,42.143c2.093,3.423,7.298-0.005,5.203-3.435&#10;&#9;&#9;c-9.696-15.852-17.343-32.837-22.862-50.48c-0.024-0.437-0.142-0.819-0.345-1.159c-8.511-27.707-11.748-56.992-9.137-86.039&#10;&#9;&#9;c4.505-12.87,9.419-25.655,14.869-38.185c1.306,14.386,5.52,28.265,11.903,41.167c11.254,26.763,28.397,51.102,45.639,74.566&#10;&#9;&#9;c3.307,4.495,6.647,8.979,10.011,13.457c1.355,19.54,7.261,37.986,15.67,55.62c1.705,3.572,7.655,1.696,5.936-1.926&#10;&#9;&#9;c-6.723-14.087-11.832-28.588-14.208-43.85c22.107,29.402,44.102,59.007,59.519,92.569c1.65,3.598,7.605,1.713,5.927-1.923&#10;&#9;&#9;c-18.135-39.488-45.01-73.443-70.787-108.099c-10.122-13.608-20.535-27.512-29.958-41.994c2.203,2.226,4.466,4.393,6.794,6.476&#10;&#9;&#9;c31.689,28.432,72.6,43.743,111.965,58.215c3.726,1.365,6.6-4.176,2.829-5.558c-50.178-18.45-112.263-45.048-140.367-92.362&#10;&#9;&#9;c-6.972-14.88-12.155-30.479-14.409-47.068c-0.07-0.507-0.227-0.94-0.459-1.317c-0.21-3.534-0.261-7.152-0.145-10.855&#10;&#9;&#9;c1.81-3.535,3.636-7.043,5.521-10.509c0.273-0.502,0.38-0.989,0.38-1.449c1.489-2.885,3-5.754,4.56-8.591&#10;&#9;&#9;c8.674,25.518,39.277,42.691,61.646,53.279c32.513,15.391,67.872,23.495,102.786,31.409c3.922,0.888,5.243-5.209,1.328-6.1&#10;&#9;&#9;c-31.091-7.041-62.5-14.149-91.933-26.68c-2.911-1.232-5.8-2.541-8.669-3.887c20.38,2.895,41.18,1.912,61.238-3.229&#10;&#9;&#9;c3.888-0.996,1.948-6.925-1.925-5.934c-25.675,6.58-52.588,5.858-78.099-1.074c-0.274-0.075-0.526-0.109-0.771-0.117&#10;&#9;&#9;c-4.396-2.638-8.686-5.426-12.834-8.432c-11.94-8.658-25.911-21.532-28.371-36.784c-0.008-0.052-0.022-0.095-0.04-0.15&#10;&#9;&#9;c15.162-26.005,33.702-49.822,57.116-69.574c3.023-2.557-0.361-7.798-3.437-5.21c-21.601,18.229-39.174,39.736-53.813,63.193&#10;&#9;&#9;c-0.214,0.084-0.429,0.193-0.634,0.33c-15.688,10.181-32.899,12.675-50.442,11.87c-25.927-5.69-47.001-23.443-71.875-32.079&#10;&#9;&#9;C254.229,138.391,252.94,144.501,256.686,145.797z"/>
</g></g></g></g>
</svg>