<?xml version="1.0" encoding="utf-8"?>
<!-- Generator: Adobe Illustrator 16.0.0, SVG Export Plug-In . SVG Version: 6.00 Build 0)  -->
<!DOCTYPE svg PUBLIC "-//W3C//DTD SVG 1.1//EN" "http://www.w3.org/Graphics/SVG/1.1/DTD/svg11.dtd">
<svg version="1.1" id="Layer_1" xmlns="http://www.w3.org/2000/svg" xmlns:xlink="http://www.w3.org/1999/xlink" x="0px" y="0px"
	 width="300px" height="300px" viewBox="0 0 300 300" enable-background="new 0 0 300 300" xml:space="preserve">
<linearGradient id="SVGID_1_" gradientUnits="userSpaceOnUse" x1="84.4795" y1="170.9404" x2="215.5186" y2="170.9404">
	<stop  offset="0.0056" style="stop-color:#EC7D4C"/>
	<stop  offset="0.644" style="stop-color:#F3AA48"/>
	<stop  offset="1" style="stop-color:#F8C642"/>
</linearGradient>
<path fill="url(#SVGID_1_)" stroke="#F7941E" stroke-width="0.5" stroke-miterlimit="10" d="M209.28,215.835l6.238-20.337
	c0-37.352-19.685-56.903-19.685-56.903l-9.87-12.549h-71.93l-9.87,12.549c0,0-19.684,19.552-19.684,56.903l6.238,20.337H209.28
	L209.28,215.835z"/>
<path opacity="0.1" fill="#010101" enable-background="new    " d="M117.368,138.595l9.869-12.549h-13.203l-9.869,12.549
	c0,0-19.685,19.551-19.685,56.903l6.239,20.337h13.203l-6.239-20.337C97.683,158.146,117.368,138.595,117.368,138.595z"/>
<linearGradient id="SVGID_2_" gradientUnits="userSpaceOnUse" x1="54.0015" y1="230.1777" x2="246" y2="230.1777">
	<stop  offset="0" style="stop-color:#77B2C6"/>
	<stop  offset="0.5" style="stop-color:#349AB4"/>
	<stop  offset="1" style="stop-color:#0089A6"/>
</linearGradient>
<path fill="url(#SVGID_2_)" d="M238.332,178.605c-0.023,0.022-0.046,0.047-0.069,0.07l-12.271,12.507
	c-5.651,5.761-14.93,5.761-20.58,0l-12.271-12.507c-5.651-5.76-14.93-5.76-20.579,0l-12.271,12.507
	c-5.651,5.761-14.929,5.761-20.58,0l-12.271-12.507c-5.651-5.76-14.929-5.76-20.579,0l-12.271,12.507
	c-5.651,5.761-14.929,5.761-20.579,0l-12.271-12.507c-0.023-0.023-0.046-0.047-0.069-0.07c-2.94-2.956-8.002-0.521-7.65,3.634
	c6.185,72.875,52.126,103.76,95.982,103.76s89.798-30.885,95.981-103.76C246.334,178.086,241.271,175.649,238.332,178.605z"/>
<g opacity="0.1">
	<path fill="#010101" d="M67.432,184.48l-5.694-5.804c-0.023-0.023-0.046-0.048-0.07-0.07c-2.939-2.956-8.002-0.521-7.65,3.634
		C60.202,255.114,106.145,286,150,286c2.198,0,4.4-0.082,6.601-0.238C115.298,282.828,74.01,252.136,67.432,184.48z"/>
</g>
<linearGradient id="SVGID_3_" gradientUnits="userSpaceOnUse" x1="84.5103" y1="82.8262" x2="215.4893" y2="82.8262">
	<stop  offset="0.0056" style="stop-color:#EC7D4C"/>
	<stop  offset="0.2374" style="stop-color:#EF934B"/>
	<stop  offset="0.5692" style="stop-color:#F4AE48"/>
	<stop  offset="0.8351" style="stop-color:#F7BF44"/>
	<stop  offset="1" style="stop-color:#F8C642"/>
</linearGradient>
<path fill="url(#SVGID_3_)" stroke="#F7941E" stroke-width="0.5" stroke-miterlimit="10" d="M212.627,90.645
	c-3.072-6.191-5.36-12.721-7.11-19.407c-5.279-20.167-21.257-36.001-41.502-41.083l0,0c7.541-7.455,8.81-14.046,8.81-14.046
	s-11.931-1.108-18.541,3.736c-2.542,1.863-6.025,1.863-8.567,0c-6.61-4.843-18.542-3.736-18.542-3.736s1.268,6.591,8.81,14.046l0,0
	c-20.245,5.082-36.223,20.918-41.502,41.083c-1.75,6.686-4.039,13.215-7.11,19.407c-7.382,14.88-4.938,59.007,62.628,59.007
	S220.011,105.525,212.627,90.645z"/>
<g>
	<path opacity="0.1" fill="#010101" d="M135.985,30.154c-20.246,5.083-36.223,20.917-41.502,41.084
		c-1.751,6.686-4.039,13.215-7.11,19.407c-7.383,14.88-4.938,59.007,62.627,59.007c2.275,0,4.471-0.054,6.601-0.151
		c-61.112-2.792-63.16-44.477-56.026-58.855c3.072-6.191,5.36-12.721,7.111-19.407C112.965,51.071,115.739,35.237,135.985,30.154
		L135.985,30.154z"/>
</g>
<linearGradient id="SVGID_4_" gradientUnits="userSpaceOnUse" x1="129.2915" y1="106.8809" x2="170.709" y2="106.8809">
	<stop  offset="0" style="stop-color:#A84927"/>
	<stop  offset="0.0017" style="stop-color:#A94927"/>
	<stop  offset="0.1124" style="stop-color:#C26231"/>
	<stop  offset="0.2273" style="stop-color:#D67537"/>
	<stop  offset="0.3487" style="stop-color:#E5833B"/>
	<stop  offset="0.4795" style="stop-color:#EE8C3E"/>
	<stop  offset="0.6369" style="stop-color:#F3903F"/>
	<stop  offset="0.7478" style="stop-color:#F49739"/>
	<stop  offset="0.9374" style="stop-color:#F8AB23"/>
	<stop  offset="1" style="stop-color:#FAB217"/>
</linearGradient>
<path fill="url(#SVGID_4_)" stroke="#F7941E" stroke-width="0.25" stroke-miterlimit="10" d="M170.705,101.849L150,94.925
	l-20.705,6.926c0,0.024-0.003,0.049-0.003,0.073c0,9.341,9.272,16.913,20.709,16.913s20.708-7.572,20.708-16.913
	C170.708,101.898,170.705,101.875,170.705,101.849z"/>
<linearGradient id="SVGID_5_" gradientUnits="userSpaceOnUse" x1="129.2944" y1="94.9248" x2="170.7051" y2="94.9248">
	<stop  offset="0" style="stop-color:#D4622A"/>
	<stop  offset="0.0687" style="stop-color:#DB6628"/>
	<stop  offset="0.2608" style="stop-color:#EB7123"/>
	<stop  offset="0.3867" style="stop-color:#F37521"/>
	<stop  offset="0.5036" style="stop-color:#F37721"/>
	<stop  offset="0.598" style="stop-color:#F37E21"/>
	<stop  offset="0.6846" style="stop-color:#F38A23"/>
	<stop  offset="0.7665" style="stop-color:#F39A25"/>
	<stop  offset="0.8452" style="stop-color:#F4B028"/>
	<stop  offset="0.9213" style="stop-color:#F6CA2C"/>
	<stop  offset="0.9941" style="stop-color:#F9E932"/>
	<stop  offset="1" style="stop-color:#F9ED32"/>
</linearGradient>
<path fill="url(#SVGID_5_)" stroke="#F7941E" stroke-width="0.25" stroke-miterlimit="10" d="M150,104.84
	c7.781,0,14.953-1.114,20.685-2.99l0.021-0.001c-0.049-9.307-9.3-16.839-20.706-16.839c-11.406,0-20.658,7.533-20.705,16.841
	l0.021-0.001C135.048,103.726,142.219,104.84,150,104.84z"/>
<circle fill="#010101" cx="123.792" cy="80.512" r="6.043"/>
<circle fill="#010101" cx="176.205" cy="80.512" r="6.043"/>
<ellipse fill="#F9ED32" cx="123.174" cy="80.582" rx="2.618" ry="2.244"/>
<ellipse fill="#F9ED32" cx="176.205" cy="80.582" rx="2.618" ry="2.244"/>
<ellipse display="none" cx="123.359" cy="80.688" rx="0.891" ry="0.719"/>
<ellipse display="none" cx="176.359" cy="80.688" rx="0.891" ry="0.719"/>
</svg>
