<?xml version="1.0" encoding="utf-8"?>
<!-- Generator: Adobe Illustrator 16.0.0, SVG Export Plug-In . SVG Version: 6.00 Build 0)  -->
<!DOCTYPE svg PUBLIC "-//W3C//DTD SVG 1.1//EN" "http://www.w3.org/Graphics/SVG/1.1/DTD/svg11.dtd">
<svg version="1.1" id="Egg3" xmlns="http://www.w3.org/2000/svg" xmlns:xlink="http://www.w3.org/1999/xlink" x="0px" y="0px"
	 width="300px" height="300px" viewBox="0 0 300 300" enable-background="new 0 0 300 300" xml:space="preserve">
<g id="Egg3_1_">
	<g id="Egg">
		<path id="Body" fill="#60A8DC" d="M233.348,222.506c-14.64,33.438-41.242,57.16-72.407,61.696c-3.59,0.53-7.241,0.798-10.94,0.798
			c-58.724,0-115.332-72.561-88.692-171.111c3.749-13.896,8.951-27.411,15.318-39.761C94.145,40.154,120.512,15,150,15
			c3.656,0,7.263,0.388,10.809,1.131c25.083,5.24,47.221,28.236,62.565,58.002C246.397,118.764,253.988,175.466,233.348,222.506z"/>
		<linearGradient id="Gradient_1_" gradientUnits="userSpaceOnUse" x1="54.5356" y1="150" x2="245.3848" y2="150">
			<stop  offset="0" style="stop-color:#CCE0F4"/>
			<stop  offset="0.074" style="stop-color:#C3DAF2"/>
			<stop  offset="0.1971" style="stop-color:#A9CCEC"/>
			<stop  offset="0.354" style="stop-color:#7EB8E4"/>
			<stop  offset="0.5371" style="stop-color:#379FD9"/>
			<stop  offset="0.5674" style="stop-color:#1F9CD8"/>
			<stop  offset="0.8652" style="stop-color:#0C75BC"/>
			<stop  offset="0.9944" style="stop-color:#005C97"/>
		</linearGradient>
		<path id="Gradient" fill="url(#Gradient_1_)" stroke="#2E368F" stroke-miterlimit="10" d="M233.348,222.506
			c-14.64,33.438-41.242,57.16-72.407,61.696c-3.59,0.53-7.241,0.798-10.94,0.798c-58.724,0-115.332-72.561-88.692-171.111
			c3.749-13.896,8.951-27.411,15.318-39.761C94.145,40.154,120.512,15,150,15c3.656,0,7.263,0.388,10.809,1.131
			c25.083,5.24,47.221,28.236,62.565,58.002C246.397,118.764,253.988,175.466,233.348,222.506z"/>
	</g>
	<g id="Pattern">
		<path fill="#4899D3" stroke="#2E368F" stroke-miterlimit="10" d="M238.692,113.895c-0.442-0.18-0.853-0.442-1.214-0.793
			l-12.661-12.279c-1.497-1.454-3.88-1.454-5.377,0l-12.656,12.274c-1.497,1.453-3.881,1.453-5.378,0l-12.661-12.274
			c-1.497-1.454-3.874-1.454-5.372,0l-12.661,12.274c-1.497,1.453-3.874,1.453-5.372,0l-12.661-12.274
			c-1.497-1.448-3.875-1.448-5.372,0l-12.656,12.274c-1.498,1.453-3.88,1.453-5.378,0l-12.656-12.274
			c-1.497-1.448-3.874-1.448-5.372,0l-12.661,12.274c-1.497,1.453-3.875,1.453-5.372,0l-12.662-12.274
			c-1.497-1.448-3.875-1.448-5.372,0l-12.656,12.274c-0.361,0.35-0.771,0.618-1.213,0.792c3.749-13.896,8.951-27.411,15.318-39.761
			c1.328-0.459,2.853-0.164,3.923,0.879L93.21,87.282c1.497,1.454,3.875,1.454,5.372,0l12.662-12.274
			c1.497-1.453,3.874-1.453,5.372,0l12.656,12.274c1.497,1.454,3.88,1.454,5.377,0l12.656-12.274c1.497-1.453,3.875-1.453,5.372,0
			l12.662,12.274c1.497,1.454,3.874,1.454,5.371,0l12.662-12.274c1.497-1.453,3.874-1.453,5.371,0l12.662,12.274
			c1.497,1.454,3.88,1.454,5.377,0l12.656-12.274c1.076-1.043,2.606-1.339,3.935-0.874
			C229.746,86.483,234.943,99.998,238.692,113.895z"/>
		<path fill="#4899D3" stroke="#2E368F" stroke-miterlimit="10" d="M245.49,162.892c0,1.48-0.021,2.951-0.065,4.415l-2.574,2.498
			c-1.496,1.453-3.874,1.453-5.372,0l-12.661-12.274c-1.497-1.453-3.88-1.453-5.377,0l-12.656,12.274
			c-1.497,1.453-3.881,1.453-5.378,0l-12.661-12.274c-1.497-1.453-3.874-1.453-5.372,0l-12.662,12.274
			c-1.497,1.453-3.874,1.453-5.371,0l-12.662-12.274c-1.497-1.453-3.874-1.453-5.372,0l-12.656,12.274
			c-1.497,1.453-3.88,1.453-5.377,0l-12.656-12.274c-1.497-1.453-3.874-1.453-5.372,0l-12.662,12.274
			c-1.498,1.453-3.875,1.453-5.372,0L80.549,157.53c-1.497-1.453-3.875-1.453-5.372,0l-12.656,12.274
			c-1.497,1.453-3.88,1.453-5.377,0l-2.568-2.492c-0.044-1.464-0.065-2.939-0.065-4.421c0-6.661,0.416-13.448,1.218-20.274
			l1.416,1.372c1.497,1.448,3.88,1.448,5.377,0l12.656-12.274c1.497-1.453,3.875-1.453,5.372-0.005l12.662,12.279
			c1.497,1.448,3.874,1.448,5.372,0l12.661-12.279c1.498-1.448,3.875-1.448,5.372,0.005l12.656,12.274
			c1.498,1.448,3.88,1.448,5.377,0l12.657-12.274c1.497-1.453,3.874-1.453,5.372-0.005l12.661,12.279
			c1.497,1.448,3.874,1.448,5.372,0l12.661-12.279c1.498-1.448,3.875-1.448,5.372,0l12.662,12.279c1.497,1.448,3.88,1.448,5.377,0
			l12.656-12.279c1.497-1.448,3.881-1.448,5.377,0l12.662,12.279c1.497,1.448,3.874,1.448,5.372,0l1.415-1.377
			C245.074,149.437,245.49,156.229,245.49,162.892z"/>
		<path fill="#4899D3" stroke="#2E368F" stroke-miterlimit="10" d="M240.534,201.767c-1.891,7.241-4.307,14.176-7.187,20.739
			l-8.53-8.273c-1.497-1.448-3.88-1.448-5.377,0l-12.656,12.279c-1.497,1.448-3.881,1.448-5.378,0l-12.661-12.274
			c-1.497-1.454-3.874-1.454-5.372,0l-12.662,12.274c-1.497,1.448-3.874,1.448-5.371,0l-12.662-12.274
			c-1.497-1.454-3.874-1.454-5.372,0l-12.656,12.274c-1.497,1.448-3.88,1.448-5.377,0l-12.656-12.274
			c-1.497-1.454-3.874-1.454-5.372,0l-12.662,12.274c-1.498,1.448-3.875,1.448-5.372,0l-12.662-12.274
			c-1.497-1.454-3.875-1.454-5.372,0l-8.525,8.269c-2.875-6.563-5.29-13.498-7.186-20.739c1.087,0.1,2.213-0.256,3.055-1.075
			l12.656-12.274c1.497-1.453,3.875-1.453,5.372,0l12.662,12.274c1.497,1.453,3.875,1.453,5.372,0l12.662-12.274
			c1.497-1.453,3.874-1.453,5.372,0l12.656,12.274c1.497,1.453,3.88,1.453,5.377,0l12.656-12.274c1.497-1.453,3.875-1.453,5.372,0
			l12.662,12.274c1.496,1.453,3.874,1.453,5.371,0l12.662-12.274c1.497-1.453,3.874-1.453,5.372,0l12.661,12.274
			c1.497,1.453,3.881,1.453,5.378,0l12.656-12.274c1.497-1.453,3.88-1.453,5.377,0l12.661,12.274
			C238.32,201.511,239.446,201.865,240.534,201.767z"/>
	</g>
	<g id="Pattern_Highlight_Dark">
		<path fill="#2C80C3" d="M75.177,100.823c1.497-1.448,3.875-1.448,5.372,0l4.831,4.683c2.044-6.481,4.399-12.836,7.039-18.996
			l-11.87-11.503c-1.071-1.043-2.596-1.339-3.923-0.879c-6.367,12.351-11.569,25.865-15.318,39.761
			C62.481,113.426,61.785,113.682,75.177,100.823z"/>
		<path fill="#2C80C3" d="M62.521,169.804l12.656-12.273c0.328-0.317,0.699-0.569,1.093-0.743
			c0.301-8.377,1.224-17.039,2.836-25.958c-1.328-0.454-2.853-0.159-3.929,0.885l-12.656,12.274c-1.497,1.448-3.88,1.448-5.377,0
			l-1.415-1.372c-0.957,8.129-1.396,16.546-1.153,24.695l2.568,2.491C58.642,171.258,61.024,171.258,62.521,169.804z"/>
		<path fill="#2C80C3" d="M62.521,200.69c-0.842,0.819-1.968,1.175-3.055,1.076c1.896,7.241,4.312,14.176,7.186,20.738l8.525-8.269
			c1.497-1.453,3.875-1.453,5.372,0l6.88,6.667c-4.334-10.229-7.568-21.471-9.438-33.575
			C75.117,187.235,75.12,189.021,62.521,200.69z"/>
	</g>
</g>
</svg>
