<?xml version="1.0" encoding="utf-8"?>
<!-- Generator: Adobe Illustrator 16.0.0, SVG Export Plug-In . SVG Version: 6.00 Build 0)  -->
<!DOCTYPE svg PUBLIC "-//W3C//DTD SVG 1.1//EN" "http://www.w3.org/Graphics/SVG/1.1/DTD/svg11.dtd">
<svg version="1.1" id="Layer_1" xmlns="http://www.w3.org/2000/svg" xmlns:xlink="http://www.w3.org/1999/xlink" x="0px" y="0px"
	 width="300px" height="300px" viewBox="0 0 300 300" enable-background="new 0 0 300 300" xml:space="preserve">
<g id="Egg4">
	<g>
		<g id="Egg_7_">
			<path id="Body_7_" fill="#F59FBF" d="M242.371,200.353c-1.714,8.792-4.087,16.833-7.008,24.161l0.006,0.008l-0.001,0.001
				c-4.678,11.734-10.771,21.63-17.857,29.797l-0.011,0.007C199.199,275.415,174.277,285,149.999,285
				c-24.274,0-49.193-9.584-67.492-30.669l-0.017-0.012l0,0c-7.088-8.167-13.181-18.063-17.858-29.797c0.001,0,0.001,0,0.001,0l0,0
				l0.007-0.005c-2.882-7.23-5.23-15.153-6.938-23.808l-0.071-0.356c-0.001,0-0.001-0.001-0.001-0.001
				c-2.046-10.499-3.163-22.052-3.163-34.722c0-1.132,0.013-2.258,0.031-3.383l-0.004-0.082c0.255-15.743,2.24-30.834,5.597-44.953
				l-0.004-0.004c1.711-7.201,3.779-14.147,6.158-20.798c0.001,0,0.001,0,0.001,0l0.008-0.001c2.203-6.157,4.67-12.064,7.368-17.679
				h0.001l-0.001,0c4.23-8.802,9.023-16.893,14.237-24.144l0,0l0.343-0.474C105.877,29.741,128.311,15,150,15
				c21.83,0,44.415,14.933,62.142,39.586c0,0,0.001,0,0.001,0c5.213,7.251,10.007,15.342,14.236,24.144l-0.001,0h0.001l0.198,0.413
				c2.622,5.491,5.022,11.259,7.172,17.266l0.005,0.001c0.001,0,0.001,0,0.001,0c2.379,6.65,4.447,13.598,6.157,20.798
				c0,0,0,0-0.001,0h0.001l-0.002,0.004c3.357,14.123,5.342,29.219,5.596,44.967l-0.004,0.068c0.019,1.125,0.031,2.251,0.031,3.383
				C245.533,178.301,244.417,189.854,242.371,200.353z"/>
			<linearGradient id="Gradient_1_" gradientUnits="userSpaceOnUse" x1="54.4668" y1="150" x2="245.5332" y2="150">
				<stop  offset="0" style="stop-color:#ED237A"/>
				<stop  offset="0.2102" style="stop-color:#EE2C7C;stop-opacity:0.7898"/>
				<stop  offset="0.4496" style="stop-color:#EE4084;stop-opacity:0.5504"/>
				<stop  offset="0.7034" style="stop-color:#F05A92;stop-opacity:0.2966"/>
				<stop  offset="0.9656" style="stop-color:#F177A7;stop-opacity:0.0344"/>
				<stop  offset="1" style="stop-color:#F27BAA;stop-opacity:0"/>
			</linearGradient>
			<path id="Gradient_7_" fill="url(#Gradient_1_)" d="M242.371,200.353c-1.714,8.792-4.087,16.833-7.008,24.161l0.006,0.008
				l-0.001,0.001c-4.678,11.734-10.771,21.63-17.857,29.797l-0.011,0.007C199.199,275.415,174.277,285,149.999,285
				c-24.274,0-49.193-9.584-67.492-30.669l-0.017-0.012l0,0c-7.088-8.167-13.181-18.063-17.858-29.797c0.001,0,0.001,0,0.001,0l0,0
				l0.007-0.005c-2.882-7.23-5.23-15.153-6.938-23.808l-0.071-0.356c-0.001,0-0.001-0.001-0.001-0.001
				c-2.046-10.499-3.163-22.052-3.163-34.722c0-1.132,0.013-2.258,0.031-3.383l-0.004-0.082c0.255-15.743,2.24-30.834,5.597-44.953
				l-0.004-0.004c1.711-7.201,3.779-14.147,6.158-20.798c0.001,0,0.001,0,0.001,0l0.008-0.001c2.203-6.157,4.67-12.064,7.368-17.679
				h0.001l-0.001,0c4.23-8.802,9.023-16.893,14.237-24.144l0,0l0.343-0.474C105.877,29.741,128.311,15,150,15
				c21.83,0,44.415,14.933,62.142,39.586c0,0,0.001,0,0.001,0c5.213,7.251,10.007,15.342,14.236,24.144l-0.001,0h0.001l0.198,0.413
				c2.622,5.491,5.022,11.259,7.172,17.266l0.005,0.001c0.001,0,0.001,0,0.001,0c2.379,6.65,4.447,13.598,6.157,20.798
				c0,0,0,0-0.001,0h0.001l-0.002,0.004c3.357,14.123,5.342,29.219,5.596,44.967l-0.004,0.068c0.019,1.125,0.031,2.251,0.031,3.383
				C245.533,178.301,244.417,189.854,242.371,200.353z"/>
		</g>
		<g id="Pattern_7_">
			<linearGradient id="SVGID_1_" gradientUnits="userSpaceOnUse" x1="73.6221" y1="72.9907" x2="226.3789" y2="72.9907">
				<stop  offset="0" style="stop-color:#FFD700"/>
				<stop  offset="0.5" style="stop-color:#FFF100"/>
				<stop  offset="1" style="stop-color:#FFF7A9"/>
			</linearGradient>
			<path fill="url(#SVGID_1_)" stroke="#F6EB16" stroke-width="0.5" d="M226.379,78.73c-4.229-8.802-9.023-16.893-14.236-24.144
				c-16.127,5.483-37.243,9.266-62.143,9.266c-24.898,0-46.014-3.783-62.141-9.266c-5.214,7.251-10.007,15.342-14.237,24.144
				c21.55,8.198,48.299,12.666,76.378,12.666S204.83,86.928,226.379,78.73z"/>
			<linearGradient id="SVGID_2_" gradientUnits="userSpaceOnUse" x1="60.0869" y1="115.2744" x2="239.9121" y2="115.2744">
				<stop  offset="0.0056" style="stop-color:#005B97"/>
				<stop  offset="0.1348" style="stop-color:#0875BC"/>
				<stop  offset="0.4326" style="stop-color:#1E9CD8"/>
				<stop  offset="0.4633" style="stop-color:#37A0D9"/>
				<stop  offset="0.6462" style="stop-color:#7EB8E4"/>
				<stop  offset="0.803" style="stop-color:#A8CCEC"/>
				<stop  offset="0.926" style="stop-color:#C2DAF2"/>
				<stop  offset="1" style="stop-color:#CCE0F4"/>
			</linearGradient>
			<path fill="url(#SVGID_2_)" stroke="#1072BA" stroke-width="0.5" d="M150,134.139c32.597,0,63.408-5.512,86.758-15.522
				c1.074-0.46,2.121-0.932,3.154-1.408c-1.71-7.2-3.778-14.148-6.157-20.798c-1.729,0.861-3.539,1.702-5.438,2.517
				c-20.744,8.892-48.558,13.789-78.317,13.789s-57.573-4.897-78.316-13.789c-1.899-0.815-3.71-1.656-5.438-2.517
				c-2.379,6.651-4.447,13.597-6.158,20.798c1.035,0.476,2.081,0.948,3.155,1.408C86.593,128.627,117.403,134.139,150,134.139z"/>
			<linearGradient id="SVGID_3_" gradientUnits="userSpaceOnUse" x1="54.4668" y1="191.2891" x2="245.5332" y2="191.2891">
				<stop  offset="0.0056" style="stop-color:#005B97"/>
				<stop  offset="0.1348" style="stop-color:#0875BC"/>
				<stop  offset="0.4326" style="stop-color:#1E9CD8"/>
				<stop  offset="0.4633" style="stop-color:#37A0D9"/>
				<stop  offset="0.6462" style="stop-color:#7EB8E4"/>
				<stop  offset="0.803" style="stop-color:#A8CCEC"/>
				<stop  offset="0.926" style="stop-color:#C2DAF2"/>
				<stop  offset="1" style="stop-color:#CCE0F4"/>
			</linearGradient>
			<path fill="url(#SVGID_3_)" stroke="#1072BA" stroke-width="0.5" d="M245.502,162.248c-7.974,14.035-43.487,30.539-95.502,30.539
				c-52.016,0-87.528-16.504-95.502-30.539c-0.019,1.125-0.031,2.251-0.031,3.383c0,12.67,1.117,24.223,3.163,34.722
				c2.602,1.429,5.344,2.8,8.238,4.104c22.7,10.235,52.58,15.873,84.132,15.873c31.553,0,61.432-5.638,84.133-15.873
				c2.895-1.305,5.635-2.677,8.238-4.104c2.046-10.499,3.162-22.052,3.162-34.722C245.533,164.499,245.521,163.373,245.502,162.248z
				"/>
			<linearGradient id="SVGID_4_" gradientUnits="userSpaceOnUse" x1="64.6318" y1="243.7988" x2="235.3682" y2="243.7988">
				<stop  offset="0" style="stop-color:#FFD700"/>
				<stop  offset="0.5" style="stop-color:#FFF100"/>
				<stop  offset="1" style="stop-color:#FFF7A9"/>
			</linearGradient>
			<path fill="url(#SVGID_4_)" stroke="#F6EB16" stroke-width="0.5" d="M150,241.652c-29.76,0-57.573-4.897-78.316-13.789
				c-2.501-1.073-4.853-2.189-7.052-3.341c4.678,11.734,10.771,21.63,17.858,29.797c19.951,5.695,43.234,8.756,67.51,8.756
				c24.276,0,47.56-3.061,67.511-8.756c7.087-8.167,13.18-18.063,17.857-29.797c-2.201,1.151-4.551,2.268-7.051,3.341
				C207.573,236.755,179.76,241.652,150,241.652z"/>
		</g>
		<path id="Highlight_Dark_7_" opacity="0.1" fill="#010101" enable-background="new    " d="M101.665,238.037
			c-4.898-8.703-8.899-18.7-11.745-30.06c-3.119-12.448-4.85-26.534-4.85-42.347c0-23.155,3.752-44.969,10.144-64.435
			c5.006-15.245,11.631-29.044,19.352-40.911c14.287-21.961,32.316-37.302,50.736-42.92C160.208,15.813,155.084,15,150,15
			c-23.464,0-47.8,17.252-66.038,45.286c-7.721,11.868-14.347,25.667-19.352,40.911c-6.392,19.466-10.144,41.28-10.144,64.435
			c0,15.813,1.73,29.897,4.85,42.347c2.845,11.36,6.847,21.356,11.745,30.06C89.358,270.541,120.169,285,149.999,285
			c5.095,0,10.218-0.433,15.303-1.294C140.615,279.522,116.838,264.989,101.665,238.037z"/>
		<path id="Outline_7_" display="none" fill="#ED237A" d="M149.999,285.5c-26.485,0-50.573-10.938-67.83-30.796l-0.056-0.057
			c-7.376-8.5-13.414-18.573-17.945-29.939l-0.154-0.388l0.008-0.005c-2.883-7.309-5.174-15.216-6.81-23.509l-0.071-0.355
			c-2.106-10.804-3.174-22.519-3.174-34.82c0-1.135,0.013-2.264,0.031-3.391c0.242-15.274,2.109-30.349,5.546-44.889l0.057-0.259
			c1.686-7.096,3.763-14.111,6.174-20.851l0.121-0.313c2.159-6.002,4.607-11.859,7.276-17.416
			c4.189-8.717,8.995-16.866,14.282-24.22l0.343-0.475C105.919,28.831,128.591,14.5,150,14.5c21.565,0,44.363,14.504,62.548,39.794
			c5.289,7.355,10.094,15.503,14.281,24.219l0.199,0.414c2.599,5.442,4.985,11.176,7.096,17.047l0.101,0.268
			c2.41,6.734,4.487,13.75,6.174,20.85l0.036,0.153l-0.002,0.005c3.453,14.572,5.327,29.685,5.573,44.921l-0.005,0.104
			c0.02,1.091,0.032,2.22,0.032,3.354c0,12.304-1.067,24.019-3.171,34.817c-1.652,8.477-3.984,16.546-6.931,23.99l-0.098,0.269
			c-4.532,11.367-10.57,21.44-17.945,29.94l-0.059,0.062C200.571,274.565,176.485,285.5,149.999,285.5z M82.829,253.946l0.056,0.057
			c17.067,19.666,40.903,30.497,67.115,30.497c26.217,0,50.055-10.832,67.123-30.502l0.059-0.062
			c7.234-8.35,13.168-18.235,17.638-29.385l0.08-0.224c2.974-7.458,5.322-15.557,6.981-24.071
			c2.093-10.736,3.153-22.386,3.153-34.626c0-1.129-0.013-2.252-0.031-3.375l0.005-0.104c-0.246-15.181-2.124-30.274-5.583-44.823
			l-0.039-0.163l0.002-0.004c-1.646-6.905-3.664-13.73-6-20.295l-0.108-0.288c-2.123-5.932-4.529-11.726-7.152-17.219l-0.198-0.412
			c-4.161-8.661-8.936-16.759-14.191-24.069C193.742,29.853,171.239,15.5,150,15.5c-21.084,0-43.461,14.181-61.393,38.905
			l-0.342,0.474c-5.252,7.305-10.027,15.403-14.192,24.068c-2.701,5.622-5.173,11.554-7.348,17.631l-0.111,0.291
			c-2.326,6.535-4.337,13.33-5.981,20.208l-0.055,0.251c-3.458,14.548-5.337,29.636-5.583,44.845
			c-0.015,1.205-0.027,2.328-0.027,3.457c0,12.236,1.061,23.887,3.154,34.626l0.072,0.354c1.653,8.381,3.979,16.361,6.912,23.721
			l0.145,0.364l-0.006,0.004C69.707,235.794,75.622,245.631,82.829,253.946z"/>
	</g>
</g>
</svg>
