<?xml version="1.0" encoding="utf-8"?>
<!-- Generator: Adobe Illustrator 16.0.0, SVG Export Plug-In . SVG Version: 6.00 Build 0)  -->
<!DOCTYPE svg PUBLIC "-//W3C//DTD SVG 1.1//EN" "http://www.w3.org/Graphics/SVG/1.1/DTD/svg11.dtd">
<svg version="1.1" id="Elf" xmlns="http://www.w3.org/2000/svg" xmlns:xlink="http://www.w3.org/1999/xlink" x="0px" y="0px"
	 width="300px" height="300px" viewBox="0 0 300 300" enable-background="new 0 0 300 300" xml:space="preserve">
<g id="Elf_1_">
	<g id="Hat_1_">
		<g id="Hat_Bow_and_Curl_1_">
			<path fill="none" stroke="#000000" stroke-width="4" stroke-linecap="round" d="M144.816,16.163
				c1.766,1.014,3.057,3.261,3.53,4.366c-2.109-0.378-3.758-0.341-5.926-0.814c-4.697-1.024-4.423-3.968-3.476-4.806
				C140.806,14.97,143.051,15.149,144.816,16.163z"/>
			<path id="Hat_Curl_2_" fill="none" stroke="#000000" stroke-width="4" stroke-linecap="round" d="M140.012,6.226
				c1.11,0.812,1.052,2.086-0.133,2.848c-1.48,0.951-3.802,0.899-5.19-0.115c-1.734-1.268-1.641-3.261,0.208-4.451
				c2.313-1.486,5.733-1.245,8.111,0.179c3.535,2.117,5.905,4.695,3.797,9.067 M146.805,13.754c-0.767,1.53,0.345,5.345,1.542,6.774
				"/>
			<path fill="none" stroke="#000000" stroke-width="4" stroke-linecap="round" d="M140.372,20.021
				c2.21-0.368,5.52,0.386,7.051,0.853c-1.169,1.467-2.651,2.019-4.493,2.994c-3.987,2.115-6.549,0.052-6.549-1.147
				C136.381,20.983,138.165,20.389,140.372,20.021z"/>
		</g>
		<g id="Bell_2_">
			
				<radialGradient id="Body_Gradient_2_" cx="162.001" cy="6.46" r="11.2757" gradientTransform="matrix(1.0688 -0.0014 0.0031 1.1427 -10.7819 8.1892)" gradientUnits="userSpaceOnUse">
				<stop  offset="0" style="stop-color:#FFFFFF"/>
				<stop  offset="0.0487" style="stop-color:#FFFBF2"/>
				<stop  offset="0.133" style="stop-color:#FEF4D9"/>
				<stop  offset="0.2429" style="stop-color:#FCEAB4"/>
				<stop  offset="0.3742" style="stop-color:#FADE81"/>
				<stop  offset="0.5222" style="stop-color:#F7D131"/>
				<stop  offset="0.5271" style="stop-color:#F7D02D"/>
				<stop  offset="0.5917" style="stop-color:#E3B92D"/>
				<stop  offset="0.6648" style="stop-color:#D4A72C"/>
				<stop  offset="0.7468" style="stop-color:#CA9B2C"/>
				<stop  offset="0.8439" style="stop-color:#C5942D"/>
				<stop  offset="0.9944" style="stop-color:#C3922D"/>
			</radialGradient>
			<path id="Body_Gradient_1_" fill="url(#Body_Gradient_2_)" d="M173.364,14.66c1.711,3.549,0.276,7.125-3.532,8.366
				c-1.926,0.627-4.586,0.572-6.858,0.636c-7.734,0.219-12.277-3.59-12.277-8.313c0-4.6,5.464-8.337,12.232-8.346
				C169.697,6.993,173.354,10.06,173.364,14.66z"/>
			<path id="Outline_1_" d="M162.08,25.949c-7.984,0-14.687-4.838-14.701-10.489c-0.007-2.744,1.828-5.194,4.565-7.137
				c2.735-1.941,6.048-3.038,9.915-3.149c9.793-0.283,14.905,4.512,14.92,10.163c0.008,2.744-0.757,5.501-3.642,7.829
				C168.775,26.684,162.08,25.949,162.08,25.949z M162.389,7.011c-3.581,0.017-7.002,1.509-8.539,2.749
				c-2.15,1.735-3.169,3.635-3.163,5.828c0.013,4.523,4.798,8.071,11.199,8.071h0.022c3.109-0.004,5.503,0.101,7.924-0.634
				c4.672-1.568,4.843-6.047,3.532-8.366C173.138,9.324,169.086,6.96,162.389,7.011z"/>
			<path id="Slot_1_" d="M172.934,10.313c1.162,1.254,1.297,1.72,1.748,2.641c-3.664-2.257-9.447-2.428-11.604-1.995
				c-1.732,0.348-3.637,2.399-2.254,3.427c-1.665,0.739-2.444,0.888-3.306,0.786c-0.788-0.093-2.876-0.974-2.54-2.408
				c1.559-0.991,3.762-1.964,5.607-2.63C164.652,8.667,170.184,9.483,172.934,10.313z"/>
			<path id="Slot" d="M174.682,12.954c-0.324-0.692-0.778-1.693-1.748-2.641c0.344,3.782-4.992,7.523-7.293,8.496
				c-0.887-0.887-1.413-0.93-2.515-0.948c-1.485,0.061-1.9,0.675-2.109,1.273c-0.192,0.553,0.183,1.821,2.014,2.464
				c2.036-0.323,4.326-1.411,5.765-2.47C172.686,16.265,173.014,14.884,174.682,12.954z"/>
			<path id="Speck_4_" d="M158.162,8.795c0,0.373-0.053,0.506-0.766,0.708c-0.48,0.136-0.959,0.044-1.415-0.211
				c0-0.372,0.679-1.19,1.161-1.19C157.627,8.102,158.162,8.422,158.162,8.795z"/>
			<path id="Speck_3_" d="M154.23,20.596c-0.393-0.246-0.498-0.363-0.24-0.878c0.173-0.346,0.585-0.542,1.154-0.618
				c0.394,0.246,1.005,0.983,0.488,1.408C155.316,20.769,154.624,20.841,154.23,20.596z"/>
			<path id="Speck_2_" d="M160.971,6.577c0.408,0.233,0.521,0.347,0.296,0.87c-0.152,0.352-0.553,0.561-1.115,0.655
				c-0.407-0.233-0.879-1.123-0.576-1.392C159.877,6.441,160.563,6.345,160.971,6.577z"/>
			<path id="Speck_1_" d="M153.634,18.456c0,0.255-0.048,0.346-0.691,0.484c-0.433,0.093-0.864,0.03-1.273-0.144
				c0-0.255,0.61-0.814,1.047-0.814C153.151,17.982,153.634,18.201,153.634,18.456z"/>
			<path id="Speck" d="M155.775,18.121c-0.301-0.076-0.395-0.128-0.389-0.507c0.004-0.255,0.191-0.463,0.504-0.627
				c0.3,0.076,0.797,0.564,0.684,0.793C156.459,18.009,156.074,18.197,155.775,18.121z"/>
		</g>
		<path fill="#B22029" d="M185.217,92.711c-0.624-0.567-0.771-1.187-0.711-1.854c-1.68-0.599-4.143-3.578-4.916-3.956
			c0.222-1.007-1.139-2.001-1.088-3.792c-0.42-0.779-0.492-0.96-0.641-1.941c-0.146-2.582-0.313-5.238-2.316-8.264
			c-0.704-1.063-1.564-2.365-2.611-3.745c-2.869-3.783-6.539-7.665-7.577-11.7c-0.454-1.768-0.972-4.108-0.663-7.567
			c-0.094-0.698-0.121-1.209-0.105-1.592c-0.088-0.81-0.041-1.188,0.551-1.486c0.057-0.873,0.143,0,0.197-0.873
			c0.133-0.706,0.137-1.017,0.14-1.631c0.011-2.789-1.499-4.823-3.688-8.054c-0.647-0.613-0.806-0.758-1.577-1.358
			c-0.736-0.574-1.07-0.826-1.493-1.108c-0.616-0.414-1.46-0.982-2.085-1.479c-1.874-1.49-5.214-4.502-6.611-6.287
			c-0.357-0.456-0.839-1.21-1.332-2.031c0.314,1.713,0.482,2.202,0.556,2.45c0.369,1.238,0.287,1.523,1.327,3.18
			c2.351,3.747,2.985,7.398,2.02,10.844c-1.251,4.467-3.31,7.154-8.385,10.666c-2.162,1.496-5.629,5.243-8.093,10.589
			c-1.115,2.417-2.685,6.482-2.796,9.582c-0.095,2.675-0.691,6.561-0.589,8.238c-1.471,2.532-0.292,2.635-1.875,5.191
			c-1.691,6.431-10.151,10.744-16.735,14.076c-2.754,1.394-4.627,2.487-5.224,3.358c-0.436,0.638,0.387,1.88,1.563,1.747
			c7.724-0.878,33.936-5.268,69.911-5.268c5.93,0,8.189,0.845,9.49,1.055C189.482,97.118,186.982,93.771,185.217,92.711z"/>
		<g id="Green_Dots">
			<g id="Hat_Dot_4_1_">
				<path d="M143.315,89.375c-0.965,2.017-4.061,5.124-11.07,5.995c-1.488,0.186-4.876,0.14-8.122-1.919
					c0.623-0.653,0.904-1.007,1.905-1.514c3.809-3.189,5.714-7.121,6.354-11.051c0.582-0.733,0.772-1.007,1.114-1.425
					c1.761-0.256,4.462,0.411,5.758,1.205C144.61,83.56,144.357,87.198,143.315,89.375z"/>
				
					<linearGradient id="SVGID_1_" gradientUnits="userSpaceOnUse" x1="125.5283" y1="87.2739" x2="141.0215" y2="87.2739" gradientTransform="matrix(1 0 0 1 0.5 0)">
					<stop  offset="0" style="stop-color:#8DBF71"/>
					<stop  offset="0.3068" style="stop-color:#74A357"/>
					<stop  offset="0.7485" style="stop-color:#588840"/>
					<stop  offset="0.9944" style="stop-color:#4D7E3A"/>
				</linearGradient>
				<path fill="url(#SVGID_1_)" d="M141.087,90.272c-1.276,0.269-1.943,2.171-5.104,3.049c-2.121,0.589-7.296,0.717-9.955-1.384
					c2.552-2.228,5.031-4.663,6.354-11.051C137.558,80.501,143.136,83.33,141.087,90.272z"/>
				<path d="M138.343,87.34c0,1.811-4.975,6.836-11.251,3.591c2.195-2.226,4.195-5.858,4.776-7.998
					C134.414,83.275,138.343,83.72,138.343,87.34z"/>
				<path fill="#FFFFFF" d="M135.876,88.326c-0.756,1.537-3.811,3.668-7.512,1.337c1.635-2.093,2.083-2.733,3.007-5.073
					c1.359-0.082,2.132-0.07,3.354,0.508C136.415,85.969,136.199,87.224,135.876,88.326z"/>
			</g>
			<g id="Hat_Dot_3_1_">
				
					<linearGradient id="SVGID_2_" gradientUnits="userSpaceOnUse" x1="162.4092" y1="88.8359" x2="183.6494" y2="88.8359" gradientTransform="matrix(1 0 0 1 0.5 0)">
					<stop  offset="0" style="stop-color:#8DBF71"/>
					<stop  offset="0.3068" style="stop-color:#74A357"/>
					<stop  offset="0.7485" style="stop-color:#588840"/>
					<stop  offset="0.9944" style="stop-color:#4D7E3A"/>
				</linearGradient>
				<path fill="url(#SVGID_2_)" d="M184.149,90.681c-2.099,3.529-3.032,5.069-9.42,5.208c-6.191,0.135-8.563-1.761-10.097-3.272
					c-2.949-3.493-1.846-6.652,1.287-8.812c1.945-1.341,4.461-2.039,6.978-2.028c1.825,0.008,3.116,0.206,5.037,0.958
					C179.415,87.086,180.971,88.581,184.149,90.681z"/>
				<path d="M173.266,81.751c1.65,0,3.281,0.519,4.669,0.983c0.319,1.707,1.001,2.988,1.214,3.385
					c-0.195-0.013-0.303-0.019-0.303-0.019c-2.498-3.415-9.363-2.057-11.459,0.492c-3.637,4.112,0.624,6.639,3.696,6.696
					c3.575,0.067,4.888-0.33,6.757-1.585c0.965-0.648,1.549-1.575,1.652-2.485c0.109-0.955-0.514-1.924-0.584-2.287
					c0.215,0.007,0.545-0.02,0.629-0.03c1.672,1.648,1.957,1.919,2.619,2.547c0.607,0.598,1.203,0.907,1.836,1.223
					c-0.396,1.06-2.864,2.403-2.613,3.351c-0.113,0.077-0.322,0.101-0.524,0.101c-0.216,0-1.093,0.01-1.175-0.006
					c-1.863,1.167-3.738,1.561-6.471,1.561c-4.8,0.001-9.064-2.479-10.039-6.842C163.17,84.912,167.495,81.751,173.266,81.751
					 M173.266,80.522c-6.711,0-12.172,3.739-12.172,8.334c0,2.513,1.248,5.147,3.825,6.677c2.136,1.267,5.296,1.885,8.337,1.885
					c1.714-0.001,3.393-0.472,4.926-0.936c0.414-0.125,0.325,1.078,0.718,0.921c0.522-0.209,1.794-1.8,2.271-2.062
					c0.691-0.005,0.978-0.143,1.399-0.431c0,0,1.092,0.127,1.396,0.007c0.432-0.077,0.468-0.538,0.468-0.538
					c0.125-0.223-0.862-0.922-0.384-1.462c0.661-0.603,1.346-1.227,1.607-1.932c0.234-0.623,0.05-1.188-0.098-1.642
					c-0.061-0.185-0.123-0.378-0.123-0.487c-0.77-1.062-1.487-1.955-2.135-2.973C181.428,82.934,178.256,80.522,173.266,80.522
					L173.266,80.522z"/>
				<path fill="#FFFFFF" d="M177.594,88.683c0,1.079-0.862,2.155-1.461,2.821c-0.707,0.188-1.441,0.086-2.205,0.086
					c-4.578,0-5.103-1.239-5.103-2.907c0-1.667,1.893-3.02,5.105-3.02C176.09,85.663,177.594,87.016,177.594,88.683z"/>
			</g>
			<g id="Hat_Dot_2_2_">
				<path d="M165.447,64.546c0,3.877-0.673,6.829-9.729,9.976c-1.357,0.472-5.941,0.12-10.231-1.059
					c-0.188-0.291-0.055-0.51-0.144-0.854c-1.095-0.435-2.573-0.727-3.289-1.233c-2.589-1.831-1.647-4.642-2.359-7.254
					c3.084-4.612,9.347-7.028,12.479-7.028c0.077,0.375,0.065,0.146,0.077,0.375c5.408,0.161,9.291,2.297,12.823,4.81
					C165.523,62.947,165.447,63.818,165.447,64.546z"/>
				
					<linearGradient id="SVGID_3_" gradientUnits="userSpaceOnUse" x1="141.5542" y1="66.0879" x2="163.4912" y2="66.0879" gradientTransform="matrix(1 0 0 1 0.5 0)">
					<stop  offset="0" style="stop-color:#8DBF71"/>
					<stop  offset="0.3068" style="stop-color:#74A357"/>
					<stop  offset="0.7485" style="stop-color:#588840"/>
					<stop  offset="0.9944" style="stop-color:#4D7E3A"/>
				</linearGradient>
				<path fill="url(#SVGID_3_)" d="M163.912,66.032c-0.844,3.875-6.396,7.26-9.775,7.26c-5.162,0-5.162-0.717-10.566-3.382
					c-4.745-5.636,2.636-11.302,8.537-11.016C158.449,59.202,164.774,62.071,163.912,66.032z"/>
				<path d="M159.527,66.324c-0.2,1.621-1.652,5.431-9.272,5.021c-1.28-0.544-5.606-2.831-5.606-4.458
					c0-4.918,7.262-6.199,9.703-6.199C156.794,60.688,159.959,62.832,159.527,66.324z"/>
				<path fill="#FFFFFF" d="M158.014,67.126c-1.218,1.247-2.724,2.375-5.347,2.375c-2.987,0-6.339-1.96-5.862-3.469
					c1.15-3.645,6.315-4.458,9.633-3.2C158.347,64.838,157.872,66.032,158.014,67.126z"/>
			</g>
			<g id="Hat_Dot_1_2_">
				<path d="M154.04,39.689c-0.192,3.875,2.708,9.436,10.591,10.316c0.168-3.181,2.408-10.334-5.839-15.975
					c-2.187,0.851-3.474,2.687-3.96,3.498C154.441,38.31,154.051,39.474,154.04,39.689z"/>
				
					<linearGradient id="SVGID_4_" gradientUnits="userSpaceOnUse" x1="155.6836" y1="41.7549" x2="164.8945" y2="41.7549" gradientTransform="matrix(1 0 0 1 0.5 0)">
					<stop  offset="0" style="stop-color:#8DBF71"/>
					<stop  offset="0.3068" style="stop-color:#74A357"/>
					<stop  offset="0.7485" style="stop-color:#588840"/>
					<stop  offset="0.9944" style="stop-color:#4D7E3A"/>
				</linearGradient>
				<path fill="url(#SVGID_4_)" d="M156.221,41.132c0.479,4.065,4.973,7.011,8.293,7.248c-0.009-0.518-0.131-1.103,0.553-1.429
					c0.029-0.257,0.027-0.371,0.137-0.46c0.359-2.378,0.65-4.382-3.411-10.012c-0.531-0.539-0.775-0.767-1.542-1.348
					C158.773,35.697,155.822,37.753,156.221,41.132z"/>
				<path d="M158.952,42.328c0.548,3.027,5.517,3.655,6.306,3.757c0.596-2.818-0.268-5.584-3.466-9.606
					C160.557,37.17,158.324,38.851,158.952,42.328z"/>
				<path fill="#FFFFFF" d="M161.473,42.269c0.331,0.725,1.294,2.228,3.916,2.228c0.232-1.226-1.004-4.084-2.013-5.642
					c-0.391-0.622-1.485-0.526-1.788,0.143C161.035,40.33,161.037,41.676,161.473,42.269z"/>
			</g>
		</g>
		<g id="Hat_Specks">
			<path d="M118.095,100.302c0.406,0.232,0.413,0.277,0.188,0.8c-0.152,0.352-0.44,0.448-0.937,0.685
				c-0.408-0.233-0.636-0.787-0.402-1.223C117.115,100.104,117.686,100.069,118.095,100.302z"/>
			<path d="M114.825,100.321c0.29,0.192,0.299,0.526,0.188,0.8c-0.151,0.352-0.882,0.429-1.521,0.429
				c-0.305-0.282-1.052-0.307,0.332-1.114C114.24,100.161,114.419,100.088,114.825,100.321z"/>
			<path d="M113.606,101.762c0.289,0.192,0.757,0.555,0.643,0.833c-0.157,0.356,0.43,0.82-1.592,0.82
				c-0.737,0-1.176-0.647-0.059-1.531C113.018,101.603,113.198,101.528,113.606,101.762z"/>
			<path d="M121.158,101.128c0.285-0.313,1.015-0.66,1.401-0.66c0.388,0,0.395,0.479,0.395,0.788c0.009,0.74-0.09,0.608-1.274,0.602
				C121.355,101.871,121.158,101.705,121.158,101.128z"/>
			<path d="M119.478,98.403c0,0.37-0.247,0.669-0.554,0.669c-0.305,0-0.804-0.115-0.687-0.634c0.097-0.43,0.063-0.774,0.687-0.774
				C119.23,97.664,119.478,97.862,119.478,98.403z"/>
			<path d="M121.857,97.385c-0.337,0.282-0.699,0.375-1.03,0.254c-0.271-0.099-0.479-0.419,0.006-0.814
				c0.379-0.308,0.528-0.516,1.008-0.231C122.38,96.915,122.35,96.973,121.857,97.385z"/>
			<path d="M139.694,78.027c0,0.264-0.016,0.495-0.332,0.495c-0.319,0-1.39-0.043-1.39-0.307c0-0.264,0.76-1.281,1.078-1.281
				C139.368,76.934,139.694,77.762,139.694,78.027z"/>
			<path d="M138.834,75.13c0,0.264-0.017,0.495-0.333,0.495c-0.318,0-3.884,0.005-3.884-0.258c0-0.132,0.072-1.666,2.062-0.477
				c1.294-0.996,1.996-0.735,2.155-0.735C139.15,74.155,138.834,74.866,138.834,75.13z"/>
			<path d="M137.063,78.266c0,0.264-0.024,0.496-0.516,0.496c-0.49,0-2.19-0.046-2.146-0.308c0.19-1.11,0.153-1.644,1.665-1.281
				C137.063,77.412,137.063,78.002,137.063,78.266z"/>
			<path d="M137.182,73.159c0,0.396-0.364,0.717-0.814,0.717s-1.534,0.154-1.27-0.717c0.116-0.387,0.819-0.717,1.27-0.717
				S137.182,72.763,137.182,73.159z"/>
			<path d="M137.396,69.777c0,0.357-0.177,0.647-0.395,0.647c-0.22,0-1.449,0.358-1.449,0s1.229-1.295,1.449-1.295
				C137.22,69.129,137.396,69.419,137.396,69.777z"/>
			<path d="M138.715,68.651c0,0.367-0.37,0.662-0.827,0.666c-0.824,0.006-0.824,0.119-0.824-0.666c0-0.369-0.027-0.829,0.368-0.667
				C137.973,68.207,138.715,68.282,138.715,68.651z"/>
			<path d="M156.29,76.807c0,0.598-2.469,0.598-2.469,0c0-0.6,0.553-1.086,1.234-1.086C155.736,75.721,156.29,76.207,156.29,76.807z
				"/>
			<path d="M159.764,74.857c0,0.675-2.469,0.675-2.469,0s1.273-1.938,1.954-1.938C159.932,72.919,159.764,74.182,159.764,74.857z"/>
			<path d="M166.063,73.105c0,0.65-2.468,0.938-2.468,0.288c0-0.65,0.195-1.558,0.877-1.558S166.063,72.455,166.063,73.105z"/>
			<path d="M162.291,72.57c0,0.264-0.121,0.478-0.852,0.478c-0.471,0-1.042-0.085-0.851-0.478c0.122-0.25,0.657-0.735,1.126-0.735
				C162.186,71.835,162.291,72.306,162.291,72.57z"/>
			<path d="M165.048,69.358c0,0.637,0.228,1.153,0.508,1.153s1.576-0.516,1.576-1.153c0-0.636-0.917-1.153-1.198-1.153
				C165.653,68.206,165.048,68.722,165.048,69.358z"/>
			<path d="M163.729,54.705c0,0.445-0.466,0.829-1.041,0.829c-0.576,0-1.186,0.078-1.186-0.153c0-0.231,0.607-0.702,1.113-0.897
				C163.082,54.304,163.729,54.474,163.729,54.705z"/>
			<path d="M161.502,52.946c0,0.278-0.441,0.503-0.985,0.503s-1.044,0.21-1.044-0.067c0-0.279-0.193-0.939,0.352-0.939
				C160.367,52.442,161.502,52.667,161.502,52.946z"/>
			<path d="M159.532,51.588c0,0.349,0.075,0.854-0.499,0.854c-0.575,0-1.126-0.557-1.126-0.905c0-0.349,0.551-0.632,1.126-0.632
				C159.607,50.905,159.532,51.239,159.532,51.588z"/>
			<path d="M150.311,50.734c0,0.406-0.397,0.734-0.886,0.734c-0.491,0-1.175-0.158-1.175-0.563c0-0.406,0.446-1.008,0.936-1.008
				C149.675,49.897,150.311,50.329,150.311,50.734z"/>
			<path d="M148.25,52.151c0,0.302-0.668,0.341-1.365,0.546c-0.838,0.249-1.364,0-1.364-0.546c0-0.547,0.61-0.547,1.364-0.547
				S148.25,51.85,148.25,52.151z"/>
			<path d="M182.166,97.471c0,0.396-0.828,0.717-1.186,0.717s-0.107-0.375-0.107-0.77c0-0.396,0.503-0.664,1.042-0.664
				C182.272,96.754,182.166,97.075,182.166,97.471z"/>
			<path d="M186.659,96.011c0,0.396-1.037,0.973-1.394,0.973c-0.357,0-0.107-0.375-0.107-0.771c0-0.396,0.502-0.664,1.041-0.664
				C186.558,95.55,186.659,95.615,186.659,96.011z"/>
			<path d="M147.34,54.086c0,0.375-0.206,0.679-0.683,0.679c-0.647,0-1.137-0.305-1.137-0.679c0-0.375,0.346-0.679,1.137-0.679
				C147.134,53.408,147.34,53.711,147.34,54.086z"/>
			<path d="M144.214,54.519c0,0.349-0.552,0.631-1.232,0.631s-0.927-0.266-0.927-0.615c0-0.349,0.246-0.82,0.927-0.82
				S144.214,54.17,144.214,54.519z"/>
			<path d="M154.48,31.875c0.146,0.576,0.407,1.012-0.869,1.012c-0.367,0-1.203-0.453-1.203-1.012c0-0.558,0.359-1.012,1.203-1.012
				C153.979,30.863,154.34,31.325,154.48,31.875z"/>
			<path d="M153.27,29.89c0.146,0.576,0.545,0.974-0.73,0.974c-0.367,0-1-0.257-1-0.816s0.836-1.012,1.203-1.012
				S153.131,29.339,153.27,29.89z"/>
		</g>
		<path id="Hat_Outline_1_" d="M106.516,105.802c-0.078-0.057-0.776-0.103-1.076-0.759c-0.3-0.659,0.594-2.725,1.655-3.834
			c1.169-1.223,3.295-2.608,6.534-4.378c5.267-2.874,10.377-4.688,14.145-10.688c2.91-4.637,3.918-8.966,3.516-15.036
			c-0.254-3.836-0.101-7.796,1.157-10.454c2.104-4.448,5.972-7.087,10.027-10.581c2.364-2.039,5.965-3.407,7.952-10.02
			c0.84-2.793-0.75-6.329-2.304-9.474c-0.882-1.784-2.014-3.601-2.27-5.011c-0.262-1.442,0.797-5.088,0.906-5.613
			c0.008-0.044,0.019-0.087,0.035-0.13c0.052-0.142,0.145-0.271,0.268-0.381c0.128-0.114,0.29-0.21,0.482-0.278
			c0.147-0.052,0.309-0.087,0.477-0.101c0.182-0.015,0.364-0.004,0.536,0.028c0.19,0.037,0.365,0.1,0.515,0.183
			c0.166,0.093,0.307,0.213,0.404,0.355c0.023,0.035,0.045,0.071,0.064,0.108c0.643,1.215,2.457,4.539,3.274,5.6
			c1.201,1.556,4.361,4.466,6.096,5.867c0.53,0.427,1.084,0.803,1.668,1.2c2.074,1.409,4.426,3.006,6.979,7.644
			c1.269,2.303,2.261,6.735,2.035,10.287c-0.189,2.999,0.122,6.35,0.413,7.497c0.934,3.687,2.283,5.826,5.302,9.489
			c1.122,1.362,2.675,3.088,3.396,4.191c2.156,3.304,2.527,6.601,2.946,9.223c0.235,1.471,0.582,2.778,1.007,3.843
			c0.937,2.351,2.866,4.577,5.014,6.664c3.469,3.369,4.843,5.857,4.843,8.631c0,2.286-0.224,4.179-3.548,3.033
			c-0.224-0.078-6.091-1.703-9.309-1.845c-30.68-1.358-68.952,5.204-69.581,5.457C109.667,106.682,107.805,106.687,106.516,105.802z
			 M148.992,24.314c0.307,1.699,0.473,2.183,0.544,2.429c0.361,1.229,0.28,1.512,1.296,3.155c2.298,3.716,2.917,7.337,1.974,10.757
			c-1.223,4.432-3.234,7.096-8.193,10.58c-2.113,1.483-5.5,5.201-7.908,10.503c-1.088,2.397-2.624,6.43-2.731,9.505
			c-0.093,2.653-0.577,6.554-0.477,8.218c-0.868,2.76-0.386,2.567-1.932,5.103c-1.652,6.379-9.92,10.658-16.352,13.962
			c-2.693,1.383-4.523,2.468-5.105,3.331c-0.425,0.632,0.377,1.865,1.527,1.732c7.547-0.871,33.159-5.225,68.315-5.226
			c5.794,0,8.001,0.839,9.271,1.048c-0.369-2.56-2.812-5.88-4.537-6.931c-0.611-0.563-0.754-1.178-0.693-1.839
			c-1.643-0.594-4.051-3.548-4.806-3.924c0.216-1-1.111-1.985-1.062-3.762c-0.412-0.772-0.483-0.951-0.627-1.925
			c-0.145-2.562-0.305-5.196-2.265-8.197c-0.687-1.055-1.528-2.347-2.552-3.715c-2.803-3.752-6.39-7.603-7.403-11.606
			c-0.444-1.752-0.948-4.075-0.647-7.505c-0.093-0.693-0.119-1.199-0.104-1.58c-0.086-0.803-0.041-1.179,0.539-1.475
			c0.055-0.866,0.139,0,0.191-0.866c0.131-0.701,0.134-1.008,0.137-1.618c0.012-2.766-1.463-4.785-3.603-7.988
			c-0.633-0.609-0.787-0.752-1.542-1.348c-0.718-0.569-1.046-0.819-1.458-1.1c-0.604-0.409-1.427-0.973-2.038-1.467
			c-1.832-1.478-5.096-4.467-6.459-6.235C149.945,25.875,149.474,25.127,148.992,24.314z"/>
		<path id="Brim_White" fill="#FDFDFE" d="M191.402,106.984c0.402,2.093,1.547,8.751-2.442,7.719
			c-8.052-2.083-20.493-5.97-33.075-5.292c-10.927,0.588-36.122,8.471-48.486,9.94c-2.252-0.454-3.547-4.355-3.547-6.902v-1.776
			c0.863-1.503,4.748-3.028,6.999-3.445c7.621-1.412,25.683-4.551,30.997-4.89c11.68-0.746,33.789-3.026,46.633-0.088
			c1.938,0.885,2.329,1.343,2.73,3.436L191.402,106.984z"/>
	</g>
	<g id="Head_1_">
		<g id="Head">
			<path id="Face_Body" fill="#EDB8AA" d="M150.499,161.105c-5.75-0.729-9.871-1.369-16.173-2.024
				c-1.497-0.156-2.933-0.908-4.001-1.775c-3.211-2.602-6.374-1.994-9.153-3.838c-0.832-0.553-1.161-0.963-2.062-1.749
				c-0.274-0.241-5.509-3.338-7.379-5.374c-5.735-6.247-6.326-12.601-6.66-21.063c-0.426-10.693,25.767-13.569,47.111-13.569
				c14.303,0,38.869,12.045,40.54,13.991c0.161,1.878,0.041,2.175-0.052,4.436c-4.143,16.078-6.82,17.028-9.986,20.546
				c-2.905-0.076-5.629,4.252-8.499,5.039c0.06,0.39,0.129,0.699,0.228,0.997c-0.869,0.446-2.102,0.934-3.043,1.322
				c-1.168-0.089-2.449,0.085-3.782,0.415c-2.42,0.597-3.133,0.968-5.294,1.749C160.355,160.909,159.221,162.209,150.499,161.105z"
				/>
			<path id="Face_Outline" d="M150.431,161.148c-5.75-0.729-10.051-1.205-16.173-2.024c-1.491-0.199-2.933-0.908-4.001-1.774
				c-3.211-2.603-6.373-1.995-9.152-3.839c-0.833-0.552-1.161-0.963-2.062-1.748c-0.276-0.241-5.51-3.339-7.38-5.374
				c-5.734-6.247-6.325-12.601-6.661-21.063c-0.425-10.693,25.768-13.569,47.113-13.569c14.303,0,38.867,12.045,40.539,13.991
				c0.162,1.877,0.041,2.175-0.053,4.435c-4.143,16.078-6.82,17.028-9.984,20.546c-2.906-0.077-5.598,4.246-8.426,5.013
				c0.064,0.476,0.105,0.62,0.237,0.997c-0.048,0.025-1.259,0.563-3.06,1.305c-1.168-0.089-2.449,0.085-3.782,0.415
				c-2.42,0.597-3.284,1.001-5.361,1.792C160.303,160.984,159.152,162.253,150.431,161.148z M152.115,114.315
				c-42.209,0-41.881,11.156-41.879,11.23c0.017,0.564,0.295,1.227,0.276,1.723c-0.26,7.219,0.05,12.211,4.154,17.976
				c6.431,9.028,23.047,13.254,39.07,13.254c25.093,0,33.898-16.79,35.815-32.375c-1.094-0.272-2.461-0.929-4.151-2.188
				C179.594,119.611,169.309,114.315,152.115,114.315z"/>
		</g>
		<g id="Ears">
			<g id="Left_Ear">
				<path id="Ear_Pink_1_" fill="#EDB8AA" d="M104.997,128.801c-4.313-2.05-9.722-5.757-13.365-5.161
					c1.485,5.118,2.823,8.814,6.997,14.713c4.888,6.909,10.313,10.697,15.91,10.697
					C106.774,143.173,105.571,136.361,104.997,128.801z"/>
				<path id="Ear_Outline_1_" d="M92.458,123.577c3.601,0,8.542,3.325,12.539,5.225c0.574,7.56,1.777,14.372,9.542,20.25
					c-5.598,0-11.022-3.788-15.91-10.697c-4.174-5.899-5.512-9.595-6.997-14.713C91.898,123.597,92.174,123.577,92.458,123.577
					 M89.524,120.61c-4.505-0.256-7.237,0.407-7.237,0.407s-6.036,0.573-6.037,4.838c-0.001,3.498,2.251,4.265,3.93,4.479
					c1.015,0.129,2.661-1.033,3.019-1.876c0.239-0.565-0.521-0.947-0.862-0.853c-4.361,1.194-3.595-0.566-1.916-2.059
					c2.472-2.202,3.995-2.581,5.558-2.719c0.822-0.072,2.37,0.87,2.87,1.453c3.54,4.115-0.378,3.836,6.858,15.736
					c4.552,7.932,12.245,11.771,18.833,11.771h6.277l-5.751-3.881c-6.374-6.226-6.67-12.305-7.2-19.278l-0.108-1.416l-2.85-1.485
					C103.929,125.263,95.94,120.975,89.524,120.61z"/>
			</g>
			<g id="Right_Ear">
				<path id="Ear_Pink" fill="#EDB8AA" d="M192.518,130.14c6.47-5.726,12.059-9.164,18.617-9.724
					c-1.486,5.118-3.223,14.163-7.584,20.599c-5.764,8.509-14.025,8.22-19.623,8.22C189.426,142.646,190.613,137.139,192.518,130.14
					z"/>
				<path id="Ear_Outline" d="M210.938,120.529c-1.636,5.085-3.375,14.523-7.548,20.422c-5.175,8.028-13.641,8.167-19.237,8.167
					c5.005-5.368,6.064-10.613,8.497-19.123c3.731-2.813,6.938-5.552,10.11-7.067C205.708,121.52,210.671,120.484,210.938,120.529z
					 M192.654,125.747l-1.497,1.092l-0.222,2.374c-0.53,6.973-1.928,12.98-8.303,19.207l-2.316,2.367h2.264
					c8.625,1.504,17.665-1.55,22.606-9.02c7.493-11.243,4.591-11.155,6.038-17.032c0.988-4.014,3.702-4.318,4.906-4.337
					c0.884-0.014,3.02-0.125,3.02,1.618c0,0.875-1.461,2.475-2.336,0.72c-0.576-1.151-1.475,0.407-1.547,1.008
					c-0.215,1.803,1.857,2.906,2.875,3.007c1.941,0.191,5.608-0.277,5.607-3.774c-0.002-4.266-4.35-7.373-8.338-7.165
					c-1.881,0.098-3.846,0.548-7.262,1.791C202.617,119.617,195.572,124.089,192.654,125.747z"/>
			</g>
		</g>
		<g id="Eyes">
			<path id="Eye_Left" d="M149.356,135.712c0,1.232-1.218,2.232-2.721,2.232c-1.504,0-3.033-0.877-3.033-2.111
				c0-1.233,1.529-2.942,3.033-2.942C148.139,132.891,149.356,134.479,149.356,135.712z"/>
			<path id="Eye_Right" d="M154.938,134.826c0,1.838-2.493,3.327-3.869,3.327s-1.5-1.489-1.5-3.327c0-1.837,1.5-3.326,2.876-3.326
				C153.82,131.5,154.938,132.989,154.938,134.826z"/>
		</g>
		<g id="Mouth">
			<path id="Smile" fill="none" stroke="#000000" stroke-width="4" stroke-linecap="round" stroke-miterlimit="10" d="
				M127.285,136.17c14.952,24.74,49.813,15.618,44.279-5.646"/>
			<path id="Grin_Left" fill="none" stroke="#000000" stroke-width="3" stroke-linecap="round" stroke-miterlimit="10" d="
				M122.9,137.497c2.84-1.327,5.714-0.833,5.68-4.925"/>
			<path id="Grin_Right" fill="none" stroke="#000000" stroke-width="3" stroke-linecap="round" stroke-miterlimit="10" d="
				M176.883,129.245c-4.096,2.255-4.096,1.092-8.194,0.319"/>
		</g>
		<g id="Hair">
			
				<radialGradient id="Body_Gradient_4_" cx="154.8467" cy="117.4097" r="24.8386" gradientTransform="matrix(1.1344 0 0 1.0585 -26.3096 -5.8955)" gradientUnits="userSpaceOnUse">
				<stop  offset="0" style="stop-color:#FFFFFF"/>
				<stop  offset="0.0989" style="stop-color:#E5DCD4"/>
				<stop  offset="0.3119" style="stop-color:#B9A08A"/>
				<stop  offset="0.6202" style="stop-color:#805937"/>
				<stop  offset="0.6847" style="stop-color:#754C29"/>
				<stop  offset="0.8545" style="stop-color:#643220"/>
				<stop  offset="1" style="stop-color:#541715"/>
			</radialGradient>
			<path id="Body_Gradient" fill="url(#Body_Gradient_4_)" d="M188.459,121.45c-0.713-0.046-1.699-0.104-1.741-0.129
				c-3.593-2.162-8.311-3.498-8.685-3.655c-0.291-0.123-2.314-0.624-4.528-0.32c-1.948,0.269-6.308,2.617-6.829,2.959
				c-0.895,0.586-2.926,1.569-5.539,1.998c-0.655-0.007-1.508,0.078-2.021-0.458c0.58-1.986,0.218-4.251,0-4.469
				c-5.717-5.717-15.303-2.596-16.448-2.333c-3.535,0.813-7.879,2.412-8.338,2.623c-8.032,3.703-14.16,6.978-19.951,7.61
				c-1.026,0.112-4.126,0.271-4.126,0.271c0.937-5.598,10.002-7.316,19.256-9.209c10.817-2.213,17.271-4.47,29.752-5.104
				C170.871,110.961,186.186,114.363,188.459,121.45"/>
			<path id="Outline_Black" d="M171.33,100.42c6.323,0,12.375,0.466,17.15,1.829c1.938,1.104,2.329,0.542,2.73,3.156l0.191,1.621
				c0.366,2.377,1.346,7.847-1.482,7.847c-0.281,0-0.6-0.054-0.96-0.17c-7.216-2.332-18.448-5.384-29.759-5.385
				c-1.311,0-2.622,0.042-3.93,0.129c-10.926,0.735-35.509,8.07-47.873,9.904c-2.252-0.567-3.145-2.888-3.547-5.501
				c0,0-0.118-1.674,0-2.217c0.44-1.997,4.748-3.781,6.999-4.302c7.621-1.762,25.683-4.569,30.997-4.993
				C149.186,101.753,160.643,100.42,171.33,100.42 M192.338,125.704c0.072-0.832-0.012-7.122-0.194-7.611
				c1.38-0.561,2.062-0.976,2.543-1.883c1.653-3.114,0.789-4.408,0.886-8.374v-2.729c-0.375-2.434-1.326-4.389-3.21-5.244
				c-0.28-0.127-3.283-1.174-3.283-1.174l-1.83-0.494c-3.244-0.58-4.973-0.825-11.181-0.793c-1.174,0.005-4.694,0.083-4.694,0.083
				c-8.374,0-28.063,1.866-29.718,1.998c-5.607,0.447-21.499,2.439-29.142,4.206c-1.988,0.32-12.209,1.761-13.455,4.448
				c-0.482,1.042,0.575,4.478,0.575,4.478l0.575,1.024l1.007,2.132c0,0,4.118,6.585,3.785,9.555
				c-0.306,2.724,2.896,1.68,5.319,1.919c0,0,4.614,0.213,7.667-0.64c0.93-0.26,2.755-0.879,3.642-1.237
				c4.136-1.667,5.789-3.72,11.074-5.235c6.896-1.978,9.102-2.744,12.791-2.911c0.848-0.038,4.589,0.155,5.367,0.896
				c0.333,0.317,1.581,1.233,1.196,3.813c-4.392-4.563-4.94,0.304-4.199,0.793c1.466,0.966,4.949,2.194,7.697,2.273
				c1.203,0.034,9.227-0.337,12.7-3.126c0.876-0.654,2.409-1.603,4.409-2.251c0.909-0.294,4.194-0.372,5.655,0.535
				c0.132,0.082,8.571,5.723,11.231,5.968L192.338,125.704z M188.313,121.242c-0.705-0.043-1.683-0.098-1.725-0.122
				c-3.559-2.043-7.933-3.627-8.302-3.774c-0.29-0.116-2.384-0.597-4.577-0.309c-1.931,0.253-6.456,2.8-6.973,3.123
				c-0.886,0.554-2.898,1.482-5.486,1.887c-0.648-0.007-1.494,0.073-2.002-0.433c0.574-1.876,0.215-4.016,0-4.222
				c-5.662-5.4-14.547-3.068-15.718-3.028c-2.355,0.08-8.795,2.743-9.249,2.943c-7.955,3.497-13.609,6.951-19.346,7.548
				c-1.018,0.106-4.087,0.256-4.087,0.256c0.927-5.288,11.088-6.837,19.47-8.793c10.334-2.411,16.71-4.129,29.073-4.729
				C170.893,111.333,186.061,114.547,188.313,121.242"/>
		</g>
	</g>
	<g id="Legs">
		<g id="Socks">
			<g id="Left">
				<g id="White_5_">
					<path id="White_1_" fill="#F6FAF5" d="M145.749,230.039c-0.018-0.142-0.181-0.664-0.769-0.579
						c-0.946,0.139-1.628,0.358-2.852,0.358c-2.485,0-7.175-0.696-8.403-1.59c0.157,3.31,1.271,6.519,0.604,10.563
						c1.383,0.01,2.042,0.116,2.289,0.224c1.915,0.833,2.021,4.467-1.552,1.115c-0.198-0.186-0.773,0.102-0.775,0.455
						c0.047,1.79,0.11,2.049,1.188,2.124c1.887,0.131,3.363,0.169,4.517,0.203c2.623,0.075,5.127,0.202,5.93-0.625
						C145.812,239.321,145.865,235.457,145.749,230.039z"/>
					<path id="White" fill="#F6FAF5" d="M146.828,257.521c-0.104,0.489-8.676,1.855-10.245,1.643
						c0.023,1.514,0.521,3.148,1.15,4.172c1.081-0.043,0.67,0.811,2.779,1.194c0,0,1.622,0.16,2.061,0.085
						C147.796,263.721,147.354,260.252,146.828,257.521z"/>
				</g>
				<g id="Red_5_">
					<path id="Red_1_" fill="#B22029" d="M145.472,244.039c-2.601,1.316-9.228,0.561-10.999,0.352
						c0.12,1.535,0.459,4.311,0.54,5.182c0.253,2.694,0.83,5.271,1.115,7.364c0.031,0.24,5.195,0.621,10.999-1.351
						C147.003,251.582,147.245,245.573,145.472,244.039z"/>
					<path id="Red" fill="#B22029" d="M144.361,228.489c0.266-0.076,1.713-1.524,1.713-2.196
						c-0.374-5.312-2.804-10.017-2.899-10.268c-0.517-0.902-1.557-2.22-3.095-2.148c-1.819,0.086-2.876,1.266-4.563,3.358
						c-2.146,2.659-2.011,6.121-2.229,9.627C135.545,227.334,142.36,229.065,144.361,228.489z"/>
				</g>
			</g>
			<g id="Right">
				<g id="Red_4_">
					<path id="Red_3_" fill="#B22029" d="M154.456,263.838c1.305,0,2.857-0.134,4.421-0.32c2.674-0.317,2.865-3.08,2.588-11.45
						c0.021,0.433-9.08,2.082-12.543-0.288c0.213,4.271,0.215,8.368,0.215,10.971C151.365,263.587,153.064,263.838,154.456,263.838z
						"/>
					<path id="Red_2_" fill="#B22029" d="M150.431,222.961c-1.905,1.646-1.923,5.345-1.704,7.215
						c0.234,1.994,0.598,4.331,1.011,6.539c0.042,0.225,5.841,1.527,11.115-0.672c-0.537-5.498-1.044-10.324-1.725-14.041
						C159.137,222.325,151.204,223.855,150.431,222.961z"/>
				</g>
				<g id="White_4_">
					<path id="White_3_" fill="#FFFFFF" d="M148.605,221.138c1.455,0.162,6.911,0.72,9.781-0.754
						c-1.23-5.896-2.971-8.811-6.309-8.811C150.053,211.573,148.762,215.182,148.605,221.138z"/>
					<path id="White_2_" fill="#FFFFFF" d="M150.97,248.356c-2.013,0.16-1.935,0.961-1.916,1.207
						c0.058,0.77,1.701,3.016,12.005,0.805c-0.077-2.189-0.217-6.376-0.377-9.943c-0.134-0.411-0.62-1.69-1.248-2.495
						c-1.155,1.876-9.827-0.234-10.851,1.062c0,2.343,0.236,4.699,0.35,7.317C148.967,247.094,149.926,247.816,150.97,248.356z"/>
				</g>
			</g>
		</g>
		<path id="Outline_2_" d="M168.041,266.461c0.468,1.631,1.143,5.519,1.367,6.269c0.898,3.006,3.233,4.115,3.234,4.115
			c0,0-9.176-0.191-13.322-6.504c-4.528,1.765-7.5,6.974-8.937,7.229c-0.159,0.029-1.426-1.162-0.958-5.128
			c0.754-0.031,1.9-2.194,0.431-2.207c0.604-0.254,2.587-2.047,0.359-2.271C155.391,266.652,163.366,267.417,168.041,266.461z
			 M170.412,264.317c-5.928,0.318,0,0-5.928,0.318c0.311-2.191-0.239-9.626-0.432-15.03c-0.109-3.071-0.621-12.681-0.683-13.18
			c-0.027-0.224-0.904-12.135-2.192-16.536c0.107-1.728,0.145-2.846,0.324-4.158c0,0-1.798-7.292-8.482-6.78
			c-2.915,0.223-5.067,0.992-6.382,4.33c-0.149,0.382-0.966,0.059-1.6-0.099c-0.699-1.657-1.041-1.415-2.992-2.146h-2.316
			c-2.858,0-6.807,2.653-7.747,5.416c-3.732,9.833,2.216,36.252,1.534,49.02c-3.417-0.2-6.25-0.514-6.37-0.443
			c1.9,10.227-5.755,18.159-5.755,18.159s2.336,0.703,4.853,0c0.099-0.027,3.597-1.184,6.326-2.207
			c3.084-1.157,5.909-3.952,6.863-3.966c2.229-0.033,1.166,2.592,8.211,2.72c-0.005,1.641-0.014,2.978-0.021,4.509
			c5.313-4.095,9.484-7.9,11.534-9.788c3.595,3.327,10.492,5.476,12.117,5.662c4.746,0.543,5.607-1.023,5.607-1.023
			S169.621,271.898,170.412,264.317z M146.736,255.433c-5.805,1.972-10.335,1.428-10.367,1.188c-0.284-2.095-0.78-4.344-1.032-7.038
			c-0.082-0.871-0.504-3.383-0.623-4.919c1.77,0.211,8.039,0.904,10.639-0.413C147.125,245.786,146.609,251.429,146.736,255.433z
			 M145.928,242.288c-0.804,0.827-3.308,0.7-5.93,0.625c-1.154-0.034-2.631-0.072-4.518-0.203c-1.078-0.075-1.142-0.334-1.188-2.124
			c0.002-0.354,0.577-0.641,0.776-0.455c3.572,3.352,3.466-0.282,1.551-1.115c-0.247-0.107-0.906-0.214-2.289-0.224
			c0.667-4.045-0.447-7.254-0.604-10.563c1.229,0.894,5.918,1.59,8.403,1.59c1.224,0,1.905-0.22,2.852-0.358
			c0.588-0.085,0.753,0.438,0.769,0.579l0.073,5.014C145.849,237.979,145.852,240.33,145.928,242.288z M135.503,218.114
			c1.427-2.301,2.46-3.949,4.33-4.037c1.58-0.073,2.423,0.949,2.952,1.866c0.1,0.255,2.619,4.969,3.003,10.372
			c0,0.685-1.276,1.714-1.55,1.792c-2.054,0.585-8.335-1.051-10.654-1.53C133.808,223.009,133.648,221.103,135.503,218.114z
			 M145.427,275.777c0,0-4.089-1.257-7.454-3.837c-6.733,6.706-11.789,8.019-11.789,8.019s1.188-2.378,2.13-5.232
			c0.243-0.738,1.331-1.896,2.674-2.221c-0.039-0.307-0.433-1.023-1.811-1c0.346-1.78,0.411-3.479-0.118-4.683
			c2.473,0.314,4.153,0.648,6.746,0.648c1.627,0,3.615-0.132,6.383-0.483c0.093-0.012,0.192-0.018,0.3-0.018
			c0.863,0,1.836,0.524,2.123,0.865C146.555,270.145,145.427,275.777,145.427,275.777z M142.573,264.615
			c-0.438,0.075-2.061-0.085-2.061-0.085c-2.109-0.384-1.698-1.237-2.779-1.194c-0.63-1.023-1.127-2.658-1.15-4.172
			c1.569,0.213,10.141-1.153,10.245-1.643C147.355,260.252,147.796,263.721,142.573,264.615z M158.779,222.395
			c0.68,3.717,1.114,7.962,1.652,13.46c-5.274,2.2-10.335,0.86-10.377,0.636c-0.415-2.209-0.734-4.32-0.97-6.314
			c-0.22-1.87-0.451-5.296,1.455-6.943C151.312,224.129,158.786,222.719,158.779,222.395z M152.078,211.573
			c3.338,0,5.078,2.914,6.31,8.811c-2.871,1.474-8.328,0.916-9.781,0.754C148.762,215.182,150.054,211.573,152.078,211.573z
			 M150.97,248.356c-1.043-0.54-2.003-1.263-2.037-2.048c-0.113-2.618-0.35-4.975-0.35-7.317c1.024-1.296,9.695,0.814,10.851-1.062
			c0.628,0.805,1.114,2.084,1.249,2.495c0.159,3.567,0.3,7.754,0.376,9.943c-10.305,2.211-11.947-0.035-12.004-0.805
			C149.036,249.317,148.957,248.517,150.97,248.356z M158.578,263.239c-1.563,0.188-2.758,0.412-4.063,0.412
			c-1.393,0-2.911-0.258-5.138-1.094c0-2.604-0.023-6.032-0.236-10.302c3.463,2.369,12.01,0.629,11.989,0.195
			C161.408,260.821,161.252,262.921,158.578,263.239z"/>
	</g>
	<g id="Arms_and_Torso">
		<g id="Shirt">
			
				<linearGradient id="Shirt_Body_1_" gradientUnits="userSpaceOnUse" x1="110.7158" y1="187.9385" x2="178.8887" y2="187.9385" gradientTransform="matrix(1 0 0 1 0.5 0)">
				<stop  offset="0" style="stop-color:#8DBF71"/>
				<stop  offset="0.3068" style="stop-color:#74A357"/>
				<stop  offset="0.7485" style="stop-color:#588840"/>
				<stop  offset="0.9944" style="stop-color:#4D7E3A"/>
			</linearGradient>
			<path id="Shirt_Body" fill="url(#Shirt_Body_1_)" d="M146.13,219.195c-9.308,0.396-20.12,0.714-33.221-0.936
				c-0.475-0.061-1.938-0.315-1.658-3.609c0.054-0.64,0.101-0.927,2.976-7.517c0.603-1.379,1.115-3.277,1.929-5.422
				c0.452-1.189,1.145-2.331,1.643-3.795c0.3-0.882,0.599-1.817,0.913-2.807c0.327-1.027,0.324-3.146,0.703-4.291
				c0.223-0.671,0.842-0.7,1.054-1.041c0.707-1.147,1.292-2.422,1.847-3.795c0.289-0.718,0.32-1.545,0.503-2.288
				c0.551-2.267-0.047-2.099,1.449-5.991c0.406-1.055,1.222-2.26,2.134-2.767c4.789-7.149,6.591-18.349,6.832-18.925
				c11.674,3.31,17.441,2.715,26.872,1.889c0.133,0.08,6.356,12.94,10.516,26.563c2.466,8.076,4.13,13.973,6.204,18.885
				c0.67,1.151,2.65,9.431,2.562,10.699c-3.042,2.015-6.417,4.622-18.353,5.756C157.937,220.101,153.335,219.195,146.13,219.195z"/>
			<path id="Shirt_Outline" d="M146.082,219.378c-3.588,0.153-7.351,0.111-11.43,0.132c0,0-0.824,0.165-1.76,0.188
				c-0.813,0.021-1.607,0.521-1.905,0.479c-6.078-0.835-11.852-1.26-18.078-1.918c-1.541-0.164-1.938-0.315-1.658-3.609
				c0.054-0.64,0.101-0.927,2.976-7.517c0.603-1.379,1.115-3.277,1.929-5.422c0.452-1.189,1.145-2.331,1.643-3.795
				c0.3-0.882,0.599-1.817,0.913-2.807c0.327-1.027,0.324-3.146,0.703-4.291c0.223-0.671,0.842-0.7,1.054-1.041
				c0.707-1.147,1.292-2.422,1.847-3.795c0.289-0.718,0.32-1.545,0.503-2.288c0.551-2.267-0.047-2.099,1.449-5.991
				c0.406-1.055,1.222-2.26,2.134-2.767c4.789-7.149,6.591-18.349,6.832-18.925c11.674,3.31,17.441,2.715,26.872,1.889
				c0.133,0.08,6.356,12.94,10.516,26.563c2.466,8.076,4.13,13.973,6.204,18.885c0.67,1.151,2.65,9.431,2.562,10.699
				c-3.042,2.015-6.417,4.622-18.353,5.756C157.937,220.101,153.287,219.378,146.082,219.378z M115.533,214.283
				c6.937,2.718,21.911,2.868,30.859,2.991c5.682,0.077,10.531-1.886,15.12-1.521c10.327,0.821,13.646-1.514,13.729-2.569
				c0.03-1.121,0.432-3.444-0.898-7.976c-1.305-4.445-3.127-9.781-5.969-16.967c-3.419-8.649-6.607-18.85-10.507-28.317
				c0,0-9.078,1.233-24.163-0.886c-0.389,1.443-2.326,11.229-3.064,12.691c-4.122,8.157-8.004,21.028-10.926,27.237
				c-0.854,1.814-0.42,2.61-1.056,4.204c-0.498,1.253-1.868,3.414-2.539,6.208C115.562,211.697,115.19,214.148,115.533,214.283z"/>
		</g>
		<g id="Arm_Left">
			
				<linearGradient id="Arm_Body_1_" gradientUnits="userSpaceOnUse" x1="105.3652" y1="188.1289" x2="125.9004" y2="188.1289" gradientTransform="matrix(1 0 0 1 0.5 0)">
				<stop  offset="0" style="stop-color:#8DBF71"/>
				<stop  offset="0.3068" style="stop-color:#74A357"/>
				<stop  offset="0.7485" style="stop-color:#588840"/>
				<stop  offset="0.9944" style="stop-color:#4D7E3A"/>
			</linearGradient>
			<path id="Arm_Body_2_" fill="url(#Arm_Body_1_)" d="M107.23,197.5c1.629,1.633,1.749,1.706,3.092,2.432
				c0.589,0.318,2.407,1.376,4.965,1.79c1.252,0.514,2.278-3.469,3.346-6.411c0.612-1.686-0.117-3.695,0.854-4.719
				c5.21-5.494,2.193-12.282,6.914-15.654c-0.684-1.453-1.269,1.195-2.35,0.271c-5.895,6.14-15.271,16.697-18.186,19.926
				C106.045,196.07,106.751,197.02,107.23,197.5z"/>
			<path id="Hand_Body_3_" fill="#EDCDC7" d="M113.605,203.893c-3.5-0.506-4.506-1.146-6.591-2.361c0,0-3.019-2.304-5.679-2.879
				c-1.205,0.829-3.162,2.622-10.351,2.175c-0.743-0.046-7.959,0.982-8.481,4.222c-0.436,2.697,12.004,2.208,22.628,2.879
				c1.744,0.11,3.356,0.064,4.83-0.447C111.464,206.958,112.283,206.18,113.605,203.893z"/>
			<path id="_Outline_1_" d="M80.441,206.733c-0.542-0.791-1.46-3.411,0.077-4.793c1.58-1.42,3.431-2.102,6.226-2.648
				c3.581-0.701,8.136,0.69,11.921-1.294c2.956-1.55,4.319-3.814,6.696-6.318c2.729-2.877,4.528-5.693,7.691-8.7
				c3.869-3.679,6.828-6.237,9.105-8.825c4.086-0.291,8.59-2.673,8.434-2.327c-4.384,9.809-4.708,11.248-9.636,24.27
				c-0.529,1.402-1.239,2.584-1.577,3.835c-0.298,1.104-0.196,2.316-0.641,3.029c-1.12,1.797-2.682,4.05-4.679,4.327
				c-2.301,0.319-1.51,1.728-4.098,2.783c-0.941,0.384-6.602-0.123-12.22-0.098C90.676,210.01,82.762,210.113,80.441,206.733z
				 M115.287,201.722c1.252,0.514,2.278-3.469,3.346-6.411c0.612-1.686-0.117-3.695,0.854-4.719
				c5.21-5.494,2.193-12.282,6.914-15.654c-0.684-1.453-1.269,1.195-2.35,0.271c-5.895,6.14-15.271,16.697-18.186,19.926
				c0.18,0.937,0.886,1.886,1.365,2.366c1.629,1.633,1.749,1.706,3.092,2.432C110.911,200.25,112.729,201.308,115.287,201.722
				 M113.605,203.893c-3.5-0.506-4.506-1.146-6.591-2.361c0,0-3.019-2.304-5.679-2.879c-1.205,0.829-3.162,2.622-10.351,2.175
				c-0.743-0.046-7.959,0.982-8.481,4.222c-0.436,2.697,12.004,2.208,22.628,2.879c1.744,0.11,3.356,0.064,4.83-0.447
				C111.464,206.958,112.283,206.18,113.605,203.893"/>
		</g>
		<g id="Arm_Right">
			
				<linearGradient id="Arm_Body_3_" gradientUnits="userSpaceOnUse" x1="162.4961" y1="183.0439" x2="198.2646" y2="183.0439" gradientTransform="matrix(1 0 0 1 0.5 0)">
				<stop  offset="0" style="stop-color:#8DBF71"/>
				<stop  offset="0.3068" style="stop-color:#74A357"/>
				<stop  offset="0.7485" style="stop-color:#588840"/>
				<stop  offset="0.9944" style="stop-color:#4D7E3A"/>
			</linearGradient>
			<path id="Arm_Body" fill="url(#Arm_Body_3_)" d="M182.541,204.519c-3.029-1.96-5.881-5.934-8.484-12.582
				c-0.432-1.097-2.584-5.082-3.834-7.634c-6.182-12.623-9.156-16.833-5.875-21.562c0.22-0.316,1.035-1.172,1.035-1.172
				s10.449,4.686,14.007,8.187c1.375,4.188,4.403,6.243,7.174,9.09c5.271,5.414,6.422,5.135,12.201,12.738
				C195.25,198.429,196.579,196.604,182.541,204.519z"/>
			<path id="Hand_Body" fill="#EDCDC7" d="M193.464,206.392c-2.3,0-4.601,0-7.331-0.513c-2.041-0.382-4.713-1.887-6.408-3.484
				c3.377-1.087,14.016-4.181,15.74-9.436c0.416,0.016,2.85-0.004,3.971,0.179c4.583,0.205,8.539,0.4,9.507,0.545
				c4.265,0.64,9.273,0.961,9.872,5.032c0.1,0.685-0.215,2.901-0.215,2.901s-1.549,0.909-2.133,1.106
				C210.62,204.709,205.637,206.095,193.464,206.392z"/>
			<path id="_Outline" d="M193.464,206.392c-2.3,0-4.601,0-7.331-0.513c-4.832-0.904-8.435-4.648-12.076-13.942
				c-0.432-1.097-2.584-5.082-3.834-7.634c-6.182-12.623-9.156-16.833-5.875-21.562c0.22-0.316,1.035-1.172,1.035-1.172
				s10.449,4.686,14.007,8.187c1.375,4.188,4.53,6.148,7.174,9.09c4.983,5.543,8.674,6.141,12.872,14.292
				c4.379,0.335,8.539,0.4,9.507,0.545c4.265,0.64,9.273,0.961,9.872,5.032c0.1,0.685-0.215,2.901-0.215,2.901
				s-1.549,0.909-2.133,1.106C210.62,204.709,205.637,206.095,193.464,206.392z M183.113,200.976
				c1.749-0.691,5.783-2.241,6.373-2.56c1.342-0.725,3.126-1.93,4.754-3.561c0.48-0.481,0.901-1.13,1.081-2.065
				c-4.253-3.443-7.708-7.876-11.585-12.406c-5.618-6.564-9.926-13.252-17.6-16.02c-1.542,3.938,0.693,8.23,6.712,19.111
				c1.333,2.409,5.188,10.533,6.339,13.041c1.287-0.511,1.926-0.465,2.251-0.108C179.662,197.862,181.137,200.035,183.113,200.976
				 M185.128,203.307c2.525,0.326,6.054,0.227,8.24,0.227c11.618,0,21.493-3.218,21.493-3.218c-0.837-3.321-3.455-3.533-6.119-3.533
				c-0.896,0-1.79,0.059-2.654,0.116c-0.797,0.053-1.549,0.103-2.248,0.103h-0.001c-1.161,0-1.972-0.14-2.628-0.453
				c-1.368-0.652-2.644-1.401-3.85-2.231c-0.545,1.508-1.353,2.653-2.107,3.262C192.23,200.012,186.37,202.003,185.128,203.307"/>
		</g>
		<g id="Bib">
			<path id="Body" fill="#B22029" d="M114.971,156.69c-3.504,0-8.303,1.706-8.291,7.323c0,0.23-0.288,3.07,4.007,6.706
				c2.028,1.859,8.194,3.435,11.472,3.435c4.313-0.085,11.692-3.539,15.621-7.121c0.019,0.278,0.465,6.314,0.288,8.4
				c-0.225,2.646-1.146,4.743-2.089,6.242c-3.612-0.144-3.326-1.864-3.326-1.978c0-0.554,0.808-1.314,1.418-1.267
				c0.93,0.073,0.164,1.395,1.458,1.608c0.869,0.142,1.715-1.44,1.725-1.834c0.048-1.962-2.542-2.319-2.875-2.345
				c-2.684-0.215-3.757,0.206-4.744,5.458c-0.436,2.315,0.48,4.96,1.821,5.928c3.307,2.388,5.064,1.89,6.661,1.89
				c3.332,0,8.428-2.164,11.352-11.492c1.15-3.668,2.889-5.599,4.844-7.65c0.767,2.432,1.203,4.852,3.834,9.682
				c3.834,5.928,7.906,5.715,10.782,6.439c4.937,0.854,7.879-2.444,8.003-2.559c2.348-2.175,3.211-7.207,3.211-7.207
				s0.574-3.668-3.978-5.159c-1.001-0.329-4.745-0.044-4.122,2.814c0.246,1.131,3.403-1.151,4.506-0.342
				c0.096,1.108-0.24,4.776-2.252,5.031c-1.773,0.215-3.643-0.341-5.991-3.582c-3.308-4.818-3.019-8.783-2.198-10.863
				c6.689,3.142,12.517,6.045,17.055,6.045c5.933,0,8.391-4.025,9.414-5.642c2.018-3.186,1.846-7.187,0.157-9.533
				c-0.819-1.138-3.814-2.193-5.499-2.303c-3.307-0.213-4.323,5.526-2.348,5.416c1.533-0.085,1.644-2.815,2.635-2.687
				c1.055,2.559,0.346,4.767-0.593,5.667c-0.749,0.717-1.896,1.08-3.409,1.08c-4.782,0-9.275-4.194-9.328-6.552l-0.846-1.936
				l-3.484,1.735c-6.325,2.474-11.17,2.695-19.413,2.695c-6.846,0-12.42-0.846-17.313-2.25l-1.211-0.334l-1.431,1.88
				c-5.509,7.211-10.831,7.271-12.505,7.339c-3.922,0-5.426-3.593-5.463-3.753c0,0-0.191-2.595,1.725-2.253
				c1.677,0.299-0.766,2.176,1.294,2.704c0.59,0.15,1.615-1.053,1.678-1.595C117.331,159.018,116.599,156.69,114.971,156.69z"/>
			<path id="Outline" stroke="#000000" stroke-width="0.25" stroke-miterlimit="10" d="M190.396,156.496
				c2.367,3.48,1.484,10.437-7.381,10.437c-4.056,0-9.781-1.453-17.633-5.363c-3.02,2.347-2.36,8.569,0.575,14.756
				c2.156,4.547,6.821,5.024,8.69,5.024c0.498,0,0.798-0.033,0.798-0.033s-2.876,1.936-6.415,1.936c-2.9,0-6.247-1.299-8.824-6.029
				c-4.601-8.445,0.122-12.299-3.881-12.666c-0.014-0.001-0.025-0.002-0.039-0.002c-1.455-0.001-7.338,7.127-9.034,12.539
				c-2.498,7.967-7.291,9.225-10.07,9.225c-1.28,0-2.134-0.268-2.134-0.268s5.464-3.583,6.038-10.363
				c0.279-3.294-0.287-8.828-0.44-13.204c-10.378,6.72-17.32,8.992-21.964,8.992c-9.698,0-9.367-9.906-9.367-9.906
				s1.311,5.521,7.142,5.521c3.507,0,8.646-1.995,16.121-8.383c0.403,0.144,0.725,0.225,1.127,0.332
				c4.985,1.332,10.972,1.244,16.744,1.244c7.567,0,15.008-0.999,20.541-3.787c0.083,3.857,6.974,7.844,12.53,7.844
				C187.545,164.34,190.87,162.248,190.396,156.496 M114.971,156.69c-3.504,0-8.303,1.706-8.291,7.323
				c0,0.23-0.288,3.07,4.007,6.706c2.028,1.859,8.194,3.435,11.472,3.435c4.313-0.085,11.692-3.539,15.621-7.121
				c0.019,0.278,0.465,6.314,0.288,8.4c-0.225,2.646-1.146,4.743-2.089,6.242c-3.612-0.144-3.326-1.864-3.326-1.978
				c0-0.554,0.808-1.314,1.418-1.267c0.93,0.073,0.164,1.395,1.458,1.608c0.869,0.142,1.715-1.44,1.725-1.834
				c0.048-1.962-2.542-2.319-2.875-2.345c-2.684-0.215-3.757,0.206-4.744,5.458c-0.436,2.315,0.48,4.96,1.821,5.928
				c3.307,2.388,5.064,1.89,6.661,1.89c3.332,0,8.428-2.164,11.352-11.492c1.15-3.668,2.889-5.599,4.844-7.65
				c0.767,2.432,1.203,4.852,3.834,9.682c3.834,5.928,7.906,5.715,10.782,6.439c4.937,0.854,7.879-2.444,8.003-2.559
				c2.348-2.175,3.211-7.207,3.211-7.207s0.574-3.668-3.978-5.159c-1.001-0.329-4.745-0.044-4.122,2.814
				c0.246,1.131,3.403-1.151,4.506-0.342c0.096,1.108-0.24,4.776-2.252,5.031c-1.773,0.215-3.643-0.341-5.991-3.582
				c-3.308-4.818-3.019-8.783-2.198-10.863c6.689,3.142,12.517,6.045,17.055,6.045c5.933,0,8.391-4.025,9.414-5.642
				c2.018-3.186,1.846-7.187,0.157-9.533c-0.819-1.138-3.814-2.193-5.499-2.303c-3.307-0.213-4.323,5.526-2.348,5.416
				c1.533-0.085,1.644-2.815,2.635-2.687c1.055,2.559,0.346,4.767-0.593,5.667c-0.749,0.717-1.896,1.08-3.409,1.08
				c-4.782,0-9.275-4.194-9.328-6.552l-0.846-1.936l-3.484,1.735c-6.325,2.474-11.17,2.695-19.413,2.695
				c-6.846,0-12.42-0.846-17.313-2.25l-1.211-0.334l-1.431,1.88c-5.509,7.211-10.831,7.271-12.505,7.339
				c-3.922,0-5.426-3.593-5.463-3.753c0,0-0.191-2.595,1.725-2.253c1.677,0.299-0.766,2.176,1.294,2.704
				c0.59,0.15,1.615-1.053,1.678-1.595C117.331,159.018,116.599,156.69,114.971,156.69z"/>
		</g>
	</g>
	<g id="Shoes">
		<g id="Shoe_Right">
			<path id="Outline_4_" d="M193.742,298.213l-0.105-0.002l-38.982-0.6l-0.143-0.035c-1.012-0.252-4.392-1.142-5.391-2.069
				c-0.894-0.831-1.465-3.27-1.671-4.279l-0.017-0.182v-10.174c0,0,8.484-8.867,11.814-9.699c4.529,5.438,11.376,6.564,11.376,6.564
				l0.509,0.771c0.11,2.102,1.051,5.1,1.51,5.735c1.193,1.655,4.544,3.763,6.908,4.272c0.93,0.201,2.499,0.321,4.197,0.321
				c1.715,0,3.314-0.121,4.277-0.323c2.183-0.457,8.059-2.621,9.095-4.013c1.04-3.178,0.188-2.148,1.903-2.551
				c1.384-0.324,2.742-3.198,2.902-3.836c0.209-0.835-0.168-2.883-0.592-3.697c-0.35-0.671-1.287-1.901-1.807-2.292
				c-0.768-0.576-2.129-1.323-2.67-1.388c-0.074-0.01-0.238-0.025-0.5-0.025c-0.928,0-1.318,0.798-1.456,0.887
				c-2.588,2.371,0.368,4.625,0.528,4.768c0,0,2.049,1.563,1.771,2.142c-0.275,0.576-2.779,0.511-2.779,0.511
				c-0.99-0.014-2.747-0.534-3.711-1.114c-1.855-1.115-4.234-3.133-3.465-7.735c0.258-1.537,2.734-4.236,4.109-4.883
				c1.563-0.732,3.303-0.853,6.199-0.853c1.523,0.003,4.398,0.772,5.727,1.525c1.184,0.669,3.895,2.631,4.805,4.13
				c1.566,2.583,3.019,8.18,3.108,10.948c0.063,1.972-0.073,6.24-1.05,8.277c-0.876,1.827-3.432,5.179-5.443,6.271
				c-2.426,1.319-9.998,2.481-10.854,2.61L193.742,298.213z M154.99,295.569l38.579,0.593c2.284-0.348,8.225-1.393,9.935-2.322
				c1.471-0.799,3.789-3.795,4.524-5.328c0.757-1.575,0.933-5.384,0.867-7.415c-0.081-2.473-1.469-7.784-2.834-10.034
				c-0.591-0.975-2.808-2.693-4.015-3.375c-0.97-0.551-3.391-1.203-4.464-1.205c-2.537,0-4.118,0.643-5.403,1.246
				c-0.98,0.461-2.546,2.075-2.658,2.742c-0.568,3.4,0.934,4.811,2.479,5.739c0.102,0.051,0.322,0.101,0.617,0.147
				c-1.291-1.966-1.992-4.642,0.405-6.837c0.844-0.771,2.612-0.854,3.335-0.854c0.297,0,0.576,0.015,0.806,0.043
				c1.347,0.16,3.355,0.81,3.969,1.27c0.866,0.651,2.452,2.601,2.874,3.413c0.613,1.177,2.396,3.753-0.766,6.567
				c-0.371,0.532,2.096-1.474,2.492-0.769c0.766,1.364-2.685,3.156-3.921,2.852c2.29,1.327,1.141,5.422-1.332,1.65
				c-1.686,2.261-2.497,3.068-3.428,3.722c-2.011,1.413-6.595,2.693-8.5,3.095c-1.142,0.237-2.894,0.375-4.804,0.375
				c-1.897,0-3.625-0.138-4.74-0.378c-2.691-0.58-7.203-1.848-9.887-5.516c-0.885-1.208-1.151-3.666-1.119-5.754
				c-2.044-0.131-8.844-4.78-8.844-4.78l-8.92,7.727l-0.223,9.397c0.62,1.496,1.098,1.903,1.375,2.195
				C151.729,294.082,153.771,295.169,154.99,295.569z"/>
			<path id="Body_2_" fill="#4F803B" d="M154.99,295.569l38.579,0.593c2.284-0.348,8.225-1.393,9.935-2.322
				c1.471-0.799,3.789-3.795,4.524-5.328c0.757-1.575,0.933-5.384,0.867-7.415c-0.081-2.473-1.469-7.784-2.834-10.034
				c-0.591-0.975-2.808-2.693-4.015-3.375c-0.97-0.551-3.391-1.203-4.464-1.205c-2.537,0-4.118,0.643-5.403,1.246
				c-0.98,0.461-2.546,2.075-2.658,2.742c-0.568,3.4,0.934,4.811,2.479,5.739c0.102,0.051,0.322,0.101,0.617,0.147
				c-1.291-1.966-1.992-4.642,0.405-6.837c0.844-0.771,2.612-0.854,3.335-0.854c0.297,0,0.576,0.015,0.806,0.043
				c1.347,0.16,3.355,0.81,3.969,1.27c0.866,0.651,2.452,2.601,2.874,3.413c0.613,1.177,2.396,3.753-0.766,6.567
				c-0.371,0.532,2.096-1.474,2.492-0.769c0.766,1.364-2.685,3.156-3.921,2.852c2.29,1.327,1.141,5.422-1.332,1.65
				c-1.686,2.261-2.497,3.068-3.428,3.722c-2.011,1.413-6.595,2.693-8.5,3.095c-1.142,0.237-2.894,0.375-4.804,0.375
				c-1.897,0-3.625-0.138-4.74-0.378c-2.691-0.58-7.203-1.848-9.887-5.516c-0.885-1.208-1.151-3.666-1.119-5.754
				c-2.044-0.131-8.844-4.78-8.844-4.78l-8.92,7.727l-0.223,9.397c0.62,1.496,1.098,1.903,1.375,2.195
				C151.729,294.082,153.771,295.169,154.99,295.569z"/>
		</g>
		<g id="Shoe_Left">
			<path id="Outline_3_" d="M119.881,297.934c-11.558,0-19.786-0.769-24.201-1.794c-1.104-0.257-4.155-1.182-4.155-1.182
				s-3.961-6.173-3.961-11.849c0-4.942,0.373-5.738,1.193-7.501c0.798-1.711,3.504-4.636,5.176-5.662
				c1.423-0.872,3.486-1.854,6.469-2.047c0.547-0.034,1.521,0.166,2.396,0.166c0.746,0,1.337,0.05,1.755,0.147
				c1.293,0.303,3.591,1.139,4.548,1.861c0.859,0.649,3.145,2.471,3.773,3.742c0.418,0.846,0.924,3.317,0.53,4.559
				c-0.355,1.122-1.846,3.15-3.175,3.654c-0.489,0.186-1.161,0.487-1.632,0.487c0,0-1.341-0.135-1.796-0.159
				c-1.188-0.064-2.786-0.834-3.141-1.035c0,0-1.929-2.164-0.671-3.325c0.329-0.304,2.396,0.682,2.396,0.682
				c0.408,0.8,1.559,0.831,1.99-0.064c0.119-0.25,0.739-1.015,0.79-1.246c0.107-0.644-0.341-1.252-0.647-1.568
				c-0.354-0.364-2.873-0.662-3.378-0.704c-4.241-0.352-6.362,3.071-6.577,5.311c-0.15,1.559,0.691,3.806,1.652,4.67
				c2.238,2.01,6.83,4.381,12.112,4.413c0.122,0.001,10.353,0.864,15.061-2.526c1.309-0.943,3.23-2.836,4.239-3.998
				c0.637-0.731,1.8-1.93,2.901-2.795c2.137-1.678,1.962-4.853,3.731-5.742c0.251-0.126,0.552-0.187,0.917-0.187
				c0.842,0,1.834,0.33,2.026,0.396c1.817,0.631,4.382,1.557,5.626,2.295c0.584,0.346,1.774,0.469,2.615,0.469l0.974-0.023
				l0.597,19.118c0,0-1.656,0.259-2.188,0.414C139.038,299.501,133.539,298.213,119.881,297.934z M94.354,293.89
				c5.365-1.073,3.461-0.371,3.6,0.906c5.693,0.657,16.567,0.759,22.001,1.06c12.184,0.671,24.08,0,26.955-0.832
				c0,0,1.58-0.426,1.36-0.773c-1.36-2.138-0.836-14.52-0.836-14.52c-0.844-0.051-2.294-0.063-3.255-0.357
				c-3.631-1.11-4.134-2.869-5.254-2.199c-1.595,0.954-2.188,1.44-3.229,3.487c-0.786,1.545-1.474,3.392-1.582,5.086
				c-2.192,0.673-4.8,3.165-6.613,3.71c-3.521,1.059-11.776,2.399-15.742,2.399c-0.141,0-11.795-0.326-14.987-4.158
				c-2.372-2.846-2.243-5.581-1.939-7.388c0.354-2.124,1.615-5.662,5.713-7.229c0.701-0.268,2.179-0.64,3.667-0.64
				c0.576,0,1.223-0.053,1.688,0c0.976,0.109,3.019,0.32,3.739,1.951c0.417,0.95,0.581,2.829,0.433,3.718
				c-0.121,0.729-0.356,1.911-0.183,2.039c0.442,0.329,1.595-1.371,1.854-2.191c0.193-0.607-0.238-2.334-0.725-3.32
				c-0.423-0.853-2.104-2.45-3.124-3.221c-0.762-0.575-2.742-1.475-3.783-1.719c-0.154-0.037-0.529-0.098-1.314-0.098
				c-0.797,0-1.621,0.099-2.094,0.115c-1.846,0.07-4.417,1.044-5.563,1.747c-1.407,0.864-3.36,3.39-4.012,4.785
				c-0.724,1.551-1.504,4.997-1.617,6.626C89.226,287.059,92.495,293.488,94.354,293.89z"/>
			
				<linearGradient id="Body_3_" gradientUnits="userSpaceOnUse" x1="88.9941" y1="282.8652" x2="147.7905" y2="282.8652" gradientTransform="matrix(1 0 0 1 0.5 0)">
				<stop  offset="0" style="stop-color:#8DBF71"/>
				<stop  offset="0.3068" style="stop-color:#74A357"/>
				<stop  offset="0.7485" style="stop-color:#588840"/>
				<stop  offset="0.9944" style="stop-color:#4D7E3A"/>
			</linearGradient>
			<path id="Body_1_" fill="url(#Body_3_)" d="M94.354,293.89c5.365-1.073,3.461-0.371,3.6,0.906
				c5.693,0.657,16.567,0.759,22.001,1.06c12.184,0.671,24.08,0,26.955-0.832c0,0,1.58-0.426,1.36-0.773
				c-1.36-2.138-0.836-14.52-0.836-14.52c-0.844-0.051-2.294-0.063-3.255-0.357c-3.631-1.11-4.134-2.869-5.254-2.199
				c-1.595,0.954-2.188,1.44-3.229,3.487c-0.786,1.545-1.474,3.392-1.582,5.086c-2.192,0.673-4.8,3.165-6.613,3.71
				c-3.521,1.059-11.776,2.399-15.742,2.399c-0.141,0-11.795-0.326-14.987-4.158c-2.372-2.846-2.243-5.581-1.939-7.388
				c0.354-2.124,1.615-5.662,5.713-7.229c0.701-0.268,2.179-0.64,3.667-0.64c0.576,0,1.223-0.053,1.688,0
				c0.976,0.109,3.019,0.32,3.739,1.951c0.417,0.95,0.581,2.829,0.433,3.718c-0.121,0.729-0.356,1.911-0.183,2.039
				c0.442,0.329,1.595-1.371,1.854-2.191c0.193-0.607-0.238-2.334-0.725-3.32c-0.423-0.853-2.104-2.45-3.124-3.221
				c-0.762-0.575-2.742-1.475-3.783-1.719c-0.154-0.037-0.529-0.098-1.314-0.098c-0.797,0-1.621,0.099-2.094,0.115
				c-1.846,0.07-4.417,1.044-5.563,1.747c-1.407,0.864-3.36,3.39-4.012,4.785c-0.724,1.551-1.504,4.997-1.617,6.626
				C89.226,287.059,92.495,293.488,94.354,293.89z"/>
		</g>
		<g id="Shoe_Cuffs">
			
				<linearGradient id="Body_Left_1_" gradientUnits="userSpaceOnUse" x1="125.6836" y1="273.3906" x2="145.2524" y2="273.3906" gradientTransform="matrix(1 0 0 1 0.5 0)">
				<stop  offset="0" style="stop-color:#8DBF71"/>
				<stop  offset="0.3068" style="stop-color:#74A357"/>
				<stop  offset="0.7485" style="stop-color:#588840"/>
				<stop  offset="0.9944" style="stop-color:#4D7E3A"/>
			</linearGradient>
			<path id="Body_Left" fill="url(#Body_Left_1_)" d="M129.059,266.823c2.473,0.314,4.153,0.648,6.745,0.648
				c1.628,0,3.615-0.132,6.384-0.483c0.092-0.012,0.192-0.018,0.3-0.018c0.862,0,1.836,0.524,2.123,0.865
				c1.944,2.309,0.816,7.941,0.816,7.941s-4.089-1.257-7.454-3.837c-6.733,6.706-11.789,8.019-11.789,8.019s1.188-2.378,2.129-5.232
				c0.244-0.738,1.332-1.896,2.675-2.221c-0.039-0.307-0.433-1.023-1.812-1C129.522,269.726,129.588,268.026,129.059,266.823"/>
			
				<linearGradient id="Body_Right_1_" gradientUnits="userSpaceOnUse" x1="95.498" y1="272.0156" x2="118.8184" y2="272.0156" gradientTransform="matrix(-1 0 0 1 268.1406 0)">
				<stop  offset="0" style="stop-color:#8DBF71"/>
				<stop  offset="0.3068" style="stop-color:#74A357"/>
				<stop  offset="0.7485" style="stop-color:#588840"/>
				<stop  offset="0.9944" style="stop-color:#4D7E3A"/>
			</linearGradient>
			<path id="Body_Right" fill="url(#Body_Right_1_)" d="M168.041,266.461c0.468,1.631,1.143,5.519,1.367,6.269
				c0.898,3.006,3.233,4.115,3.234,4.115c0,0-9.176-0.191-13.322-6.504c-4.528,1.765-7.5,6.974-8.937,7.229
				c-0.159,0.029-1.426-1.162-0.958-5.128c0.754-0.031,1.9-2.194,0.431-2.207c0.604-0.254,2.587-2.047,0.359-2.271
				C155.391,266.652,163.366,267.417,168.041,266.461z"/>
		</g>
	</g>
</g>
</svg>
