<?xml version="1.0" encoding="utf-8"?>
<!-- Generator: Adobe Illustrator 15.0.2, SVG Export Plug-In . SVG Version: 6.00 Build 0)  -->
<!DOCTYPE svg PUBLIC "-//W3C//DTD SVG 1.1//EN" "http://www.w3.org/Graphics/SVG/1.1/DTD/svg11.dtd">
<svg version="1.1" id="Fish_1_" xmlns="http://www.w3.org/2000/svg" xmlns:xlink="http://www.w3.org/1999/xlink" x="0px" y="0px"
	 width="649px" height="640px" viewBox="0 0 649 640" enable-background="new 0 0 649 640" xml:space="preserve">
<g id="Fish">
	<g id="Body_1_">
		<g id="Fins">
			<g id="Tail">
				<g id="Fin_Bottom">
					
						<linearGradient id="Fin_2_" gradientUnits="userSpaceOnUse" x1="1565.1719" y1="1388.2305" x2="1319.8552" y2="1142.9165" gradientTransform="matrix(0.4967 0.0578 -0.0578 0.4967 -39.306 -293.7066)">
						<stop  offset="0.4121" style="stop-color:#F9A031"/>
						<stop  offset="1" style="stop-color:#EE3726"/>
					</linearGradient>
					<path id="Fin_1_" fill="url(#Fin_2_)" d="M530.93,393.506l93.014,45.37c0,0,24.879-65.643-28.343-85.452L530.93,393.506z"/>
					<g id="Spines_1_">
						
							<line id="Spine_53_" fill="none" stroke="#C1272D" stroke-width="1.7501" stroke-linecap="round" x1="540.757" y1="387.41" x2="626.441" y2="430.616"/>
						
							<line id="Spine_52_" fill="none" stroke="#C1272D" stroke-width="0.8402" stroke-linecap="round" x1="586.955" y1="358.785" x2="624.617" y2="379.296"/>
						
							<line id="Spine_51_" fill="none" stroke="#C1272D" stroke-width="1.6704" stroke-linecap="round" x1="535.646" y1="390.587" x2="625.266" y2="434.858"/>
						
							<line id="Spine_50_" fill="none" stroke="#C1272D" stroke-width="1.6704" stroke-linecap="round" x1="546.414" y1="383.902" x2="627.408" y2="426.486"/>
						
							<line id="Spine_49_" fill="none" stroke="#C1272D" stroke-width="1.6013" stroke-linecap="round" x1="550.394" y1="381.44" x2="628.298" y2="421.854"/>
						
							<line id="Spine_48_" fill="none" stroke="#C1272D" stroke-width="1.5409" stroke-linecap="round" x1="555.301" y1="378.402" x2="628.952" y2="417.505"/>
						
							<line id="Spine_47_" fill="none" stroke="#C1272D" stroke-width="1.4373" stroke-linecap="round" x1="559.585" y1="375.748" x2="629.448" y2="412.799"/>
						
							<line id="Spine_46_" fill="none" stroke="#C1272D" stroke-width="1.3729" stroke-linecap="round" x1="565.217" y1="372.254" x2="629.753" y2="407.723"/>
						
							<line id="Spine_45_" fill="none" stroke="#C1272D" stroke-width="1.2732" stroke-linecap="round" x1="570.168" y1="369.183" x2="629.671" y2="401.839"/>
						
							<line id="Spine_44_" fill="none" stroke="#C1272D" stroke-width="1.1484" stroke-linecap="round" x1="574.993" y1="366.198" x2="629.2" y2="396.153"/>
						
							<line id="Spine_27_" fill="none" stroke="#C1272D" stroke-width="1.0122" stroke-linecap="round" x1="579.201" y1="363.583" x2="628.12" y2="390.429"/>
						
							<line id="Spine_26_" fill="none" stroke="#C1272D" stroke-width="0.8608" stroke-linecap="round" x1="583.288" y1="360.949" x2="626.556" y2="384.247"/>
						
							<line id="Spine_25_" fill="none" stroke="#C1272D" stroke-width="0.7313" stroke-linecap="round" x1="589.842" y1="356.991" x2="622.145" y2="374.563"/>
						
							<line id="Spine_24_" fill="none" stroke="#C1272D" stroke-width="0.4775" stroke-linecap="round" x1="592.511" y1="355.337" x2="619.354" y2="370.4"/>
					</g>
				</g>
				<g id="Fin_Top">
					
						<linearGradient id="Fin_3_" gradientUnits="userSpaceOnUse" x1="1481.0381" y1="-145.4614" x2="1236.9854" y2="-389.5115" gradientTransform="matrix(0.5 0 0 -0.5 -68.5 160.5)">
						<stop  offset="0.4121" style="stop-color:#F9A031"/>
						<stop  offset="1" style="stop-color:#EE3726"/>
					</linearGradient>
					<path id="Fin" fill="url(#Fin_3_)" d="M537.719,312.021l96.338-34.933c0,0,15.776,62.893-38.456,76.335L537.719,312.021z"/>
					<g id="Spines">
						
							<line id="Spine_23_" fill="none" stroke="#C1272D" stroke-width="1.6605" stroke-linecap="round" x1="546.859" y1="318.558" x2="635.569" y2="286.232"/>
						
							<line id="Spine_22_" fill="none" stroke="#C1272D" stroke-width="0.797" stroke-linecap="round" x1="588.621" y1="348.427" x2="626.219" y2="333.485"/>
						
							<line id="Spine_21_" fill="none" stroke="#C1272D" stroke-width="1.7236" stroke-linecap="round" x1="542.492" y1="315.241" x2="634.845" y2="281.791"/>
						
							<line id="Spine_20_" fill="none" stroke="#C1272D" stroke-width="1.5854" stroke-linecap="round" x1="550.928" y1="321.377" x2="635.977" y2="290.64"/>
						
							<line id="Spine_19_" fill="none" stroke="#C1272D" stroke-width="1.519" stroke-linecap="round" x1="554.563" y1="324.07" x2="636.122" y2="294.522"/>
						
							<line id="Spine_18_" fill="none" stroke="#C1272D" stroke-width="1.4619" stroke-linecap="round" x1="559.178" y1="327.373" x2="636.192" y2="298.51"/>
						
							<line id="Spine_17_" fill="none" stroke="#C1272D" stroke-width="1.3642" stroke-linecap="round" x1="563.195" y1="330.246" x2="635.977" y2="303.176"/>
						
							<line id="Spine_16_" fill="none" stroke="#C1272D" stroke-width="1.3031" stroke-linecap="round" x1="568.197" y1="333.926" x2="635.544" y2="307.709"/>
						
							<line id="Spine_14_" fill="none" stroke="#C1272D" stroke-width="1.2082" stroke-linecap="round" x1="573.137" y1="337.348" x2="634.667" y2="312.971"/>
						
							<line id="Spine_13_" fill="none" stroke="#C1272D" stroke-width="1.0893" stroke-linecap="round" x1="577.122" y1="340.207" x2="633.262" y2="318.567"/>
						
							<line id="Spine_3_" fill="none" stroke="#C1272D" stroke-width="0.9604" stroke-linecap="round" x1="580.892" y1="342.9" x2="631.298" y2="324.07"/>
						
							<line id="Spine_2_" fill="none" stroke="#C1272D" stroke-width="0.8169" stroke-linecap="round" x1="585.067" y1="345.555" x2="628.934" y2="329.081"/>
						
							<line id="Spine_1_" fill="none" stroke="#C1272D" stroke-width="0.6941" stroke-linecap="round" x1="591.697" y1="350.638" x2="623.289" y2="337.281"/>
						
							<line id="Spine" fill="none" stroke="#C1272D" stroke-width="0.453" stroke-linecap="round" x1="594.164" y1="352.398" x2="618.884" y2="341.742"/>
					</g>
				</g>
			</g>
			<g id="Top_Fin">
				
					<radialGradient id="Top_2_" cx="-1019.2935" cy="7328.7012" r="117.0389" gradientTransform="matrix(-0.8829 -0.2487 -0.0921 0.2996 195.6808 -2255.6833)" gradientUnits="userSpaceOnUse">
					<stop  offset="0" style="stop-color:#F9A031"/>
					<stop  offset="0.3239" style="stop-color:#F99E31"/>
					<stop  offset="0.5025" style="stop-color:#F89630"/>
					<stop  offset="0.6457" style="stop-color:#F6882E"/>
					<stop  offset="0.7701" style="stop-color:#F4742C"/>
					<stop  offset="0.8823" style="stop-color:#F25B2A"/>
					<stop  offset="0.9843" style="stop-color:#EF3C27"/>
					<stop  offset="1" style="stop-color:#EE3726"/>
				</radialGradient>
				<path id="Top_1_" fill="url(#Top_2_)" d="M357.857,150.545c0,0-33.105-26.146-101.042,35.571
					c32.787,5.14,67.511,15.319,104.525,30.005C374.162,193.122,377.512,169.894,357.857,150.545z"/>
				<g id="Spines_Top_1_">
					
						<line id="Spine_41_" fill="none" stroke="#C1272D" stroke-width="1.6605" stroke-linecap="round" x1="278.046" y1="190.127" x2="333.105" y2="145.045"/>
					
						<line id="Spine_40_" fill="none" stroke="#C1272D" stroke-width="0.797" stroke-linecap="round" x1="341.458" y1="208.586" x2="371.715" y2="182.837"/>
					
						<line id="Spine_39_" fill="none" stroke="#C1272D" stroke-width="1.7236" stroke-linecap="round" x1="284.987" y1="192.037" x2="342.043" y2="145.313"/>
					
						<line id="Spine_38_" fill="none" stroke="#C1272D" stroke-width="1.5854" stroke-linecap="round" x1="292.151" y1="193.691" x2="349.613" y2="146.772"/>
					
						<line id="Spine_37_" fill="none" stroke="#C1272D" stroke-width="1.519" stroke-linecap="round" x1="298.272" y1="194.979" x2="354.323" y2="148.523"/>
					
						<line id="Spine_36_" fill="none" stroke="#C1272D" stroke-width="1.4619" stroke-linecap="round" x1="304.355" y1="196.289" x2="358.646" y2="151.339"/>
					
						<line id="Spine_35_" fill="none" stroke="#C1272D" stroke-width="1.3642" stroke-linecap="round" x1="309.243" y1="197.851" x2="361.334" y2="154.284"/>
					
						<line id="Spine_34_" fill="none" stroke="#C1272D" stroke-width="1.3031" stroke-linecap="round" x1="314.303" y1="199.201" x2="363.922" y2="157.62"/>
					
						<line id="Spine_33_" fill="none" stroke="#C1272D" stroke-width="1.2082" stroke-linecap="round" x1="318.167" y1="200.773" x2="366.235" y2="161.221"/>
					
						<line id="Spine_32_" fill="none" stroke="#C1272D" stroke-width="1.0893" stroke-linecap="round" x1="324.238" y1="202.554" x2="368.346" y2="165.377"/>
					
						<line id="Spine_31_" fill="none" stroke="#C1272D" stroke-width="0.9604" stroke-linecap="round" x1="329.095" y1="204.297" x2="370.132" y2="170.278"/>
					
						<line id="Spine_30_" fill="none" stroke="#C1272D" stroke-width="0.8169" stroke-linecap="round" x1="334.714" y1="206.263" x2="371.041" y2="175.818"/>
					
						<line id="Spine_29_" fill="none" stroke="#C1272D" stroke-width="0.6941" stroke-linecap="round" x1="347.433" y1="210.767" x2="371.13" y2="189.899"/>
					
						<line id="Spine_28_" fill="none" stroke="#C1272D" stroke-width="0.453" stroke-linecap="round" x1="354.323" y1="213.401" x2="368.346" y2="200.773"/>
					
						<line id="Spine_42_" fill="none" stroke="#C1272D" stroke-width="1.6605" stroke-linecap="round" x1="271.295" y1="188.721" x2="323.341" y2="146.772"/>
					
						<line id="Spine_43_" fill="none" stroke="#C1272D" stroke-width="1.6605" stroke-linecap="round" x1="264.952" y1="187.49" x2="312.021" y2="149.896"/>
				</g>
			</g>
		</g>
		<g id="Body_2_">
			
				<radialGradient id="Gradient_2_" cx="914.5068" cy="-718.4331" r="121.3807" gradientTransform="matrix(1.6995 0 0 -1.653 -1486.6866 -911.4026)" gradientUnits="userSpaceOnUse">
				<stop  offset="0" style="stop-color:#F9A031"/>
				<stop  offset="0.3239" style="stop-color:#F99E31"/>
				<stop  offset="0.5025" style="stop-color:#F89630"/>
				<stop  offset="0.6457" style="stop-color:#F6882E"/>
				<stop  offset="0.7701" style="stop-color:#F4742C"/>
				<stop  offset="0.8823" style="stop-color:#F25B2A"/>
				<stop  offset="0.9843" style="stop-color:#EF3C27"/>
				<stop  offset="1" style="stop-color:#EE3726"/>
			</radialGradient>
			<path id="Gradient_1_" fill="url(#Gradient_2_)" d="M95.502,216.32c101.569-78.758,295.358-17.407,500.098,137.104
				c0,0-249.922,180.124-445.281,110.993C89.025,442.729-78.619,351.339,95.502,216.32z"/>
			<path id="Lower_Shadow" opacity="0.17" enable-background="new    " d="M307.26,439.975
				c-72.724,5.825-155.341,1.146-242.815-24.23c0,0,69.501,70.653,206.698,64.472c82.418-3.72,216.208-52.3,319.347-123.237
				C589.994,357.322,488.952,425.44,307.26,439.975z"/>
		</g>
		<g id="Fin_Side">
			<path id="Body" d="M281.453,320.129l14.315,41.992c0,0,127.396,23.568,130.892-17.281
				C426.659,344.84,427.766,315.42,281.453,320.129z"/>
			
				<radialGradient id="Gradient_3_" cx="639.9756" cy="-398.3281" r="23.3302" gradientTransform="matrix(7.1703 0 0 -2.3873 -4108.1279 -597.7071)" gradientUnits="userSpaceOnUse">
				<stop  offset="0" style="stop-color:#F9A031"/>
				<stop  offset="0.3239" style="stop-color:#F99E31"/>
				<stop  offset="0.5025" style="stop-color:#F89630"/>
				<stop  offset="0.6457" style="stop-color:#F6882E"/>
				<stop  offset="0.7701" style="stop-color:#F4742C"/>
				<stop  offset="0.8823" style="stop-color:#F25B2A"/>
				<stop  offset="0.9843" style="stop-color:#EF3C27"/>
				<stop  offset="1" style="stop-color:#EE3726"/>
			</radialGradient>
			<path id="Gradient" fill="url(#Gradient_3_)" d="M263.566,315.536v53.428c0,0,148.753,14.145,152.25-26.705
				C415.815,342.259,409.885,310.827,263.566,315.536z"/>
			<g id="Spines_Side">
				
					<line id="Spine_12_" fill="none" stroke="#C1272D" stroke-width="1.519" stroke-linecap="round" x1="362.636" y1="322.572" x2="378.266" y2="322.572"/>
				
					<line id="Spine_11_" fill="none" stroke="#C1272D" stroke-width="1.4619" stroke-linecap="round" x1="364.438" y1="326.261" x2="392.093" y2="326.261"/>
				
					<line id="Spine_10_" fill="none" stroke="#C1272D" stroke-width="1.3642" stroke-linecap="round" x1="365.828" y1="329.938" x2="401.582" y2="330.074"/>
				
					<line id="Spine_9_" fill="none" stroke="#C1272D" stroke-width="1.3031" stroke-linecap="round" x1="366.879" y1="333.725" x2="408.05" y2="333.725"/>
				
					<line id="Spine_8_" fill="none" stroke="#C1272D" stroke-width="1.2082" stroke-linecap="round" x1="367.628" y1="337.945" x2="413.104" y2="337.945"/>
				
					<line id="Spine_7_" fill="none" stroke="#C1272D" stroke-width="1.0893" stroke-linecap="round" x1="367.962" y1="342.559" x2="415.815" y2="342.259"/>
				
					<line id="Spine_6_" fill="none" stroke="#C1272D" stroke-width="0.9604" stroke-linecap="round" x1="367.813" y1="347.061" x2="414.418" y2="347.601"/>
				
					<line id="Spine_5_" fill="none" stroke="#C1272D" stroke-width="0.8169" stroke-linecap="round" x1="367.149" y1="351.783" x2="411.74" y2="351.783"/>
				
					<line id="Spine_15_" fill="none" stroke="#C1272D" stroke-width="0.797" stroke-linecap="round" x1="365.548" y1="357.665" x2="404.621" y2="357.665"/>
				
					<line id="Spine_4_" fill="none" stroke="#C1272D" stroke-width="0.6941" stroke-linecap="round" x1="362.447" y1="364.544" x2="388.141" y2="364.369"/>
			</g>
		</g>
	</g>
	<g id="Gill">
		
			<radialGradient id="Highlight_2_" cx="1102.3701" cy="797.3105" r="15.2231" gradientTransform="matrix(-1.3909 3.0888 2.3666 1.0876 -156.3334 -3912.6836)" gradientUnits="userSpaceOnUse">
			<stop  offset="0" style="stop-color:#EE3726"/>
			<stop  offset="0.189" style="stop-color:#EE3B26;stop-opacity:0.811"/>
			<stop  offset="0.3666" style="stop-color:#EF4627;stop-opacity:0.6334"/>
			<stop  offset="0.5399" style="stop-color:#F15929;stop-opacity:0.4601"/>
			<stop  offset="0.7104" style="stop-color:#F3742B;stop-opacity:0.2896"/>
			<stop  offset="0.8773" style="stop-color:#F6962E;stop-opacity:0.1227"/>
			<stop  offset="1" style="stop-color:#F9B431;stop-opacity:0"/>
		</radialGradient>
		<path id="Highlight" fill="url(#Highlight_2_)" d="M175.84,392.903c-7.723-3.55-22.946-27.891-14.862-45.843
			c8.083-17.948,38.756-27.926,46.482-24.375c4.641,13.165,11.516,27.624,3.436,45.576
			C202.814,386.215,185.796,389.893,175.84,392.903z"/>
		<path id="Red_with_Black_border" fill="#C1272D" stroke="#000000" stroke-width="1.6605" stroke-miterlimit="10" d="
			M175.824,392.969c-0.424-0.146-0.318-0.054-0.378-0.543c-0.087-0.695,28.763-10.477,34.222-23.108
			c7.072-16.368,2.405-35.53-3.185-46.325c-0.318-0.608-0.087-1.38,0.512-1.724c0.597-0.341,1.337-0.118,1.657,0.489
			c5.812,11.224,13.294,32.238,4.866,49.238c-5.843,11.794-16.96,18.78-36.62,21.928
			C176.697,392.952,175.999,393.028,175.824,392.969z"/>
		
			<path id="Gold" fill="none" stroke="#FBB03B" stroke-width="3.3209" stroke-linecap="round" stroke-linejoin="round" stroke-opacity="0.52" d="
			M207.459,322.686c12.868,27.738,13.731,59.156-31.46,69.754"/>
		<path id="Red" fill="none" stroke="#C1272D" stroke-width="3.3209" stroke-linecap="round" stroke-linejoin="round" d="
			M207.459,322.686c0,0,28.079,54.016-31.46,69.754"/>
		
			<path id="Gold_2" fill="none" stroke="#FBB03B" stroke-width="3.3209" stroke-linecap="round" stroke-linejoin="round" stroke-opacity="0.52" d="
			M207.459,322.686c0,0,25.802,50.314-31.46,69.754"/>
		<path id="Black" fill="none" stroke="#000000" stroke-width="3.3468" stroke-linecap="round" stroke-linejoin="round" d="
			M207.459,322.686c0,0,23.976,46.553-31.46,69.754"/>
	</g>
	<path id="Mouth" fill="none" stroke="#000000" stroke-width="10.3792" stroke-linecap="round" stroke-linejoin="round" d="
		M25.799,366.257c1.233,10.908,26.436,31.717,44.825-4.791"/>
	<g id="Eye">
		
			<radialGradient id="Eye_Socket_1_" cx="949.4111" cy="-723.0332" r="20.4082" gradientTransform="matrix(1.6995 0 0 -1.653 -1486.6866 -911.4026)" gradientUnits="userSpaceOnUse">
			<stop  offset="0" style="stop-color:#D5D5D5"/>
			<stop  offset="0.0147" style="stop-color:#C6C6C6"/>
			<stop  offset="0.0598" style="stop-color:#9D9D9D"/>
			<stop  offset="0.1104" style="stop-color:#777777"/>
			<stop  offset="0.1655" style="stop-color:#575757"/>
			<stop  offset="0.2263" style="stop-color:#3B3B3B"/>
			<stop  offset="0.295" style="stop-color:#252525"/>
			<stop  offset="0.3752" style="stop-color:#141414"/>
			<stop  offset="0.4745" style="stop-color:#090909"/>
			<stop  offset="0.6136" style="stop-color:#020202"/>
			<stop  offset="1" style="stop-color:#000000"/>
		</radialGradient>
		<ellipse id="Eye_Socket" fill="url(#Eye_Socket_1_)" cx="126.83" cy="283.78" rx="34.684" ry="33.735"/>
		<ellipse id="Eye_White" fill="#FFFFFF" cx="126.83" cy="283.779" rx="24.905" ry="24.219"/>
		
			<linearGradient id="Highlight_3_" gradientUnits="userSpaceOnUse" x1="-251.0439" y1="-19.5" x2="-159.2402" y2="3.7143" gradientTransform="matrix(0.4924 0.3652 0.3413 -0.4602 231.2604 354.7533)">
			<stop  offset="0" style="stop-color:#FFFFFF;stop-opacity:0"/>
			<stop  offset="1" style="stop-color:#FFFFFF"/>
		</linearGradient>
		<path id="Highlight_1_" fill="url(#Highlight_3_)" d="M104.91,266.373c9.684-12.698,28.849-14.819,42.82-4.742
			c13.968,10.08,17.449,28.043,7.761,40.744c-9.681,12.694-28.855,15.309-42.823,5.229C98.7,297.53,95.226,279.067,104.91,266.373z"
			/>
		<ellipse id="Retina" cx="115.82" cy="294.49" rx="9.497" ry="9.238"/>
	</g>
</g>
</svg>
