<?xml version="1.0" encoding="utf-8"?>
<!-- Generator: Adobe Illustrator 15.0.2, SVG Export Plug-In . SVG Version: 6.00 Build 0)  -->
<!DOCTYPE svg PUBLIC "-//W3C//DTD SVG 1.1//EN" "http://www.w3.org/Graphics/SVG/1.1/DTD/svg11.dtd">
<svg version="1.1" id="Home" xmlns="http://www.w3.org/2000/svg" xmlns:xlink="http://www.w3.org/1999/xlink" x="0px" y="0px"
	 width="640px" height="640px" viewBox="0 0 640 640" enable-background="new 0 0 640 640" xml:space="preserve">
<path id="Home_1_" fill="#C69C6D" stroke="#000000" stroke-width="2" stroke-miterlimit="10" d="M591.771,240.235L333.672,7.362
	c-11.216-9.817-26.656-9.817-37.871,0L48.915,226.194c-7.02,5.464-10.128,13.536-9.816,21.554V607.75c0,4.196,0,16.838,9.817,25.229
	C53.14,637.203,60.16,640,68.551,640c1.427,0,4.223,0,5.622,0h133.245h0.818h55.288V457.64h112.212V640H431.8h0.072h0.001h122.029
	c1.397,0,1.397,0,2.824,0c2.798,0,4.195,0,6.992,0c7.021,0,18.236-1.398,26.654-8.419c5.622-6.992,9.817-15.439,9.817-23.83V266.923
	C602.455,257.359,599.375,246.873,591.771,240.235z M431.873,584V429.587c0-15.439-12.643-28.054-28.054-28.054H235.5
	c-15.439,0-28.082,12.615-28.082,28.054v154.412l-112.213-0.106V259.616L314.037,66.294l230.047,207.165v310.435L431.873,584z"/>
</svg>
