<?xml version="1.0" encoding="utf-8"?>
<!-- Generator: Adobe Illustrator 15.0.2, SVG Export Plug-In . SVG Version: 6.00 Build 0)  -->
<!DOCTYPE svg PUBLIC "-//W3C//DTD SVG 1.1//EN" "http://www.w3.org/Graphics/SVG/1.1/DTD/svg11.dtd" [
	<!ENTITY ns_flows "http://ns.adobe.com/Flows/1.0/">
	<!ENTITY ns_extend "http://ns.adobe.com/Extensibility/1.0/">
	<!ENTITY ns_ai "http://ns.adobe.com/AdobeIllustrator/10.0/">
	<!ENTITY ns_graphs "http://ns.adobe.com/Graphs/1.0/">
]>
<svg version="1.1"
	 id="Layer_1" xmlns:x="&ns_extend;" xmlns:i="&ns_ai;" xmlns:graph="&ns_graphs;" xmlns:sketch="http://www.bohemiancoding.com/sketch/ns"
	 xmlns="http://www.w3.org/2000/svg" xmlns:xlink="http://www.w3.org/1999/xlink" xmlns:a="http://ns.adobe.com/AdobeSVGViewerExtensions/3.0/"
	 x="0px" y="0px" width="640px" height="640px" viewBox="-280 -280 640 640" enable-background="new -280 -280 640 640"
	 xml:space="preserve">
<title></title>
<desc></desc>
<g id="Page-1" display="none">
	<g id="icon-51-laughing-face" display="inline">
		<path id="laughing-face" d="M41.25,72.5c17.259,0,31.25-13.991,31.25-31.25S58.509,10,41.25,10S10,23.991,10,41.25
			S23.991,72.5,41.25,72.5L41.25,72.5z M41.25,70C57.129,70,70,57.128,70,41.25S57.129,12.5,41.25,12.5
			c-15.878,0-28.75,12.872-28.75,28.75S25.372,70,41.25,70L41.25,70z M46.679,34.482l7.071-7.071l7.071,7.071l-1.769,1.768
			l-5.303-5.303l-5.303,5.303L46.679,34.482L46.679,34.482z M21.679,34.482l7.071-7.071l7.071,7.071l-1.768,1.768l-5.303-5.303
			l-5.303,5.303L21.679,34.482L21.679,34.482z M22.5,47.5c0,0,2.5,15,18.75,15S60,47.5,60,47.5H22.5L22.5,47.5z M25.861,50
			c0,0,3.219,10.033,15.45,10.033S56.605,50,56.605,50H25.861L25.861,50z"/>
	</g>
</g>
<g id="icon-51-laughing-face_1_">
	<g id="XMLID_1_">
		<g>
			<polygon points="215.376,-20.671 199.515,-4.81 152.02,-52.305 104.435,-4.81 88.572,-20.671 152.02,-84.028 			"/>
			<path d="M319.956,39.998c0,154.763-125.28,280.043-279.954,280.043c-154.584,0-280.043-125.28-280.043-280.043
				c0-154.674,125.459-280.043,280.043-280.043C194.676-240.046,319.956-114.676,319.956,39.998z M40.002,297.638
				c142.217,0,257.729-115.333,257.729-257.64s-115.513-257.64-257.729-257.64c-142.217,0-257.64,115.333-257.64,257.64
				S-102.215,297.638,40.002,297.638z"/>
			<path d="M40.54,208.292c109.687,0,137.198-89.883,137.198-89.883H-97.914C-97.914,118.409-68.969,208.292,40.54,208.292z
				 M208.028,96.096c0,0-22.583,134.331-168.026,134.331c-145.533,0-168.026-134.331-168.026-134.331H208.028z"/>
			<path fill="#FCEE21" d="M40.002-217.643c142.217,0,257.729,115.333,257.729,257.64s-115.513,257.64-257.729,257.64
				c-142.217,0-257.64-115.333-257.64-257.64S-102.215-217.643,40.002-217.643z M199.515-4.81l15.861-15.861L152.02-84.028
				L88.572-20.671L104.435-4.81l47.585-47.495L199.515-4.81z M208.028,96.096h-336.053c0,0,22.493,134.331,168.026,134.331
				C185.445,230.427,208.028,96.096,208.028,96.096z M-24.52-4.81l15.861-15.861l-63.446-63.357l-63.268,63.357l15.862,15.861
				l47.406-47.495L-24.52-4.81z"/>
			<path fill="#FFFFFF" d="M-97.914,118.409h275.652c0,0-27.512,89.883-137.198,89.883
				C-68.969,208.292-97.914,118.409-97.914,118.409z"/>
			<polygon points="-8.659,-20.671 -24.52,-4.81 -72.105,-52.305 -119.511,-4.81 -135.373,-20.671 -72.105,-84.028 			"/>
		</g>
		<g>
		</g>
	</g>
</g>
</svg>
