<?xml version="1.0" encoding="utf-8"?>
<!-- Generator: Adobe Illustrator 16.0.0, SVG Export Plug-In . SVG Version: 6.00 Build 0)  -->
<!DOCTYPE svg PUBLIC "-//W3C//DTD SVG 1.1//EN" "http://www.w3.org/Graphics/SVG/1.1/DTD/svg11.dtd">
<svg version="1.1" id="Snowflake6_1_" xmlns="http://www.w3.org/2000/svg" xmlns:xlink="http://www.w3.org/1999/xlink" x="0px"
	 y="0px" width="640px" height="640px" viewBox="0 0 640 640" enable-background="new 0 0 640 640" xml:space="preserve">
<path id="Snowflake6" fill="#FFFFFF" stroke="#B0E0E8" stroke-width="2" stroke-miterlimit="10" d="M587.323,468.542
	c-7.546,13.485-21.804,21.883-37.274,21.883c-7.201,0-14.369-1.859-20.733-5.389c-9.94-5.562-17.156-14.651-20.244-25.616
	c-2.017-7.137-1.97-14.494-0.299-21.506l-25.208-14.572v26.767c0,4.538-3.671,8.209-8.209,8.209c-4.536,0-8.207-3.656-8.207-8.209
	v-36.25l-29.084-16.78v72.534c0,4.522-3.67,8.21-8.208,8.21c-4.536,0-8.207-3.673-8.207-8.21v-80.867l-65.083-7.106l-26.357,59.885
	l70.03,40.457c3.922,2.269,5.261,7.264,3.024,11.201c-2.285,3.938-7.278,5.278-11.233,3.009l-62.845-36.267v33.573l31.383,18.118
	c3.938,2.3,5.278,7.294,3.009,11.232c-1.544,2.631-4.284,4.111-7.104,4.111c-1.402,0-2.836-0.347-4.112-1.103l-23.175-13.391v28.042
	c19.583,3.86,34.424,21.128,34.424,41.828c0,23.522-19.127,42.664-42.664,42.664c-23.537,0-42.647-19.158-42.647-42.664
	c0-20.748,14.841-37.999,34.471-41.828v-28.011l-23.144,13.359c-3.939,2.269-8.933,0.945-11.201-3.024
	c-2.3-3.892-0.961-8.933,2.993-11.202l31.352-18.117v-33.573l-62.751,36.235c-1.275,0.741-2.678,1.071-4.096,1.071
	c-2.836,0-5.593-1.448-7.105-4.096c-2.3-3.906-0.961-8.948,2.994-11.202l70.013-40.395l-26.389-59.93l-65.082,7.089v80.869
	c0,4.521-3.702,8.207-8.208,8.207c-4.538,0-8.208-3.686-8.208-8.207v-72.504l-29.066,16.747v36.252c0,4.538-3.671,8.209-8.208,8.209
	c-4.521,0-8.208-3.656-8.208-8.209v-26.783l-25.223,14.59c1.701,7.011,1.717,14.352-0.3,21.504
	c-3.104,10.95-10.319,20.056-20.276,25.617c-6.333,3.529-13.486,5.389-20.717,5.389c-15.471,0-29.776-8.382-37.275-21.883
	c-5.545-9.957-6.9-21.458-3.75-32.423c3.088-10.95,10.303-20.04,20.229-25.585c6.349-3.562,13.486-5.42,20.765-5.42
	c13.785,0,26.326,6.916,34.313,17.912l24.042-13.879l-23.175-13.376c-3.907-2.269-5.246-7.295-3.009-11.218
	c2.269-3.938,7.279-5.245,11.201-3.009l31.383,18.117l29.067-16.778l-62.767-36.235c-3.907-2.284-5.246-7.277-3.009-11.218
	c2.285-3.938,7.311-5.23,11.217-3.009l70.013,40.427l38.646-52.841l-38.646-52.809l-70.029,40.411
	c-1.308,0.74-2.71,1.103-4.096,1.103c-2.82,0-5.593-1.466-7.105-4.112c-2.284-3.923-0.945-8.933,2.993-11.202l62.813-36.251
	l-29.099-16.779l-31.383,18.118c-1.275,0.741-2.694,1.103-4.096,1.103c-2.82,0-5.577-1.465-7.105-4.096
	c-2.3-3.923-0.961-8.949,3.009-11.217l23.175-13.392l-24.025-13.879c-7.972,10.997-20.544,17.913-34.345,17.913
	c-7.2,0-14.384-1.875-20.733-5.404c-20.544-11.469-27.901-37.496-16.479-58.024c10.997-19.787,38.047-27.602,57.992-16.495
	c9.957,5.577,17.172,14.652,20.26,25.617c2.033,7.137,1.985,14.479,0.315,21.505l25.191,14.542v-26.751
	c0-4.538,3.687-8.208,8.208-8.208c4.538,0,8.208,3.671,8.208,8.208v36.235l29.099,16.779l-0.017-72.487
	c0-4.522,3.671-8.208,8.208-8.208c4.521,0,8.208,3.671,8.208,8.208l0.016,80.852l65.082,7.09l26.389-59.931l-70.013-40.394
	c-3.907-2.253-5.262-7.279-2.994-11.202c2.269-3.923,7.279-5.23,11.202-2.993l62.75,36.22v-33.589l-31.352-18.118
	c-3.907-2.269-5.246-7.279-2.993-11.202c2.269-3.939,7.279-5.247,11.201-2.994l23.144,13.36V99.476
	c-19.583-3.844-34.439-21.126-34.439-41.813c0-23.521,19.11-42.663,42.647-42.663c23.537,0,42.663,19.142,42.663,42.663
	c0,20.701-14.824,37.984-34.455,41.813v28.043l23.175-13.392c3.86-2.284,8.917-0.961,11.218,2.994
	c2.284,3.923,0.945,8.948-3.009,11.202l-31.384,18.212v33.573l62.798-36.267c3.922-2.269,8.933-0.961,11.201,3.009
	c2.3,3.922,0.961,8.933-2.992,11.201l-70.046,40.426l26.39,59.899l65.098-7.089V170.45c0-4.537,3.686-8.208,8.207-8.208
	c4.538,0,8.208,3.671,8.208,8.208v72.486l29.067-16.763v-36.235c0-4.537,3.688-8.208,8.209-8.208c4.553,0,8.208,3.671,8.208,8.208
	v26.767l25.238-14.558c-4.302-18.086,3.498-37.59,20.513-47.09c20.024-11.123,46.979-3.324,58.055,16.463
	c11.438,20.528,4.065,46.555-16.479,58.024c-6.38,3.529-13.517,5.404-20.748,5.404c-13.785,0-26.326-6.9-34.328-17.913
	l-24.043,13.879l23.19,13.376c3.908,2.269,5.231,7.279,2.979,11.202c-1.512,2.647-4.27,4.096-7.09,4.096
	c-1.417,0-2.82-0.347-4.111-1.102l-31.368-18.118l-29.099,16.778l62.798,36.251c3.938,2.268,5.263,7.293,3.025,11.201
	c-1.544,2.631-4.302,4.112-7.121,4.112c-1.402,0-2.82-0.347-4.112-1.103l-70.029-40.41l-38.599,52.81l38.646,52.825l70.013-40.41
	c3.908-2.27,8.934-0.93,11.218,3.009c2.3,3.908,0.962,8.933-3.01,11.217l-62.766,36.235l29.083,16.78l31.367-18.104
	c3.923-2.283,8.948-0.976,11.201,3.009c2.3,3.907,0.978,8.934-2.978,11.218l-23.19,13.36l23.947,13.816
	c12.288-16.685,36.645-22.765,55.141-12.398c9.94,5.514,17.157,14.62,20.245,25.585C594.192,447.1,592.854,458.585,587.323,468.542z
	 M537.319,169.347c-8.901,4.979-13.69,14.431-13.345,23.994c0.173,3.97,1.119,7.987,3.166,11.706
	c0.819,1.387,1.813,2.553,2.837,3.766c4.946,5.986,12.21,9.705,20.149,9.705c4.443,0,8.839-1.15,12.729-3.34
	c11.644-6.507,16.29-20.543,11.486-32.581c-0.395-1.056-0.772-2.095-1.34-3.104c-2.159-3.875-5.294-6.995-8.949-9.295
	c-4.127-2.631-8.932-4.16-14.021-4.16C545.622,166.039,541.195,167.189,537.319,169.347z M117.996,193.341
	c0.142-2.742-0.095-5.514-0.867-8.224c-1.922-6.743-6.381-12.352-12.509-15.771c-3.859-2.158-8.286-3.309-12.698-3.309
	c-5.089,0-9.894,1.544-14.021,4.144c-3.64,2.299-6.759,5.419-8.901,9.295c-0.583,1.008-0.961,2.063-1.339,3.104
	c-4.805,12.052-0.157,26.105,11.469,32.596c10.839,6.065,25.129,2.93,32.99-6.318c1.009-1.182,1.954-2.442,2.726-3.844
	C116.846,201.407,117.838,197.406,117.996,193.341z M117.129,454.914c0.772-2.727,0.993-5.499,0.867-8.225
	c-0.158-4.079-1.15-8.049-3.167-11.688c-0.803-1.403-1.827-2.569-2.851-3.781c-4.947-5.956-12.178-9.673-20.119-9.673
	c-4.442,0-8.854,1.149-12.729,3.322c-6.128,3.435-10.555,9.013-12.477,15.74c-1.607,5.641-1.15,11.501,1.008,16.856
	c0.394,1.024,0.772,2.097,1.339,3.072c2.143,3.892,5.262,7.026,8.901,9.312c4.127,2.631,8.933,4.158,14.021,4.158
	c4.443,0,8.838-1.149,12.698-3.308C110.749,467.266,115.207,461.673,117.129,454.914z M346.39,364.058l42.428,4.601l20.213,2.205
	l-12.021-16.416l-25.191-34.423l25.191-34.44l12.021-16.416l-20.213,2.206l-42.428,4.6l-17.188-39.039l-8.208-18.606l-8.208,18.606
	l-17.204,39.039l-42.427-4.6l-20.229-2.206l12.021,16.416l25.208,34.44l-25.208,34.423l-12.021,16.416l20.229-2.205l42.427-4.601
	l17.204,39.055l8.208,18.591l8.208-18.591L346.39,364.058z M313.132,32.802c-10.638,3.258-18.37,13.203-18.37,24.892
	c0,11.596,7.61,21.316,18.023,24.798c2.599,0.867,5.325,1.45,8.208,1.45c2.883,0,5.609-0.583,8.208-1.45
	c10.461-3.466,18.055-13.202,18.055-24.798c0-11.705-8.089-20.694-18.401-24.892c-1.82-0.741-4.856-1.442-7.86-1.302
	C317.991,31.64,315.839,31.973,313.132,32.802z M347.224,582.336c0-11.595-7.609-21.331-18.022-24.813
	c-2.615-0.883-5.34-1.466-8.24-1.466c-2.867,0-5.577,0.583-8.176,1.466c-10.461,3.467-18.055,13.218-18.055,24.813
	c0,11.706,7.783,21.521,18.401,24.893c2.458,0.788,5.088,1.34,7.83,1.34c2.774,0,5.388-0.568,7.876-1.355
	C339.457,603.842,347.224,594.027,347.224,582.336z M563.865,469.724c3.75-2.269,6.979-5.294,9.17-9.186
	c0.535-1.023,0.93-2.048,1.339-3.088c2.158-5.356,2.567-11.2,0.976-16.841c-1.922-6.759-6.363-12.336-12.462-15.74
	c-3.906-2.173-8.317-3.322-12.761-3.322c-7.893,0-15.172,3.717-20.118,9.673c-1.024,1.212-2.049,2.395-2.82,3.781
	c-2.063,3.64-3.056,7.64-3.198,11.688c-0.11,2.742,0.095,5.515,0.867,8.225c1.938,6.759,6.381,12.336,12.477,15.771
	C545.685,475.315,555.956,474.496,563.865,469.724z"/>
</svg>
