<?xml version="1.0" encoding="utf-8"?>
<!-- Generator: Adobe Illustrator 16.0.0, SVG Export Plug-In . SVG Version: 6.00 Build 0)  -->
<!DOCTYPE svg PUBLIC "-//W3C//DTD SVG 1.1//EN" "http://www.w3.org/Graphics/SVG/1.1/DTD/svg11.dtd">
<svg version="1.1" id="Snowflake" xmlns="http://www.w3.org/2000/svg" xmlns:xlink="http://www.w3.org/1999/xlink" x="0px" y="0px"
	 width="640px" height="640px" viewBox="0 0 640 640" enable-background="new 0 0 640 640" xml:space="preserve">
<path id="Snowflake_1_" fill="#FFFFFF" stroke="#B0E0E8" stroke-width="2" stroke-miterlimit="10" d="M580.945,460.835
	l-44.665-25.802l29.857-17.26c4.059-2.373,5.465-7.575,3.126-11.648c-2.373-4.091-7.575-5.499-11.649-3.109l-38.382,22.169
	l-40.92-23.643l80.333-46.366c4.073-2.373,5.481-7.559,3.124-11.648c-2.372-4.059-7.559-5.448-11.648-3.125l-88.872,51.308
	l-37.107-21.417V269.641l31.953-18.438l94.043,54.286c1.342,0.768,2.813,1.145,4.27,1.145c2.929,0,5.809-1.538,7.38-4.27
	c2.388-4.074,0.997-9.276-3.126-11.633l-85.551-49.36l40.951-23.625l43.536,25.146c1.325,0.769,2.799,1.146,4.254,1.146
	c2.961,0,5.809-1.505,7.396-4.254c2.388-4.074,0.981-9.293-3.126-11.633l-35.028-20.255l49.835-28.763
	c4.058-2.355,5.464-7.558,3.126-11.632c-2.372-4.106-7.543-5.465-11.648-3.108l-47.235,27.273v-34.456
	c0-4.712-3.829-8.524-8.523-8.524c-4.696,0-8.523,3.813-8.523,8.524v44.289l-40.918,23.625v-92.717c0-4.712-3.797-8.525-8.525-8.525
	c-4.679,0-8.524,3.813-8.524,8.525v102.566l-34.537,19.961l-87.171-50.327v-36.861l91.474-52.813
	c4.041-2.356,5.448-7.559,3.108-11.633c-2.356-4.09-7.574-5.464-11.633-3.108l-82.949,47.889v-47.267l41-23.674
	c4.057-2.356,5.448-7.559,3.108-11.649c-2.34-4.09-7.559-5.449-11.648-3.108l-32.46,18.766V23.523
	c0.064-4.695-3.78-8.523-8.458-8.523c-4.679,0-8.523,3.828-8.523,8.523v57.558l-32.346-18.7c-4.074-2.34-9.293-0.965-11.649,3.108
	c-2.389,4.09-0.981,9.293,3.125,11.649l40.87,23.592v47.267l-82.835-47.839c-4.058-2.323-9.293-0.966-11.633,3.108
	c-2.389,4.074-0.999,9.293,3.108,11.633l91.36,52.747v36.927L224.327,254.9l-34.473-19.912l-0.032-102.616
	c0-4.711-3.796-8.524-8.524-8.524c-4.679,0-8.523,3.813-8.523,8.524l0.033,92.767l-40.903-23.642v-44.289
	c0-4.712-3.828-8.524-8.523-8.524c-4.713,0-8.525,3.813-8.525,8.524v34.489l-47.283-27.322c-4.057-2.324-9.293-0.966-11.665,3.108
	c-2.373,4.09-0.965,9.309,3.141,11.649l49.869,28.779l-35.029,20.222c-4.09,2.356-5.481,7.575-3.126,11.649
	c1.604,2.749,4.467,4.254,7.396,4.254c1.423,0,2.896-0.36,4.253-1.146l43.504-25.13l40.935,23.641l-85.502,49.344
	c-4.09,2.356-5.481,7.559-3.125,11.633c1.571,2.732,4.451,4.27,7.379,4.27c1.44,0,2.912-0.36,4.254-1.145l93.993-54.269
	l31.953,18.438v100.619L178.68,391.71l-88.791-51.275c-4.057-2.339-9.293-0.982-11.649,3.126c-2.373,4.057-0.982,9.274,3.141,11.648
	l80.283,46.366l-40.902,23.609l-38.366-22.136c-4.074-2.341-9.293-0.967-11.633,3.141c-2.388,4.041-0.997,9.275,3.109,11.634
	l29.859,17.21L59,460.868c-4.058,2.37-5.448,7.558-3.125,11.648c1.587,2.732,4.45,4.271,7.379,4.271
	c1.456,0,2.929-0.345,4.253-1.129l47.332-27.356v40.429c0,4.694,3.828,8.523,8.524,8.523c4.679,0,8.524-3.813,8.524-8.523v-50.277
	l40.902-23.643v98.723c0,4.695,3.829,8.523,8.524,8.523s8.524-3.812,8.524-8.523V404.945l34.472-19.91l87.139,50.359v42.849
	l-91.36,52.764c-4.057,2.372-5.448,7.558-3.108,11.665c1.555,2.716,4.434,4.254,7.379,4.254c1.456,0,2.929-0.36,4.254-1.112
	l82.835-47.84v47.233l-40.87,23.626c-4.058,2.34-5.448,7.559-3.125,11.648c2.34,4.091,7.526,5.433,11.649,3.093l32.346-18.684
	v51.585c0,4.696,3.828,8.524,8.524,8.524c4.694,0,8.523-3.828,8.523-8.524v-51.684l32.461,18.766c1.341,0.77,2.797,1.129,4.27,1.129
	c2.944,0,5.825-1.538,7.379-4.271c2.389-4.057,0.998-9.276-3.108-11.648l-40.985-23.658v-47.266l82.951,47.938
	c4.04,2.322,9.293,0.98,11.632-3.125c2.389-4.059,0.982-9.293-3.107-11.666l-91.476-52.829v-42.784l87.122-50.326l34.555,19.944
	v108.521c0,4.696,3.779,8.524,8.524,8.524c4.695,0,8.524-3.813,8.524-8.524v-98.689l40.935,23.642v50.244
	c0,4.664,3.795,8.525,8.523,8.525c4.696,0,8.524-3.846,8.524-8.525v-40.428l47.233,27.29c1.358,0.77,2.831,1.112,4.254,1.112
	c2.945,0,5.825-1.537,7.412-4.27C586.459,468.394,585.052,463.19,580.945,460.835z M328.512,415.744l-8.523,4.924l-8.523-4.924
	l-70.09-40.526l-8.524-4.925v-9.849v-80.938v-9.849l8.524-4.924l70.09-40.478l8.523-4.924l8.523,4.924l70.091,40.478l8.557,4.924
	v9.833v80.987v9.849l-8.557,4.941L328.512,415.744z"/>
</svg>
