<?xml version="1.0" encoding="utf-8"?>
<!-- Generator: Adobe Illustrator 16.0.0, SVG Export Plug-In . SVG Version: 6.00 Build 0)  -->
<!DOCTYPE svg PUBLIC "-//W3C//DTD SVG 1.1//EN" "http://www.w3.org/Graphics/SVG/1.1/DTD/svg11.dtd">
<svg version="1.1" id="Turkey_1_" xmlns="http://www.w3.org/2000/svg" xmlns:xlink="http://www.w3.org/1999/xlink" x="0px" y="0px"
	 width="300px" height="300px" viewBox="0 0 300 300" enable-background="new 0 0 300 300" xml:space="preserve">
<g id="Turkey">
	<g id="Feathers">
		<g id="Black_feathers">
			<path fill="#080A09" d="M214.357,195.534c-19.294,15.798-22.628,35.316-2.969,23.672c21.862-12.949,36.575-18.701,58.933-48.952
				c11.406-15.432,25.243-38.306,7.745-48.367c-15.801-9.086-17.21,0.87-35.926,40.159
				C235.289,176.431,222.207,189.106,214.357,195.534z"/>
			<path fill="#080A09" d="M81.184,131.829c11.77,35.276,24.022,53.494,1.174,53.494s-20.444-19.809-31.65-42.086
				c-11.623-23.104-24.8-57.913-1.768-60.619C72.905,79.802,72.058,106.078,81.184,131.829z"/>
			<path fill="#080A09" d="M136.332,113.61c0,24.938-22.201,73.676-39.169,44.386c-13.013-22.464-15.978-36.109-19.455-62.195
				c-2.384-17.887,7.173-30.704,21.501-32.657C122.604,59.954,136.332,88.673,136.332,113.61z"/>
			<path fill="#080A09" d="M170.518,146.436c0,13.83,27.032,21.735,30.104,14.825c9.233-20.774,13.493-40.153,17.825-66.408
				c2.936-17.806-5.939-29.756-20.267-31.709C174.785,59.954,170.518,121.499,170.518,146.436z"/>
			<path fill="#080A09" d="M210.994,135.769c-6.009,24.202-8.364,41.703,14.468,42.554s10.03-8.902,22.059-30.747
				c12.473-22.656,25.048-50.729,4.021-60.512C230.283,77.172,216.776,112.481,210.994,135.769z"/>
			<path fill="#080A09" d="M64.343,176.084c17.75,17.517,64.073,9.098,50.062,29.679c-4.974,7.307-9.222,19.492-31.985,9.309
				c-64.926-29.045-77.839-79.479-56.654-87.023C45.531,121.01,39.629,151.696,64.343,176.084z"/>
		</g>
		<g id="Brown_feathers">
			<linearGradient id="SVGID_1_" gradientUnits="userSpaceOnUse" x1="232.8701" y1="176.2842" x2="270.4168" y2="202.8573">
				<stop  offset="0.0225" style="stop-color:#583836"/>
				<stop  offset="0.427" style="stop-color:#D7572B"/>
				<stop  offset="0.736" style="stop-color:#EC7C31"/>
				<stop  offset="1" style="stop-color:#F3BB39"/>
			</linearGradient>
			<path fill="url(#SVGID_1_)" d="M229.553,177.122c-10.398,20.968-24.62,42.084-18.164,42.084
				c28.393-16.658,51.016-35.298,59.371-57.16c7.307-19.117-10.229-26.131-18.119-22.917
				C247.338,141.29,239.781,156.494,229.553,177.122z"/>
			<linearGradient id="SVGID_2_" gradientUnits="userSpaceOnUse" x1="211.9961" y1="137.1147" x2="267.1922" y2="165.623">
				<stop  offset="0.0225" style="stop-color:#583836"/>
				<stop  offset="0.427" style="stop-color:#D7572B"/>
				<stop  offset="0.736" style="stop-color:#EC7C31"/>
				<stop  offset="1" style="stop-color:#F3BB39"/>
			</linearGradient>
			<path fill="url(#SVGID_2_)" d="M198.653,158.889c-12.342,19.884-9.897,17.565-3.441,17.565s41.45-8.256,50.516-29.833
				c21.937-52.207-19.975-54.837-29.326-30.017C214.382,121.963,211.141,138.769,198.653,158.889z"/>
			<linearGradient id="SVGID_3_" gradientUnits="userSpaceOnUse" x1="170.7588" y1="119" x2="225.6707" y2="151.5345">
				<stop  offset="0.0225" style="stop-color:#583836"/>
				<stop  offset="0.427" style="stop-color:#D7572B"/>
				<stop  offset="0.736" style="stop-color:#EC7C31"/>
				<stop  offset="1" style="stop-color:#F3BB39"/>
			</linearGradient>
			<path fill="url(#SVGID_3_)" d="M156.547,140.859c-12.343,19.885-9.899,17.566-3.443,17.566c6.457,0,40.498,23.603,48.194,1.5
				c31.762-91.229-19.383-87.138-27.005-61.349C172.67,104.068,169.032,120.741,156.547,140.859z"/>
			<linearGradient id="SVGID_4_" gradientUnits="userSpaceOnUse" x1="58.2246" y1="141.3809" x2="118.3785" y2="121.4292">
				<stop  offset="0" style="stop-color:#F3BB39"/>
				<stop  offset="0.264" style="stop-color:#EC7C31"/>
				<stop  offset="0.573" style="stop-color:#D7572B"/>
				<stop  offset="0.9775" style="stop-color:#583836"/>
			</linearGradient>
			<path fill="url(#SVGID_4_)" d="M141.17,139.453c12.344,19.885,9.898,17.566,3.443,17.566c-6.457,0-33.955,19.671-46.501-0.086
				c-9.327-14.687-12.656-38.14-12.874-49.771c-0.66-35.34,30.3-28.293,38.186-9.993
				C125.689,102.429,128.685,119.334,141.17,139.453z"/>
			<linearGradient id="SVGID_5_" gradientUnits="userSpaceOnUse" x1="29.2529" y1="162.0039" x2="79.6057" y2="139.0958">
				<stop  offset="0" style="stop-color:#F3BB39"/>
				<stop  offset="0.264" style="stop-color:#EC7C31"/>
				<stop  offset="0.573" style="stop-color:#D7572B"/>
				<stop  offset="0.9775" style="stop-color:#583836"/>
			</linearGradient>
			<path fill="url(#SVGID_5_)" d="M98.806,157.74c15.509,17.528-3.397,20.329-13.985,21.109c0.081,0.022,6.031,34.159-29.451-33.875
				c-28.225-54.122,18.641-55.308,22.248-29.204C78.604,122.909,84.149,141.175,98.806,157.74z"/>
			<linearGradient id="SVGID_6_" gradientUnits="userSpaceOnUse" x1="20.0371" y1="208.5381" x2="63.7204" y2="174.5443">
				<stop  offset="0" style="stop-color:#F3BB39"/>
				<stop  offset="0.264" style="stop-color:#EC7C31"/>
				<stop  offset="0.573" style="stop-color:#D7572B"/>
				<stop  offset="0.9775" style="stop-color:#583836"/>
			</linearGradient>
			<path fill="url(#SVGID_6_)" d="M70.618,178.736c14.17,18.628,18.142,35.586,11.686,35.586c-6.456,0-44.538-28.8-52.894-50.662
				c-7.307-19.117,9.071-25.602,16.962-22.387C51.675,143.433,56.791,160.562,70.618,178.736z"/>
		</g>
		<g id="Yellow_fethers">
			<linearGradient id="SVGID_7_" gradientUnits="userSpaceOnUse" x1="61.4497" y1="189.1377" x2="99.2702" y2="155.8257">
				<stop  offset="0" style="stop-color:#F3BB39"/>
				<stop  offset="0.264" style="stop-color:#EC7C31"/>
				<stop  offset="0.573" style="stop-color:#D7572B"/>
				<stop  offset="0.9775" style="stop-color:#583836"/>
			</linearGradient>
			<path fill="url(#SVGID_7_)" d="M81.184,186.371c15.842,11.686,11.542,36.498,1.12,27.951
				c-11.441-9.379-36.9-29.623-42.423-46.845c-3.616-11.275,7.404-15.294,11.105-15.781
				C61.791,150.273,61.967,172.199,81.184,186.371z"/>
			<linearGradient id="SVGID_8_" gradientUnits="userSpaceOnUse" x1="71.2515" y1="152.875" x2="114.6851" y2="135.0195">
				<stop  offset="0" style="stop-color:#F3BB39"/>
				<stop  offset="0.264" style="stop-color:#EC7C31"/>
				<stop  offset="0.573" style="stop-color:#D7572B"/>
				<stop  offset="0.9775" style="stop-color:#583836"/>
			</linearGradient>
			<path fill="url(#SVGID_8_)" d="M98.112,156.934c13.567,15.364-5.548,34.813-15.019,25.222
				c-11.259-11.402-25.704-37.437-26.261-51.793c-0.584-15.05,11.81-16.641,16.366-16.001
				C89.174,116.605,81.184,137.766,98.112,156.934z"/>
			<linearGradient id="SVGID_9_" gradientUnits="userSpaceOnUse" x1="100.7998" y1="128.8975" x2="130.7634" y2="121.9859">
				<stop  offset="0" style="stop-color:#F3BB39"/>
				<stop  offset="0.264" style="stop-color:#EC7C31"/>
				<stop  offset="0.573" style="stop-color:#D7572B"/>
				<stop  offset="0.9775" style="stop-color:#583836"/>
			</linearGradient>
			<path fill="url(#SVGID_9_)" d="M119.227,112.973c13.815,14.024-13.398,51.268-19.368,39.185
				c-6.515-13.187-7.373-19.262-6.497-33.778c0.541-8.948,5.422-16.15,9.221-16.15C111.351,102.229,108.34,101.92,119.227,112.973z"
				/>
			<linearGradient id="SVGID_10_" gradientUnits="userSpaceOnUse" x1="157.3984" y1="124.4863" x2="193.136" y2="131.2812">
				<stop  offset="0.0225" style="stop-color:#583836"/>
				<stop  offset="0.427" style="stop-color:#D7572B"/>
				<stop  offset="0.736" style="stop-color:#EC7C31"/>
				<stop  offset="1" style="stop-color:#F3BB39"/>
			</linearGradient>
			<path fill="url(#SVGID_10_)" d="M174.609,112.827c-5.747,20.432,22.977,54.852,26.013,48.434
				c7.012-14.825,9.168-22.291,9.058-32.8c-0.169-16-10.521-28.493-20.946-26.959C181.709,102.536,177.239,103.475,174.609,112.827z
				"/>
			<linearGradient id="SVGID_11_" gradientUnits="userSpaceOnUse" x1="192.3955" y1="154.1465" x2="243.8762" y2="191.3597">
				<stop  offset="0.0225" style="stop-color:#583836"/>
				<stop  offset="0.4064" style="stop-color:#D7572B"/>
				<stop  offset="0.736" style="stop-color:#EC7C31"/>
				<stop  offset="1" style="stop-color:#F3BB39"/>
			</linearGradient>
			<path fill="url(#SVGID_11_)" d="M265.499,169.231c-12.047,20.359-30.465,31.563-54.11,49.975
				c-11.44-9.379-9.738-10.804,2.969-23.672c23.378-23.673,27.323-44.13,31.854-46.924
				C253.673,144.007,272.503,157.396,265.499,169.231z"/>
			<linearGradient id="SVGID_12_" gradientUnits="userSpaceOnUse" x1="186.6055" y1="141.4883" x2="229.1615" y2="159.5613">
				<stop  offset="0.0225" style="stop-color:#583836"/>
				<stop  offset="0.427" style="stop-color:#D7572B"/>
				<stop  offset="0.736" style="stop-color:#EC7C31"/>
				<stop  offset="1" style="stop-color:#F3BB39"/>
			</linearGradient>
			<path fill="url(#SVGID_12_)" d="M210.166,129.48c-2.667,9.568-3.616,20.312-9.544,31.78
				c-8.046,15.563,10.824,36.998,13.735,34.273c13.733-12.859,30.383-41.759,31.26-51.843c1.386-15.94-10.521-28.494-20.946-26.959
				C217.647,117.766,212.659,120.534,210.166,129.48z"/>
		</g>
	</g>
	<radialGradient id="Body_1_" cx="147.7715" cy="148.6094" r="92.9056" gradientUnits="userSpaceOnUse">
		<stop  offset="0" style="stop-color:#8E5127"/>
		<stop  offset="0.2932" style="stop-color:#8E5127"/>
		<stop  offset="1" style="stop-color:#541816"/>
	</radialGradient>
	<path id="Body" fill="url(#Body_1_)" d="M102.861,96.753c-1.609,14.677,13.736,16.512,16.366,16.22
		c-1.607,13.444-6.271,24.611-8.621,28.787c-4.231,7.518-17.603,19.257-21.627,26.887c-4.034,7.649-8.306,14.329-7.745,33.901
		c1.388,48.368,34.621,59.327,69.41,59.327c25.718,0,64.086-10.85,63.711-60.788c-0.059-7.781-0.804-20.531-6.722-30.395
		c-4.797-7.996-18.102-21.462-22.796-29.517c-3.794-6.51-9.79-20.827-10.229-28.349c29.736-14.028,3.142-25.207,3.142-25.207
		s8.554-4.025,7.964-16.293c-0.365-7.598-5.479-11.544-9.645-14.028c-4.753-2.835-11.179-1.461-11.179-1.461
		s-0.512-9.937-3.434-13.443c-4.092-4.909-8.914-7.379-15.782-7.014c-6.858,0.365-10.087,2.926-12.567,5.261
		c-4.968,4.676-4.603,15.197-4.603,15.197s-5.213-1.104-11.179,2.338c-3.799,2.192-6.55,5.947-7.096,10.094
		c-2.183,16.574,7.973,17.378,7.973,17.378S104.03,86.085,102.861,96.753z"/>
	<g id="Chest_feathers" opacity="0.5">
		<path fill="none" stroke="#FFFFFF" stroke-linecap="round" stroke-miterlimit="10" d="M108.806,204.885c0,0,3.215,6.712,7.313,0"
			/>
		<path fill="none" stroke="#FFFFFF" stroke-linecap="round" stroke-miterlimit="10" d="M119.333,214.322
			c0,0,7.054,10.655,10.976-0.523"/>
		<path fill="none" stroke="#FFFFFF" stroke-linecap="round" stroke-miterlimit="10" d="M143.657,213.799
			c0,0,4.159,9.151,8.318,0.523"/>
		<path fill="none" stroke="#FFFFFF" stroke-linecap="round" stroke-miterlimit="10" d="M158.257,204.885c0,0,4.745,8.914,9.491,0"
			/>
		<path fill="none" stroke="#FFFFFF" stroke-linecap="round" stroke-miterlimit="10" d="M179.684,206.377c0,0,4.769,6.407,9.538,0"
			/>
		<path fill="none" stroke="#FFFFFF" stroke-linecap="round" stroke-miterlimit="10" d="M101.569,218.922
			c0,0,4.022,8.567,8.842,1.343"/>
		<path fill="none" stroke="#FFFFFF" stroke-linecap="round" stroke-miterlimit="10" d="M195.554,194.859
			c0,0,3.087,10.025,9.353,0.911"/>
		<path fill="none" stroke="#FFFFFF" stroke-linecap="round" stroke-miterlimit="10" d="M184.452,237.854c0,0,4.77,5.199,9.35-1.343
			"/>
		<path fill="none" stroke="#FFFFFF" stroke-linecap="round" stroke-miterlimit="10" d="M146.731,228.456c0,0,5.244,8.055,9.785,0"
			/>
		<path fill="none" stroke="#FFFFFF" stroke-linecap="round" stroke-miterlimit="10" d="M171.785,221.041
			c0,0,3.312,9.133,9.156,1.702"/>
		<path fill="none" stroke="#FFFFFF" stroke-linecap="round" stroke-miterlimit="10" d="M129.637,200.858
			c0,0,3.214,9.396,8.83,1.343"/>
		<path fill="none" stroke="#FFFFFF" stroke-linecap="round" stroke-miterlimit="10" d="M126.972,227.489c0,0,5.879,10.364,11.495,0
			"/>
		<path fill="none" stroke="#FFFFFF" stroke-linecap="round" stroke-miterlimit="10" d="M192.632,218.026
			c0,0,2.922,6.266,9.156,1.18"/>
		<path fill="none" stroke="#FFFFFF" stroke-linecap="round" stroke-miterlimit="10" d="M93.615,231.141
			c0,0,4.369,6.713,8.737,1.343"/>
		<path fill="none" stroke="#FFFFFF" stroke-linecap="round" stroke-miterlimit="10" d="M112.904,236.511c0,0,3.215,6.04,6.43,0"/>
		<path fill="none" stroke="#FFFFFF" stroke-linecap="round" stroke-miterlimit="10" d="M104.683,244.482
			c-0.729-1.369,3.401,8.632,8.221,0"/>
		<path fill="none" stroke="#FFFFFF" stroke-linecap="round" stroke-miterlimit="10" d="M120.153,247.167
			c0,0,5.209,7.507,9.484,0.865"/>
		<path fill="none" stroke="#FFFFFF" stroke-linecap="round" stroke-miterlimit="10" d="M136.066,241.62c0,0,4.375,7.365,9.72,0"/>
		<path fill="none" stroke="#FFFFFF" stroke-linecap="round" stroke-miterlimit="10" d="M148.345,252.921c0,0,4.956,10.715,9.912,0"
			/>
		<path fill="none" stroke="#FFFFFF" stroke-linecap="round" stroke-miterlimit="10" d="M160.484,235.579
			c0,0,5.017,10.612,10.033,0.932"/>
		<path fill="none" stroke="#FFFFFF" stroke-linecap="round" stroke-miterlimit="10" d="M168.667,246.191
			c0,0,5.163,11.237,10.326,1.841"/>
		<path fill="none" stroke="#FFFFFF" stroke-linecap="round" stroke-miterlimit="10" d="M88.307,207.801c0,0,4.769,6.408,9.539,0"/>
		<path fill="none" stroke="#FFFFFF" stroke-linecap="round" stroke-miterlimit="10" d="M88.005,191.353
			c0,0,3.087,10.025,9.352,0.911"/>
	</g>
	<g id="Eyes">
		<linearGradient id="SVGID_13_" gradientUnits="userSpaceOnUse" x1="152.1426" y1="72.8467" x2="186.7334" y2="72.8467">
			<stop  offset="0" style="stop-color:#8EAAD9"/>
			<stop  offset="0.0141" style="stop-color:#92ACD8"/>
			<stop  offset="0.1301" style="stop-color:#B3BAD4"/>
			<stop  offset="0.2554" style="stop-color:#CDC7D3"/>
			<stop  offset="0.3911" style="stop-color:#E1D0D1"/>
			<stop  offset="0.5423" style="stop-color:#F0D8CF"/>
			<stop  offset="0.7215" style="stop-color:#F9DDCF"/>
			<stop  offset="1" style="stop-color:#FDDECE"/>
		</linearGradient>
		
			<ellipse fill="url(#SVGID_13_)" stroke="#080A09" stroke-width="2" stroke-miterlimit="10" cx="169.438" cy="72.847" rx="17.295" ry="16.951"/>
		<linearGradient id="SVGID_14_" gradientUnits="userSpaceOnUse" x1="108.665" y1="71.6777" x2="143.2559" y2="71.6777">
			<stop  offset="0" style="stop-color:#FDDECE"/>
			<stop  offset="0.2785" style="stop-color:#F9DDCF"/>
			<stop  offset="0.4577" style="stop-color:#F0D8CF"/>
			<stop  offset="0.6089" style="stop-color:#E1D0D1"/>
			<stop  offset="0.7446" style="stop-color:#CDC7D3"/>
			<stop  offset="0.8699" style="stop-color:#B3BAD4"/>
			<stop  offset="0.9859" style="stop-color:#92ACD8"/>
			<stop  offset="1" style="stop-color:#8EAAD9"/>
		</linearGradient>
		
			<ellipse fill="url(#SVGID_14_)" stroke="#080A09" stroke-width="2" stroke-miterlimit="10" cx="125.96" cy="71.678" rx="17.295" ry="16.951"/>
		<path fill="#080A09" d="M135.35,75.914c0,2.802-2.382,5.074-4.719,5.074c-2.337,0-4.232-2.272-4.232-5.074
			c0-2.803,1.895-5.075,4.232-5.075C132.968,70.839,135.35,73.111,135.35,75.914z"/>
		<path fill="#080A09" d="M159.131,75.914c0,2.802,2.382,5.074,4.72,5.074c2.337,0,4.231-2.272,4.231-5.074
			c0-2.803-1.895-5.075-4.231-5.075C161.513,70.839,159.131,73.111,159.131,75.914z"/>
	</g>
	<g id="Beak">
		<radialGradient id="Gradient_1_" cx="145.7871" cy="108.0474" r="36.1853" gradientUnits="userSpaceOnUse">
			<stop  offset="0" style="stop-color:#FBF3DE"/>
			<stop  offset="0" style="stop-color:#FDEAB6"/>
			<stop  offset="0" style="stop-color:#FEE18A"/>
			<stop  offset="0.5506" style="stop-color:#FCC317"/>
			<stop  offset="0.7615" style="stop-color:#F2AF21"/>
			<stop  offset="1" style="stop-color:#EA9D25"/>
		</radialGradient>
		<path id="Gradient" fill="url(#Gradient_1_)" d="M177.751,87.62c24.184,11.566,3.67,27.432-3.142,25.207
			c-2.013-0.658-4.614,0-9.133-0.658c-5.919,11.106-10.156,16.292-15.636,22.284c-0.863,0.944-4.113,0.795-5.115,0
			c-4.923-3.903-10.594-12.055-15.416-21.334c-2.996,0.365-7.306,0.219-10.083-0.146c-10.335,1.627-16.941-6.096-16.874-13.786
			c0.079-8.966,3.016-10.612,13.293-13.9c9.307-2.978,27.609-4.298,31.875-4.298C155.186,80.988,170.835,84.313,177.751,87.62z"/>
		<path fill="none" stroke="#793D1A" stroke-linecap="round" stroke-miterlimit="10" d="M126.46,102.013c0,0-0.73,6.174,2.85,12.348
			"/>
		<path fill="none" stroke="#793D1A" stroke-linecap="round" stroke-miterlimit="10" d="M168.18,101.502
			c0,0,0.804,3.945-2.411,11.325"/>
		<path fill="none" stroke="#FFFFFF" stroke-linecap="round" stroke-miterlimit="10" stroke-opacity="0.5" d="M146.699,98.068
			c0,0,3.214,13.151,0.657,28.203"/>
	</g>
</g>
</svg>
