<?xml version="1.0" encoding="utf-8"?>
<!-- Generator: Adobe Illustrator 16.0.0, SVG Export Plug-In . SVG Version: 6.00 Build 0)  -->
<!DOCTYPE svg PUBLIC "-//W3C//DTD SVG 1.1//EN" "http://www.w3.org/Graphics/SVG/1.1/DTD/svg11.dtd">
<svg version="1.1" id="Layer_1" xmlns="http://www.w3.org/2000/svg" xmlns:xlink="http://www.w3.org/1999/xlink" x="0px" y="0px"
	 width="342.79785px" height="573.83057px" viewBox="0 0 342.79785 573.83057" enable-background="new 0 0 342.79785 573.83057"
	 xml:space="preserve">
<g>
	<path fill-rule="evenodd" clip-rule="evenodd" fill="none" d="M0,0c114.26611,0,228.53223,0,342.79785,0
		c0,191.27686,0,382.5542,0,573.82959c-114.26563,0-228.53174,0-342.79785,0C0,382.5542,0,191.27686,0,0z M299.80469,428.70264
		c-3.00195-1.76367-5.6416-2.87695-7.74609-4.63086c-7.8916-6.58203-13.14258-15.19922-17.89258-24.14258
		c-2.01367-3.78906-4.73535-7.28711-3.66504-12.16406c0.68457-3.12109,1-6.45898,0.71387-9.62891
		c-0.60449-6.71875-3.36133-12.20313-10.29297-14.62305c-3.42285-1.19336-3.71191-2.76367-0.91992-5.11914
		c3.99121-3.36719,8.05859-6.64453,12.05566-10.00586c7.2373-6.08789,13.23535-13.23242,17.28906-21.78711
		c3.76465-7.94336,4.8291-16.4209,1.18164-24.56543c-1.67578-3.74023-2.21875-7.02002-1.09082-10.70166
		c1.45898-4.76074,2.92578-9.53174,4.68457-14.18799c3.86621-10.23682,8.49023-20.22607,11.7373-30.64941
		c3.3457-10.74609,5.85059-21.80664,7.9541-32.875c2.80469-14.75928,2.48438-29.68896-2.19629-43.99756
		c-5.83691-17.8457-16.54395-32.87061-29.75391-46.08789c-13.9502-13.95605-30.03223-24.76563-48.00293-33.00098
		c-15.62891-7.1626-31.95215-12.05225-48.67578-15.3833c-10.5752-2.10645-21.4917-2.54346-32.27441-3.51953
		c-2.41064-0.21826-3.23779-0.89111-3.15869-3.3457c0.15967-4.93115,0.1875-9.88184-0.04199-14.80908
		c-0.5376-11.53467-6.48096-20.51367-13.93555-28.71289c1.15869,2.40234,2.78857,4.56494,3.95898,6.95215
		c5.44287,11.1001,9.32764,22.58984,8.06543,35.23584c-0.21631,2.16943-0.50293,4.21729-3.3584,4.58301
		c-4.31738,0.55273-8.6123,1.28076-12.91602,1.94092c-3.70947,0.56934-6.65869,0.01172-8.80469-3.75342
		c-2.13818-3.74951-4.89111-7.19971-7.69434-10.51025C103.90723,46.08105,89.229,38.29785,73.56445,32.08252
		c-0.96045-0.38086-2.15283-0.17822-4.2417-0.31006c5.87402,2.97119,10.80811,5.35938,15.64258,7.93359
		c14.39453,7.66553,26.74414,17.65967,35.78564,31.45654c1.60303,2.4458,1.3877,3.71973-1.42871,4.68896
		c-4.58594,1.57764-9.17139,3.18848-13.63965,5.06543c-2.74561,1.15234-4.86279,0.74268-7.19336-1.00293
		c-11.87793-8.89648-25.50098-13.84473-39.78418-17.2085c-0.99951-0.23486-2.10303-0.03076-3.1582-0.03076
		c7.13135,3.33545,14.34521,5.62207,21.22412,8.66602c6.13037,2.7124,11.9502,6.15869,17.7749,9.51172
		c1.56934,0.90381,3.74316,2.3667,0.52441,4.39453c-9.89209,6.23047-20.00977,12.16992-29.44629,19.03809
		c-7.10596,5.17188-13.89941,11.05811-19.76318,17.58789c-9.98584,11.11914-18.729,23.19922-25.61133,36.64844
		C9.93701,178.67529,4.16846,200.0625,2.6875,222.4502c-0.7085,10.71289,0.20654,21.67383,1.62842,32.35693
		c2.43164,18.27441,10.56982,34.15283,23.03174,47.7168c14.03662,15.27832,31.99023,24.69824,50.36572,33.55176
		c14.11914,6.80469,28.10254,13.91016,41.94434,21.26367c6.1001,3.24023,5.87158,3.66992,2.96582,10.20703
		c-5.021,11.29883-1.75879,20.98242,9.05078,26.92383c0.84912,0.4668,2.04199,0.88281,2.37012,1.63281
		c2.82324,6.44531,8.87695,9.77344,13.92627,13.83008c2.93213,2.35547,7.45703,2.84766,11.35156,3.83789
		c2.08545,0.53125,4.35352,0.34375,6.46826,0.47461c0.13379,0.91406,0.24951,1.28125,0.23096,1.64063
		c-0.42285,8.10547-1.2666,16.25391,4.09766,23.40039c0.46094,0.61523-0.09375,2.3457-0.63477,3.29688
		c-2.58398,4.54688-5.43408,8.94531-7.9873,13.50977c-3.58691,6.41016-6.95752,12.94141-10.49805,19.37695
		c-1.40332,2.55078-3.14453,2.46094-5.54297,0.875c-14.01709-9.26953-28.61182-17.48828-45.84277-18.51367
		c-13.86377-0.82617-27.56738-4.09961-41.64355-2.19336c-8.62158,1.16602-16.96045,2.88281-24.39453,7.44727
		C16.9248,473.3042,7.28857,487.50146,9.38965,507.86279c1.26953,12.30859,10.15039,26.39258,24.70801,28.40039
		c7.7915,1.07617,14.79492,3.71484,21.96338,6.33984c0.93652,0.34375,1.98242,0.46484,2.8335,0.94531
		c1.87061,1.05469,4.1958,1.87305,5.37549,3.48828c6.95947,9.52734,16.55908,15.03516,27.5415,18.25586
		c15.75879,4.62109,31.95459,4.54688,47.64941,0.82227c16.86279-4.00195,33.35059-9.68555,49.83496-15.13867
		c9.60449-3.17773,18.47852-7.99023,26.5293-14.33203c7.3125-5.76172,10.16113-12.89063,8.6377-22.00586
		c-0.52051-3.11719-0.54785-6.31445-0.88867-10.58594c3.46191,1.58203,5.92676,2.61328,8.30957,3.81055
		c15.13477,7.60938,31.16895,9.93945,47.49609,5.95117c27.59082-6.73633,40.21094-31.01172,36.20215-57.75586
		c-0.81152-5.41797-0.69727-5.60547,4.43652-7.96094c5.56055-2.55273,9.38086-7.06055,11.92383-12.48633
		c5.37793-11.47266,5.52441-23.66406,3.27148-35.72656c-1.34766-7.2207-4.11035-14.26172-6.97168-21.07617
		c-1.41895-3.37891-2.97461-7.2793-7.02051-9.51758c-0.43555,3.61328-0.5,6.74805-1.23242,9.71875
		c-1.71289,6.94531-6.11914,12.42773-10.46973,17.86914c-4.76855,5.96484-9.70801,11.89063-10.33203,19.89063
		C298.9043,420.39014,299.5332,424.08154,299.80469,428.70264z"/>
	<path fill-rule="evenodd" clip-rule="evenodd" d="M299.80469,428.70264c-0.27148-4.62109-0.90039-8.3125-0.61719-11.93359
		c0.62402-8,5.56348-13.92578,10.33203-19.89063c4.35059-5.44141,8.75684-10.92383,10.46973-17.86914
		c0.73242-2.9707,0.79688-6.10547,1.23242-9.71875c4.0459,2.23828,5.60156,6.13867,7.02051,9.51758
		c2.86133,6.81445,5.62402,13.85547,6.97168,21.07617c2.25293,12.0625,2.10645,24.25391-3.27148,35.72656
		c-2.54297,5.42578-6.36328,9.93359-11.92383,12.48633c-5.13379,2.35547-5.24805,2.54297-4.43652,7.96094
		c4.00879,26.74414-8.61133,51.01953-36.20215,57.75586c-16.32715,3.98828-32.36133,1.6582-47.49609-5.95117
		c-2.38281-1.19727-4.84766-2.22852-8.30957-3.81055c0.34082,4.27148,0.36816,7.46875,0.88867,10.58594
		c1.52344,9.11523-1.3252,16.24414-8.6377,22.00586c-8.05078,6.3418-16.9248,11.1543-26.5293,14.33203
		c-16.48438,5.45313-32.97217,11.13672-49.83496,15.13867c-15.69482,3.72461-31.89063,3.79883-47.64941-0.82227
		c-10.98242-3.2207-20.58203-8.72852-27.5415-18.25586c-1.17969-1.61523-3.50488-2.43359-5.37549-3.48828
		c-0.85107-0.48047-1.89697-0.60156-2.8335-0.94531c-7.16846-2.625-14.17188-5.26367-21.96338-6.33984
		c-14.55762-2.00781-23.43848-16.0918-24.70801-28.40039c-2.10107-20.36133,7.53516-34.55859,24.18555-44.77734
		c7.43408-4.56445,15.77295-6.28125,24.39453-7.44727c14.07617-1.90625,27.77979,1.36719,41.64355,2.19336
		c17.23096,1.02539,31.82568,9.24414,45.84277,18.51367c2.39844,1.58594,4.13965,1.67578,5.54297-0.875
		c3.54053-6.43555,6.91113-12.9668,10.49805-19.37695c2.55322-4.56445,5.40332-8.96289,7.9873-13.50977
		c0.54102-0.95117,1.0957-2.68164,0.63477-3.29688c-5.36426-7.14648-4.52051-15.29492-4.09766-23.40039
		c0.01855-0.35938-0.09717-0.72656-0.23096-1.64063c-2.11475-0.13086-4.38281,0.05664-6.46826-0.47461
		c-3.89453-0.99023-8.41943-1.48242-11.35156-3.83789c-5.04932-4.05664-11.10303-7.38477-13.92627-13.83008
		c-0.32813-0.75-1.521-1.16602-2.37012-1.63281c-10.80957-5.94141-14.07178-15.625-9.05078-26.92383
		c2.90576-6.53711,3.13428-6.9668-2.96582-10.20703c-13.8418-7.35352-27.8252-14.45898-41.94434-21.26367
		c-18.37549-8.85352-36.3291-18.27344-50.36572-33.55176c-12.46191-13.56396-20.6001-29.44238-23.03174-47.7168
		C2.89404,244.12402,1.979,233.16309,2.6875,222.4502c1.48096-22.3877,7.24951-43.7749,17.56201-63.92871
		c6.88232-13.44922,15.62549-25.5293,25.61133-36.64844c5.86377-6.52979,12.65723-12.41602,19.76318-17.58789
		c9.43652-6.86816,19.5542-12.80762,29.44629-19.03809c3.21875-2.02783,1.04492-3.49072-0.52441-4.39453
		c-5.82471-3.35303-11.64453-6.79932-17.7749-9.51172c-6.87891-3.04395-14.09277-5.33057-21.22412-8.66602
		c1.05518,0,2.15869-0.2041,3.1582,0.03076c14.2832,3.36377,27.90625,8.31201,39.78418,17.2085
		c2.33057,1.74561,4.44775,2.15527,7.19336,1.00293c4.46826-1.87695,9.05371-3.48779,13.63965-5.06543
		c2.81641-0.96924,3.03174-2.24316,1.42871-4.68896c-9.0415-13.79688-21.39111-23.79102-35.78564-31.45654
		c-4.83447-2.57422-9.76855-4.9624-15.64258-7.93359c2.08887,0.13184,3.28125-0.0708,4.2417,0.31006
		c15.66455,6.21533,30.34277,13.99854,41.46045,27.13037c2.80322,3.31055,5.55615,6.76074,7.69434,10.51025
		c2.146,3.76514,5.09521,4.32275,8.80469,3.75342c4.30371-0.66016,8.59863-1.38818,12.91602-1.94092
		c2.85547-0.36572,3.14209-2.41357,3.3584-4.58301c1.26221-12.646-2.62256-24.13574-8.06543-35.23584
		c-1.17041-2.38721-2.80029-4.5498-3.95898-6.95215c7.45459,8.19922,13.39795,17.17822,13.93555,28.71289
		c0.22949,4.92725,0.20166,9.87793,0.04199,14.80908c-0.0791,2.45459,0.74805,3.12744,3.15869,3.3457
		c10.78271,0.97607,21.69922,1.41309,32.27441,3.51953c16.72363,3.33105,33.04688,8.2207,48.67578,15.3833
		c17.9707,8.23535,34.05273,19.04492,48.00293,33.00098c13.20996,13.21729,23.91699,28.24219,29.75391,46.08789
		c4.68066,14.30859,5.00098,29.23828,2.19629,43.99756c-2.10352,11.06836-4.6084,22.12891-7.9541,32.875
		c-3.24707,10.42334-7.87109,20.4126-11.7373,30.64941c-1.75879,4.65625-3.22559,9.42725-4.68457,14.18799
		c-1.12793,3.68164-0.58496,6.96143,1.09082,10.70166c3.64746,8.14453,2.58301,16.62207-1.18164,24.56543
		c-4.05371,8.55469-10.05176,15.69922-17.28906,21.78711c-3.99707,3.36133-8.06445,6.63867-12.05566,10.00586
		c-2.79199,2.35547-2.50293,3.92578,0.91992,5.11914c6.93164,2.41992,9.68848,7.9043,10.29297,14.62305
		c0.28613,3.16992-0.0293,6.50781-0.71387,9.62891c-1.07031,4.87695,1.65137,8.375,3.66504,12.16406
		c4.75,8.94336,10.00098,17.56055,17.89258,24.14258C294.16309,425.82568,296.80273,426.93896,299.80469,428.70264z
		 M233.60547,469.35107c-1.6416,0.47852-3.33691,1.47656-4.91113,1.3125c-2.39648-0.25-4.70801-1.30664-7.87109-2.26758
		c0,4.7832-0.48438,9.1543,0.12402,13.36719c0.74609,5.16992,6.32617,5.25,9.89258,7.43359
		c-0.16016,0.33594-0.31934,0.67188-0.47852,1.00781c-2.91504-1.02148-5.83105-2.04297-9.11523-3.19531
		c0.21582,2.60742,0.67578,4.84766,0.52441,7.04297c-0.29688,4.32617,2.04688,6.2832,5.5498,8.24414
		c9.52051,5.33398,19.55176,8.87305,30.4082,9.75195c16.63672,1.34961,31.54004-2.69727,43.19043-15.31055
		c10.12988-10.96484,12.39941-24.58984,11.3584-38.75781c-0.94434-12.84766-6.28613-23.67969-18.19336-30.03516
		c-5.12012-2.73047-8.90723-6.86914-12.24805-11.19141c-4.92676-6.375-8.97754-13.43164-13.29297-20.26563
		c-0.4502-0.71289-0.18457-1.88867-0.21777-2.85156c-0.20996-5.9668-0.03125-11.97852-0.74414-17.88281
		c-0.49121-4.06055-2.93652-7.35156-7.05176-9.03711c-1.76465-0.72461-2.42969-0.45703-3.3125,1.42773
		c-1.6123,3.44531-3.12793,7.53711-5.95605,9.68945c-5.87598,4.47266-11.76074,8.67773-15.39941,15.33398
		c-0.43848,0.80273-1.66113,1.13867-2.27148,1.89258c-0.89941,1.10938-2.01758,2.32031-2.26074,3.63086
		c-0.63184,3.41602-0.84668,6.91016-1.20703,10.37305c-0.11426,1.0918-0.16309,2.19141-0.24023,3.28711
		c-2.59082-9.46094,0.41699-18.11328,3.29785-26.75c0.23633-0.70898,1.68555-1.16992,2.65723-1.45508
		c8.69531-2.55664,15.6377-7.17383,18.71582-16.15039c1.62207-4.73242,0.28711-9.50977-2.75977-11.46484
		c-0.63477,3.27344-1.2832,6.60938-1.92969,9.94531c-0.88184-3.3418-0.7168-6.56836-0.93848-9.76953
		c-0.15332-2.20703-1.14258-4.63672-3.81348-4.06445c-2.68262,0.57617-2.27539,3.10352-1.78418,5.25586
		c0.9502,4.16797-0.24512,7.86523-2.3125,11.37109c-0.0791-2.86133,0.28125-5.66797,0.26367-8.47266
		c-0.00586-0.91797-0.99609-1.83203-1.53516-2.74609c-0.89746,0.55078-2.2998,0.9043-2.60449,1.68555
		c-1.34375,3.44141-2.27148,7.04297-3.57031,10.50586c-0.43066,1.14648-1.35156,2.27734-2.3457,3.01172
		c-2.3125,1.70898-5.66992,2.62305-7.0752,4.83008c-5.94531,9.34766-11.99121,18.74023-16.67383,28.73828
		c-2.76563,5.90625-3.64551,12.91602-4.27539,19.53516c-0.55371,5.81836,3.61719,10.04297,9.40918,10.62695
		c3.31055,0.33398,6.79297,0.24609,10.05078-0.39648c12.20703-2.41211,21.95703-9.20117,30.55859-17.87891
		c1.05957-1.06836,2.18359-2.07227,3.27734-3.10742c0.34766,0.38672,0.69434,0.77148,1.04199,1.1582
		c-6.41113,6.05469-12.82129,12.10938-20.14453,19.02734c11.42871-4.97852,22.03809-4.55664,32.65918-0.88086
		c-10.09961-1.24023-20.20801-2.75391-29.91211,1.88867c0.4834,3.62305,2.67969,3.45117,5.27539,3.05469
		c8.6709-1.32227,15.1582,2.09375,17.75293,9.48828c0.70313,2.00195,0.56641,4.30078,0.81445,6.46289
		c-0.32129,0.02148-0.64355,0.04297-0.96582,0.06641c-3.97168-11.88672-10.67285-16.54102-18.43359-13.45898
		c0.80176,3.1543,1.87793,6.1582,2.23438,9.24414c0.21777,1.88281-0.37891,4.01367-1.12109,5.82227
		c-2.33203,5.67969-5.60352,10.54492-12.1875,11.95898c4.5-4.30469,9.04883-8.52344,11.05273-14.75977
		c0.80469-2.50391,0.77051-4.48242-0.97656-6.56641c-2.55957-3.05469-4.93164-6.26953-7.31152-9.4707
		c-1.28711-1.73047-2.56543-2.14844-4.78613-1.39648c-3.99414,1.35547-8.1377,2.34961-12.28516,3.14844
		c-4.74707,0.91211-9.49316,0.79688-13.72949-2.01367c-4.26758-2.83008-5.69727-2.78711-7.5332,2.16797
		c-1.96973,5.31641-3.52539,10.94531-4.14941,16.5625c-1.06445,9.56641-1.96387,19.08789-5.2959,28.2207
		c-0.40527,1.11328,0.33008,2.64258,0.68848,4.96875c-3.21094,0.57617-7.16211,1.82031-11.1377,1.89844
		c-11.99756,0.23438-22.22852-5.01367-31.90283-11.41211c-12.86963-8.51172-26.1626-15.70898-41.55029-18.99414
		c-16.64355-3.55469-31.44141-0.47656-44.88135,9.60547c-12.41992,9.31641-16.5708,22.41211-11.57666,36.35352
		c1.60742,4.48828,3.72803,8.80273,8.33936,12.30859c0.82617-8.54297,3.67188-15.4668,9.20264-21.07422
		c5.32568-5.39844,11.54883-9.32031,18.99805-11.0625c-1.16602,1.14063-2.53613,1.92969-3.92773,2.67773
		c-16.28125,8.74805-22.87158,23.88867-17.95313,41.5332c3.93066,14.10352,13.96533,22.40625,27.02832,27.42773
		c15.93018,6.12305,32.48877,5.60742,48.75635,2.37891c13.65332-2.70898,27.11768-6.69141,40.36377-11.03125
		c12.42969-4.07227,24.66895-8.92969,35.09668-17.27148c5.34961-4.2793,8.16113-9.53906,7.18652-16.60938
		c-1.27734-9.26367-2.60547-18.53125-3.42676-27.8418c-1.06055-12.02344-0.64063-23.96875,4.31836-35.29688
		c0.48535-1.10938,1.23047-2.10547,1.85449-3.1543c0.20117,2.15625-0.3623,3.91211-0.85449,5.68555
		c-2.3125,8.3418-2.18262,8.60938,5.86719,11.5293C230.49805,468.49561,232.07227,468.88037,233.60547,469.35107z
		 M285.41016,295.20605c0.39258-0.95801,0.70605-1.61719,0.9375-2.30371c3.42188-10.15332,6.36719-20.49609,10.3457-30.42578
		c7.14648-17.83252,12.95801-35.90967,14.10352-55.24609c0.94531-15.95313-0.66504-31.41699-8.02441-45.91553
		c-16.18652-31.89014-41.7334-53.65088-73.85742-68.28076c-18.78809-8.55566-38.59375-13.56787-58.97949-16.25098
		c-12.5293-1.64941-25.0835-2.14404-37.68408,0.25732c-3.64893,0.69482-4.94678,1.72119-4.16992,5.5918
		c-1.13623-0.72559-1.67871-1.60791-2.4541-2.16602c-0.78271-0.56396-1.94531-1.32129-2.68506-1.10742
		c-5.80469,1.68164-11.54736,3.57666-17.86621,5.5835c3.24268,4.02148,5.93115,7.35596,8.61914,10.68945
		c-0.33887,0.32764-0.67822,0.6543-1.01758,0.98096c-0.79248-0.60498-1.66699-1.12939-2.36084-1.83203
		c-1.31592-1.33105-2.4834-2.80811-3.79248-4.146c-4.42334-4.52148-4.56299-4.72852-10.19434-1.50391
		c-7.56592,4.33105-15.15186,8.70068-22.31152,13.65771c-24.07031,16.66504-41.92822,38.62695-54.13428,65.16895
		C12.24072,184.57861,8.14209,202.146,6.56738,220.34424c-1.42871,16.50293-0.09326,32.68701,5.4624,48.37842
		c7.75781,21.91309,22.46777,38.27002,42.00732,50.09521c11.70605,7.08594,24.26953,12.7793,36.56494,18.86133
		c11.87988,5.875,23.57568,12,34.13428,20.11328c2.43262,1.87109,2.88721,3.49219,1.83203,6.61133
		c-1.48926,4.40234-2.42871,9.19727-2.479,13.83594c-0.08545,7.82422,6.70166,14.4082,14.69824,15.2168
		c2.64404-3.98633,4.55322-4.45898,8.65967-2.26367c0.83984,0.44922,1.88184,0.99609,2.7334,0.86523
		c4.32813-0.66602,7.67188,1.21094,10.28076,4.22656c1.81934,2.10352,3.78174,2.46094,6.28223,2.31641
		c15.98486-0.91602,30.81592-5.86328,45.08838-12.78516c3.4873-1.69141,6.55957-3.66406,8.51172-7.39844
		c1.12988-2.16406,3.40137-4.3418,5.65527-5.17969c4.58496-1.70117,6.67285-4.56836,6.93652-9.29297
		c0.08789-1.56445,0.62891-3.28711,1.49609-4.57813c0.98828-1.4707,2.57227-2.54297,3.90234-3.7832
		c0.97949-0.91406,2.32617-1.63867,2.88477-2.75781c1.72852-3.45898,4.69531-4.32813,7.51172-1.91797
		c2.61035,2.23438,5.21094,4.47852,8.23633,7.08203c12.63184-9.63086,24.50977-20.07227,30.43164-35.45508
		c4.86621-12.63965,1.89551-20.8877-9.26758-28.82959c-0.49902-0.35547-0.85059-0.91699-1.27148-1.38281
		c0.14453-0.21582,0.28809-0.43066,0.43262-0.64648C279.86035,292.79199,282.42871,293.90918,285.41016,295.20605z
		 M77.18213,458.72217c-0.5957-0.38672-0.78613-0.55859-1.00977-0.64453c-0.34814-0.13086-0.71436-0.26367-1.08057-0.29102
		c-17.81494-1.38867-33.99805,2.66211-47.62256,14.70313c-13.70068,12.10938-17.96484,29.63867-11.29004,45.46289
		c4.29346,10.17773,14.4873,17.06836,24.01758,16.23633c-12.26465-18.60938-15.33496-38.53125-6.62598-47.89453
		c-3.15576,11.63477-1.73975,22.21875,2.45068,32.47266c4.35254,10.65039,11.32031,18.49414,23.81543,21.33984
		c-0.8999-2.96289-1.96875-5.14453-2.16846-7.4043c-0.50781-5.75195-2.83447-9.85547-7.10938-14.19336
		c-10.4502-10.60352-11.06543-28.71484-2.36963-40.83984C55.27441,467.79053,64.90625,461.45068,77.18213,458.72217z
		 M214.06738,387.70459c-0.20801-0.19922-0.41504-0.39648-0.62207-0.5957c-2.57617,1.20898-5.0625,2.69336-7.75,3.55273
		c-3.37891,1.08008-5.25977,3.31445-6.88281,6.30664c-3.46484,6.38867-7.24414,12.60742-10.86523,18.8457
		c-2.49609-4.24023-4.57813-8.20508-7.0791-11.88477c-1.89746-2.79102-4.44141-4.38281-8.30859-3.42773
		c-5.76465,1.42578-11.62549,2.18359-15.5127-4.05078c-0.0625-0.09961-0.17871-0.20508-0.28857-0.23242
		c-1.70117-0.41992-3.40527-0.82617-5.10889-1.23438c0.03516,1.85156-0.36133,3.85352,0.21973,5.51563
		c0.66211,1.89258,2.1958,3.48242,3.35059,5.20313c-3.73779-1.95508-6.22607-4.81641-7.01904-8.79102
		c-0.56787-2.84766-2.12305-4.57813-4.84668-3.44141c-0.82178,0.34375-1.18311,3.5-0.68457,5.01758
		c3.10205,9.43555,13.69971,14.91602,24.64014,13.04102c0.98193-0.16797,1.97803-0.25977,2.97656-0.38672
		c-0.771,1.51758-1.84277,2.65039-1.8374,3.78125c0.02344,5.08984-0.15332,10.26367,0.69727,15.24414
		c1.11377,6.52539,5.35205,9.29883,11.9126,8.64453c6.32422-0.63086,12.16895-2.77734,17.42578-6.33789
		c0.86133-0.58203,1.77832-2.02344,1.6709-2.95313c-1.10059-9.50586,2.25098-18,5.95605-26.34766
		C208.45898,397.88232,211.39453,392.85107,214.06738,387.70459z M324.98926,375.83545
		c-0.45508,0.12305-0.91016,0.24609-1.36523,0.37109c-0.87598,2.57422-1.32715,5.4043-2.70605,7.67188
		c-4.3252,7.11914-8.83301,14.14258-13.58496,20.98242c-5.16016,7.42578-6.7793,15.43945-3.50488,23.75977
		c2.29785,5.8418,6.09766,11.07617,8.89063,16.74805c1.22363,2.48438,2.41211,2.66797,4.65332,1.57031
		c5.3125-2.60352,8.97949-6.69727,11.23242-12.06445c5.98145-14.24219,6.57617-28.83984,2.2373-43.57617
		C329.28906,386.02686,326.96191,380.98389,324.98926,375.83545z M194.08105,438.61865
		c-4.75586,1.02539-10.00977,2.68555-15.36426,3.12109c-3.40234,0.27734-5.75684,1.12695-7.33789,3.99414
		c-6.31201,11.44531-12.58594,22.91406-19.09326,34.77344c7.73779,4.62305,15.65283,7.9707,24.53271,8.69727
		c2.72559,0.22266,2.52148-1.78906,2.52832-3.54688c0.02832-8.18359,2.71582-15.3418,8.13086-21.5
		c0.88574-1.00781,1.88184-2.18164,2.15039-3.42578C191.25391,453.22021,192.68359,445.66357,194.08105,438.61865z
		 M180.17188,399.20459c2.62109,3.81055,4.56836,6.79688,6.72559,9.62305c0.375,0.49023,2.22168,0.66602,2.40723,0.37109
		c2.71094-4.31836,5.25488-8.74023,7.83887-13.13867c-0.37598-0.41992-0.75195-0.83984-1.12793-1.26172
		C190.83691,396.23975,185.6582,397.6792,180.17188,399.20459z M187.63086,470.36475
		c-4.57715,2.32617-7.59082,12.4082-5.33203,17.84375C185.20996,486.87451,188.6582,475.3374,187.63086,470.36475z
		 M240.11035,384.90967c-5.08398-0.10352-6.99219,2.6875-6.11523,8.21875
		C236.09277,390.31006,237.85938,387.93506,240.11035,384.90967z"/>
	<linearGradient id="SVGID_1_" gradientUnits="userSpaceOnUse" x1="29.40234" y1="312.76514" x2="293.97726" y2="152.93269">
		<stop  offset="0" style="stop-color:#FFFF00"/>
		<stop  offset="0.90041" style="stop-color:#E1B93C"/>
	</linearGradient>
	<path fill="url(#SVGID_1_)" stroke="#000000" stroke-miterlimit="10" d="M285.41016,295.20605
		c-2.98145-1.29688-5.5498-2.41406-8.11816-3.53027c-0.14453,0.21582-0.28809,0.43066-0.43262,0.64648
		c0.4209,0.46582,0.77246,1.02734,1.27148,1.38281c11.16309,7.94189,14.13379,16.18994,9.26758,28.82959
		c-5.92188,15.38281-17.7998,25.82422-30.43164,35.45508c-3.02539-2.60352-5.62598-4.84766-8.23633-7.08203
		c-2.81641-2.41016-5.7832-1.54102-7.51172,1.91797c-0.55859,1.11914-1.90527,1.84375-2.88477,2.75781
		c-1.33008,1.24023-2.91406,2.3125-3.90234,3.7832c-0.86719,1.29102-1.4082,3.01367-1.49609,4.57813
		c-0.26367,4.72461-2.35156,7.5918-6.93652,9.29297c-2.25391,0.83789-4.52539,3.01563-5.65527,5.17969
		c-1.95215,3.73438-5.02441,5.70703-8.51172,7.39844c-14.27246,6.92188-29.10352,11.86914-45.08838,12.78516
		c-2.50049,0.14453-4.46289-0.21289-6.28223-2.31641c-2.60889-3.01563-5.95264-4.89258-10.28076-4.22656
		c-0.85156,0.13086-1.89355-0.41602-2.7334-0.86523c-4.10645-2.19531-6.01563-1.72266-8.65967,2.26367
		c-7.99658-0.80859-14.78369-7.39258-14.69824-15.2168c0.05029-4.63867,0.98975-9.43359,2.479-13.83594
		c1.05518-3.11914,0.60059-4.74023-1.83203-6.61133c-10.55859-8.11328-22.25439-14.23828-34.13428-20.11328
		c-12.29541-6.08203-24.85889-11.77539-36.56494-18.86133c-19.53955-11.8252-34.24951-28.18213-42.00732-50.09521
		c-5.55566-15.69141-6.89111-31.87549-5.4624-48.37842c1.57471-18.19824,5.67334-35.76563,13.31689-52.38672
		c12.20605-26.54199,30.06396-48.50391,54.13428-65.16895c7.15967-4.95703,14.74561-9.32666,22.31152-13.65771
		c5.63135-3.22461,5.771-3.01758,10.19434,1.50391c1.30908,1.33789,2.47656,2.81494,3.79248,4.146
		c0.69385,0.70264,1.56836,1.22705,2.36084,1.83203c0.33936-0.32666,0.67871-0.65332,1.01758-0.98096
		c-2.68799-3.3335-5.37646-6.66797-8.61914-10.68945c6.31885-2.00684,12.06152-3.90186,17.86621-5.5835
		c0.73975-0.21387,1.90234,0.54346,2.68506,1.10742c0.77539,0.55811,1.31787,1.44043,2.4541,2.16602
		c-0.77686-3.87061,0.521-4.89697,4.16992-5.5918c12.60059-2.40137,25.15479-1.90674,37.68408-0.25732
		c20.38574,2.68311,40.19141,7.69531,58.97949,16.25098c32.12402,14.62988,57.6709,36.39063,73.85742,68.28076
		c7.35938,14.49854,8.96973,29.9624,8.02441,45.91553c-1.14551,19.33643-6.95703,37.41357-14.10352,55.24609
		c-3.97852,9.92969-6.92383,20.27246-10.3457,30.42578C286.11621,293.58887,285.80273,294.24805,285.41016,295.20605z
		 M236.01172,297.14258c-0.39258-2.03613-0.6709-3.74219-1.05371-5.4248C230.8877,273.8374,222.9502,257.59131,213.5,242.06689
		c-6.5127-10.69971-15.06836-19.59766-25.96973-25.97656c-3.60352-2.1084-7.49023-3.73291-10.78613-5.35254
		c3.16504-4.8208,6.72559-9.2085,9.13867-14.15527c3.81738-7.82861,4.2334-12.54541,2.56152-15.92871
		c-0.1748,0.92871-0.2959,1.65234-0.44922,2.36816c-2.02441,9.41064-5.16797,18.26172-12.34668,25.15723
		c-2.07617,1.99316-4.2959,2.64941-7.27344,1.43945c4.77734-11.83545,4.46387-23.54297,0.27881-35.21924
		c0.12988,4.18848,0.86035,8.35205,1.09912,12.54443c0.42236,7.4082-0.04883,14.76855-3.41211,21.56689
		c-0.70361,1.42188-2.2915,2.40576-3.47217,3.59082c-0.36963-0.16992-0.73877-0.33984-1.1084-0.50977
		c0.73926-9.021-0.64648-17.40967-6.55518-24.46045c3.55078,7.47998,5.0791,15.34082,4.42432,23.60547
		c-0.09277,1.17383-0.28418,2.68799-1.0376,3.40576c-5.7666,5.4917-7.07813,12.52148-6.83887,19.93115
		c0.72266,22.36084,9.94629,41.21533,25.63281,56.57178c11.20703,10.97217,23.73438,20.59326,38.18652,28.50635
		c4.85059-11.7959,15.45703-17.13965,25.86719-22.92725C239.68164,296.52246,237.92285,296.81934,236.01172,297.14258z
		 M64.90332,277.16895c-12.77344,3.76855-24.59766,1.03711-36.05713-4.57227c10.36279,8.52051,22.43945,9.35498,35.12646,7.80322
		c-7.82324,5.93994-16.9082,7.07275-26.16309,7.68408c8.35303,1.61426,16.33887,0.4668,23.75244-2.85645
		c0.88672,3.84473,1.32324,7.08203,2.38428,10.10059c3.77979,10.7583,10.75049,19.42236,18.95996,27.03857
		c15.23682,14.13672,33.79297,23.20703,51.2124,33.07031c3.20459-2.22656,5.94385-4.64844,9.11182-6.18945
		c3.28564-1.5957,6.98584-2.3418,10.44531-3.43945c-0.56104-7.87305-3.45898-15.9043-8.80713-23.80273
		c-12.74707-18.82715-30.80029-30.9751-50.99805-40.46094c-7.58203-3.56152-15.63965-4.48193-23.76123-5.96533
		c-12.2627-2.23975-23.9834-6.89063-34.36523-14.19385c-3.2627-2.29492-6.37012-4.81055-9.54883-7.2251
		C35.81299,267.34229,49.82764,273.03174,64.90332,277.16895z M232.46777,342.47607
		c-0.11816-0.47656-0.2373-0.95117-0.35449-1.42773c-6.89844,2.07813-13.55566,2.25781-19.63477-2.20117
		c-0.18555-0.13672-0.47266-0.14453-0.71777-0.1875c-6.11914-1.07227-12.30957-1.8418-18.33789-3.28906
		c-6.44824-1.54688-12.39355-0.64258-18.15332,2.26563c-7.74316,3.91016-12.36377,15.67969-9.37939,23.09766
		c3.24854-1.18945,6.49854-2.37891,9.74951-3.56836c0.22559,0.36914,0.45215,0.74023,0.67773,1.10938
		c-0.88867,1.36719-1.77832,2.73438-2.66699,4.10156c0.14063,0.14844,0.28223,0.29688,0.42285,0.44336
		c1.5498-1.24805,3.09961-2.49609,4.50098-3.625c3.41602,2.08398,6.48047,4.26758,9.80859,5.92383
		c10.30176,5.12305,21.64746,1.92188,26.48926-7.53906c1.38867-2.71484,2.26172-5.80859,2.77148-8.82813
		c0.54785-3.24414,1.64063-4.57813,5.24902-4.4707C226.06348,344.37451,229.27539,343.12842,232.46777,342.47607z
		 M150.28711,140.59131c4.74805-0.18311,10.15137-1.18945,15.25928-0.36621c5.16455,0.83252,10.0376,3.47803,14.6167,5.17383
		C172.22754,136.04736,159.57959,134.05566,150.28711,140.59131z M19.11328,272.5249
		c-0.87354-5.05615-2.47852-9.93896-2.3335-14.76953c0.13965-4.64893,2.08838-9.24414,3.11719-13.3623
		C10.31494,248.29785,13.36621,265.22852,19.11328,272.5249z"/>
	<linearGradient id="SVGID_2_" gradientUnits="userSpaceOnUse" x1="108.17969" y1="514.44678" x2="293.75665" y2="442.60382">
		<stop  offset="0" style="stop-color:#D4872F"/>
		<stop  offset="0.90041" style="stop-color:#E1B93C"/>
	</linearGradient>
	<path fill="url(#SVGID_2_)" stroke="#000000" stroke-miterlimit="10" d="M233.62012,469.34131
		c-1.54785-0.46094-3.12207-0.8457-4.6377-1.39648c-8.0498-2.91992-8.17969-3.1875-5.86719-11.5293
		c0.49219-1.77344,1.05566-3.5293,0.85449-5.68555c-0.62402,1.04883-1.36914,2.04492-1.85449,3.1543
		c-4.95898,11.32813-5.37891,23.27344-4.31836,35.29688c0.82129,9.31055,2.14941,18.57813,3.42676,27.8418
		c0.97461,7.07031-1.83691,12.33008-7.18652,16.60938c-10.42773,8.3418-22.66699,13.19922-35.09668,17.27148
		c-13.24609,4.33984-26.71045,8.32227-40.36377,11.03125c-16.26758,3.22852-32.82617,3.74414-48.75635-2.37891
		c-13.06299-5.02148-23.09766-13.32422-27.02832-27.42773c-4.91846-17.64453,1.67188-32.78516,17.95313-41.5332
		c1.3916-0.74805,2.76172-1.53711,3.92773-2.67773c-7.44922,1.74219-13.67236,5.66406-18.99805,11.0625
		c-5.53076,5.60742-8.37646,12.53125-9.20264,21.07422c-4.61133-3.50586-6.73193-7.82031-8.33936-12.30859
		c-4.99414-13.94141-0.84326-27.03711,11.57666-36.35352c13.43994-10.08203,28.23779-13.16016,44.88135-9.60547
		c15.3877,3.28516,28.68066,10.48242,41.55029,18.99414c9.67432,6.39844,19.90527,11.64648,31.90283,11.41211
		c3.97559-0.07813,7.92676-1.32227,11.1377-1.89844c-0.3584-2.32617-1.09375-3.85547-0.68848-4.96875
		c3.33203-9.13281,4.23145-18.6543,5.2959-28.2207c0.62402-5.61719,2.17969-11.24609,4.14941-16.5625
		c1.83594-4.95508,3.26563-4.99805,7.5332-2.16797c4.23633,2.81055,8.98242,2.92578,13.72949,2.01367
		c4.14746-0.79883,8.29102-1.79297,12.28516-3.14844c2.2207-0.75195,3.49902-0.33398,4.78613,1.39648
		c2.37988,3.20117,4.75195,6.41602,7.31152,9.4707c1.74707,2.08398,1.78125,4.0625,0.97656,6.56641
		c-2.00391,6.23633-6.55273,10.45508-11.05273,14.75977L233.62012,469.34131z"/>
	<radialGradient id="SVGID_3_" cx="257.82813" cy="432.42627" r="104.23779" gradientUnits="userSpaceOnUse">
		<stop  offset="0" style="stop-color:#FFFF00"/>
		<stop  offset="0.90041" style="stop-color:#E1B93C"/>
	</radialGradient>
	<path fill="url(#SVGID_3_)" stroke="#000000" stroke-miterlimit="10" d="M233.50781,469.43311
		c6.58398-1.41406,9.85547-6.2793,12.1875-11.95898c0.74219-1.80859,1.33887-3.93945,1.12109-5.82227
		c-0.35645-3.08594-1.43262-6.08984-2.23438-9.24414c7.76074-3.08203,14.46191,1.57227,18.43359,13.45898
		c0.32227-0.02344,0.64453-0.04492,0.96582-0.06641c-0.24805-2.16211-0.11133-4.46094-0.81445-6.46289
		c-2.59473-7.39453-9.08203-10.81055-17.75293-9.48828c-2.5957,0.39648-4.79199,0.56836-5.27539-3.05469
		c9.7041-4.64258,19.8125-3.12891,29.91211-1.88867c-10.62109-3.67578-21.23047-4.09766-32.65918,0.88086
		c7.32324-6.91797,13.7334-12.97266,20.14453-19.02734c-0.34766-0.38672-0.69434-0.77148-1.04199-1.1582
		c-1.09375,1.03516-2.21777,2.03906-3.27734,3.10742c-8.60156,8.67773-18.35156,15.4668-30.55859,17.87891
		c-3.25781,0.64258-6.74023,0.73047-10.05078,0.39648c-5.79199-0.58398-9.96289-4.80859-9.40918-10.62695
		c0.62988-6.61914,1.50977-13.62891,4.27539-19.53516c4.68262-9.99805,10.72852-19.39063,16.67383-28.73828
		c1.40527-2.20703,4.7627-3.12109,7.0752-4.83008c0.99414-0.73438,1.91504-1.86523,2.3457-3.01172
		c1.29883-3.46289,2.22656-7.06445,3.57031-10.50586c0.30469-0.78125,1.70703-1.13477,2.60449-1.68555
		c0.53906,0.91406,1.5293,1.82813,1.53516,2.74609c0.01758,2.80469-0.34277,5.61133-0.26367,8.47266
		c2.06738-3.50586,3.2627-7.20313,2.3125-11.37109c-0.49121-2.15234-0.89844-4.67969,1.78418-5.25586
		c2.6709-0.57227,3.66016,1.85742,3.81348,4.06445c0.22168,3.20117,0.05664,6.42773,0.93848,9.76953
		c0.64648-3.33594,1.29492-6.67188,1.92969-9.94531c3.04688,1.95508,4.38184,6.73242,2.75977,11.46484
		c-3.07813,8.97656-10.02051,13.59375-18.71582,16.15039c-0.97168,0.28516-2.4209,0.74609-2.65723,1.45508
		c-2.88086,8.63672-5.88867,17.28906-3.29785,26.75c0.07715-1.0957,0.12598-2.19531,0.24023-3.28711
		c0.36035-3.46289,0.5752-6.95703,1.20703-10.37305c0.24316-1.31055,1.36133-2.52148,2.26074-3.63086
		c0.61035-0.75391,1.83301-1.08984,2.27148-1.89258c3.63867-6.65625,9.52344-10.86133,15.39941-15.33398
		c2.82813-2.15234,4.34375-6.24414,5.95605-9.68945c0.88281-1.88477,1.54785-2.15234,3.3125-1.42773
		c4.11523,1.68555,6.56055,4.97656,7.05176,9.03711c0.71289,5.9043,0.53418,11.91602,0.74414,17.88281
		c0.0332,0.96289-0.23242,2.13867,0.21777,2.85156c4.31543,6.83398,8.36621,13.89063,13.29297,20.26563
		c3.34082,4.32227,7.12793,8.46094,12.24805,11.19141c11.90723,6.35547,17.24902,17.1875,18.19336,30.03516
		c1.04102,14.16797-1.22852,27.79297-11.3584,38.75781c-11.65039,12.61328-26.55371,16.66016-43.19043,15.31055
		c-10.85645-0.87891-20.8877-4.41797-30.4082-9.75195c-3.50293-1.96094-5.84668-3.91797-5.5498-8.24414
		c0.15137-2.19531-0.30859-4.43555-0.52441-7.04297c3.28418,1.15234,6.2002,2.17383,9.11523,3.19531
		c0.15918-0.33594,0.31836-0.67188,0.47852-1.00781c-3.56641-2.18359-9.14648-2.26367-9.89258-7.43359
		c-0.6084-4.21289-0.12402-8.58398-0.12402-13.36719c3.16309,0.96094,5.47461,2.01758,7.87109,2.26758
		c1.57422,0.16406,3.26953-0.83398,4.91797-1.31641C233.62012,469.34131,233.50781,469.43311,233.50781,469.43311z"/>
	<linearGradient id="SVGID_4_" gradientUnits="userSpaceOnUse" x1="47.5" y1="503.32861" x2="103.7608" y2="472.60837">
		<stop  offset="0" style="stop-color:#D4872F"/>
		<stop  offset="0.90041" style="stop-color:#E1B93C"/>
	</linearGradient>
	<path fill="url(#SVGID_4_)" stroke="#000000" stroke-miterlimit="10" d="M77.18213,458.72217
		c-12.27588,2.72852-21.90771,9.06836-28.99268,18.94727c-8.6958,12.125-8.08057,30.23633,2.36963,40.83984
		c4.2749,4.33789,6.60156,8.44141,7.10938,14.19336c0.19971,2.25977,1.26855,4.44141,2.16846,7.4043
		c-12.49512-2.8457-19.46289-10.68945-23.81543-21.33984c-4.19043-10.25391-5.60645-20.83789-2.45068-32.47266
		c-8.70898,9.36328-5.63867,29.28516,6.62598,47.89453c-9.53027,0.83203-19.72412-6.05859-24.01758-16.23633
		c-6.6748-15.82422-2.41064-33.35352,11.29004-45.46289c13.62451-12.04102,29.80762-16.0918,47.62256-14.70313
		c0.36621,0.02734,0.73242,0.16016,1.08057,0.29102C76.396,458.16357,76.58643,458.33545,77.18213,458.72217z"/>
	<path fill="#FFFF00" stroke="#000000" stroke-miterlimit="10" d="M214.06738,387.70459
		c-2.67285,5.14648-5.6084,10.17773-7.95605,15.46875c-3.70508,8.34766-7.05664,16.8418-5.95605,26.34766
		c0.10742,0.92969-0.80957,2.37109-1.6709,2.95313c-5.25684,3.56055-11.10156,5.70703-17.42578,6.33789
		c-6.56055,0.6543-10.79883-2.11914-11.9126-8.64453c-0.85059-4.98047-0.67383-10.1543-0.69727-15.24414
		c-0.00537-1.13086,1.06641-2.26367,1.8374-3.78125c-0.99854,0.12695-1.99463,0.21875-2.97656,0.38672
		c-10.94043,1.875-21.53809-3.60547-24.64014-13.04102c-0.49854-1.51758-0.13721-4.67383,0.68457-5.01758
		c2.72363-1.13672,4.27881,0.59375,4.84668,3.44141c0.79297,3.97461,3.28125,6.83594,7.01904,8.79102
		c-1.15479-1.7207-2.68848-3.31055-3.35059-5.20313c-0.58105-1.66211-0.18457-3.66406-0.21973-5.51563
		c1.70361,0.4082,3.40771,0.81445,5.10889,1.23438c0.10986,0.02734,0.22607,0.13281,0.28857,0.23242
		c3.88721,6.23438,9.74805,5.47656,15.5127,4.05078c3.86719-0.95508,6.41113,0.63672,8.30859,3.42773
		c2.50098,3.67969,4.58301,7.64453,7.0791,11.88477c3.62109-6.23828,7.40039-12.45703,10.86523-18.8457
		c1.62305-2.99219,3.50391-5.22656,6.88281-6.30664c2.6875-0.85938,5.17383-2.34375,7.75-3.55273
		C213.65234,387.30811,213.85938,387.50537,214.06738,387.70459z"/>
	<linearGradient id="SVGID_5_" gradientUnits="userSpaceOnUse" x1="308.61816" y1="420.53857" x2="345.39322" y2="393.5206">
		<stop  offset="0" style="stop-color:#FFFF00"/>
		<stop  offset="0.90041" style="stop-color:#E1B93C"/>
	</linearGradient>
	<path fill="url(#SVGID_5_)" stroke="#000000" stroke-miterlimit="10" d="M324.98926,375.83545
		c1.97266,5.14844,4.2998,10.19141,5.85254,15.46289c4.33887,14.73633,3.74414,29.33398-2.2373,43.57617
		c-2.25293,5.36719-5.91992,9.46094-11.23242,12.06445c-2.24121,1.09766-3.42969,0.91406-4.65332-1.57031
		c-2.79297-5.67188-6.59277-10.90625-8.89063-16.74805c-3.27441-8.32031-1.65527-16.33398,3.50488-23.75977
		c4.75195-6.83984,9.25977-13.86328,13.58496-20.98242c1.37891-2.26758,1.83008-5.09766,2.70605-7.67188
		C324.0791,376.08154,324.53418,375.9585,324.98926,375.83545z"/>
	<linearGradient id="SVGID_6_" gradientUnits="userSpaceOnUse" x1="152.28564" y1="463.92041" x2="251.3555" y2="463.92041">
		<stop  offset="0" style="stop-color:#D4872F"/>
		<stop  offset="0.90041" style="stop-color:#E1B93C"/>
	</linearGradient>
	<path fill="url(#SVGID_6_)" stroke="#000000" stroke-miterlimit="10" d="M194.08105,438.61865
		c-1.39746,7.04492-2.82715,14.60156-4.45313,22.11328c-0.26855,1.24414-1.26465,2.41797-2.15039,3.42578
		c-5.41504,6.1582-8.10254,13.31641-8.13086,21.5c-0.00684,1.75781,0.19727,3.76953-2.52832,3.54688
		c-8.87988-0.72656-16.79492-4.07422-24.53271-8.69727c6.50732-11.85938,12.78125-23.32813,19.09326-34.77344
		c1.58105-2.86719,3.93555-3.7168,7.33789-3.99414C184.07129,441.3042,189.3252,439.64404,194.08105,438.61865z"/>
	<path fill-rule="evenodd" clip-rule="evenodd" fill="none" stroke="#FFFFFF" stroke-miterlimit="10" d="M180.17188,399.20459
		c5.48633-1.52539,10.66504-2.96484,15.84375-4.40625c0.37598,0.42188,0.75195,0.8418,1.12793,1.26172
		c-2.58398,4.39844-5.12793,8.82031-7.83887,13.13867c-0.18555,0.29492-2.03223,0.11914-2.40723-0.37109
		C184.74023,406.00146,182.79297,403.01514,180.17188,399.20459z"/>
	<path fill-rule="evenodd" clip-rule="evenodd" fill="none" stroke="#FFFFFF" stroke-miterlimit="10" d="M187.63086,470.36475
		c1.02734,4.97266-2.4209,16.50977-5.33203,17.84375C180.04004,482.77295,183.05371,472.69092,187.63086,470.36475z"/>
	<path fill-rule="evenodd" clip-rule="evenodd" fill="none" stroke="#FFFFFF" stroke-miterlimit="10" d="M240.11035,384.90967
		c-2.25098,3.02539-4.01758,5.40039-6.11523,8.21875C233.11816,387.59717,235.02637,384.80615,240.11035,384.90967z"/>
	<path fill-rule="evenodd" clip-rule="evenodd" d="M236.01172,297.14258c1.91113-0.32324,3.66992-0.62012,5.42773-0.91797
		c-10.41016,5.7876-21.0166,11.13135-25.86719,22.92725c-14.45215-7.91309-26.97949-17.53418-38.18652-28.50635
		c-15.68652-15.35645-24.91016-34.21094-25.63281-56.57178c-0.23926-7.40967,1.07227-14.43945,6.83887-19.93115
		c0.75342-0.71777,0.94482-2.23193,1.0376-3.40576c0.65479-8.26465-0.87354-16.12549-4.42432-23.60547
		c5.90869,7.05078,7.29443,15.43945,6.55518,24.46045c0.36963,0.16992,0.73877,0.33984,1.1084,0.50977
		c1.18066-1.18506,2.76855-2.16895,3.47217-3.59082c3.36328-6.79834,3.83447-14.15869,3.41211-21.56689
		c-0.23877-4.19238-0.96924-8.35596-1.09912-12.54443c4.18506,11.67627,4.49854,23.38379-0.27881,35.21924
		c2.97754,1.20996,5.19727,0.55371,7.27344-1.43945c7.17871-6.89551,10.32227-15.74658,12.34668-25.15723
		c0.15332-0.71582,0.27441-1.43945,0.44922-2.36816c1.67188,3.3833,1.25586,8.1001-2.56152,15.92871
		c-2.41309,4.94678-5.97363,9.33447-9.13867,14.15527c3.2959,1.61963,7.18262,3.24414,10.78613,5.35254
		c10.90137,6.37891,19.45703,15.27686,25.96973,25.97656c9.4502,15.52441,17.3877,31.77051,21.45801,49.65088
		C235.34082,293.40039,235.61914,295.10645,236.01172,297.14258z M214.42383,316.49756
		c1.2666-2.11621,1.99121-3.56934,2.94336-4.85449c1.34668-1.82031,1.16895-2.91602-0.93652-4.08594
		c-12.3877-6.88867-21.37891-17.1333-28.03711-29.43652c-5.09473-9.41553-8.85547-19.31738-8.36035-30.32471
		c0.38281-8.48535,4.84766-14.88525,11.72559-14.97998c3.9502-0.0542,7.94922,2.21094,11.88867,3.54346
		c1.00684,0.34033,1.86914,1.10596,2.79785,1.67578c-7.25195-10.40234-16.09668-18.72314-27.78516-23.40039
		c-12.33643-4.93652-21.04736,0.03027-23.22217,13.12256c-1.7749,10.68213,0.72266,20.89063,4.23096,30.84863
		c3.81201,10.8208,9.23145,20.87061,17.46289,28.94385c6.31738,6.19727,13.2041,11.86279,20.18457,17.32178
		C202.6748,309.06299,208.57324,312.56104,214.42383,316.49756z M224.61133,302.93604
		c-2.39648-1.5918-4.74219-2.82227-6.69727-4.50586c-8.31934-7.16455-14.25586-16.04053-17.72754-26.41992
		c-1.08105-3.23242-1.68164-6.86377-1.45898-10.24414c0.43066-6.55811,6.40234-9.64063,12.24707-6.59912
		c2.18164,1.13525,4.15137,2.73193,6.07227,4.29688c1.83203,1.49365,3.47559,3.21924,5.55957,5.18018
		c-2.05469-4.23438-3.93359-8.01514-5.73047-11.8335c-3.63477-7.72314-9.82617-12.79248-17.28516-16.41992
		c-7.24316-3.52246-13.81543-0.71826-15.70605,7.03223c-0.89453,3.66553-1.17578,7.80371-0.4668,11.4834
		c3.99512,20.72803,14.51855,37.50977,31.60156,50.02002C219.61523,308.28955,221.06445,307.87354,224.61133,302.93604z"/>
	<path fill-rule="evenodd" clip-rule="evenodd" d="M64.90332,277.16895c-15.07568-4.13721-29.09033-9.82666-38.70801-23.00879
		c3.17871,2.41455,6.28613,4.93018,9.54883,7.2251c10.38184,7.30322,22.10254,11.9541,34.36523,14.19385
		c8.12158,1.4834,16.1792,2.40381,23.76123,5.96533c20.19775,9.48584,38.25098,21.63379,50.99805,40.46094
		c5.34814,7.89844,8.24609,15.92969,8.80713,23.80273c-3.45947,1.09766-7.15967,1.84375-10.44531,3.43945
		c-3.16797,1.54102-5.90723,3.96289-9.11182,6.18945c-17.41943-9.86328-35.97559-18.93359-51.2124-33.07031
		c-8.20947-7.61621-15.18018-16.28027-18.95996-27.03857c-1.06104-3.01855-1.49756-6.25586-2.38428-10.10059
		c-7.41357,3.32324-15.39941,4.4707-23.75244,2.85645c9.25488-0.61133,18.33984-1.74414,26.16309-7.68408
		c-12.68701,1.55176-24.76367,0.71729-35.12646-7.80322C40.30566,278.20605,52.12988,280.9375,64.90332,277.16895z
		 M141.55957,347.0874c-1.84326-0.8418-2.96533-1.3418-4.07715-1.86328c-17.36279-8.14844-30.87842-20.48828-40.28174-37.22168
		c-2.06641-3.67773-3.19043-7.69531-1.3999-11.85498c1.6958-3.93945,5.07471-5.48047,9.34229-5.85352
		c-9.91162-6.11914-19.88135-11.70166-31.88086-11.29736c-5.76563,0.19385-8.3374,3.23047-8.11914,8.98486
		c0.07471,1.96484,0.43311,3.99805,1.08838,5.84961c4.69336,13.25342,13.85498,23.27979,24.03223,32.44775
		c12.37939,11.1543,28.04102,17.08789,41.94434,25.82813c0.62793,0.39453,1.84961,0.63281,2.3584,0.29297
		C136.78271,350.91748,138.8374,349.19287,141.55957,347.0874z M129.72266,308.31689
		c0.21875-0.33789,0.43799-0.67578,0.65674-1.01563c-6.49072-4.2168-12.84717-8.66406-19.52588-12.55811
		c-3.70654-2.16211-8.06494-3.39941-11.86572,0.0625c-2.63525,2.40039-2.46826,8.05225,0.75586,12.56006
		c4.48633,6.27344,9.08057,12.55762,14.34521,18.16309c7.90234,8.41406,17.06494,15.36719,27.78125,19.97656
		c1.19873,0.51563,2.72168,0.27539,3.99072,0.37891c-7.05273-6.51172-14.08105-12.30078-20.21436-18.91992
		c-3.72607-4.02148-6.3125-9.19922-8.8877-14.12793c-0.77979-1.49219-0.54102-4.75195,0.53857-5.67969
		c1.50537-1.29492,4.29639-1.70117,6.43213-1.47852C125.79639,305.89502,127.73047,307.38721,129.72266,308.31689z"/>
	<path fill-rule="evenodd" clip-rule="evenodd" d="M232.46777,342.47607c-3.19238,0.65234-6.4043,1.89844-9.5752,1.80469
		c-3.6084-0.10742-4.70117,1.22656-5.24902,4.4707c-0.50977,3.01953-1.38281,6.11328-2.77148,8.82813
		c-4.8418,9.46094-16.1875,12.66211-26.48926,7.53906c-3.32813-1.65625-6.39258-3.83984-9.80859-5.92383
		c-1.40137,1.12891-2.95117,2.37695-4.50098,3.625c-0.14063-0.14648-0.28223-0.29492-0.42285-0.44336
		c0.88867-1.36719,1.77832-2.73438,2.66699-4.10156c-0.22559-0.36914-0.45215-0.74023-0.67773-1.10938
		c-3.25098,1.18945-6.50098,2.37891-9.74951,3.56836c-2.98438-7.41797,1.63623-19.1875,9.37939-23.09766
		c5.75977-2.9082,11.70508-3.8125,18.15332-2.26563c6.02832,1.44727,12.21875,2.2168,18.33789,3.28906
		c0.24512,0.04297,0.53223,0.05078,0.71777,0.1875c6.0791,4.45898,12.73633,4.2793,19.63477,2.20117
		C232.23047,341.5249,232.34961,341.99951,232.46777,342.47607z M210.91797,341.82959
		c-5.44336-1.23047-10.58203-2.79297-15.83398-3.45703c-4.49512-0.56445-9.22559-0.7207-13.66406,0.04297
		c-8.50586,1.46094-14.88428,10.63281-13.74268,17.91016c5.99658-0.26172,11.89697-0.72852,17.79736-0.72461
		c6.71484,0.00391,12.80176-2.01563,18.45508-5.29883C207.0752,348.47412,210.15918,346.2085,210.91797,341.82959z
		 M181.37109,358.09326c10.45117,11.41602,28.74609,7.82031,33.71094-6.07227c0.62793-1.75781,0.92383-3.63086,1.53711-5.39453
		c0.95117-2.73633-0.2832-3.9082-3.02344-4.49023C207.625,356.54834,195.0332,357.90186,181.37109,358.09326z"/>
	<path fill-rule="evenodd" clip-rule="evenodd" d="M150.28711,140.59131c9.29248-6.53564,21.94043-4.54395,29.87598,4.80762
		c-4.5791-1.6958-9.45215-4.34131-14.6167-5.17383C160.43848,139.40186,155.03516,140.4082,150.28711,140.59131z"/>
	<path fill-rule="evenodd" clip-rule="evenodd" d="M19.11328,272.5249c-5.74707-7.29639-8.79834-24.22705,0.78369-28.13184
		c-1.02881,4.11816-2.97754,8.71338-3.11719,13.3623C16.63477,262.58594,18.23975,267.46875,19.11328,272.5249z"/>
	<path fill-rule="evenodd" clip-rule="evenodd" fill="#FFFFFF" d="M214.42383,316.49756
		c-5.85059-3.93652-11.74902-7.43457-17.10742-11.62598c-6.98047-5.45898-13.86719-11.12451-20.18457-17.32178
		c-8.23145-8.07324-13.65088-18.12305-17.46289-28.94385c-3.5083-9.95801-6.00586-20.1665-4.23096-30.84863
		c2.1748-13.09229,10.88574-18.05908,23.22217-13.12256c11.68848,4.67725,20.5332,12.99805,27.78516,23.40039
		c-0.92871-0.56982-1.79102-1.33545-2.79785-1.67578c-3.93945-1.33252-7.93848-3.59766-11.88867-3.54346
		c-6.87793,0.09473-11.34277,6.49463-11.72559,14.97998c-0.49512,11.00732,3.26563,20.90918,8.36035,30.32471
		c6.6582,12.30322,15.64941,22.54785,28.03711,29.43652c2.10547,1.16992,2.2832,2.26563,0.93652,4.08594
		C216.41504,312.92822,215.69043,314.38135,214.42383,316.49756z"/>
	<path fill="#0099FF" stroke="#000000" stroke-miterlimit="10" d="M224.61133,302.93604
		c-3.54688,4.9375-4.99609,5.35352-9.5918,1.99023c-17.08301-12.51025-27.60645-29.29199-31.60156-50.02002
		c-0.70898-3.67969-0.42773-7.81787,0.4668-11.4834c1.89063-7.75049,8.46289-10.55469,15.70605-7.03223
		c7.45898,3.62744,13.65039,8.69678,17.28516,16.41992c1.79688,3.81836,3.67578,7.59912,5.73047,11.8335
		c-2.08398-1.96094-3.72754-3.68652-5.55957-5.18018c-1.9209-1.56494-3.89063-3.16162-6.07227-4.29688
		c-5.84473-3.0415-11.81641,0.04102-12.24707,6.59912c-0.22266,3.38037,0.37793,7.01172,1.45898,10.24414
		c3.47168,10.37939,9.4082,19.25537,17.72754,26.41992C219.86914,300.11377,222.21484,301.34424,224.61133,302.93604z"/>
	<path fill-rule="evenodd" clip-rule="evenodd" fill="#FFFFFF" d="M141.55957,347.0874
		c-2.72217,2.10547-4.77686,3.83008-6.99316,5.3125c-0.50879,0.33984-1.73047,0.10156-2.3584-0.29297
		c-13.90332-8.74023-29.56494-14.67383-41.94434-25.82813c-10.17725-9.16797-19.33887-19.19434-24.03223-32.44775
		c-0.65527-1.85156-1.01367-3.88477-1.08838-5.84961c-0.21826-5.75439,2.35352-8.79102,8.11914-8.98486
		c11.99951-0.4043,21.96924,5.17822,31.88086,11.29736c-4.26758,0.37305-7.64648,1.91406-9.34229,5.85352
		c-1.79053,4.15967-0.6665,8.17725,1.3999,11.85498c9.40332,16.7334,22.91895,29.07324,40.28174,37.22168
		C138.59424,345.74561,139.71631,346.24561,141.55957,347.0874z"/>
	<path fill="#0099CC" stroke="#000000" stroke-miterlimit="10" d="M129.72266,308.31689
		c-1.99219-0.92969-3.92627-2.42188-5.99316-2.63867c-2.13574-0.22266-4.92676,0.18359-6.43213,1.47852
		c-1.07959,0.92773-1.31836,4.1875-0.53857,5.67969c2.5752,4.92871,5.16162,10.10645,8.8877,14.12793
		c6.1333,6.61914,13.16162,12.4082,20.21436,18.91992c-1.26904-0.10352-2.79199,0.13672-3.99072-0.37891
		c-10.71631-4.60938-19.87891-11.5625-27.78125-19.97656c-5.26465-5.60547-9.85889-11.88965-14.34521-18.16309
		c-3.22412-4.50781-3.39111-10.15967-0.75586-12.56006c3.80078-3.46191,8.15918-2.22461,11.86572-0.0625
		c6.67871,3.89404,13.03516,8.34131,19.52588,12.55811C130.16064,307.64111,129.94141,307.979,129.72266,308.31689z"/>
	<path fill="#FF9933" stroke="#000000" stroke-miterlimit="10" d="M210.91797,341.82959
		c-0.75879,4.37891-3.84277,6.64453-6.98828,8.47266c-5.65332,3.2832-11.74023,5.30273-18.45508,5.29883
		c-5.90039-0.00391-11.80078,0.46289-17.79736,0.72461c-1.1416-7.27734,5.23682-16.44922,13.74268-17.91016
		c4.43848-0.76367,9.16895-0.60742,13.66406-0.04297C200.33594,339.03662,205.47461,340.59912,210.91797,341.82959z"/>
	<path fill="#FF9900" stroke="#000000" stroke-miterlimit="10" d="M181.37109,358.09326
		c13.66211-0.19141,26.25391-1.54492,32.22461-15.95703c2.74023,0.58203,3.97461,1.75391,3.02344,4.49023
		c-0.61328,1.76367-0.90918,3.63672-1.53711,5.39453C210.11719,365.91357,191.82227,369.50928,181.37109,358.09326z"/>
</g>
</svg>
