<?xml version="1.0" encoding="utf-8"?>
<!-- Generator: Adobe Illustrator 26.5.0, SVG Export Plug-In . SVG Version: 6.00 Build 0)  -->
<svg version="1.1" id="Back" xmlns="http://www.w3.org/2000/svg" xmlns:xlink="http://www.w3.org/1999/xlink" x="0px" y="0px"
	 viewBox="0 0 600 600" style="enable-background:new 0 0 600 600;" xml:space="preserve">
<style type="text/css">
	.st0{opacity:0;fill:none;}
	.st1{fill:#FFFFFF;}
</style>
<rect id="Back-Button-Background" class="st0" width="600" height="600"/>
<g id="Back-Button">
	<path id="Back-Button-X" class="st1" d="M224.8,193c-7.4,7.4-7.4,18.4,0,25.8l0,0L306,300l-77.5,77.5c-7.4,7.4-7.4,18.4,0,25.8
		c3.7,7.4,14.8,7.4,22.1,3.7l0,0l77.5-77.5l77.5,77.5c7.4,7.4,18.4,7.4,25.8,0c7.4-7.4,7.4-18.4,0-25.8L357.6,300l77.5-77.5
		c7.4-7.4,7.4-18.4,0-25.8c-7.4-7.4-18.4-7.4-25.8-3.7l-77.5,81.1L250.7,193C243.3,189.3,232.2,189.3,224.8,193L224.8,193z"/>
	<path id="Back-Button-Outline" class="st1" d="M516.2,16c40.6,0,73.8,36.9,73.8,81.1v405.7c0,44.3-33.2,81.1-73.8,81.1H254.4
		c-22.1,0-40.6-11.1-55.3-29.5L18.3,325.8c-11.1-14.8-11.1-36.9,0-51.6l177-228.7c18.4-18.4,36.9-29.5,59-29.5H516.2z M254.4,56.6
		c-11.1,0-22.1,3.7-29.5,14.8L47.8,300l177,228.7c7.4,7.4,18.4,14.8,29.5,14.8h261.9c22.1,0,36.9-18.4,36.9-40.6V97.1
		c0-22.1-14.8-40.6-36.9-40.6C516.2,56.6,254.4,56.6,254.4,56.6z"/>
</g>
</svg>
