<?xml version="1.0" encoding="utf-8"?>
<!-- Generator: Adobe Illustrator 25.0.0, SVG Export Plug-In . SVG Version: 6.00 Build 0)  -->
<svg version="1.1" id="Layer_1" xmlns="http://www.w3.org/2000/svg" xmlns:xlink="http://www.w3.org/1999/xlink" x="0px" y="0px"
	 viewBox="0 0 16 16" style="enable-background:new 0 0 16 16;" xml:space="preserve">
<style type="text/css">
	.st0{fill:#FFFFFF;}
</style>
<path class="st0" d="M5.8,5.1c-0.2,0.2-0.2,0.5,0,0.7c0,0,0,0,0,0L8,8l-2.1,2.1c-0.2,0.2-0.2,0.5,0,0.7C6,11,6.3,11,6.5,10.9l0,0
	l2.1-2.1l2.1,2.1c0.2,0.2,0.5,0.2,0.7,0c0.2-0.2,0.2-0.5,0-0.7L9.4,8l2.1-2.1c0.2-0.2,0.2-0.5,0-0.7C11.3,5,11,5,10.8,5.1L8.7,7.3
	L6.5,5.1C6.3,5,6,5,5.8,5.1L5.8,5.1z"/>
<path class="st0" d="M13.7,0.3c1.1,0,2,1,2,2.2v11c0,1.2-0.9,2.2-2,2.2H6.6c-0.6,0-1.1-0.3-1.5-0.8L0.2,8.7c-0.3-0.4-0.3-1,0-1.4
	l4.8-6.2C5.5,0.6,6,0.3,6.6,0.3C6.6,0.3,13.7,0.3,13.7,0.3z M6.6,1.4C6.3,1.4,6,1.5,5.8,1.8L1,8l4.8,6.2c0.2,0.2,0.5,0.4,0.8,0.4
	h7.1c0.6,0,1-0.5,1-1.1v-11c0-0.6-0.4-1.1-1-1.1H6.6z"/>
</svg>
