<?xml version="1.0" encoding="utf-8"?>
<!-- Generator: Adobe Illustrator 27.0.0, SVG Export Plug-In . SVG Version: 6.00 Build 0)  -->
<svg version="1.1" id="Home" xmlns="http://www.w3.org/2000/svg" xmlns:xlink="http://www.w3.org/1999/xlink" x="0px" y="0px"
	 viewBox="0 0 640 640" style="enable-background:new 0 0 640 640;" xml:space="preserve">
<style type="text/css">
	.st0{fill:#FFFFFF;stroke:#000000;stroke-width:2;stroke-miterlimit:10;}
</style>
<path id="Home_1_" class="st0" d="M591.8,240.2L333.7,7.4c-11.2-9.8-26.7-9.8-37.9,0L48.9,226.2c-7,5.5-10.1,13.5-9.8,21.6v360
	c0,4.2,0,16.8,9.8,25.2c4.2,4.2,11.2,7,19.6,7c1.4,0,4.2,0,5.6,0h133.2h0.8H243V457.6h149V640h39.8h0.1h0h122c1.4,0,1.4,0,2.8,0
	c2.8,0,4.2,0,7,0c7,0,18.2-1.4,26.7-8.4c5.6-7,9.8-15.4,9.8-23.8V266.9C600.6,256.5,599.4,246.9,591.8,240.2z M431.9,596V429.6
	c0-15.4-12.6-28.1-28.1-28.1H235.5c-15.4,0-28.1,12.6-28.1,28.1V596H77V253L314,50l246,218v328H431.9z"/>
</svg>
